<svg xmlns="http://www.w3.org/2000/svg" width="721.259" height="445.41" viewBox="0 0 721.259 445.41"><defs><style>.a,.ab,.ad,.ae,.ag,.aj,.ak,.f,.k,.l,.v{fill:none;}.a,.ak,.al{stroke:#dee3fc;}.a,.ab,.ac,.ad,.ae,.ag,.aj,.ak,.al,.k,.v{stroke-miterlimit:10;}.a{stroke-width:0.79px;}.b{fill:#dee3fc;}.c{fill:#a4afff;}.ac,.d{fill:#fff;}.e{fill:#3945ba;}.f{stroke:#698bd1;stroke-dasharray:2.84;}.ae,.ag,.aj,.ak,.f,.l{stroke-linecap:round;}.f,.l{stroke-linejoin:round;}.g{fill:#4b5a9b;}.h{fill:#7f95f4;}.i{fill:#b2c1f9;}.j{fill:#3052ce;}.ac,.ad,.ae,.k,.l{stroke:#495ad6;}.ab,.ac,.ag,.k{stroke-width:0.9px;}.ad,.ae,.l{stroke-width:1.67px;}.m{fill:#f0f4ff;}.n{fill:#3b47bc;}.o{fill:#495ad6;}.p{fill:#281616;}.q{fill:#002c54;}.r{fill:#052635;}.s{fill:#e5918f;}.t{fill:#c7e5f2;}.u{fill:#cc6362;}.ab,.ag,.aj,.v{stroke:#fff;}.v{stroke-width:0.5px;}.w{opacity:0.5;}.x{fill:#375f84;}.y{fill:#467cdb;}.z{fill:#e49191;}.aa{fill:#5996ef;}.af{fill:#193091;}.ah{fill:#6589d1;}.ai{fill:#3b5fb7;}.aj{stroke-width:2px;}.al,.am{fill:#7e89fd;}.an{fill:#b4c1ef;}</style></defs><g transform="translate(0 0.005)"><path class="a" d="M288.74,174.6V161.994a2.232,2.232,0,0,0-2.232-2.232h-3.238a2.036,2.036,0,0,1-2-1.57,44.5,44.5,0,0,0-5.6-13.589,2.073,2.073,0,0,1,.27-2.576l2.281-2.281a2.232,2.232,0,0,0,0-3.152l-8.892-8.892a2.232,2.232,0,0,0-3.152,0l-2.269,2.269a2.073,2.073,0,0,1-2.576.27,44.484,44.484,0,0,0-13.589-5.6,2.036,2.036,0,0,1-1.57-2v-3.226a2.232,2.232,0,0,0-2.232-2.232H231.392a2.232,2.232,0,0,0-2.232,2.232v3.226a2.036,2.036,0,0,1-1.57,2,44.482,44.482,0,0,0-13.6,5.6,2.073,2.073,0,0,1-2.576-.27l-2.244-2.244a2.232,2.232,0,0,0-3.152,0l-8.892,8.855a2.232,2.232,0,0,0,0,3.152L199.394,142a2.073,2.073,0,0,1,.27,2.576,44.519,44.519,0,0,0-5.6,13.589,2.036,2.036,0,0,1-2,1.57h-3.238a2.232,2.232,0,0,0-2.232,2.232V174.6a2.232,2.232,0,0,0,2.232,2.232h3.238a2.036,2.036,0,0,1,2,1.57,44.521,44.521,0,0,0,5.6,13.589,2.073,2.073,0,0,1-.27,2.576l-2.281,2.281a2.232,2.232,0,0,0,0,3.152L206,208.893a2.232,2.232,0,0,0,3.152,0l2.281-2.281a2.073,2.073,0,0,1,2.576-.27,44.519,44.519,0,0,0,13.552,5.544,2.036,2.036,0,0,1,1.594,1.962v3.238a2.232,2.232,0,0,0,2.232,2.232h12.571a2.232,2.232,0,0,0,2.232-2.232v-3.238a2.036,2.036,0,0,1,1.57-2,44.5,44.5,0,0,0,13.589-5.593,2.073,2.073,0,0,1,2.576.27l2.281,2.281a2.232,2.232,0,0,0,3.152,0l8.892-8.892a2.232,2.232,0,0,0,0-3.152l-2.281-2.281a2.073,2.073,0,0,1-.27-2.576,44.5,44.5,0,0,0,5.6-13.589,2.036,2.036,0,0,1,2-1.57h3.238a2.232,2.232,0,0,0,2.2-2.146Zm-51.069,29.153a35.444,35.444,0,1,0,0-.025Z" transform="translate(-51.877 -68.713)"/><path class="b" d="M329.848,205.9v-8.585a1.521,1.521,0,0,0-1.521-1.521h-2.159a1.386,1.386,0,0,1-1.361-1.067,30.317,30.317,0,0,0-3.814-9.26,1.41,1.41,0,0,1,.184-1.754l1.545-1.545a1.521,1.521,0,0,0,0-2.146l-6.059-6.059a1.521,1.521,0,0,0-2.146,0l-1.545,1.545a1.41,1.41,0,0,1-1.754.184,30.319,30.319,0,0,0-9.26-3.814,1.386,1.386,0,0,1-1.067-1.361v-2.232a1.521,1.521,0,0,0-1.521-1.521h-8.585a1.521,1.521,0,0,0-1.521,1.521v2.2a1.386,1.386,0,0,1-1.067,1.361,30.319,30.319,0,0,0-9.26,3.814,1.41,1.41,0,0,1-1.754-.184l-1.545-1.545a1.521,1.521,0,0,0-2.146,0l-6.059,6.059a1.521,1.521,0,0,0,0,2.146l1.545,1.545a1.41,1.41,0,0,1,.184,1.754,30.342,30.342,0,0,0-3.814,9.26,1.386,1.386,0,0,1-1.361,1.067h-2.208a1.521,1.521,0,0,0-1.521,1.521v8.585a1.521,1.521,0,0,0,1.521,1.521h2.208a1.386,1.386,0,0,1,1.361,1.067,30.342,30.342,0,0,0,3.814,9.26,1.41,1.41,0,0,1-.184,1.754l-1.545,1.558a1.521,1.521,0,0,0,0,2.146l6.059,6.059a1.521,1.521,0,0,0,2.146,0l1.558-1.558a1.41,1.41,0,0,1,1.754-.184,30.342,30.342,0,0,0,9.2,3.839,1.386,1.386,0,0,1,1.067,1.361v2.208a1.521,1.521,0,0,0,1.521,1.521h8.585a1.521,1.521,0,0,0,1.521-1.521v-2.208a1.386,1.386,0,0,1,1.067-1.361,30.319,30.319,0,0,0,9.26-3.814,1.41,1.41,0,0,1,1.754.184l1.558,1.558a1.521,1.521,0,0,0,2.146,0l6.059-6.059a1.521,1.521,0,0,0,0-2.146l-1.558-1.558a1.41,1.41,0,0,1-.184-1.754,30.317,30.317,0,0,0,3.814-9.26,1.386,1.386,0,0,1,1.361-1.067h2.208a1.521,1.521,0,0,0,1.521-1.509ZM295.042,224.4a22.776,22.776,0,1,1,.037,0Z" transform="translate(-35.195 -57.486)"/><circle class="c" cx="4.158" cy="4.158" r="4.158" transform="translate(129.206 366.913)"/><circle class="c" cx="4.158" cy="4.158" r="4.158" transform="translate(685.557 253.442)"/><circle class="c" cx="4.158" cy="4.158" r="4.158" transform="translate(677.254 105.153)"/><circle class="c" cx="2.6" cy="2.6" r="2.6" transform="translate(529.505 56.316)"/><circle class="c" cx="2.6" cy="2.6" r="2.6" transform="translate(144.414 21.62)"/><circle class="c" cx="2.6" cy="2.6" r="2.6" transform="translate(202.069 182.026)"/><circle class="c" cx="2.6" cy="2.6" r="2.6" transform="translate(106.504 372.628)"/><circle class="c" cx="4.158" cy="4.158" r="4.158" transform="translate(624.64 369.378)"/><circle class="c" cx="4.158" cy="4.158" r="4.158" transform="translate(712.944 369.378)"/><circle class="c" cx="4.158" cy="4.158" r="4.158" transform="translate(217.056 8.73)"/><circle class="c" cx="5.556" cy="5.556" r="5.556" transform="translate(496.636 196.278)"/><circle class="c" cx="5.556" cy="5.556" r="5.556" transform="translate(86.795 127.572)"/><rect class="d" width="8.622" height="8.622" rx="0.66" transform="translate(74.47 41.562)"/><rect class="d" width="8.622" height="8.622" rx="0.66" transform="translate(85.998 41.562)"/><rect class="d" width="8.622" height="8.622" rx="0.66" transform="translate(97.527 41.562)"/><rect class="b" width="8.622" height="8.622" rx="0.66" transform="translate(661.421 344.162)"/><rect class="b" width="8.622" height="8.622" rx="0.66" transform="translate(672.949 344.162)"/><rect class="b" width="8.622" height="8.622" rx="0.66" transform="translate(684.478 344.162)"/><rect class="b" width="8.622" height="8.622" rx="0.66" transform="translate(128.58 339.44)"/><rect class="b" width="8.622" height="8.622" rx="0.66" transform="translate(140.109 339.44)"/><rect class="b" width="8.622" height="8.622" rx="0.66" transform="translate(151.625 339.44)"/><rect class="e" width="218.307" height="421.725" rx="21.35" transform="translate(256.633 0.39)"/><rect class="d" width="210.127" height="412.036" rx="18.7" transform="translate(260.717 4.094)"/><path class="b" d="M488.57,101.977v365.75a15.527,15.527,0,0,1-15.539,15.539H312.367a15.527,15.527,0,0,1-15.527-15.527V101.977A15.527,15.527,0,0,1,312.367,86.45h26.8a3.925,3.925,0,0,1,3.508,2.171l2.845,5.678a7.677,7.677,0,0,0,6.88,4.268H433a7.678,7.678,0,0,0,6.881-4.269l2.845-5.677a3.925,3.925,0,0,1,3.508-2.171h26.8a15.527,15.527,0,0,1,15.539,15.527Z" transform="translate(-26.912 -75.672)"/><path class="b" d="M415.071,91.92H350.155a2.735,2.735,0,0,1-2.735-2.735h0a2.735,2.735,0,0,1,2.735-2.735h64.916a2.735,2.735,0,0,1,2.735,2.735h0a2.735,2.735,0,0,1-2.735,2.735Z" transform="translate(-15.459 -75.672)"/><rect class="f" width="165.018" height="71.563" rx="8.38" transform="translate(281.407 323.325)"/><rect class="f" width="86.489" height="50.247" rx="6.04" transform="translate(349.745 169.026)"/><rect class="g" width="165.668" height="80.087" rx="7.2" transform="translate(287.417 231.329)"/><path class="h" d="M471.218,269.818v62.463a8.806,8.806,0,0,1-8.818,8.806H315.018a8.806,8.806,0,0,1-8.818-8.806V269.818A8.818,8.818,0,0,1,315.018,261H462.4a8.818,8.818,0,0,1,8.818,8.818Z" transform="translate(-24.793 -36.146)"/><rect class="d" width="55.337" height="55.337" rx="4.86" transform="translate(289.036 243.079)"/><path class="i" d="M402.049,282.277H363.809a1.889,1.889,0,0,1-1.889-1.889h0a1.889,1.889,0,0,1,1.889-1.889h38.241a1.889,1.889,0,0,1,1.889,1.889h0a1.889,1.889,0,0,1-1.889,1.889Z" transform="translate(-12.175 -32.184)"/><path class="i" d="M384.628,288.407h-20.85a1.889,1.889,0,0,1-1.889-1.889h0a1.889,1.889,0,0,1,1.889-1.889h20.85a1.889,1.889,0,0,1,1.889,1.889h0a1.889,1.889,0,0,1-1.889,1.889Z" transform="translate(-12.182 -30.795)"/><path class="i" d="M443.347,288.407H387.029a1.889,1.889,0,0,1-1.889-1.889h0a1.889,1.889,0,0,1,1.889-1.889h56.318a1.889,1.889,0,0,1,1.889,1.889h0a1.889,1.889,0,0,1-1.889,1.889Z" transform="translate(-6.917 -30.795)"/><path class="i" d="M396.015,294.537H363.809a1.889,1.889,0,0,1-1.889-1.889h0a1.889,1.889,0,0,1,1.889-1.889h32.206a1.889,1.889,0,0,1,1.889,1.889h0a1.889,1.889,0,0,1-1.889,1.889Z" transform="translate(-12.175 -29.407)"/><path class="i" d="M416.076,294.537H395.84a1.889,1.889,0,0,1-1.84-1.889h0a1.889,1.889,0,0,1,1.876-1.889h20.2a1.889,1.889,0,0,1,1.889,1.889h0A1.889,1.889,0,0,1,416.076,294.537Z" transform="translate(-4.911 -29.407)"/><path class="i" d="M436.391,294.537H417.749a1.889,1.889,0,0,1-1.889-1.889h0a1.889,1.889,0,0,1,1.889-1.889h18.642a1.889,1.889,0,0,1,1.889,1.889h0a1.889,1.889,0,0,1-1.889,1.889Z" transform="translate(0.039 -29.407)"/><path class="i" d="M448.605,300.7h-84.8a1.889,1.889,0,0,1-1.889-1.889h0a1.889,1.889,0,0,1,1.889-1.889h84.8a1.889,1.889,0,0,1,1.889,1.889h0A1.889,1.889,0,0,1,448.6,300.7Z" transform="translate(-12.175 -28.013)"/><path class="i" d="M410.475,306.8H363.809a1.889,1.889,0,0,1-1.889-1.889h0a1.889,1.889,0,0,1,1.889-1.889h46.666a1.889,1.889,0,0,1,1.889,1.889h0a1.889,1.889,0,0,1-1.889,1.889Z" transform="translate(-12.175 -26.631)"/><path class="i" d="M438.61,306.8H407.949a1.889,1.889,0,0,1-1.889-1.889h0a1.889,1.889,0,0,1,1.889-1.889H438.61a1.889,1.889,0,0,1,1.889,1.889h0a1.889,1.889,0,0,1-1.889,1.889Z" transform="translate(-2.18 -26.631)"/><path class="i" d="M391.232,312.917H363.809a1.889,1.889,0,0,1-1.889-1.889h0a1.889,1.889,0,0,1,1.889-1.889h27.423a1.889,1.889,0,0,1,1.889,1.889h0a1.889,1.889,0,0,1-1.889,1.889Z" transform="translate(-12.175 -25.245)"/><path class="i" d="M419.63,312.917H392.219a1.889,1.889,0,0,1-1.889-1.889h0a1.889,1.889,0,0,1,1.889-1.889h27.423a1.889,1.889,0,0,1,1.889,1.889h0a1.889,1.889,0,0,1-1.9,1.889Z" transform="translate(-5.742 -25.245)"/><path class="i" d="M435.893,312.917H419.949a1.889,1.889,0,0,1-1.889-1.889h0a1.889,1.889,0,0,1,1.889-1.889h15.944a1.889,1.889,0,0,1,1.889,1.889h0a1.889,1.889,0,0,1-1.889,1.889Z" transform="translate(0.537 -25.245)"/><path class="i" d="M402.049,319.047H363.809a1.889,1.889,0,0,1-1.889-1.889h0a1.889,1.889,0,0,1,1.889-1.889h38.24a1.889,1.889,0,0,1,1.889,1.889h0a1.889,1.889,0,0,1-1.889,1.889Z" transform="translate(-12.175 -23.857)"/><path class="i" d="M440.009,282.277H401.769a1.889,1.889,0,0,1-1.889-1.889h0a1.889,1.889,0,0,1,1.889-1.889h38.241a1.889,1.889,0,0,1,1.889,1.889h0a1.889,1.889,0,0,1-1.889,1.889Z" transform="translate(-3.579 -32.184)"/><path class="j" d="M471.218,269.818v2.625H306.2v-2.625A8.818,8.818,0,0,1,315.018,261H462.4a8.818,8.818,0,0,1,8.818,8.818Z" transform="translate(-24.793 -36.146)"/><circle class="b" cx="2.048" cy="2.048" r="2.048" transform="translate(411.226 228.729)"/><circle class="b" cx="2.048" cy="2.048" r="2.048" transform="translate(421.688 228.729)"/><circle class="b" cx="2.048" cy="2.048" r="2.048" transform="translate(432.15 228.729)"/><rect class="k" width="50.198" height="50.198" rx="7.15" transform="translate(291.072 169.075)"/><path class="l" d="M252.746,152.48,245.51,159.7,252.8,167" transform="translate(55.594 34.44)"/><path class="l" d="M264.191,152.48l7.224,7.224L264.13,167" transform="translate(59.81 34.44)"/><line class="l" x1="6.77" y2="14.521" transform="translate(312.78 186.92)"/><rect class="i" width="165.018" height="122.191" rx="8.18" transform="translate(281.407 36.521)"/><circle class="m" cx="23.916" cy="23.916" r="23.916" transform="translate(389.089 44.873)"/><path class="d" d="M403.2,224.541H316.232A10.032,10.032,0,0,1,306.2,214.508V198.43l38.02-65.921a5.163,5.163,0,0,1,8.953,0l28.821,49.769,21.34,36.965A5.077,5.077,0,0,1,403.2,224.541Z" transform="translate(-24.793 -65.829)"/><path class="m" d="M431.225,219.518H348.06l24.455-42.263,13.1-22.824a4.648,4.648,0,0,1,8.058,0Z" transform="translate(-15.314 -60.806)"/><rect class="n" width="64.118" height="96.349" transform="translate(516.75 348.479)"/><rect class="o" width="24.553" height="96.349" transform="translate(605.409 444.829) rotate(180)"/><rect class="i" width="18.029" height="3.078" transform="translate(584.376 352.171)"/><rect class="i" width="18.029" height="3.078" transform="translate(584.376 358.781)"/><rect class="i" width="18.029" height="3.078" transform="translate(584.376 365.392)"/><rect class="i" width="18.029" height="3.078" transform="translate(584.376 371.99)"/><rect class="i" width="18.029" height="3.078" transform="translate(584.376 378.601)"/><rect class="i" width="18.029" height="3.078" transform="translate(584.376 385.199)"/><rect class="i" width="18.029" height="3.078" transform="translate(584.376 391.809)"/><rect class="i" width="18.029" height="3.078" transform="translate(584.376 398.42)"/><rect class="i" width="18.029" height="3.078" transform="translate(584.376 405.018)"/><rect class="i" width="18.029" height="3.078" transform="translate(584.376 411.629)"/><rect class="i" width="18.029" height="3.078" transform="translate(584.376 418.239)"/><rect class="i" width="18.029" height="3.078" transform="translate(584.376 424.837)"/><rect class="i" width="18.029" height="3.078" transform="translate(584.376 431.448)"/><rect class="i" width="18.029" height="3.078" transform="translate(584.376 438.046)"/><path class="p" d="M489.608,442.758h32.587s1.815-5.8-2.122-12.988c0,0-2.625,2.1-10.474.675a34.949,34.949,0,0,1-5.544,3.875C501.774,435.424,488.725,437.987,489.608,442.758Z" transform="translate(16.729 2.071)"/><path class="q" d="M491.6,366.671c2.109,12.559,11.811,55.043,15.944,80.136,7.628.65,11.3-.221,13.233-.675-.38-8.757-1.128-29.692-1.042-38.866.147-15.514.871-35.972-5.961-47.206l-22.971,1.8c.135,1.226.27,2.2.38,2.907S491.475,366.119,491.6,366.671Z" transform="translate(17.009 -13.715)"/><path class="p" d="M441.548,442.758h32.587s1.815-5.8-2.122-12.988c0,0-2.625,2.1-10.474.675A34.949,34.949,0,0,1,456,434.32C453.714,435.424,440.677,437.987,441.548,442.758Z" transform="translate(5.847 2.071)"/><path class="r" d="M457.07,447.465a37.4,37.4,0,0,0,12.865,1.153c1.729-10.094,4.464-32.28,6.929-42.693,3.826-16.177,7.567-38.412,4.906-46.347L459.179,353.9C459.167,354.624,457.328,422.7,457.07,447.465Z" transform="translate(9.371 -15.11)"/><path class="r" d="M546.59,336.427h0c-.454-4.464-.981-7.727-.981-7.727l-25.24,6.132-21.438,4.906c-7.947,1.766-17.55,3.9-26.013,5.813-9.5,2.159-15.809,9.37-13.724,18.887l2.379,11.541c13.282-.184,75.757-6.132,81.092-8.867C548.7,364.12,550.515,353.339,546.59,336.427Z" transform="translate(9.761 -20.816)"/><path class="q" d="M577.308,336.71h0a34.867,34.867,0,0,0-2.625-9.26l-23.585,7.7-21.438,4.906c-7.947,1.766-17.55,3.9-26.013,5.813-9.5,2.159-15.809,9.37-13.724,18.887L492.3,376.3c13.282-.184,68.816-2.122,81.092-8.867C579.307,364.194,581.245,353.622,577.308,336.71Z" transform="translate(16.72 -21.099)"/><path class="s" d="M510.352,305.946s11.21-5.065,14.3,0c1.693,2.784.515,7.947-3.3,10.118s-25.436,11.308-45.832,16.41a49.6,49.6,0,0,0-2.281-5.813,107.362,107.362,0,0,0,18.237-10.179,116.249,116.249,0,0,1,18.863-10.535Z" transform="translate(13.033 -26.478)"/><path class="s" d="M507.553,277l-9.6,38.375s.993,9.7,10.793,4.906,16.25-35.322,16.25-35.322Z" transform="translate(18.628 -32.523)"/><path class="d" d="M522.82,302.533c-1.226-.282-2.318-.6-3.422-.932s-2.183-.675-3.2-1.03a53.962,53.962,0,0,1-14.067-6.893c2.87-12.473,6.328-20.85,9.407-26.381a3.966,3.966,0,0,0,.233-.4l.245-.4a23.989,23.989,0,0,1,6.684-6.954l.809-.564,1.128,20.04.2,2.06Z" transform="translate(19.574 -36.606)"/><path class="t" d="M520.223,298.91c-1.226-.282-2.318-.6-3.422-.932s-2.183-.675-3.2-1.03c1.913-13.491,3.679-21.978,3.679-21.978l.981,2.453Z" transform="translate(22.172 -32.983)"/><path class="d" d="M576.946,269.289c-.233,5.936-1.226,15.453-2.171,25.019-.282,3.029-.564,6.132-.8,9.014-.159,1.827-2.919,11.6-3.029,13.356-.491,8.364-4.587,14.619-.711,27.362a20.062,20.062,0,0,1,1.165,5.875c0,.871-1.128,1.791-1.582,2.036-1.631.944-4.82,1.594-8.708,2.073h0a225.669,225.669,0,0,1-24.161,1.1c-8.352,0-20.85-1.324-22.469-3.434s-.11-4.734.576-8.585c3.078-17.452,1.987-26.552,1.791-39.16v-.957c-.319-19.439-1.594-36.07-.7-42.067l.809-.564c1.325-.908,2.625-1.7,3.876-2.453l.38-.221,1.153-.625a4.342,4.342,0,0,1,.442-.221,95.241,95.241,0,0,1,9.321-3.679l.809-.258c2.232-.135,4.648-.159,7.261-.1,2.269.074,5.74.368,9.517.859h0a98.278,98.278,0,0,1,12.632,2.367h.074a26,26,0,0,1,9.934,6.954,33.592,33.592,0,0,1,4.587,6.3Z" transform="translate(22.208 -38.009)"/><path class="t" d="M561.83,338.634a20.062,20.062,0,0,1,1.165,5.875c0,.871-1.128,1.791-1.582,2.036-1.631.944-4.82,1.594-8.708,2.073,1.594-.2,4.354-2.723,4.354-5.016,0-1.607-2.073-12.424-1.508-19.4s1.7-18.066-.454-26.982-4.207-20.567-4.207-20.567l12.179,7.359s1.57,2.2,3.3,4.906c-.282,3.029-.564,6.132-.8,9.014C565.411,299.756,557.954,325.9,561.83,338.634Z" transform="translate(30.616 -32.602)"/><path class="q" d="M516.13,224.35s1.055,12.73,5.274,13.589,3.189-4.55,3.189-4.55L524,227.343Z" transform="translate(22.745 -44.445)"/><path class="s" d="M533.026,267.888c-8.266-.981-5.176-9.027-4.047-10.866.307-.1,1.717-.527,1.827-.6h0a2.268,2.268,0,0,0,.638-.957c.809-2.122.442-6.341.4-6.611h0v-.76c.135-.5.27-.981.38-1.435l4.342-3.422,9.2-7.236s-2.453,12.093-.478,19.721a2.87,2.87,0,0,0,1.226,1.827h0a2.208,2.208,0,0,0,.92.331C549.755,258.91,546.6,269.482,533.026,267.888Z" transform="translate(25.313 -41.807)"/><path class="u" d="M539.633,242.24a13.724,13.724,0,0,1-8.843,11.786c.809-2.109.441-6.328.417-6.6l3.679-2.882Z" transform="translate(26.064 -40.394)"/><path class="s" d="M517.78,228.163s1.913,26.43,9.051,28.674a18.556,18.556,0,0,0,15.613-7.923c1.877-2.526,4.256-3.1,5.028-6.132,1.226-4.906,3.042-14.116.773-19.623C545.032,215.273,518.05,209.043,517.78,228.163Z" transform="translate(23.118 -46.443)"/><path class="q" d="M549.785,219.622c-.123-4.8-4.979-6.6-4.979-6.6-4.832-2.269-14.889-1.226-25.253,1.03-2.453.54-5.482-.944-7.175.233-2.048,1.423,0,7.923,0,7.923,4,12.105,18.7,8.168,23.131,6.672,1.055,3.115.92,7.445,3.532,9.689,1.5,1.226,4.084,1.312,6.733.871.319.613,1.545,1.165,1.791,2.011.834,2.833.711,7.261.687,10.67l1.226-.613C549.65,250.578,562.552,220.015,549.785,219.622Z" transform="translate(21.689 -47.297)"/><ellipse class="v" cx="3.14" cy="4.035" rx="3.14" ry="4.035" transform="matrix(0.986, -0.168, 0.168, 0.986, 541.362, 187.636)"/><ellipse class="v" cx="3.14" cy="4.035" rx="3.14" ry="4.035" transform="matrix(0.986, -0.168, 0.168, 0.986, 549.982, 186.016)"/><path class="v" d="M523.74,233.177s.38-.613,2.367-.442" transform="translate(24.468 -42.553)"/><line class="v" y1="1.177" x2="7.359" transform="translate(556.916 188.355)"/><path class="s" d="M537.679,240.924c5.078,1.95,6.66-10.547,1.84-11.1-3.679-.417-3.8,4.685-3.8,4.685S534.773,239.857,537.679,240.924Z" transform="translate(27.147 -43.211)"/><g class="w" transform="translate(564.354 188.502)"><path class="u" d="M539.045,231.36a4.366,4.366,0,0,0-.625.9,5.223,5.223,0,0,0-.613,2.134,7.467,7.467,0,0,0,0,1.226,4.384,4.384,0,0,0,.086,1.092l.086.809v.319a2.575,2.575,0,0,1-.184-.258,5.525,5.525,0,0,1-.417-.724,4.907,4.907,0,0,1-.368-1.128,4.713,4.713,0,0,1-.086-1.4,4,4,0,0,1,.368-1.374,3.3,3.3,0,0,1,.736-.993A2.453,2.453,0,0,1,539.045,231.36Z" transform="translate(-536.905 -231.36)"/><path class="u" d="M539.83,233.293a2.185,2.185,0,0,0-.491.135,2.453,2.453,0,0,0-.9.564,2.245,2.245,0,0,0-.527.846,2.588,2.588,0,0,0-.123.429l-.834-.294a3.311,3.311,0,0,1,.307-.491,2.846,2.846,0,0,1,.92-.846,2.783,2.783,0,0,1,1.141-.343,2.218,2.218,0,0,1,.5,0Z" transform="translate(-536.893 -230.926)"/></g><path class="s" d="M581.86,317.118h0c-2.232,2.588-10.695,4.477-14.717.9-1.226-1.141-2.723-4.145-4.145-7.874a243.913,243.913,0,0,1-7.028-23.793l18.949-9.677s2.453,10.928,4.538,21.316v.294c.687,3.324,1.325,6.6,1.815,9.407a1.327,1.327,0,0,1,0,.221,39.734,39.734,0,0,1,.589,9.211Z" transform="translate(31.766 -32.598)"/><path class="d" d="M550.09,277.482c1.827,7.6,7.579,22.076,7.579,22.076a30.011,30.011,0,0,0,13.908-1.68,25.621,25.621,0,0,0,8.855-5.752s-3.814-10.719-7.236-18.4c-3.066-6.917-4.906-9.493-6.243-10.866a30.135,30.135,0,0,0-7.518-5.593Z" transform="translate(30.435 -36.991)"/><path class="d" d="M573.288,282.852l-11.112-4.8L553.42,255.49s1.607.491,3.679,1.337h0l.282.11.159.074c1.889.883,9.211,5.2,14.288,20.85l.123.392c.54,1.8.932,3.262,1.153,4.01v.221A.776.776,0,0,1,573.288,282.852Z" transform="translate(31.189 -37.394)"/><path class="s" d="M587.825,313.23h0c-.159,1.386-.54,2.379-1.226,2.735l-1.778,1.067a94.586,94.586,0,0,1-11.737,6.132,425.1,425.1,0,0,1-41,14.717,48.269,48.269,0,0,0-2.453-5.727,107.446,107.446,0,0,0,17.8-10.928c8.83-6.745,21.549-14.938,21.549-14.938l3.213-3.777s11.406-10.5,13.246-8.389v.294c.27,1.092,1.226,5.127,1.815,9.407a1.327,1.327,0,0,1,0,.221,39.735,39.735,0,0,1,.576,9.186Z" transform="translate(25.802 -28.71)"/><path class="s" d="M533.248,324.828a7.064,7.064,0,0,1-4.5.871c-1.227-.27-1.766-.773-2.7-.944a20.854,20.854,0,0,1-4.636-1.067c-1.226-.6-1.7-.675-1.656.564s2.453,2.293,3.115,2.637a6.217,6.217,0,0,1,1.57,1.57c.086.135-4.035,2.293-5.139,1.852a3.214,3.214,0,0,0-.147,1.545c.184.552,1.03.748,1.1,1.03s-.2.846,0,1.288.944.441,1.226,1.165,0,.724.2,1.472,1.226.883,1.361,1.226.086.834.491,1.1,4.109-.92,5.458-1.509,4.906-5.789,8.965-7.555Z" transform="translate(23.422 -22.046)"/><path class="x" d="M551.4,344H522.58V341.18H551.4a1.41,1.41,0,0,1,1.411,1.41h0A1.41,1.41,0,0,1,551.4,344Z" transform="translate(24.205 -17.99)"/><path class="x" d="M549.77,353.985H477.618a1.926,1.926,0,0,1-1.852-1.41l-14.754-53.142a1.852,1.852,0,0,1,1.778-2.342h69.772a3.679,3.679,0,0,1,3.483,2.649l14.717,52.97a1.018,1.018,0,0,1-.993,1.276Z" transform="translate(10.249 -27.974)"/><path class="y" d="M547.633,353.989H475.481a1.926,1.926,0,0,1-1.852-1.41l-14.717-53.166a1.852,1.852,0,0,1,1.778-2.343h69.723a3.679,3.679,0,0,1,3.483,2.649l14.717,52.97a1.018,1.018,0,0,1-.981,1.3Z" transform="translate(9.773 -27.979)"/><path class="z" d="M298.06,319.623l8.364-8.585a22.382,22.382,0,0,1,.748-4.624c.454-.809,1.631-3.79,2.22-4.121a3.029,3.029,0,0,1,1.754,0,8.056,8.056,0,0,1,1.68-.392,4.9,4.9,0,0,1,1.5.478s1.226-.086,1.766-.086a1.1,1.1,0,0,1,.687.147,36.875,36.875,0,0,1,2.993-3.1c.981-.785,2.453-2.22,2.907-2.208s.6.736.294,1.521a8.685,8.685,0,0,1-1.68,2l-3.8,5.777a8.209,8.209,0,0,0,.993-.478c.343-.221,2.674-2.392,2.809-2.453s1.226-.785,1.791-.086-3.986,6.193-4.722,6.942a40.212,40.212,0,0,1-4.906,2.882s-4.464,8.021-4.906,8.585S298.06,319.623,298.06,319.623Z" transform="translate(-26.636 -27.965)"/><path class="z" d="M310.212,285.833s-4.673,27.043-9.063,27.669c0,0-17.538.711-21.451-20.58-3.385-18.4,10.2-22.395,16.569-20.984S311.574,274.28,310.212,285.833Z" transform="translate(-30.914 -33.728)"/><path class="z" d="M295.046,304.963s-2.453,3.311-3.324,11.332a26.05,26.05,0,0,1-14.043-2.453,99.346,99.346,0,0,0,4.072-23.572" transform="translate(-31.251 -29.518)"/><path class="q" d="M290.429,268.271c-9.591,2.122-8.818,8.095-8.818,8.095-4.489,1.116-5.458,2.968-5.421,11.246s3.029,18.237,4.685,19.047,11.038.846,11.811.564,4.06-7.886,3.3-9.223,0-6.6,2.22-6.795,1.754,3.189,1.754,3.189l1.791-.392,1.386-3.4c12.669.748,15.944-13.687,15.944-13.687C316.05,274.918,300.02,266.149,290.429,268.271Z" transform="translate(-31.588 -34.574)"/><path class="s" d="M201.993,417.512l9.689,1.4-3.213,11.32-10.5-2.649a6.831,6.831,0,0,1,2.183-10.069A3.532,3.532,0,0,1,201.993,417.512Z" transform="translate(-49.607 -0.733)"/><path d="M272.666,401.893l-14.288-43.257s-4.329-1.545-6.549,0c0,0-14.889,8.009-13.295,30.821,1.226,17.17,4.832,35.861,6.3,43.342l-38.118-1.41a12.988,12.988,0,0,0-1.656,12.865s47.9,12.878,54.65,14.067c5.482.969,11.492,1.717,14.386-.773C279.215,453.2,272.666,401.893,272.666,401.893Z" transform="translate(-47.92 -14.193)"/><path class="s" d="M238.823,417.512l9.689,1.4-3.213,11.32-10.5-2.649a6.831,6.831,0,0,1,2.183-10.069A3.533,3.533,0,0,1,238.823,417.512Z" transform="translate(-41.267 -0.733)"/><path class="y" d="M238.148,424c-.221,2.232,1.729,4.231,1.374,4.8s-6.868,11.492-6.868,11.492,4.906,2.146,4.121,5.237h-12.51a10.339,10.339,0,0,1-3.164-7.211,36.156,36.156,0,0,1,3.066-9.125c2.22-4.28,7.273-13.957,7.273-13.957a7.052,7.052,0,0,1,4.158.074,25.216,25.216,0,0,1,6.022,2.7S238.638,418.494,238.148,424Z" transform="translate(-44.063 -1.285)"/><path class="q" d="M333.626,448.359c-3.078-11.479-32.01-60.476-41.809-73.709-20.114-8.732-41.54-16.14-41.54-16.14-8.867,2.122-13.233,19.979-8.2,31.888,3.446,8.168,25.326,28.723,38.731,40.828H243.617s-4.378,6.549-.417,12.767c0,0,61.837,14.055,67.258,14.852s17.6,0,17.6,0S336.214,458.011,333.626,448.359Z" transform="translate(-39.795 -14.066)"/><path class="y" d="M201.3,424c-.221,2.232,1.729,4.231,1.374,4.8s-6.868,11.492-6.868,11.492,4.906,2.146,4.121,5.237H187.464a10.339,10.339,0,0,1-3.164-7.211,36.155,36.155,0,0,1,3.066-9.125c2.22-4.28,7.273-13.957,7.273-13.957a7.052,7.052,0,0,1,4.158.074,25.217,25.217,0,0,1,6.022,2.7S201.838,418.494,201.3,424Z" transform="translate(-52.396 -1.285)"/><path class="z" d="M362.791,308.68l-19.979,35.076-14.288-14.239L316.75,347.092l3.434,1.643-1.226,1.03s27.558,13.417,30.87,10.462,18.691-47.586,18.691-47.586Z" transform="translate(-22.404 -25.349)"/><path class="y" d="M348.541,332.925s-3.765,15.883-11.3,23.413l-19.267-7.359s-8.941,15.036-17.685,26.565c-3.36,4.452-4.477,10.719-8.426,11.541-.245-.086-.478-.159-.724-.221-10.707-3.213-26.5.2-39.541-4.648-14.4-5.36-11.6-8.377-11.6-8.377a185.987,185.987,0,0,0,13.687-32.4,198.68,198.68,0,0,0,4.759-19.513,22.493,22.493,0,0,1,18.936-18.115h.319c10.915-1.386,39.492,1.987,45.047,4.366S348.541,332.925,348.541,332.925Z" transform="translate(-39.833 -26.526)"/><path class="aa" d="M308.361,341.071s-8.941,15.036-17.685,26.565c-3.36,4.452-4.477,10.719-8.426,11.541,1.729-.613,4.6-9.713,5.617-11.762s2.661-4.084,6.194-11.234,8.3-17.661,8.3-17.661Z" transform="translate(-30.216 -18.592)"/><path d="M273.26,417.871a7.824,7.824,0,0,1,.834-.135c.527-.061,1.3-.172,2.22-.208a36.946,36.946,0,0,1,6.745.307,35.481,35.481,0,0,1,3.557.675,26.728,26.728,0,0,1,3.029.9,22.325,22.325,0,0,1,2.073.846c.491.221.76.368.76.368l-.834-.123c-.527-.11-1.226-.208-2.183-.368-1.8-.307-4.182-.687-6.574-1.006-1.226-.184-2.453-.319-3.52-.466l-3.078-.392Z" transform="translate(-32.252 -0.711)"/><path class="z" d="M369.409,299.309a18.763,18.763,0,0,0-3.348,2.453l1.141-2.183a21.427,21.427,0,0,0,2.048-2.244c.54-.8.258-1.594-.172-1.631a16.716,16.716,0,0,0-3.152,2.2l.233-.441a21.434,21.434,0,0,0,2.048-2.244c.54-.8.258-1.594-.172-1.643s-3.888,2.858-3.888,2.858l-1.68,2.257,1.226-2.453a10.623,10.623,0,0,0,1.116-1.7c.442-.9.123-1.165-.123-1.46s-2.576,1.435-3.176,2.134a35.977,35.977,0,0,0-2.625,3.9l-1.95,4.023c-.123-1.226-.319-3.164-.454-4.44-.2-1.827-1.864-2.269-1.913-1.374s-.981,5.274-.773,7.653.613,3.937.76,5.274-1.226,4.01-1.226,4.01,5.556,3.446,6.463,2.453a43.169,43.169,0,0,0,3.814-4.906,25.889,25.889,0,0,0,2.171-4.906l1.729-3.679a21.428,21.428,0,0,0,2.048-2.244C370.1,300.155,369.838,299.358,369.409,299.309Z" transform="translate(-14.12 -28.893)"/><path class="ab" d="M639.6,207.07H574.525a7.555,7.555,0,0,0-7.555,7.555V230a7.555,7.555,0,0,0,6.6,7.493,1.091,1.091,0,0,1,.957,1.079v8.413a.5.5,0,0,0,.908.294l6.635-9.272a1.1,1.1,0,0,1,.9-.454h56.649A7.555,7.555,0,0,0,647.167,230v-15.38a7.555,7.555,0,0,0-7.567-7.555Z" transform="translate(34.257 -48.358)"/><circle class="ab" cx="2.49" cy="2.49" r="2.49" transform="translate(613.786 171.442)"/><circle class="ab" cx="2.49" cy="2.49" r="2.49" transform="translate(626.308 171.442)"/><circle class="ab" cx="2.49" cy="2.49" r="2.49" transform="translate(638.83 171.442)"/><circle class="ab" cx="2.49" cy="2.49" r="2.49" transform="translate(651.352 171.442)"/><circle class="ab" cx="2.49" cy="2.49" r="2.49" transform="translate(663.874 171.442)"/><path class="ab" d="M208.285,262h65.136a7.555,7.555,0,0,1,7.555,7.555v15.38a7.555,7.555,0,0,1-6.6,7.493,1.091,1.091,0,0,0-.957,1.079v8.413a.5.5,0,0,1-.908.294l-6.635-9.272a1.1,1.1,0,0,0-.9-.454h-56.7a7.555,7.555,0,0,1-7.555-7.555V269.592A7.555,7.555,0,0,1,208.285,262Z" transform="translate(-48.676 -35.92)"/><circle class="ab" cx="2.49" cy="2.49" r="2.49" transform="translate(214.701 238.835)"/><circle class="ab" cx="2.49" cy="2.49" r="2.49" transform="translate(202.179 238.835)"/><circle class="ab" cx="2.49" cy="2.49" r="2.49" transform="translate(189.657 238.835)"/><circle class="ab" cx="2.49" cy="2.49" r="2.49" transform="translate(177.135 238.835)"/><circle class="ab" cx="2.49" cy="2.49" r="2.49" transform="translate(164.613 238.835)"/><path class="ac" d="M551.444,182.523H432.823A11.847,11.847,0,0,1,421,170.687h0a11.847,11.847,0,0,1,11.847-11.847H551.469a11.847,11.847,0,0,1,11.8,11.847h0A11.847,11.847,0,0,1,551.444,182.523Z" transform="translate(1.203 -59.28)"/><circle class="ad" cx="6.304" cy="6.304" r="6.304" transform="translate(538.31 104.282)"/><line class="ae" x2="3.471" y2="3.471" transform="translate(549.066 115.038)"/><rect class="af" width="48.751" height="48.751" rx="7.71" transform="translate(333.666 396.654)"/><rect class="o" width="48.751" height="48.751" rx="7.71" transform="translate(324.787 396.654)"/><path class="d" d="M357.108,413.481l13.994,8.033a1.3,1.3,0,0,1,0,2.244l-13.994,8.082a1.3,1.3,0,0,1-1.938-1.116V414.609a1.3,1.3,0,0,1,1.938-1.128Z" transform="translate(-13.704 -1.656)"/><rect class="af" width="63.726" height="63.726" rx="10.08" transform="translate(630.269 381.679)"/><rect class="o" width="63.726" height="63.726" rx="10.08" transform="translate(618.655 381.679)"/><circle class="d" cx="7.653" cy="7.653" r="7.653" transform="translate(642.865 389.651)"/><path class="d" d="M626.072,425.687v11.345a1.852,1.852,0,0,1-1.852,1.852H596.012a1.852,1.852,0,0,1-1.852-1.852V425.724A15.944,15.944,0,0,1,610.1,409.78h0a15.944,15.944,0,0,1,15.968,15.907Z" transform="translate(40.414 -2.456)"/><path class="m" d="M495.979,189.977H470.886a1.889,1.889,0,0,1-1.876-1.889h0a1.889,1.889,0,0,1,1.877-1.889h25.093a1.889,1.889,0,0,1,1.889,1.889h0a1.889,1.889,0,0,1-1.889,1.889Z" transform="translate(12.075 -53.084)"/><path class="m" d="M515.1,189.977H496.969a1.889,1.889,0,0,1-1.889-1.889h0a1.889,1.889,0,0,1,1.889-1.889H515.1a1.889,1.889,0,0,1,1.889,1.889h0a1.889,1.889,0,0,1-1.889,1.889Z" transform="translate(17.978 -53.084)"/><path class="m" d="M481.534,196.688H470.889a1.889,1.889,0,0,1-1.889-1.84h0a1.889,1.889,0,0,1,1.876-1.889h10.646a1.889,1.889,0,0,1,1.889,1.889h0A1.889,1.889,0,0,1,481.534,196.688Z" transform="translate(12.072 -51.554)"/><path class="m" d="M517.863,196.7H484.749a1.889,1.889,0,0,1-1.889-1.889h0a1.889,1.889,0,0,1,1.889-1.889h33.114a1.889,1.889,0,0,1,1.889,1.889h0a1.889,1.889,0,0,1-1.889,1.889Z" transform="translate(15.211 -51.563)"/><path class="m" d="M503.9,203.477H470.886a1.889,1.889,0,0,1-1.876-1.889h0a1.889,1.889,0,0,1,1.877-1.889h33.028a1.889,1.889,0,0,1,1.889,1.889h0a1.889,1.889,0,0,1-1.9,1.889Z" transform="translate(12.075 -50.027)"/><path class="m" d="M513.714,203.477H503.069a1.889,1.889,0,0,1-1.889-1.889h0a1.889,1.889,0,0,1,1.889-1.889h10.646a1.889,1.889,0,0,1,1.889,1.889h0a1.889,1.889,0,0,1-1.889,1.889Z" transform="translate(19.359 -50.027)"/><rect class="af" width="96.84" height="53.534" rx="3.82" transform="translate(98.594 275.653)"/><line class="ag" x2="88.611" transform="translate(102.715 282.889)"/><circle class="d" cx="1.067" cy="1.067" r="1.067" transform="translate(187.916 278.143)"/><circle class="d" cx="1.067" cy="1.067" r="1.067" transform="translate(182.323 278.143)"/><circle class="d" cx="1.079" cy="1.079" r="1.079" transform="translate(176.718 278.13)"/><path class="ah" d="M177.057,314.746H161.984a1.484,1.484,0,0,1-1.484-1.472h0a1.484,1.484,0,0,1,1.484-1.484h15.073a1.484,1.484,0,0,1,1.484,1.484h0a1.484,1.484,0,0,1-1.484,1.472Z" transform="translate(-57.785 -24.645)"/><path class="ah" d="M177.057,320.328H161.984a1.484,1.484,0,0,1-1.484-1.484h0a1.484,1.484,0,0,1,1.484-1.484h15.073a1.484,1.484,0,0,1,1.484,1.484h0a1.484,1.484,0,0,1-1.484,1.484Z" transform="translate(-57.785 -23.384)"/><path class="ah" d="M177.057,325.908H161.984a1.484,1.484,0,0,1-1.484-1.484h0a1.484,1.484,0,0,1,1.484-1.484h15.073a1.484,1.484,0,0,1,1.484,1.484h0A1.484,1.484,0,0,1,177.057,325.908Z" transform="translate(-57.785 -22.12)"/><path class="ah" d="M177.057,331.5H161.984a1.484,1.484,0,0,1-1.484-1.484h0a1.484,1.484,0,0,1,1.484-1.484h15.073a1.484,1.484,0,0,1,1.484,1.484h0A1.484,1.484,0,0,1,177.057,331.5Z" transform="translate(-57.785 -20.855)"/><path class="ah" d="M177.057,337.078H161.984a1.484,1.484,0,0,1-1.484-1.484h0a1.484,1.484,0,0,1,1.484-1.484h15.073a1.484,1.484,0,0,1,1.484,1.484h0A1.484,1.484,0,0,1,177.057,337.078Z" transform="translate(-57.785 -19.591)"/><path class="ah" d="M177.057,342.658H161.984a1.484,1.484,0,0,1-1.484-1.484h0a1.484,1.484,0,0,1,1.484-1.484h15.073a1.484,1.484,0,0,1,1.484,1.484h0a1.484,1.484,0,0,1-1.484,1.484Z" transform="translate(-57.785 -18.328)"/><path class="ai" d="M243.777,314.746H178.984a1.484,1.484,0,0,1-1.484-1.472h0a1.484,1.484,0,0,1,1.484-1.484h64.793a1.484,1.484,0,0,1,1.484,1.484h0a1.484,1.484,0,0,1-1.484,1.472Z" transform="translate(-53.936 -24.645)"/><path class="ai" d="M243.777,320.328H178.984a1.484,1.484,0,0,1-1.484-1.484h0a1.484,1.484,0,0,1,1.484-1.484h64.793a1.484,1.484,0,0,1,1.484,1.484h0a1.484,1.484,0,0,1-1.484,1.484Z" transform="translate(-53.936 -23.384)"/><path class="ai" d="M243.777,325.908H178.984a1.484,1.484,0,0,1-1.484-1.484h0a1.484,1.484,0,0,1,1.484-1.484h64.793a1.484,1.484,0,0,1,1.484,1.484h0A1.484,1.484,0,0,1,243.777,325.908Z" transform="translate(-53.936 -22.12)"/><path class="ai" d="M243.777,331.5H178.984a1.484,1.484,0,0,1-1.484-1.484h0a1.484,1.484,0,0,1,1.484-1.484h64.793a1.484,1.484,0,0,1,1.484,1.484h0A1.484,1.484,0,0,1,243.777,331.5Z" transform="translate(-53.936 -20.855)"/><path class="ai" d="M243.777,337.078H178.984a1.484,1.484,0,0,1-1.484-1.484h0a1.484,1.484,0,0,1,1.484-1.484h64.793a1.484,1.484,0,0,1,1.484,1.484h0A1.484,1.484,0,0,1,243.777,337.078Z" transform="translate(-53.936 -19.591)"/><path class="ai" d="M243.777,342.658H178.984a1.484,1.484,0,0,1-1.484-1.484h0a1.484,1.484,0,0,1,1.484-1.484h64.793a1.484,1.484,0,0,1,1.484,1.484h0a1.484,1.484,0,0,1-1.484,1.484Z" transform="translate(-53.936 -18.328)"/><circle class="a" cx="39.872" cy="39.872" r="39.872" transform="translate(566.138 0.39)"/><circle class="e" cx="34.659" cy="34.659" r="34.659" transform="translate(571.351 5.602)"/><circle class="d" cx="3.152" cy="3.152" r="3.152" transform="translate(602.858 37.11)"/><path class="d" d="M572.732,113.737h0a.981.981,0,0,1-1.337-.38L561.2,94.96a.981.981,0,0,1,.38-1.337h0a.981.981,0,0,1,1.337.38l10.192,18.4a.981.981,0,0,1-.38,1.337Z" transform="translate(32.923 -74.076)"/><path class="d" d="M571.32,110.954h0a.981.981,0,0,1,1.4,0l8.818,8.818a.981.981,0,0,1,0,1.4h0a.981.981,0,0,1-1.4,0L571.32,112.3a.981.981,0,0,1,0-1.349Z" transform="translate(35.181 -70.19)"/><line class="aj" y1="3.986" transform="translate(606.219 8.534)"/><line class="aj" x2="3.986" transform="translate(633.752 40.47)"/><line class="aj" y2="3.986" transform="translate(605.789 68.004)"/><line class="aj" x1="3.986" transform="translate(574.282 40.053)"/><g class="w" transform="translate(578.427 12.679)"><line class="ak" x1="1.999" y1="3.446" transform="translate(11.896 0)"/><line class="ak" y1="1.987" x2="3.459" transform="translate(51.707 11.909)"/><line class="ak" x2="1.987" y2="3.446" transform="translate(41.27 51.719)"/><line class="ak" x1="3.446" y2="1.999" transform="translate(0 41.27)"/></g><g class="w" transform="translate(578.636 12.887)"><line class="ak" x1="3.446" y1="1.987" transform="translate(0 11.332)"/><line class="ak" y1="3.459" x2="1.987" transform="translate(41.429)"/><line class="ak" x2="3.446" y2="1.987" transform="translate(51.29 41.429)"/><line class="ak" x1="1.999" y2="3.459" transform="translate(11.32 51.29)"/></g><rect class="af" width="67.246" height="67.246" rx="9.57" transform="translate(76.824 173.637)"/><rect class="al" width="67.246" height="67.246" rx="7.67" transform="translate(71.612 167.812)"/><path class="b" d="M176.969,238.458h-.356v-3.851a11.467,11.467,0,1,0-22.934,0v3.851h-.086a3.213,3.213,0,0,0-3.213,3.213v14.521a3.213,3.213,0,0,0,3.213,3.213h23.3a3.213,3.213,0,0,0,3.213-3.213V241.684A3.213,3.213,0,0,0,176.969,238.458Zm-20.383-3.851a8.585,8.585,0,0,1,17.17,0v3.851h-17.17Z" transform="translate(-60.077 -44.719)"/><path class="am" d="M166.991,242.411a3.741,3.741,0,1,0-5.629,3.226.675.675,0,0,1,.343.748l-.65,2.453a2.244,2.244,0,1,0,4.342,0l-.638-2.379a.675.675,0,0,1,.343-.76A3.679,3.679,0,0,0,166.991,242.411Z" transform="translate(-58.01 -41.203)"/><path class="b" d="M178.785,257.377H151.8A1.374,1.374,0,0,1,150.43,256h0a1.386,1.386,0,0,1,1.386-1.374H178.8a1.386,1.386,0,0,1,1.386,1.386h0a1.373,1.373,0,0,1-1.4,1.361Z" transform="translate(-60.066 -37.589)"/><path class="b" d="M178.785,261.187H151.8a1.374,1.374,0,0,1-1.374-1.374h0a1.386,1.386,0,0,1,1.386-1.374H178.8a1.386,1.386,0,0,1,1.386,1.386h0a1.374,1.374,0,0,1-1.4,1.361Z" transform="translate(-60.066 -36.726)"/><rect class="af" width="39.59" height="39.59" rx="5.63" transform="translate(629.386 280.35)"/><rect class="al" width="39.59" height="39.59" rx="4.51" transform="translate(626.308 276.916)"/><path class="d" d="M597.226,333.592a1.1,1.1,0,0,1-1.177-1.509l6.083-21.254a1.226,1.226,0,0,1,2.355.662L598.452,332.7A1.227,1.227,0,0,1,597.226,333.592Z" transform="translate(40.831 -25.046)"/><path class="d" d="M605.436,333.613a1.1,1.1,0,0,1-1.177-1.509l5.985-21.193a1.226,1.226,0,1,1,2.355.662l-5.985,21.193A1.227,1.227,0,0,1,605.436,333.613Z" transform="translate(42.69 -25.067)"/><path class="d" d="M616.339,317.133H595.146a1.226,1.226,0,0,1,0-2.453h21.193a1.226,1.226,0,0,1,0,2.453Z" transform="translate(40.36 -23.991)"/><path class="d" d="M616.339,325.023H595.146a1.226,1.226,0,0,1,0-2.453h21.193a1.226,1.226,0,0,1,0,2.453Z" transform="translate(40.36 -22.204)"/><path class="m" d="M230.011,236.62H214.68a1.68,1.68,0,0,1-1.68-1.68h0a1.68,1.68,0,0,1,1.68-1.68h15.331a1.68,1.68,0,0,1,1.68,1.68h0A1.68,1.68,0,0,1,230.011,236.62Z" transform="translate(-45.897 -42.428)"/><path class="m" d="M245.452,242.69H214.68a1.68,1.68,0,0,1-1.68-1.68h0a1.68,1.68,0,0,1,1.68-1.68h30.771a1.68,1.68,0,0,1,1.68,1.68h0a1.68,1.68,0,0,1-1.68,1.68Z" transform="translate(-45.897 -41.053)"/><path class="m" d="M218.33,248.78H214.65a1.68,1.68,0,0,1-1.68-1.68h0a1.68,1.68,0,0,1,1.68-1.68h3.679a1.68,1.68,0,0,1,1.68,1.68h0A1.68,1.68,0,0,1,218.33,248.78Z" transform="translate(-45.904 -39.674)"/><path class="m" d="M243.724,248.78H222.31a1.68,1.68,0,0,1-1.68-1.68h0a1.68,1.68,0,0,1,1.68-1.68h21.426a1.68,1.68,0,0,1,1.68,1.68h0a1.68,1.68,0,0,1-1.692,1.68Z" transform="translate(-44.169 -39.674)"/><path class="m" d="M241.487,236.62h-9.3a1.68,1.68,0,0,1-1.68-1.68h0a1.68,1.68,0,0,1,1.68-1.68h9.3a1.68,1.68,0,0,1,1.68,1.68h0A1.68,1.68,0,0,1,241.487,236.62Z" transform="translate(-41.932 -42.428)"/><path class="d" d="M176.139,424.5a10.645,10.645,0,0,0-5.47,1.5,11.467,11.467,0,0,0-22.849,1.288,11.59,11.59,0,0,0,.074,1.226,8.757,8.757,0,1,0-1.619,17.354h29.864a10.707,10.707,0,1,0,0-21.4Z" transform="translate(-62.999 -1.064)"/><path class="b" d="M112.417,397.342a11.284,11.284,0,0,1,.147-4.808,47.684,47.684,0,0,0-.54-25.927C106.3,348.713,83.08,332.88,83.08,332.88s6.3,26.393,11.48,37.64c3.79,8.229,10.425,17.6,14.116,22.53a11.038,11.038,0,0,1,2.024,4.624,192.552,192.552,0,0,1,3.262,37.149l1.742.074A194.381,194.381,0,0,0,112.417,397.342Z" transform="translate(-75.317 -19.87)"/><path class="an" d="M125.125,377.595a208.935,208.935,0,0,0,6.758-31.765s-20.85,17.17-22.53,30.465a44.63,44.63,0,0,0,1.423,18.519,12.657,12.657,0,0,1,.491,5.028,176.3,176.3,0,0,0-.429,34.782l1.57-.184a173.508,173.508,0,0,1,.245-32.648,12.988,12.988,0,0,1,2.87-6.9,54.541,54.541,0,0,0,9.6-17.293Z" transform="translate(-69.457 -16.937)"/><path class="b" d="M145.69,345.28s-22.432,8.328-28.294,26.638a48.874,48.874,0,0,0-.491,26.786,9.2,9.2,0,0,1,0,4.562,205.539,205.539,0,0,0-5.335,43.183h1.754a204.117,204.117,0,0,1,5.151-42.251,15.846,15.846,0,0,1,2.661-5.678c3.826-5.151,10.339-14.423,14.1-22.6C140.588,364.413,145.69,345.28,145.69,345.28Z" transform="translate(-68.865 -17.062)"/><path class="an" d="M114,420.205a62.241,62.241,0,0,0-5.176-20.359,6.954,6.954,0,0,1-.527-3.679,33.629,33.629,0,0,0-.527-10.952c-1.815-8.99-13.748-28.4-31.017-29.545a125.734,125.734,0,0,1,9.027,17.575C89.652,383.388,95.2,394,104.382,398.068a6.9,6.9,0,0,1,3.557,3.679,60.169,60.169,0,0,1,4.489,18.544Z" transform="translate(-76.75 -14.709)"/><path class="b" d="M98.976,449.409h28.5l7.359-45.194A3.287,3.287,0,0,0,131.6,400.4H94.806a3.287,3.287,0,0,0-3.238,3.814Z" transform="translate(-73.404 -4.58)"/></g></svg>