<svg xmlns="http://www.w3.org/2000/svg" width="39.684" height="26" viewBox="0 0 39.684 26">
  <g id="egypt" transform="translate(0 -88.276)">
    <path id="Path_3623" data-name="Path 3623" d="M39.684,96.943H0V88.96a.684.684,0,0,1,.684-.684H39a.684.684,0,0,1,.684.684v7.982Z" fill="#ff4b55"/>
    <path id="Path_3624" data-name="Path 3624" d="M39,320.576H.684A.684.684,0,0,1,0,319.891v-7.982H39.684v7.982A.684.684,0,0,1,39,320.576Z" transform="translate(0 -206.3)" fill="#464655"/>
    <rect id="Rectangle_134" data-name="Rectangle 134" width="39.684" height="8.666" transform="translate(0 96.943)" fill="#f5f5f5"/>
    <path id="Path_3625" data-name="Path 3625" d="M232.182,213.934a.5.5,0,0,0-.654-.472l-.6.2-.147-.887a1.089,1.089,0,0,0-1.078-.913h-.566l-.592.728h.784l-.219,1.083-.638-.213a.5.5,0,0,0-.654.472v3.68l.881-.881-.415,1.245h-.466v.728h4.369v-.728h-.466l-.415-1.245.881.881v-3.68Zm-2.549,4.044h-.587l.4-1.078.183.234v.844Zm.728,0v-.844l.183-.234.4,1.078Zm-.364-1.32a2.677,2.677,0,0,1-1.081-2.185,1.721,1.721,0,0,0,1.081-.728,1.721,1.721,0,0,0,1.081.728A2.677,2.677,0,0,1,230,216.658Z" transform="translate(-210.156 -114.009)" fill="#f0c727"/>
  </g>
</svg>
