<svg id="logop" xmlns="http://www.w3.org/2000/svg" width="85.685" height="58.446" viewBox="0 0 85.685 58.446">
  <g id="Group_5" data-name="Group 5">
    <path id="Path_1" data-name="Path 1" d="M91.235,94.629c-3,6.362-11.223,7.635-11.223,7.635H17.625s-10.993-2.192-9.95-12.849c1.043-10.639,12.6-11.346,12.6-11.346,3.482-16.542,18.416-12.036,18.416-12.036S41.272,58.222,48.872,56V66.688a1.094,1.094,0,0,0-.513.9,1.078,1.078,0,0,0,2.156,0,1.011,1.011,0,0,0-.513-.9V55.73a24.241,24.241,0,0,1,4.949-.53v7.953a1.094,1.094,0,0,0-.513.9,1.082,1.082,0,0,0,1.078,1.078A1.071,1.071,0,0,0,56.6,64.054a1.011,1.011,0,0,0-.513-.9V55.235a17.585,17.585,0,0,1,5.2,1.06c.018,0,.035.018.071.018h-.088V66.829a1.076,1.076,0,1,0,1.661.9,1.047,1.047,0,0,0-.513-.9V56.755a18.041,18.041,0,0,1,8.731,8.713,9.624,9.624,0,0,1,9.95.689c3.711,2.315,3.817,7.988,3.817,7.988a12.82,12.82,0,0,1,2.315,1.272,14.229,14.229,0,0,1,3.87,4.259,13.739,13.739,0,0,1,1.343,2.439A14.728,14.728,0,0,1,91.235,94.629Z" transform="translate(-7.605 -55.2)" fill="#1ea1db"/>
    <g id="Group_1" data-name="Group 1" transform="translate(12.052 25.962)">
      <path id="Path_2" data-name="Path 2" d="M76.277,202.524a1.581,1.581,0,0,1,1.1-.424,1.563,1.563,0,0,1,1.113.424,1.3,1.3,0,0,1,.46,1.025,1.356,1.356,0,0,1-.46,1.025,1.624,1.624,0,0,1-1.113.424,1.581,1.581,0,0,1-1.1-.424,1.3,1.3,0,0,1-.46-1.025A1.245,1.245,0,0,1,76.277,202.524Zm2.669,13.962a1.356,1.356,0,0,1-.46,1.025,1.624,1.624,0,0,1-1.113.424,1.593,1.593,0,0,1-1.113-.424,1.347,1.347,0,0,1-.46-1.007v-8.448a1.356,1.356,0,0,1,.46-1.025,1.58,1.58,0,0,1,1.1-.424,1.563,1.563,0,0,1,1.113.424,1.323,1.323,0,0,1,.46,1.025v8.43Z" transform="translate(-75.8 -202.1)" fill="#fff" stroke="#fff" stroke-width="1"/>
      <path id="Path_3" data-name="Path 3" d="M110.428,206.642v9.844a1.347,1.347,0,0,1-.46,1.007,1.624,1.624,0,0,1-1.113.424,1.581,1.581,0,0,1-1.1-.424,1.287,1.287,0,0,1-.46-1.007V203.814a1.567,1.567,0,0,1,.548-1.2,1.842,1.842,0,0,1,1.326-.495,2.41,2.41,0,0,1,1.308.353,3.251,3.251,0,0,1,.972.99l6.4,9.932v-9.844a1.356,1.356,0,0,1,.46-1.025,1.58,1.58,0,0,1,1.1-.424,1.563,1.563,0,0,1,1.113.424,1.3,1.3,0,0,1,.46,1.025V216.2a1.447,1.447,0,0,1-.159.672,1.772,1.772,0,0,1-.406.548,1.65,1.65,0,0,1-.583.371,1.952,1.952,0,0,1-.725.124,2.409,2.409,0,0,1-1.308-.353,3.464,3.464,0,0,1-.972-.99Z" transform="translate(-101.733 -202.1)" fill="#fff" stroke="#fff" stroke-width="1"/>
      <path id="Path_4" data-name="Path 4" d="M198.523,237.3a4.907,4.907,0,0,1-2.934-3.057,7.844,7.844,0,0,1,0-4.878,5.426,5.426,0,0,1,1.131-1.873,4.857,4.857,0,0,1,1.8-1.184,6.41,6.41,0,0,1,2.4-.406,6.753,6.753,0,0,1,2.386.406,5.083,5.083,0,0,1,1.8,1.184,4.889,4.889,0,0,1,1.131,1.873,7.844,7.844,0,0,1,0,4.878,5.426,5.426,0,0,1-1.131,1.873,4.857,4.857,0,0,1-1.8,1.184,6.379,6.379,0,0,1-2.386.406A6.783,6.783,0,0,1,198.523,237.3Zm4.666-8.395a3.312,3.312,0,0,0-4.542,0,5.711,5.711,0,0,0,0,5.815,2.879,2.879,0,0,0,2.28.9,2.841,2.841,0,0,0,2.262-.9,4.358,4.358,0,0,0,.8-2.916A4.541,4.541,0,0,0,203.188,228.9Z" transform="translate(-174.098 -221.694)" fill="#fff" stroke="#fff" stroke-width="2"/>
      <path id="Path_5" data-name="Path 5" d="M273.023,235.8a4.907,4.907,0,0,1-2.934-3.058,7.844,7.844,0,0,1,0-4.878,5.425,5.425,0,0,1,1.131-1.873,4.856,4.856,0,0,1,1.8-1.184,6.41,6.41,0,0,1,2.4-.406,6.753,6.753,0,0,1,2.386.406,5.083,5.083,0,0,1,1.8,1.184,4.888,4.888,0,0,1,1.131,1.873,7.843,7.843,0,0,1,0,4.878,5.426,5.426,0,0,1-1.131,1.873,4.857,4.857,0,0,1-1.8,1.184,6.378,6.378,0,0,1-2.386.406A6.077,6.077,0,0,1,273.023,235.8Zm4.666-8.377a3.312,3.312,0,0,0-4.542,0,5.711,5.711,0,0,0,0,5.815,2.879,2.879,0,0,0,2.28.9,2.841,2.841,0,0,0,2.262-.9,4.358,4.358,0,0,0,.8-2.916A4.506,4.506,0,0,0,277.688,227.422Z" transform="translate(-235.431 -220.459)" fill="#fff" stroke="#fff" stroke-width="2"/>
      <path id="Path_6" data-name="Path 6" d="M350.371,226.8v.954a3.576,3.576,0,0,1,2.775-1.856,2.735,2.735,0,0,1,2.156.689,1.716,1.716,0,0,1,.53,1.414,1.019,1.019,0,0,1-.583.884.687.687,0,0,1-.831-.247,2.082,2.082,0,0,0-1.219-.583,2.458,2.458,0,0,0-2.792,2.916v5.85c-.018.583-.371.884-1.1.884s-1.1-.283-1.113-.884V226.8c-.018-.548.353-.813,1.078-.813S350.371,226.249,350.371,226.8Z" transform="translate(-300.055 -221.689)" fill="#fff" stroke="#fff" stroke-width="2"/>
    </g>
    <g id="Group_2" data-name="Group 2" transform="translate(67.953 37.75)">
      <path id="Path_7" data-name="Path 7" d="M395.44,269.935c.194.23.212.424.035.583a.43.43,0,0,1-.566.018,1.187,1.187,0,0,0-.866-.389,1.045,1.045,0,0,0-.8.353,1.157,1.157,0,0,0-.283.937.967.967,0,0,0,.459.848,1.445,1.445,0,0,0,.884.194.836.836,0,0,0,.619-.318.415.415,0,0,1,.53-.159.328.328,0,0,1,.159.495,1.573,1.573,0,0,1-.742.583,2.378,2.378,0,0,1-1.255.106,1.676,1.676,0,0,1-1.131-.583,1.836,1.836,0,0,1-.389-1.219,1.912,1.912,0,0,1,.477-1.29,1.876,1.876,0,0,1,1.379-.619A1.933,1.933,0,0,1,395.44,269.935Z" transform="translate(-392.1 -269.352)" fill="#fff" stroke="#fff" stroke-width="0.5"/>
      <path id="Path_8" data-name="Path 8" d="M419.466,270.179a2.493,2.493,0,0,1-.336,1.926,1.792,1.792,0,0,1-2.545,0,2.342,2.342,0,0,1-.318-1.926,1.44,1.44,0,0,1,1.608-1.379A1.407,1.407,0,0,1,419.466,270.179Zm-2.616.495c0,.9.336,1.361,1.025,1.361s1.025-.46,1.007-1.361-.371-1.361-1.025-1.361S416.868,269.772,416.85,270.673Z" transform="translate(-411.955 -268.8)" fill="#fff" stroke="#fff" stroke-width="0.5"/>
      <path id="Path_9" data-name="Path 9" d="M439.9,285.278a.573.573,0,0,1-.424-.159.477.477,0,0,1-.177-.389.467.467,0,0,1,.177-.371.645.645,0,0,1,.848,0,.467.467,0,0,1,.177.371.477.477,0,0,1-.177.389A.633.633,0,0,1,439.9,285.278Z" transform="translate(-430.958 -281.478)" fill="#fff" stroke="#fff" stroke-width="0.5"/>
      <path id="Path_10" data-name="Path 10" d="M453.1,285.3a.573.573,0,0,1-.424-.159.516.516,0,0,1,0-.778.645.645,0,0,1,.848,0,.768.768,0,0,1,.23.495,1.159,1.159,0,0,1-.177.725,1.888,1.888,0,0,1-.636.6.154.154,0,0,1-.194-.071.128.128,0,0,1,.035-.194C453.066,285.7,453.172,285.49,453.1,285.3Z" transform="translate(-441.825 -281.478)" fill="#fff" stroke="#fff" stroke-width="0.5"/>
    </g>
    <g id="Group_4" data-name="Group 4" transform="translate(30.309 19.777)">
      <g id="Group_3" data-name="Group 3">
        <path id="Path_11" data-name="Path 11" d="M186.063,167.5a.588.588,0,0,1,.672.636c.018.424-.212.654-.672.672h-2.4v7.246c-.018.336-.265.495-.725.495-.477,0-.725-.177-.742-.513v-7.211h-2.386c-.477,0-.707-.23-.707-.672a.579.579,0,0,1,.672-.654Z" transform="translate(-179.1 -167.425)" fill="#09163d"/>
        <path id="Path_12" data-name="Path 12" d="M224.261,188.605a3.416,3.416,0,0,1-2.085-.831,2.9,2.9,0,0,1-.99-2.262,3.391,3.391,0,0,1,.848-2.474,3.089,3.089,0,0,1,2.3-1.043,3.559,3.559,0,0,1,2.28.636,2.989,2.989,0,0,1,.937,2.4.7.7,0,0,1-.583.742h-4.348a1.516,1.516,0,0,0,.654,1.131,2.386,2.386,0,0,0,1.449.424,1.858,1.858,0,0,0,1.432-.619.629.629,0,0,1,.9-.177c.371.194.406.53.088,1.007a3.225,3.225,0,0,1-1.1.813A4.254,4.254,0,0,1,224.261,188.605Zm-.583-5.32a1.606,1.606,0,0,0-1.043,1.343h3.535a1.438,1.438,0,0,0-.884-1.343A2.289,2.289,0,0,0,223.678,183.285Z" transform="translate(-213.746 -179.362)" fill="#09163d"/>
        <path id="Path_13" data-name="Path 13" d="M271.573,183.681c.318.406.336.725.053.972a.678.678,0,0,1-.919.035,1.827,1.827,0,0,0-1.4-.654,1.789,1.789,0,0,0-1.272.583,2.151,2.151,0,0,0-.477,1.591,1.678,1.678,0,0,0,.725,1.449,2.05,2.05,0,0,0,1.414.318,1.343,1.343,0,0,0,1.007-.548.612.612,0,0,1,.866-.265.573.573,0,0,1,.265.831,2.472,2.472,0,0,1-1.184.99,3.52,3.52,0,0,1-2.015.177,2.679,2.679,0,0,1-1.82-1.007,3.184,3.184,0,0,1-.619-2.05,3.525,3.525,0,0,1,.76-2.209,3.3,3.3,0,0,1,4.613-.212Z" transform="translate(-250.806 -180.058)" fill="#09163d"/>
        <path id="Path_14" data-name="Path 14" d="M309.5,167.63v3.111a2.573,2.573,0,0,1,2.651-.848,2.045,2.045,0,0,1,1.8,2.138v3.747c0,.353-.247.513-.725.513s-.707-.177-.689-.53v-3.146q.08-1.3-1.007-1.485a2.123,2.123,0,0,0-2,.919V175.8c-.018.3-.265.46-.725.46s-.689-.159-.707-.495v-8.147c0-.336.23-.513.707-.513S309.5,167.294,309.5,167.63Z" transform="translate(-285.301 -167.1)" fill="#09163d"/>
      </g>
    </g>
  </g>
  <g id="Group_7" data-name="Group 7" transform="translate(13.608 52.737)">
    <g id="Group_6" data-name="Group 6">
      <path id="Path_15" data-name="Path 15" d="M87.039,362.537a.153.153,0,0,1-.053.106.887.887,0,0,0-.212-.035.672.672,0,0,0-.389.106.4.4,0,0,0-.194.336.646.646,0,0,0,.194.353,3.647,3.647,0,0,1,.371.442,1.23,1.23,0,0,1,.194.654,1.188,1.188,0,0,1-.071.424.952.952,0,0,1-.23.371,2.4,2.4,0,0,1-.672.424,1.88,1.88,0,0,1-.76.177c-.053,0-.159-.141-.353-.424a1.653,1.653,0,0,1-.265-.53.038.038,0,0,1,.035-.035c.177-.035.371-.071.548-.106.23-.071.336-.194.336-.371a.707.707,0,0,0-.194-.406q-.345-.4-.371-.424a1.1,1.1,0,0,1-.194-.6,1.234,1.234,0,0,1,.583-1.025,1.924,1.924,0,0,1,1.131-.371c.035,0,.141.141.3.424A2.629,2.629,0,0,1,87.039,362.537Z" transform="translate(-84.6 -360.186)"/>
      <path id="Path_16" data-name="Path 16" d="M109.7,366.764a.141.141,0,0,1-.124.159,9.617,9.617,0,0,1-1.166,0,.184.184,0,0,1-.124-.194c0-.124,0-.3.018-.548,0-.247.018-.424.018-.548,0-.46,0-.8-.018-.99-.018-.318-.159-.477-.442-.477a.573.573,0,0,0-.371.159.483.483,0,0,0-.194.353c-.018.106-.018.442-.018.972,0,.124,0,.318.018.566,0,.247.018.442.018.566,0,.088-.035.124-.106.124h-1.184q-.106,0-.106-.159c0-.124,0-.318.018-.566,0-.247.018-.442.018-.566v-.884c0-.389-.141-.566-.424-.566a.753.753,0,0,0-.371.141c-.141.106-.212.194-.212.318v2.156c0,.071,0,.106-.018.124a.169.169,0,0,1-.124.035,4.508,4.508,0,0,1-.548.018c-.159,0-.353,0-.548-.018-.071,0-.106-.018-.106-.035-.018-.018-.018-.053-.018-.124v-1.909c0-.442-.035-.919-.088-1.467v-.071a.082.082,0,0,1,.053-.088,1.872,1.872,0,0,1,.318-.053c.194-.018.318-.035.353-.035.018,0,.124-.035.3-.088a1.191,1.191,0,0,1,.3-.053c.053,0,.071.088.071.283,0,.177.018.283.035.283a.386.386,0,0,1,.088-.053,3.7,3.7,0,0,1,.548-.389,1.364,1.364,0,0,1,.654-.141,1.307,1.307,0,0,1,.636.159.827.827,0,0,1,.406.513,1.512,1.512,0,0,1,.566-.477,1.581,1.581,0,0,1,.707-.194,1.364,1.364,0,0,1,.831.247.9.9,0,0,1,.371.778c0,.141,0,.353-.018.636s-.018.495-.018.636c0,.159,0,.424.018.76C109.7,366.358,109.7,366.605,109.7,366.764Z" transform="translate(-100.16 -361.339)"/>
      <path id="Path_17" data-name="Path 17" d="M147.783,364.679c0,.212.018.513.035.919s.035.707.035.9a.161.161,0,0,1-.141.177c-.318.018-.689.035-1.1.035-.053,0-.088-.071-.106-.23s-.035-.23-.053-.23c-.018.018-.053.035-.088.071a1.266,1.266,0,0,1-.937.442,1.556,1.556,0,0,1-1.255-.619,2.109,2.109,0,0,1-.477-1.379,2.2,2.2,0,0,1,.477-1.485,1.726,1.726,0,0,1,1.379-.583,1.127,1.127,0,0,1,.954.442c.018.018.018.018.035.018s.053-.071.088-.194.071-.194.106-.194a3.99,3.99,0,0,1,.548.088,5.657,5.657,0,0,1,.548.141c.035.018.053.035.053.071a.237.237,0,0,1-.018.088A13.8,13.8,0,0,0,147.783,364.679Zm-1.255.018a.8.8,0,0,0-.212-.566.745.745,0,0,0-.548-.23.732.732,0,0,0-.548.212.774.774,0,0,0-.212.566.76.76,0,0,0,.212.548.672.672,0,0,0,.53.23.709.709,0,0,0,.548-.23A.6.6,0,0,0,146.528,364.7Z" transform="translate(-133.255 -361.092)"/>
      <path id="Path_18" data-name="Path 18" d="M175.169,364.349a.141.141,0,0,1-.159.159,1.015,1.015,0,0,1-.212-.018c-.088,0-.159-.018-.212-.018a.7.7,0,0,0-.442.106.6.6,0,0,0-.124.424v1.025a3.044,3.044,0,0,0,.018.353,2.787,2.787,0,0,1,.018.336c0,.071-.035.106-.124.106a4.83,4.83,0,0,1-.566.018,5.341,5.341,0,0,1-.583-.018c-.088-.018-.124-.053-.124-.124v-1.909a6.223,6.223,0,0,0-.159-1.538V363.2a.1.1,0,0,1,.053-.088c.141-.018.353-.053.619-.088.406-.088.619-.124.636-.124.053,0,.071.088.088.247s.035.247.071.247q-.053,0,.318-.212a1.473,1.473,0,0,1,.725-.212c.141,0,.212.035.212.088a2.639,2.639,0,0,1-.018.336,2.743,2.743,0,0,1-.035.318v.636Z" transform="translate(-156.965 -361.256)"/>
      <path id="Path_19" data-name="Path 19" d="M193.545,359.912c0,.088-.018.194-.035.371-.018.159-.035.283-.035.353s0,.124-.018.141a.44.44,0,0,1-.124.088,2.175,2.175,0,0,1-1.113.283c-.742,0-1.113-.3-1.113-.884,0-.177,0-.442.018-.8s.018-.619.018-.8c0-.124-.071-.177-.194-.177h-.106c-.106,0-.141-.035-.141-.106a.951.951,0,0,1,.018-.194.952.952,0,0,0,.018-.194,1.444,1.444,0,0,0-.018-.247c0-.106-.018-.194-.018-.247s.088-.088.247-.088c.088,0,.141-.035.159-.088a3.427,3.427,0,0,0,.018-.477c-.018-.336-.018-.513-.018-.495,0-.3.035-.46.088-.46a1.193,1.193,0,0,1,.3.053,1.514,1.514,0,0,0,.3.053c.124.018.336.035.6.071.071,0,.088.035.088.071,0,.106,0,.265-.018.477s-.018.371-.018.495.035.194.106.194a3.9,3.9,0,0,0,.406-.018,4.014,4.014,0,0,1,.424-.018c.053,0,.088.018.088.053a1.951,1.951,0,0,1-.018.283,1.832,1.832,0,0,0-.018.283v.566c0,.053-.035.088-.106.088h-.813c-.035,0-.053.053-.053.177v.566a.946.946,0,0,0,.071.46.469.469,0,0,0,.406.177,1.084,1.084,0,0,0,.283-.053,1.229,1.229,0,0,1,.247-.053C193.528,359.823,193.545,359.841,193.545,359.912Z" transform="translate(-171.949 -355.493)"/>
      <path id="Path_20" data-name="Path 20" d="M225.739,362.537a.153.153,0,0,1-.053.106.887.887,0,0,0-.212-.035.672.672,0,0,0-.389.106.4.4,0,0,0-.194.336.646.646,0,0,0,.194.353,3.648,3.648,0,0,1,.371.442,1.23,1.23,0,0,1,.194.654,1.188,1.188,0,0,1-.071.424.952.952,0,0,1-.23.371,2.4,2.4,0,0,1-.672.424,1.88,1.88,0,0,1-.76.177c-.053,0-.159-.141-.353-.424a1.653,1.653,0,0,1-.265-.53.038.038,0,0,1,.035-.035c.177-.035.371-.071.548-.106.23-.071.336-.194.336-.371a.707.707,0,0,0-.194-.406q-.345-.4-.371-.424a1.1,1.1,0,0,1-.194-.6,1.234,1.234,0,0,1,.583-1.025,1.924,1.924,0,0,1,1.131-.371c.035,0,.141.141.3.424A2.63,2.63,0,0,1,225.739,362.537Z" transform="translate(-198.787 -360.186)"/>
      <path id="Path_21" data-name="Path 21" d="M244.941,364.55a1.987,1.987,0,0,1-.548,1.467A1.972,1.972,0,0,1,241,364.585a2.137,2.137,0,0,1,.53-1.5,1.839,1.839,0,0,1,1.432-.583,1.876,1.876,0,0,1,1.414.566A2,2,0,0,1,244.941,364.55Zm-1.272,0a.864.864,0,0,0-.194-.548.6.6,0,0,0-.495-.247.653.653,0,0,0-.513.247.864.864,0,0,0-.194.548.829.829,0,0,0,.194.548.628.628,0,0,0,.513.247.619.619,0,0,0,.495-.247A.774.774,0,0,0,243.669,364.55Z" transform="translate(-213.359 -360.927)"/>
      <path id="Path_22" data-name="Path 22" d="M269.067,356.781v1.679a2.693,2.693,0,0,0,.018.318c0,.141.018.247.018.318a.112.112,0,0,1-.088.106,4.522,4.522,0,0,1-.636.035,3.573,3.573,0,0,1-.6-.035.112.112,0,0,1-.088-.106v-3.817a12.37,12.37,0,0,0-.088-1.52v-.071c0-.053.035-.088.106-.088h1.379c.071,0,.088.035.088.088v.071Q269.067,355.456,269.067,356.781Z" transform="translate(-235.258 -353.6)"/>
      <path id="Path_23" data-name="Path 23" d="M285.894,363.959c0,.194-.018.495-.035.884s-.035.689-.035.884,0,.477.018.866.018.672.018.866a.14.14,0,0,1-.088.141,2.537,2.537,0,0,1-.619.035,4.692,4.692,0,0,1-.583-.018.083.083,0,0,1-.088-.088c0-.088-.018-.159-.018-.247-.018-.124-.035-.177-.053-.177.035,0-.088.088-.389.265a1.623,1.623,0,0,1-.813.265,1.1,1.1,0,0,1-1.219-.954,7.686,7.686,0,0,1-.088-1.29,6.071,6.071,0,0,1,.141-1.432q.053-.159.159-.159h1.1c.088,0,.124.035.124.106v.088a7.429,7.429,0,0,0-.088,1.1c0,.46.018.778.035.954a.465.465,0,0,0,.513.442.655.655,0,0,0,.371-.159.485.485,0,0,0,.212-.318v-2c0-.088,0-.141.018-.159a.229.229,0,0,1,.141-.035h1.131c.071,0,.124.018.141.053Z" transform="translate(-247.03 -361.997)"/>
      <path id="Path_24" data-name="Path 24" d="M311.545,359.912c0,.088-.018.194-.035.371-.018.159-.035.283-.035.353s0,.124-.018.141a.439.439,0,0,1-.124.088,2.175,2.175,0,0,1-1.113.283c-.742,0-1.113-.3-1.113-.884,0-.177,0-.442.018-.8s.018-.619.018-.8c0-.124-.071-.177-.194-.177h-.106c-.106,0-.141-.035-.141-.106a.952.952,0,0,1,.018-.194.952.952,0,0,0,.018-.194,1.444,1.444,0,0,0-.018-.247c0-.106-.018-.194-.018-.247s.088-.088.247-.088c.088,0,.141-.035.159-.088a3.43,3.43,0,0,0,.018-.477c-.018-.336-.018-.513-.018-.495,0-.3.035-.46.088-.46a1.192,1.192,0,0,1,.3.053,1.514,1.514,0,0,0,.3.053c.124.018.336.035.6.071.071,0,.088.035.088.071,0,.106,0,.265-.018.477s-.018.371-.018.495.035.194.106.194a3.9,3.9,0,0,0,.406-.018c.177,0,.318-.018.424-.018.053,0,.088.018.088.053a1.953,1.953,0,0,1-.018.283,1.832,1.832,0,0,0-.018.283v.566c0,.053-.035.088-.106.088h-.813c-.035,0-.053.053-.053.177v.566a.946.946,0,0,0,.071.46.469.469,0,0,0,.406.177,1.084,1.084,0,0,0,.283-.053,1.23,1.23,0,0,1,.247-.053C311.51,359.823,311.545,359.841,311.545,359.912Z" transform="translate(-269.094 -355.493)"/>
      <path id="Path_25" data-name="Path 25" d="M330.432,357.841c0,.194,0,.477.018.866,0,.389.018.672.018.866a.112.112,0,0,1-.088.106,10.226,10.226,0,0,1-1.2,0,.287.287,0,0,1-.106-.053V359.5c0-.177,0-.46.018-.831s.018-.654.018-.831a15.581,15.581,0,0,0-.088-1.8v-.088c0-.053.035-.088.106-.088a2.792,2.792,0,0,1,.336.018,3.194,3.194,0,0,0,.672,0,2.645,2.645,0,0,1,.336-.018c.071,0,.088.035.088.088v.071A11.483,11.483,0,0,0,330.432,357.841Zm.106-2.951c0,.46-.247.689-.76.689a.849.849,0,0,1-.548-.177.614.614,0,0,1-.23-.513.653.653,0,0,1,.247-.513.77.77,0,0,1,.53-.177.852.852,0,0,1,.53.194A.63.63,0,0,1,330.538,354.889Z" transform="translate(-285.806 -354.094)"/>
      <path id="Path_26" data-name="Path 26" d="M346.041,364.55a1.987,1.987,0,0,1-.548,1.467,1.972,1.972,0,0,1-3.393-1.432,2.137,2.137,0,0,1,.53-1.5,1.839,1.839,0,0,1,1.432-.583,1.876,1.876,0,0,1,1.414.566A2,2,0,0,1,346.041,364.55Zm-1.272,0a.864.864,0,0,0-.194-.548.6.6,0,0,0-.495-.247.653.653,0,0,0-.513.247.864.864,0,0,0-.194.548.829.829,0,0,0,.194.548.628.628,0,0,0,.513.247.619.619,0,0,0,.495-.247A.775.775,0,0,0,344.769,364.55Z" transform="translate(-296.591 -360.927)"/>
      <path id="Path_27" data-name="Path 27" d="M372.623,366.8a.117.117,0,0,1-.106.124,3.907,3.907,0,0,1-.566.018,4.379,4.379,0,0,1-.6-.018.155.155,0,0,1-.124-.159c0-.124,0-.318.018-.566,0-.247.018-.442.018-.566v-.884c0-.371-.159-.548-.46-.548a.7.7,0,0,0-.353.141c-.141.106-.212.194-.212.3V366.8c0,.088-.035.141-.124.141a4.037,4.037,0,0,1-.548.018,4.362,4.362,0,0,1-.583-.018c-.088-.018-.124-.053-.124-.124v-1.873a5.992,5.992,0,0,0-.159-1.555v-.053a.1.1,0,0,1,.053-.088c.159-.018.389-.053.654-.088a5.657,5.657,0,0,1,.689-.124c.035,0,.053.088.071.265s.035.265.071.265c-.035,0,.106-.088.424-.283a1.726,1.726,0,0,1,.813-.283,1.4,1.4,0,0,1,.831.247.892.892,0,0,1,.371.76v2.05A4.232,4.232,0,0,0,372.623,366.8Z" transform="translate(-318.49 -361.339)"/>
      <path id="Path_28" data-name="Path 28" d="M397.939,362.537a.153.153,0,0,1-.053.106.887.887,0,0,0-.212-.035.672.672,0,0,0-.389.106.4.4,0,0,0-.194.336.646.646,0,0,0,.194.353,3.651,3.651,0,0,1,.371.442,1.23,1.23,0,0,1,.194.654,1.189,1.189,0,0,1-.071.424.952.952,0,0,1-.23.371,2.4,2.4,0,0,1-.672.424,1.88,1.88,0,0,1-.76.177c-.053,0-.159-.141-.353-.424a1.653,1.653,0,0,1-.265-.53.038.038,0,0,1,.035-.035c.177-.035.371-.071.548-.106.23-.071.336-.194.336-.371a.707.707,0,0,0-.194-.406q-.345-.4-.371-.424a1.1,1.1,0,0,1-.194-.6,1.234,1.234,0,0,1,.583-1.025,1.924,1.924,0,0,1,1.131-.371c.035,0,.141.141.3.424A1.806,1.806,0,0,1,397.939,362.537Z" transform="translate(-340.553 -360.186)"/>
    </g>
  </g>
</svg>
