<svg xmlns="http://www.w3.org/2000/svg" width="158.322" height="127.863" viewBox="0 0 158.322 127.863">
  <g id="Group_7" data-name="Group 7" transform="translate(0.001 0.003)">
    <g id="Group_3" data-name="Group 3" transform="translate(-0.001 23.797)">
      <g id="Group_2" data-name="Group 2" transform="translate(0 0)">
        <path id="Path_11" data-name="Path 11" d="M122.421,110.083c-3.957.111-9.784.22-15.61.22-4.507,0-8.905-.22-13.413-.439-2.969-.111-5.936-.22-8.795-.55a45.67,45.67,0,0,1-11.433-2.748,24.338,24.338,0,0,1-12.094-9.893A79.783,79.783,0,0,1,55.14,84.8c-4.727-11.1-8.795-22.427-12.862-33.75C40.4,45.664,38.649,40.276,36.561,35a18.328,18.328,0,0,1-.879-2.2,7.626,7.626,0,0,0-7.146-4.838,51.538,51.538,0,0,0-5.826.111c-5.5.439-10.994.33-16.38.55H5.891c-.439,0-.879-.111-.99-.659-.111-.659.33-.879.879-.879a2.143,2.143,0,0,0,.879-.111c6.487-.22,12.971-.55,19.458-.77a17.145,17.145,0,0,1,4.727.33,7.928,7.928,0,0,1,5.826,4.507,52.9,52.9,0,0,1,3.189,7.805c4.4,12.971,9.127,25.834,14.184,38.7,1.874,4.727,3.848,9.345,6.047,13.852a29.326,29.326,0,0,0,6.814,9.454,23.377,23.377,0,0,0,5.166,3.407,41.825,41.825,0,0,0,12.094,3.189c3.3.439,6.706.439,10,.659,9.565.55,19.019.33,28.583.111l17.92-.33c.879,0,1.76-.111,2.639-.111.659,0,1.1.33,1.1.879s-.33.879-.99.99a5.352,5.352,0,0,0-1.318.111C136.273,109.863,130.337,110.083,122.421,110.083Z" transform="translate(-4.884 -26.163)" fill="#004467"/>
        <path id="Path_12" data-name="Path 12" d="M83.1,111.829a9.655,9.655,0,0,1-4.94,8.575,9.277,9.277,0,0,1-12.971-3.518,9.662,9.662,0,0,1,3.957-12.862A9.33,9.33,0,0,1,83,110.18a8.322,8.322,0,0,0,.1,1.649Zm-9.784,8.135c.77-.111,1.318-.111,1.874-.22a7.889,7.889,0,0,0,5.166-11.433A7.478,7.478,0,0,0,69.7,105.783,7.825,7.825,0,0,0,66.727,116a7.176,7.176,0,0,0,6.592,3.96Z" transform="translate(1.015 -18.566)" fill="#004467"/>
        <path id="Path_13" data-name="Path 13" d="M130,112.629a9.657,9.657,0,0,1-4.94,8.575,9.277,9.277,0,0,1-12.971-3.518,9.662,9.662,0,0,1,3.957-12.862A9.33,9.33,0,0,1,129.9,110.98,8.318,8.318,0,0,0,130,112.629Zm-9.893,8.135c.77-.111,1.318-.111,1.874-.22a7.888,7.888,0,0,0,5.166-11.433,7.478,7.478,0,0,0-10.663-2.528,7.825,7.825,0,0,0-2.969,10.22,7.42,7.42,0,0,0,6.59,3.96Z" transform="translate(5.675 -18.487)" fill="#004467"/>
      </g>
    </g>
    <g id="Group_6" data-name="Group 6" transform="translate(41.427 -0.003)">
      <g id="Group_5" data-name="Group 5" transform="translate(0)">
        <g id="Group_4" data-name="Group 4">
          <path id="Path_14" data-name="Path 14" d="M86.3,31.252h.77c.33,0,.77,0,.879-.439a1.838,1.838,0,0,0-.111-1.318c0-.111-.111-.111-.111-.22-.22-.33-.77-.33-.659-.77.111-.22.55-.33.879-.439A8.367,8.367,0,0,0,90.8,26.086a4.3,4.3,0,0,1,1.1-.879,1.291,1.291,0,0,0,.659-1.1c0-.33,0-.55.22-.659s.439,0,.659.22c.111.111.22.439.439.22s0-.439,0-.659c-.22-.659-.55-.77-.99-.439-.659.439-1.1.33-1.318-.439a1.475,1.475,0,0,1,.55-1.979,6.6,6.6,0,0,0,2.2-2.088c1.649-2.2,3.628-2.969,5.827-2.088a24.733,24.733,0,0,1,2.639.879,3.458,3.458,0,0,1,1.318.99c.33.55.659.439.879-.22.111-.439.33-.659.659-.22.33.33.659.33.879.111a2.3,2.3,0,0,1,1.874-.439,2.417,2.417,0,0,0,1.533-.22,1.352,1.352,0,0,1,1.429-.111c.55.33.55,0,.55-.55,0-.879.22-1.1.879-.77a2.468,2.468,0,0,0,2.858-.22,9.212,9.212,0,0,1,7.476-.77,2.589,2.589,0,0,1,1.1.55,4.5,4.5,0,0,0,2.969,1.318,11.306,11.306,0,0,0,1.874.111,3.577,3.577,0,0,1,2.2.77,2.555,2.555,0,0,0,2.308.659,8.193,8.193,0,0,1,5.166.77.833.833,0,0,0,.439.22,18.843,18.843,0,0,1,4.507,1.318A7.679,7.679,0,0,0,145,20.7a22.7,22.7,0,0,1,6.6,1.76l2.639.99a7.579,7.579,0,0,1,1.1.439c.22.22.55.33.55.659s-.22.22-.439.111c-.33-.111-.77-.33-1.1-.439-.22-.111-.33-.111-.55-.22-.22,0-.22.111-.22.22,0,.22.22.33.33.439.659.439.659.439.33.77a2.09,2.09,0,0,1-2.2.55c-.22-.111-.33,0-.33.22s.22.439.55.55a4.04,4.04,0,0,1,2.088,2.858c.111.55,0,.659-.659.22-.879-.659-1.649-1.209-2.528-1.874-.77-.659-.99-.99-.879-1.76v-.55c-.111-.55-.22-.659-.77-.659a2.458,2.458,0,0,1-1.1-.33c-.659-.33-.77-.22-.55.439.22.77.111.879-.55.55a8.825,8.825,0,0,0-3.3-.439c-.439,0-.55.879-.33,1.533a1.087,1.087,0,0,0,1.1.77,7.362,7.362,0,0,1,4.287,2.2l.439.439c.22.22.22.55,0,.659s-.33-.111-.55-.22a7.106,7.106,0,0,1-.879-.99c-.111-.111-.22-.22-.33-.111l.111.22a4.316,4.316,0,0,1,.879,3.078c0,.55-.22.879-.879.77-.439-.111-.659.111-.659.55-.111.659-.22,1.318.659,1.76.33.111.55.55.77.77s.439.55.22.77a.736.736,0,0,1-.77.439c-.33,0-.439-.33-.55-.55a1.7,1.7,0,0,0-.659-.879,6.594,6.594,0,0,1-1.318-1.209.833.833,0,0,0-.439-.22,1.7,1.7,0,0,1-1.533-.439c-.33-.33-.439.33-.659.55s.111.33.33.55a1.7,1.7,0,0,0,1.209.33.661.661,0,0,1,.439.111.484.484,0,0,1-.111.55c-.55.439-.22.879.33,1.318a5.078,5.078,0,0,1,.77.77,3.131,3.131,0,0,1-.77,5.166,10.315,10.315,0,0,1-1.649.659c-.55.111-.77.439-.55.99a.528.528,0,0,1-.22.659.491.491,0,0,1-.55,0c-.22-.22-.111-.439-.111-.659.111-.22.22-.55-.111-.77a.531.531,0,0,0-.77.111c-.77.55-.77.99-.111,1.76.33.439.77.77,1.1,1.209a2.151,2.151,0,0,1-1.209,3.518.489.489,0,0,1-.659-.22,7.462,7.462,0,0,0-1.318-1.318c-.22-.22-.439-.439-.77-.22a.887.887,0,0,0-.439.99c.111.77.22,1.649.879,1.979,1.1.55,1.1,1.76,1.318,2.748v.22c-.879.659-.111.99.111,1.429a1.2,1.2,0,0,0,1.429.439c.22,0,.439-.111.55.22.111.22,0,.439-.22.659a.511.511,0,0,1-.659.111c-.439-.22-.659,0-.77.55-.22.659-.55.879-.99.439a3.594,3.594,0,0,1-1.209-1.649,12.694,12.694,0,0,0-2.308-3.628c-.111-.111-.22-.22-.22-.33a.4.4,0,0,1,.33-.111,1.654,1.654,0,0,1,1.209.439,7.113,7.113,0,0,0,.99.879.4.4,0,0,0,.33.111c.111-.111,0-.22,0-.33a5.708,5.708,0,0,0-1.209-2.748c-.22-.22-.111-.55-.111-.77a6.33,6.33,0,0,0-.55-3.189c-.22-.439-.44-.659-.879-.439-.55.33-.77.111-.879-.55a3.564,3.564,0,0,0-1.979-2.639,1.209,1.209,0,0,0-1.533.33,28.276,28.276,0,0,0-3.078,3.189,1.808,1.808,0,0,0-.22,1.1,4.311,4.311,0,0,1-.659,2.639c-.55.77-.99.659-1.318-.111a28.34,28.34,0,0,1-2.2-6.047.4.4,0,0,0-.439-.439,1.584,1.584,0,0,1-1.429-.879,3.216,3.216,0,0,0-3.078-1.76,4.126,4.126,0,0,1-3.3-.879.4.4,0,0,0-.33-.111c-1.209.33-1.979-.439-2.748-1.429l-.33-.33c-.22-.22-.33-.22-.55-.111-.22.22-.33.439-.111.659.659.879,1.318,1.649,1.979,2.419.33.33.77.111.99-.22.55-.439.879-.659,1.318.22.111.33.55.33.77.55.659.33.659.659.439,1.318a4.165,4.165,0,0,1-1.979,2.528,31.655,31.655,0,0,1-5.057,2.639c-.22.111-.659.111-.55.55s.33.659.77.55a16.074,16.074,0,0,0,2.2-.55c.659-.22.99.111.77.879a9.612,9.612,0,0,1-3.078,5.057,16.959,16.959,0,0,0-2.748,3.407,3.156,3.156,0,0,0-.22,2.639,9.369,9.369,0,0,1,.33,3.518,1.714,1.714,0,0,1-.659,1.318l-1.318.99a2.415,2.415,0,0,0-.879,2.528,1.262,1.262,0,0,1-.439,1.318,5.676,5.676,0,0,0-1.318,2.088c-.99,2.419-2.419,3.848-4.507,3.957a3.906,3.906,0,0,0-1.1.22c-.55.111-.77-.22-.879-.77a5.631,5.631,0,0,0-.99-2.969,5.6,5.6,0,0,1-.659-2.308,6.793,6.793,0,0,0-.99-2.969,3.308,3.308,0,0,1-.22-3.189,5.538,5.538,0,0,0-.659-5.936,5,5,0,0,1-.879-3.957c.22-.77,0-1.1-.77-1.209A2.461,2.461,0,0,1,89.611,54a1.087,1.087,0,0,0-1.533-.22,9.2,9.2,0,0,1-4.838.77,2.785,2.785,0,0,1-1.874-1.1c-.879-1.1-1.533-2.308-2.419-3.3a2.288,2.288,0,0,1-.22-2.088,9.98,9.98,0,0,0,.33-2.528,5.814,5.814,0,0,1,2.308-4.94,3.035,3.035,0,0,0,1.318-1.76,3.109,3.109,0,0,1,1.209-1.649c.879-.77.99-1.1,0-1.76a1.192,1.192,0,0,1-.55-1.318,9.622,9.622,0,0,0,.22-1.76c.111-.77.439-.99.99-.99a14.965,14.965,0,0,1,1.76-.111Zm4.94,3.848a2.421,2.421,0,0,0,.879-.111c.99-.111,1.209.22,1.1,1.429,0,.55.111.879.55.99a7.154,7.154,0,0,1,2.419,1.209c.77.55,1.1.439,1.429-.55.111-.33.33-.659.659-.659a1.589,1.589,0,0,1,.77.22,9.2,9.2,0,0,0,4.838.77c.22,0,.439,0,.55-.22a3.654,3.654,0,0,0,.55-2.2.511.511,0,0,0-.439-.55,17.757,17.757,0,0,1-2.419,0c-.77.111-1.209-.22-1.533-1.1-.111-.33-.22-.77-.33-1.1-.111-.439-.439-.439-.77-.22s-.439.439-.111.77c.439.55.111.879-.33,1.209s-.659.111-.879-.33L97.836,34a6.718,6.718,0,0,0-3.189-3.518c-.111,0-.22-.111-.33-.111-.111.111,0,.22.111.33a3.494,3.494,0,0,0,1.209,1.318,1.138,1.138,0,0,1,.33,1.874c-.22.33-.22.33-.439,0a9.129,9.129,0,0,0-3.078-2.748.939.939,0,0,0-.77,0,3.981,3.981,0,0,0-2.858,1.979c-.659,1.1-1.318,2.2-2.528,2.308-.111,0-.22.111-.22.33s.111.22.22.22a2.286,2.286,0,0,0,1.209-.111,7.63,7.63,0,0,1,3.741-.775Zm14.731-2.308c.55,0,.879,0,.99-.55.111-.439-.22-.659-.55-.77-.22-.22-.55-.33-.77-.55-.439-.22-.77-.439-.659-1.1a.439.439,0,0,0-.22-.439c-.22,0-.33,0-.439.22-.111.111-.111.22-.111.439-.111.659-.33.77-.879.439a4.783,4.783,0,0,0-.77-.439.654.654,0,0,0-.77,0,3.088,3.088,0,0,0-.659,2.2c.33.659.879.33,1.318.33a.84.84,0,0,0,.55-.22,1.627,1.627,0,0,1,1.429,0,9.234,9.234,0,0,1,1.548.438ZM95.193,24.876a3.419,3.419,0,0,0,2.528-1.209,1.363,1.363,0,0,0,.111-1.874c-.659-.99-.659-1.318.111-2.2.111-.111.439-.33.22-.659-.22-.22-.439-.111-.55.111a5.762,5.762,0,0,1-1.1,1.209.734.734,0,0,0-.111,1.1c.111.22.33.439.22.77a5.538,5.538,0,0,1-1.649,2.2c-.22.111-.33.22-.55.33a.807.807,0,0,0,.659.22Zm15.941,9.234c0,.111,0,.55.33.659.439.22.879.659,1.429.439a.53.53,0,0,0,.22-.77,2.962,2.962,0,0,1-.55-1.649c0-.33-.22-.439-.439-.659s-.439-.33-.659-.55c-.55-.55-.55-.77-.111-1.429.33-.33.22-.55-.111-.77-.439-.22-1.318.33-1.533.77-.33.55,0,.99.33,1.429a4.781,4.781,0,0,0,.659.77,3,3,0,0,1,.443,1.76Zm-6.376,7.035a1.249,1.249,0,0,0,.33.879,20.522,20.522,0,0,1,1.649,3.518,7.538,7.538,0,0,0,2.308,3.407,1.581,1.581,0,0,0,.33.22c.111-.22,0-.33-.111-.55a33.256,33.256,0,0,0-4.177-7.805c-.111-.111-.111-.33-.22-.22a.825.825,0,0,0-.1.552Z" transform="translate(-38.99 -3.565)" fill="#00c4bb"/>
          <path id="Path_15" data-name="Path 15" d="M53.814,20.142A30.894,30.894,0,0,1,57,20.031a15.794,15.794,0,0,0,4.838-.77,6.386,6.386,0,0,1,2.858-.111h.33c.33,0,.659-.439.77-.77s-.22-.33-.439-.22a.4.4,0,0,1-.33.111c-.22,0-.439.22-.55-.111,0-.33.22-.439.439-.659a3.766,3.766,0,0,1,3.3-.99,3.449,3.449,0,0,0,2.748-.111c.22-.111.439-.22.439-.111.111.111-.111.33-.22.55a5.134,5.134,0,0,1-.55,1.1c-.22.439-.439.77-.879.879-.111,0-.22,0-.22.111s.111.111.22.111a2.284,2.284,0,0,0,1.318-.55c.439-.439.879-.659,1.1-.22.111.22.22.111.33-.22.111-.439.22-.879-.111-.99s-.22-.439.111-.659c.55-.33,1.209-.77,1.649-.439a.206.206,0,0,0,.33,0,3.3,3.3,0,0,1,2.419-.439,2.882,2.882,0,0,0,1.649-.22,2.725,2.725,0,0,1,3.3,1.649,2.846,2.846,0,0,0,.77,1.209c.22.22.111.439-.111.659-.439.439-.879.659-1.318.33-.111-.111-.33-.33-.33.22,0,.439.111.99-.439,1.209-.77.33-1.533.879-2.088.22a1.6,1.6,0,0,0-1.429-.77c-.111,0-.22.111-.22-.111,0-.111.111-.22.22-.33a1.562,1.562,0,0,1,.659-.22c.55,0,.99-.55,1.429-.879.33-.22.22-.55.111-.77-.33-.659-1.429-.659-2.088,0a4.163,4.163,0,0,1-1.874,1.533.441.441,0,0,0-.22.659c.111.33,0,.439-.33.55-.659.22-1.318.659-1.76-.111-.111-.111-.22,0-.33,0a20.5,20.5,0,0,0-3.737,1.979,1.114,1.114,0,0,0-.659.99c0,.439.111.77.439.879a10.8,10.8,0,0,0,1.985.882c.439,0,.22.439.111.77-.111.439-.659.879-.111,1.1.439.111.659-.439.879-.879a1.313,1.313,0,0,1,.99-.879c1.209-.33,1.649-.879,1.979-2.308a2.3,2.3,0,0,1,1.318-1.874,1.613,1.613,0,0,1,2.088.55c.111.111,0,.33,0,.55-.111.77.111.879.659.55,1.318-.77,1.318-.77,1.429.879a1.289,1.289,0,0,0,.55,1.209c.659.659.77.99.22,1.979-.22.439-.33.879.111,1.1s.33.659.111,1.1c-.22.55-.439.33-.77.22a5.672,5.672,0,0,0-1.209-.22c-.439-.111-.33-.33-.111-.659a2.915,2.915,0,0,1,.55-.659c.111-.111.33-.33.33-.439-.111-.22-.33,0-.439.111l-.99.33a3.8,3.8,0,0,1-1.874.22c-.111,0-.22-.111-.33,0s0,.22.111.33c.22.22.22.439,0,.77a.729.729,0,0,0-.22.77.681.681,0,0,0,.77.22.383.383,0,0,0,.22-.111c.111-.111.33-.22.439,0s-.111.33-.22.439a1.821,1.821,0,0,1-1.429.55,7.817,7.817,0,0,0-4.4,1.874,8.112,8.112,0,0,0-3.407,3.518c-.22.439-.55.55-.879.77a9.495,9.495,0,0,0-1.76,1.1,2.6,2.6,0,0,0-.99,2.419c0,.33.22.77-.22.879a.726.726,0,0,1-.879-.77c0-.659-.22-.879-.77-.99a3.153,3.153,0,0,0-2.419.22c-.33.22-.659.111-.99.111a3.776,3.776,0,0,0-3.737,4.727c.111.439.33.99.879,1.1a1.773,1.773,0,0,0,1.979-.659c.22-.22.33-.55.55-.77a.743.743,0,0,1,1.1-.111c.439.33.22.659.111.99s-.33.77-.439,1.1c-.22.439,0,.77.439.77h.33c1.318.111,1.429.22,1.209,1.649a.661.661,0,0,1-.111.439c-.111,1.209.33,1.649,1.429,1.533a2.528,2.528,0,0,1,1.533.22.462.462,0,0,0,.659-.33,2.565,2.565,0,0,1,3.3-1.1,4.044,4.044,0,0,0,2.748.55,1.339,1.339,0,0,1,1.318.55l1.1,1.1a2.833,2.833,0,0,0,2.088,1.1,2.482,2.482,0,0,1,2.088,1.649,4.3,4.3,0,0,0,2.528,2.639,28.616,28.616,0,0,1,2.748,1.1,8.59,8.59,0,0,1,2.2,1.209,2.2,2.2,0,0,1,.659,2.858,9.664,9.664,0,0,1-.659,1.1,3.373,3.373,0,0,0-.659,2.308,10.173,10.173,0,0,1-.22,3.189c-.22.879-.659,1.429-1.429,1.533-1.209.33-1.533.77-1.533,2.308a6.572,6.572,0,0,1-1.318,3.957c-.111.22-.22.22-.439.111-.659-.22-.55.111-.33.77.33.77.33,1.1-.22,1.209-.99.22-1.318,1.209-1.1,2.528a1.809,1.809,0,0,1-.111,1.1.772.772,0,0,0,.439.99c.439.22.439.55.439.99a3.03,3.03,0,0,0,1.766,3.1c.22.111.439.22.439.55s-.22.33-.439.33c-1.76-.227-4.4-2.754-5.49-5.173a4.688,4.688,0,0,1-.659-1.979c0-.111-.111-.22-.22-.33a4.611,4.611,0,0,1-.99-1.533,28.223,28.223,0,0,1-1.649-5.5,34.973,34.973,0,0,1-1.429-5.606,3.286,3.286,0,0,0-1.979-2.748,5.528,5.528,0,0,1-2.317-2.2,28.617,28.617,0,0,0-2.969-4.177c-.22-.22-.439-.659-.22-.879a2.8,2.8,0,0,0,0-1.649,1.981,1.981,0,0,1,.659-1.76,2.8,2.8,0,0,0,.439-3.3c-.22-.659-.439-.77-.879-.22-.33.439-.659.33-1.1.111a5.047,5.047,0,0,1-2.191-2.1,1.848,1.848,0,0,0-1.429-.99,2.785,2.785,0,0,1-1.874-1.1.736.736,0,0,0-.879-.33,4.068,4.068,0,0,1-2.972-.767c-.22-.111-.439-.33-.659-.439-.659-.33-1.318-.77-1.1-1.76a1.821,1.821,0,0,0-.55-1.429,6.132,6.132,0,0,1-1.533-3.3.237.237,0,0,0-.22-.22.351.351,0,0,0-.33.33,4.769,4.769,0,0,0,.111.55,15.536,15.536,0,0,1,.659,2.419c0,.111.111.33,0,.439s-.33,0-.439-.111-.22-.111-.22-.22c-.22-.99-.99-1.76-.879-2.969a2.686,2.686,0,0,0-.879-2.419c-.33-.22-.33-.659-.22-1.1a8.078,8.078,0,0,1,1.979-3.518L49.2,31.025a1.473,1.473,0,0,0,.55-1.533c-.111-.22.111-.55.22-.77.33-.77.879-1.533.33-2.088-.111-.111.111-.55.22-.77.33-.99.22-1.1-.659-1.1a7.943,7.943,0,0,0-3.078.55,6.245,6.245,0,0,1-3.957.22c-.22-.111-.33-.111-.22-.33s.33-.33.659-.55a7.365,7.365,0,0,1,1.979-.77c.111,0,.33-.111.33-.22.111-.111-.111-.111-.22-.111-.22,0-.55,0-.33-.33.111-.33.439-.439.659-.55a2.506,2.506,0,0,1,1.209-.33c.439,0,.77-.22,1.1-.77a.852.852,0,0,1,.439-.439,16.756,16.756,0,0,0,5.379-.991Z" transform="translate(-42.565 -3.447)" fill="#fb0"/>
          <path id="Path_16" data-name="Path 16" d="M125.617,79.5c-1.318.33-1.429.111-1.1-1.429.111-.55.111-.879-.55-.439-.33.22-.33,0-.33-.22-.22-1.209-.55-1.318-1.76-.879-1.76.77-3.518,1.533-5.166,2.308a1.562,1.562,0,0,1-.659.22.6.6,0,0,1-.55-.33c-.111-.33.111-.55.33-.77a3.858,3.858,0,0,0,.659-1.76c.111-.55.111-1.1.22-1.533a4.6,4.6,0,0,1,3.078-4.287,8.641,8.641,0,0,0,2.967-2.088c.33-.33.659-.77.99-1.1a1.961,1.961,0,0,1,2.088-.879c.33.22.659-.111.879-.439a3.105,3.105,0,0,1,2.969-1.318c.55.111.55.33.22.99-.55.99-.55,1.318.22,1.533h.111c.99.439.99.33,1.649-.99a6.718,6.718,0,0,1,.77-1.533c.111-.22.22-.55.55-.55s.22.22.33.439a30.9,30.9,0,0,1,.111,3.189,2.2,2.2,0,0,0,.22.99c.111.33.33.77.439,1.209.439,1.76-.55,3.628-2.419,5.386-.99.879-1.979,1.874-2.967,2.858a5.313,5.313,0,0,1-2.308,1.429,2.8,2.8,0,0,0-.991-.007Z" transform="translate(-35.325 1.398)" fill="#d02323"/>
          <path id="Path_17" data-name="Path 17" d="M135.153,63.665a.743.743,0,0,1-.99-.55c-.439-.879-.55-.879-1.429-.111-.439.33-.879.439-1.209.22a1.278,1.278,0,0,0-1.1-.22c-.33.111-.33-.111-.22-.439.439-1.209.439-1.429-.659-1.649-.659-.22-1.318-.439-1.533-1.209a.891.891,0,0,1,.33-1.1c.439-.22.659,0,.77.33.33.99.439.99,1.429.33a.693.693,0,0,1,.77-.111h.111A4.453,4.453,0,0,1,135.6,62.9c0,.111.22.22,0,.439C135.484,63.767,135.264,63.665,135.153,63.665Z" transform="translate(-34.089 0.85)" fill="#fb0"/>
          <path id="Path_18" data-name="Path 18" d="M139.234,54.836a5.173,5.173,0,0,1-1.76-.439,2.08,2.08,0,0,1-.77-1.979c.111-.33.22-.55.55-.659a7.716,7.716,0,0,0,3.189-2.419c.22-.22.33-.55.659-.33s.77.439.659.879a26.981,26.981,0,0,1-.879,3.189A9.171,9.171,0,0,1,140,54.4a1.772,1.772,0,0,1-.77.441Z" transform="translate(-33.222 -0.101)" fill="#fb0"/>
          <path id="Path_19" data-name="Path 19" d="M105.9,66.356a4.476,4.476,0,0,1,.22-.77,7.107,7.107,0,0,0,.439-2.2,1.262,1.262,0,0,1,.659-1.209,4.408,4.408,0,0,0,1.649-1.533c.111-.22.33-.55.659-.439s.33.439.33.659a2.366,2.366,0,0,1,0,.879l-1.979,5.281c-.22.55-.55,1.1-1.209.879C106.121,67.785,105.793,67.235,105.9,66.356Z" transform="translate(-36.279 1.017)" fill="#fb0"/>
          <path id="Path_20" data-name="Path 20" d="M147.794,35.625c.111.33-.111.439-.33.55a6.358,6.358,0,0,1-1.533.55,2.09,2.09,0,0,0-1.209.77c-.111.22-.22.659-.659.22-.33-.33-.879-.659-.55-1.209a1.7,1.7,0,0,1,1.209-.879c.33-.111.77-.111.99-.439a.978.978,0,0,0,.111-1.533c-.111-.22-.22-.439-.111-.55a.727.727,0,0,1,.659.111,1.676,1.676,0,0,1,.659,1.1,4.117,4.117,0,0,1,.765,1.312Z" transform="translate(-32.547 -1.671)" fill="#fb0"/>
          <path id="Path_21" data-name="Path 21" d="M87.31,26.417H86.87c-.55,0-.77-.33-.439-.99s.439-1.1-.111-1.649c-.33-.33-.22-.879-.111-1.318a1.056,1.056,0,0,1,.99-.659c.439.111.55.439.55.99-.111.879.55,1.209.77,1.874.111.33.55.55.33.99a1.145,1.145,0,0,1-1.1.77Z" transform="translate(-38.244 -2.796)" fill="#fb0"/>
          <path id="Path_22" data-name="Path 22" d="M90.92,5.49H91.8c.659,0,.879.22,1.1,1.209.111.55.22,1.1.33,1.533.22.439.22.439.439,0,.111-.33.22-.77.55-.879s.99.33,1.1.879a.831.831,0,0,1-.111.439,3.964,3.964,0,0,1-.879,1.649,3.5,3.5,0,0,0-.77,3.078,1.761,1.761,0,0,1-.439,1.649.579.579,0,0,1-.77.22c-.111-.111-.22-.22-.439-.111-.33.111-.439.22-.33.659a2.588,2.588,0,0,0,.22.879c.111.439,0,.77-.33.879a2.328,2.328,0,0,1-.77.33A1.848,1.848,0,0,0,89.048,19a2.848,2.848,0,0,1-1.874,1.318,2.078,2.078,0,0,0-1.1.879,1.92,1.92,0,0,0-.439,1.318c0,.55-.111.55-.55.659a.6.6,0,0,1-.659-.439c-.22-.33-.33-.55-.77-.55a.7.7,0,0,1-.659-.55l-.99-2.308a.681.681,0,0,1,.22-.77c.55-.879.55-.99.111-1.76-.111-.22-.22-.22-.439,0s-.33.55-.55.439c-.22-.22-.111-.55,0-.879a1.615,1.615,0,0,0-.111-1.979,2.4,2.4,0,0,1-.33-.55c-.439-.879-1.1-.879-1.979-.659-.439.111-.879-.111-1.318.111-.111.111-.22-.111-.111-.33a11.1,11.1,0,0,1,1.429-1.76,3.79,3.79,0,0,0,1.109-1.424c.111-.111.111-.22.22-.33.77-1.1,1.649-1.649,2.528-1.429.111,0,.22.111.439.111.33.33.33.439.659-.22.111-.33.22-.439.439-.22s.33.111.55-.22a4.7,4.7,0,0,1,2.308-2.308,3.9,3.9,0,0,0,.99-.439,1.151,1.151,0,0,1,1.429.111c.22.111.22.33.111.659-.22.33-.111.33.111.33.22-.22.659-.22,1.1-.33Z" transform="translate(-39.105 -4.516)" fill="#d02323"/>
          <path id="Path_23" data-name="Path 23" d="M108.069,10.023c-.879-.33-1.429.55-2.088.879a2.4,2.4,0,0,0-.33.55.654.654,0,0,0,0,.77.484.484,0,0,1,.111.55c-.111.22-.22.33-.439.22a2.756,2.756,0,0,1-.77-.439c-.22-.22-.659-.33-.55-.77,0-.439.22-.99.659-.99a.731.731,0,0,0,.55-.439c.33-.77.77-.99,1.429-.879a1.2,1.2,0,0,0,1.318-.439c.22-.22.55-.111.879-.33.111-.111.22,0,.22.111a6.2,6.2,0,0,1,.439,1.318c0,.22-.111.22-.22.22a6.759,6.759,0,0,0-1.208-.33Z" transform="translate(-36.467 -4.102)" fill="#fb0"/>
        </g>
      </g>
    </g>
    <path id="Path_24" data-name="Path 24" d="M96.745,27.932c11.323.111,22.1.111,32.876,0,4.94,0,10,.33,14.951.439,3.189.111,6.376.22,9.565.55.659.111,1.429.111,2.088.22,2.308.33,3.078,1.318,2.748,3.628-.22,1.533-.659,3.078-.99,4.618C155.455,47.832,152.7,58.17,149.847,68.5a89.216,89.216,0,0,1-8.025,20.228,30.221,30.221,0,0,1-3.957,5.827,13.711,13.711,0,0,1-9.784,4.94,251.159,251.159,0,0,1-25.721.55h-3.2a114.624,114.624,0,0,1-20.337-1.761,26.062,26.062,0,0,1-9.345-3.518,18.182,18.182,0,0,1-4.068-3.628,42.536,42.536,0,0,1-4.727-7.7A293.926,293.926,0,0,1,47.6,50.462c-2.088-6.376-4.177-12.752-6.156-19.129-.111-.22-.111-.439-.22-.659a1.823,1.823,0,0,1,1.429-2.528,9.26,9.26,0,0,1,2.969-.439c3.848-.22,7.7,0,11.542.111,11.214.22,22.427-.111,33.641-.111C93.226,27.82,95.205,27.82,96.745,27.932Zm-13.193,1.76c-3.957,0-8.575.111-13.082.111H69.7c-.439,0-.55.22-.439.55a1.562,1.562,0,0,0,.22.659c1.979,6.487,3.957,13.082,6.047,19.569.33,1.209.33,1.209,1.649,1.209h22.1c.659,0,.879-.22.77-.879v-.879c-.22-6.487-.55-12.862-.77-19.349,0-.99,0-.99-1.1-.99-4.618-.228-9.345-.005-14.622-.005Zm47.162,0h-4.507c-5.281,0-10.561.111-15.941,0-2.748-.111-5.606,0-8.347,0-.659,0-.879.22-.879.879v.768c.22,6.487.55,12.971.77,19.458,0,.99,0,.99.99,1.1h22.536c.879,0,.99,0,1.1-.99,1.209-5.717,2.308-11.433,3.407-17.15a16.77,16.77,0,0,0,.872-4.068ZM128.406,51.78c.111,0,.33.111.439.111h22.536c.99,0,.99,0,1.318-1.1,1.318-5.057,2.748-10.113,4.068-15.171a26.183,26.183,0,0,0,.55-2.858c.22-1.209-.111-1.649-1.318-1.874a1.874,1.874,0,0,0-.77-.111c-1.979-.111-4.068-.33-6.047-.439-5.166-.22-10.22-.33-15.39-.439-1.209,0-1.209,0-1.429,1.1l-3.957,19.8C128.406,51.017,128.185,51.456,128.406,51.78Zm-54.415,0c-.33-1.209-.659-2.2-.99-3.189-1.76-5.936-3.628-11.764-5.386-17.7-.33-1.1-.33-1.1-1.429-1.1-1.533,0-2.969-.111-4.507-.111-2.528,0-5.057,0-7.585-.111-2.858-.111-5.606-.111-8.464,0a8.485,8.485,0,0,0-1.649.22.625.625,0,0,0-.55.879c0,.22.111.33.111.55,1.874,6.6,4.068,13.193,6.376,19.678a1.242,1.242,0,0,0,1.429.99H73.219a3.9,3.9,0,0,1,.772-.107Zm49.358,24.631h1.1c6.156,0,12.312.111,18.579.111,2.858,0,2.2.55,3.189-2.308,2.2-6.487,3.737-13.193,5.606-19.678a.511.511,0,0,0-.111-.659c-.33,0-.659-.111-1.1-.111H128.841c-.99,0-.99,0-1.209.99-1.1,5.5-2.2,10.883-3.3,16.38Q123.843,73.608,123.349,76.411ZM51.012,53.765a2.789,2.789,0,0,0,.22,1.318c2.2,6.814,4.94,13.3,7.585,19.9A1.809,1.809,0,0,0,60.8,76.3c6.376,0,12.752,0,19.238.111,1.429,0,1.429,0,.99-1.318-2.088-6.706-4.068-13.3-6.156-20.008-.439-1.318-.439-1.318-1.649-1.318H52.111a1.283,1.283,0,0,0-1.1,0Zm63.1,0h0c-3.628-.111-7.366-.111-10.994-.111-1.1,0-1.209,0-1.1,1.209l.33,7.255c.22,4.4.33,8.687.55,13.082,0,1.1.111,1.1,1.1,1.1,5.057,0,10.113.111,15.171.111.77,0,1.649.33,2.2-.111s.439-1.429.55-2.088c1.318-6.487,2.639-12.971,3.848-19.458.22-.99.22-1.1-.879-.99C121.37,53.654,117.741,53.765,114.115,53.765Zm-37.708-.111c.33,1.1.55,1.979.879,2.858C79.159,62.779,81.133,68.935,83,75.2c.22.659.33,1.1,1.209,1.1H99.932c.99,0,.99,0,.99-.99V74.87c-.22-6.706-.55-13.3-.77-20.008,0-1.318-.111-1.318-1.318-1.318H81.9C80.144,53.654,78.386,53.654,76.406,53.654Zm68.05,24.735a1.4,1.4,0,0,0-.659-.111c-6.6,0-13.193-.111-19.9-.111-.99,0-1.1,0-1.318,1.1-1.209,5.936-2.419,11.873-3.518,17.809a1.809,1.809,0,0,0-.111,1.1c.111,0,.22.111.33.111,3.407-.111,6.926-.33,10.335-.77a8.9,8.9,0,0,0,4.618-2.088,18.056,18.056,0,0,0,3.189-3.3,66.454,66.454,0,0,0,6.814-12.971c.218-.327.329-.438.218-.767ZM87.732,97.518a1.809,1.809,0,0,0-.111-1.1C85.862,90.7,84.1,85.1,82.455,79.386c-.439-1.533-.439-1.318-1.76-1.318-6.376,0-12.752,0-19.238-.111-.33,0-.659-.111-.99.111,0,.22,0,.33.111.439a61.071,61.071,0,0,0,5.5,10.22,17.576,17.576,0,0,0,8.135,6.267A38.156,38.156,0,0,0,84,97.193a14.346,14.346,0,0,0,3.736.325Zm33.307-19.128a3.888,3.888,0,0,1-.659-.111c-5.386,0-10.883,0-16.271-.111-1.1,0-1.1,0-1.1,1.209.111,4.727.33,9.345.55,14.072,0,1.318.111,2.639.111,3.957,0,.659.22.99.99.879,3.848,0,7.7,0,11.542-.111.99,0,.99,0,1.209-.99.879-4.177,1.649-8.347,2.528-12.423C120.153,82.677,120.6,80.588,121.039,78.391ZM83.992,78.28c.111.33.111.55.22.879,1.874,5.936,3.628,11.873,5.5,17.809.22.77.659.99,1.429,1.1q3.628.33,7.255.33h2.419c1.1,0,1.1,0,1.1-1.1v-.22c-.22-5.826-.439-11.764-.659-17.589,0-1.1,0-1.1-1.209-1.209H84.653a.692.692,0,0,0-.661,0Z" transform="translate(-1.304 -2.224)" fill="#004467"/>
  </g>
</svg>
