<svg xmlns="http://www.w3.org/2000/svg" width="993.63" height="283.31" viewBox="0 0 993.63 283.31"><defs><style>.a{opacity:0.5;}.b{fill:#fff;}</style></defs><g class="a"><g transform="translate(0)"><path class="b" d="M6.87,97.49a11.27,11.27,0,0,1-1.19-.77c-1.34,2.14-2.8,2.75-4.35,1.89a2.7,2.7,0,0,1-1-3.62c.29-.52.89-1.22,1.36-1.24a25.64,25.64,0,0,1,3.91.43,4.62,4.62,0,0,1,1.27-1.4Z" transform="translate(986.76 89.644)"/><path class="b" d="M40.442,147.1h-3.39c-.1-.45-.53-.82-1-1.47-.38.64-.82,1.06-.74,1.33a.77.77,0,0,0,.09.18h-5.33a.93.93,0,0,0-.13-.06.31.31,0,0,0-.21.06H7.252l.78-1.24a15.764,15.764,0,0,1-1.27-1c-.38-.35-.7-.77-1.09-1.21-.7,2.47-2,3.39-3.86,2.79a2.65,2.65,0,0,1-1.57-3.62,3.19,3.19,0,0,1,1.38-1.44c1.48-.73,2.72.1,3.89,1.07l1.29-2.24c-2.06-1.63-2.61-3.09-1.64-4.49.34-.49,1-1.1,1.49-1.09a24.6,24.6,0,0,1,3.78.69,9.372,9.372,0,0,1,.55-.86c.3-.4.64-.76,1-1.21l-.88-.53A2.86,2.86,0,0,1,10,129a2.78,2.78,0,0,1,3.44-1.25c1.84.6,2.18.43,3-1.4-2-1.65-2.48-3.09-1.53-4.53s2.47-1.46,5,0l1.88-2.13c-2.38-1-3.18-2.45-2.39-4.19s2.42-1.88,5.18-.39l1.86-2.39c-2.27-.82-3.16-2.22-2.42-3.94a3.11,3.11,0,0,1,1.42-1.45c1.47-.72,2.73,0,3.89,1.08l1.31-2.24c-2.1-1.69-2.59-3.18-1.6-4.62a2.85,2.85,0,0,1,3.6-.81c1.52.8,1.66,2.13.48,5l2,1.46,1.75-2.2c-2.3-1.2-3.06-2.64-2.17-4.26.29-.52.91-1.22,1.37-1.22a27.659,27.659,0,0,1,4,.55l.37-.35v2.57l-.32-.3-1.38,2.77,1.7,1.14v3.83l-.46.66.46.41v22.67c-.18-.14-.36-.25-.42-.21a9.12,9.12,0,0,0-1.49,1.14l.16.58c.52.11,1.11.42,1.53.26a.57.57,0,0,0,.22-.17v4.21a13.3,13.3,0,0,0-1,1c.42.27.74.57,1,.72Zm-4.57-5.28c.37-.56.42-1-.25-1.33-1.09-.53-1.28.38-1.74,1.09C34.6,142.16,35.142,142.91,35.872,141.82Zm-2.64-5.74c.6.57,1.26.39,1.7-.34.69-1.13-.4-1.22-1.1-2-.22,1.06-1.63,1.37-.61,2.34Zm-1.43-6.29c.14.49,1,1.2,1.33,1.11.57-.16,1-.88,1.78-1.7-1-.4-1.7-.86-2.29-.79-.35.04-.93,1.01-.82,1.38Zm-2.47,14c.46-.64,1.05-1.11,1-1.54s-.66-.82-1-1.23c-.42.42-1.09.81-1.16,1.29s.62.84,1.15,1.48Zm-2.24-7.3c.26.51.92,1.12,1.4,1.11s.94-.74,1.7-1.41a10.071,10.071,0,0,0-2.36-.94c-.22-.02-.87,1-.75,1.24Zm-.94-6a2.38,2.38,0,0,0,1.35,1.27c.24.08,1.18-.88,1.1-1.09a7.57,7.57,0,0,0-1.5-1.79c-.45.76-1.07,1.34-.96,1.66Zm-2.65,14a2.17,2.17,0,0,0,1.23-1.42c.06-.35-.9-1.28-1.12-1.2-.59.23-1,.85-1.75,1.52.7.51,1.32,1.23,1.64,1.12Zm-4.75.2c.91-1.38-.6-1.39-1.13-2.23l-1.49,2.12c.98.81,1.76,1.42,2.62.13Zm-8.31-7.35-1.2,2.49,2,1.52,1.36-2.05Zm1.11,6.15-1.39,1.81c1.87,2,2.27,2,3.54-.26Zm3.94-12.57-1.66,2.16,2,1.4,1.61-2.16Zm.85,5.8-1.45,2.07,2.18,1.42,1.42-2.07ZM20.262,124l-1.58,2c1.88,1.95,2.16,1.91,3.41-.48Zm.77,6.12-1.46,1.74,2.12,1.4c1.39-1.76,1.37-1.86-.66-3.19Zm-.23,7.54c1.92,1.47,2,1.43,2.83.32s0-1.29-.61-1.65c-1.58-.98-1.37.84-2.22,1.28Zm5-19.93a11.287,11.287,0,0,1-.82-1l-1.45,2.63c1.76,1.65,1.87,1.63,3.33-.69-.42-.37-.77-.67-1.09-.98Zm1.19,6.25c-1.05-.81-1.51-.07-1.92.62-.89,1.52,1,1.24,1.42,2,.17-.98,2.04-1.46.47-2.67Zm2.62-14.18-1.4,2.83,2.14,1.37,1.46-2.14Zm1.29,6.49c-1.86,2.07-1.86,2.07.36,3.43l1.47-2.09Zm1,5.41-1.63,2.54c.73.34,1.4.89,2.06.88.38,0,1.11-1,1-1.41-.15-.71-.83-1.26-1.45-2.06Zm3.54-12.41-1.51,2.05,2.36,1.48,1.35-1.82Zm1.19,5.94-1.43,2c1,.77,1.81,1.67,2.69.25s-.77-1.36-1.27-2.25Zm2.26,7.55c-.23-.53-.92-.87-1.41-1.29-.35.44-1,.93-1,1.32.08.6.66,1.12,1,1.68l.61-.3c.35-.48.93-1.1.8-1.41Zm.39,6.73c.31,0,.8-.9.73-1.3s-.92-1.09-1.11-1a9.1,9.1,0,0,0-1.83,1.64,6.72,6.72,0,0,0,2.21.66Z" transform="translate(953.188 136.17)"/><path class="b" d="M23.843,115c-1.46,2.12-1.44,3.83,0,4.83a2.86,2.86,0,0,0,3.84-.63q1.6-2.27-1.71-4.62c1.33-2.53,1.27-3.92-.21-4.82a2.7,2.7,0,0,0-3.67.79C21.153,112,21.643,113.31,23.843,115Z" transform="translate(943.787 109.34)"/><path class="b" d="M17.913,105.6c2.43,1.43,3.8,1.4,4.81-.1a2.7,2.7,0,0,0-.65-3.69c-1.47-1.09-2.84-.6-4.61,1.66-2.48-1.36-3.89-1.3-4.81.19a2.71,2.71,0,0,0,.65,3.59C14.753,108.31,15.973,107.87,17.913,105.6Z" transform="translate(958.207 98.066)"/><path class="b" d="M41.731,139.64c2.34,1.52,3.87,1.46,4.87-.11a2.71,2.71,0,0,0-.88-3.76c-1.58-1-3-.32-4.37,2-2.21-1.53-3.79-1.56-4.79-.09a2.71,2.71,0,0,0,.61,3.71C38.661,142.43,40.1,141.92,41.731,139.64Z" transform="translate(910.529 136.17)"/><path class="b" d="M.438,82.41a2.6,2.6,0,0,1,2.81-1.25V91.91a2.73,2.73,0,0,1-1-.43c-1.48-1-1.43-2.61.14-4.79C.058,85.14-.512,83.89.438,82.41Z" transform="translate(990.382 81.005)"/><path class="b" d="M15.477,95.56c-1.66,1.95-1.73,3.67-.28,4.74a2.7,2.7,0,0,0,3.88-.69c1-1.6.35-3.06-1.65-4.19a19.53,19.53,0,0,0,.7-3.63c0-.5-.73-1.15-1.28-1.49a2.48,2.48,0,0,0-3.42,1.07C12.607,92.85,13.147,94,15.477,95.56Z" transform="translate(961.023 89.91)"/><path class="b" d="M47.86,147.1a1,1,0,0,1-.19-.54,17.58,17.58,0,0,1,.88-3.61c-1.9-1.38-2.39-2.68-1.38-4.12a2.55,2.55,0,0,1,3.65-.66c1.49,1.08,1.45,2.46-.19,4.72,2.17,1.7,2.65,2.86,1.82,4.2Z" transform="translate(894.14 136.17)"/><path class="b" d="M40.406,123.84c-1.63,2.57-1.61,3.86.1,4.9a2.56,2.56,0,0,0,3.57-1c.92-1.48.33-2.72-1.76-4.09a16.89,16.89,0,0,0,.84-3.37c0-.52-.64-1.21-1.16-1.59a2.47,2.47,0,0,0-3.5.78C37.526,121,38.026,122.15,40.406,123.84Z" transform="translate(911.104 136.17)"/><path class="b" d="M33.777,112.57c-2.47-1.55-3.85-1.53-4.82.09a2.58,2.58,0,0,0,1,3.58c1.5.88,2.81.26,4-1.72a17.259,17.259,0,0,0,3.59.82c.53,0,1.23-.77,1.6-1.35a2.47,2.47,0,0,0-1.08-3.44C36.567,109.66,35.4,110.22,33.777,112.57Z" transform="translate(925.563 106.634)"/><path class="b" d="M22.384,110.72a2.6,2.6,0,0,0-2.87-2.52,2.722,2.722,0,1,0,.38,5.43,2.61,2.61,0,0,0,2.49-2.91Z" transform="translate(954.246 103.972)"/><path class="b" d="M33.852,134.15a2.72,2.72,0,1,0-2.76-2.65,2.6,2.6,0,0,0,2.76,2.65Z" transform="translate(926.008 136.17)"/><path class="b" d="M26.388,124.56a2.72,2.72,0,1,0,2.62-2.78,2.59,2.59,0,0,0-2.62,2.78Z" transform="translate(935.422 136.17)"/><path class="b" d="M32.242,125.68a2.68,2.68,0,1,0,2.54-2.75,2.68,2.68,0,0,0-2.54,2.75Z" transform="translate(923.788 136.17)"/><path class="b" d="M39.665,129.58a2.68,2.68,0,1,0,2.69,2.56,2.68,2.68,0,0,0-2.69-2.56Z" transform="translate(914.275 136.17)"/><path class="b" d="M5.278,87.73a2.68,2.68,0,1,0,2.67,2.61,2.68,2.68,0,0,0-2.67-2.61Z" transform="translate(983.092 84.259)"/><path class="b" d="M45.18,147.1H41.84a2.68,2.68,0,1,1,3.34,0Z" transform="translate(906.61 136.17)"/><path class="b" d="M10.047,100A2.68,2.68,0,1,0,7.3,97.46a2.68,2.68,0,0,0,2.75,2.54Z" transform="translate(973.683 90.896)"/><path class="b" d="M30.193,121.36a2.67,2.67,0,1,0-1.921-.814,2.68,2.68,0,0,0,1.921.814Z" transform="translate(933.227 111.41)"/><path class="b" d="M33.36,119.76a2.67,2.67,0,1,0,2.7-2.65A2.82,2.82,0,0,0,33.36,119.76Z" transform="translate(921.57 112.46)"/><path class="b" d="M11.021,94.18a2.61,2.61,0,1,0-.04,0Z" transform="translate(971.479 85.313)"/><path class="b" d="M23.506,106.22a2.82,2.82,0,0,0,2.65,2.66,2.68,2.68,0,1,0,0-5.35,2.83,2.83,0,0,0-2.65,2.69Z" transform="translate(941.124 99.429)"/><path class="b" d="M45.5,130.7a2.67,2.67,0,1,0,2.63,2.71,2.81,2.81,0,0,0-2.63-2.71Z" transform="translate(902.71 136.17)"/><path class="b" d="M18.945,99.31a2.82,2.82,0,0,0,2.71,2.64,2.67,2.67,0,0,0-.07-5.34A2.81,2.81,0,0,0,18.945,99.31Z" transform="translate(950.395 92.774)"/><path class="b" d="M52.52,147.1v-.09a2.63,2.63,0,0,1,5.26-.05s0,.09,0,.14Z" transform="translate(883.33 136.17)"/><path class="b" d="M48.65,134.48a2.63,2.63,0,1,0,2.67-2.62A2.72,2.72,0,0,0,48.65,134.48Z" transform="translate(891.07 136.17)"/><path class="b" d="M3.71,84.63a2.72,2.72,0,0,0,2.71,2.58,2.63,2.63,0,0,0-.1-5.26,2.72,2.72,0,0,0-2.61,2.68Z" transform="translate(980.92 78.652)"/><path class="b" d="M9.51,85.71a2.72,2.72,0,0,0,2.68,2.61,2.63,2.63,0,1,0,0-5.26,2.72,2.72,0,0,0-2.68,2.65Z" transform="translate(969.3 79.717)"/><path class="b" d="M46.57,130.18a2.63,2.63,0,1,0-2.63-2.67A2.72,2.72,0,0,0,46.57,130.18Z" transform="translate(900.49 136.17)"/><path class="b" d="M24.811,100.32a2.63,2.63,0,1,0,2.72-2.57,2.72,2.72,0,0,0-2.72,2.57Z" transform="translate(938.749 93.815)"/><path class="b" d="M22.8,90.82a2.63,2.63,0,1,0,2.56,2.73,2.72,2.72,0,0,0-2.56-2.73Z" transform="translate(948.172 87.164)"/><path class="b" d="M32.15,104.4a2.63,2.63,0,1,0,2.63,2.66,2.71,2.71,0,0,0-2.63-2.66Z" transform="translate(929.33 100.198)"/><path class="b" d="M42.7,117.69a2.62,2.62,0,1,0-2.64-2.56A2.83,2.83,0,0,0,42.7,117.69Z" transform="translate(908.269 107.909)"/><path class="b" d="M45.05,121.74a2.62,2.62,0,1,0,2.57-2.63,2.84,2.84,0,0,0-2.57,2.63Z" transform="translate(898.29 136.17)"/><path class="b" d="M35.37,108.16a2.83,2.83,0,0,0,2.6,2.6,2.62,2.62,0,1,0,0-5.24,2.83,2.83,0,0,0-2.6,2.64Z" transform="translate(917.67 101.259)"/><path class="b" d="M33.089,98.59a2.62,2.62,0,1,0,2.346,1.338A2.62,2.62,0,0,0,33.089,98.59Z" transform="translate(927.331 94.608)"/><path class="b" d="M2.6,75.31A2.55,2.55,0,0,1,4.3,76v3.84a2.56,2.56,0,0,1-1.68.7,2.62,2.62,0,1,1,0-5.24Z" transform="translate(989.33 72.259)"/><path class="b" d="M49.82,128.63a2.56,2.56,0,1,0,2.58-2.53,2.61,2.61,0,0,0-2.58,2.53Z" transform="translate(888.87 136.17)"/><path class="b" d="M4.9,78.74a2.62,2.62,0,0,0,2.54,2.58,2.56,2.56,0,1,0,0-5.12A2.62,2.62,0,0,0,4.9,78.74Z" transform="translate(978.73 73.061)"/><path class="b" d="M55.9,138.57a2.56,2.56,0,1,0,2.61,2.51,2.62,2.62,0,0,0-2.61-2.51Z" transform="translate(881.731 136.17)"/><path class="b" d="M18,89.36a2.56,2.56,0,1,0-2.56-2.55A2.62,2.62,0,0,0,18,89.36Z" transform="translate(957.63 80.77)"/><path class="b" d="M25.98,94.56A2.56,2.56,0,1,0,28.53,92a2.62,2.62,0,0,0-2.55,2.56Z" transform="translate(936.55 88.21)"/><path class="b" d="M48.464,113.46a2.45,2.45,0,1,0,2.49,2.33,2.28,2.28,0,0,0-2.49-2.33Z" transform="translate(896.616 108.616)"/><path class="b" d="M23.94,90.07a2.45,2.45,0,1,0-2.265-1.09A2.45,2.45,0,0,0,23.94,90.07Z" transform="translate(945.97 81.541)"/><path class="b" d="M.087,72.15a2.25,2.25,0,0,0,2.45,2.4,2.445,2.445,0,1,0-.08-4.89,2.26,2.26,0,0,0-2.37,2.49Z" transform="translate(988.613 66.685)"/><path class="b" d="M39.022,99.88a2.45,2.45,0,1,0,2.51,2.31,2.28,2.28,0,0,0-2.51-2.31Z" transform="translate(915.458 95.614)"/><path class="b" d="M57.119,137.76a2.45,2.45,0,1,0-2.45-2.52,2.25,2.25,0,0,0,2.45,2.52Z" transform="translate(879.411 136.17)"/><path class="b" d="M10.768,79.87a2.27,2.27,0,0,0,2.47,2.44,2.45,2.45,0,0,0-.14-4.89,2.26,2.26,0,0,0-2.33,2.45Z" transform="translate(967.392 74.115)"/><path class="b" d="M18.72,78.53a2.442,2.442,0,1,0,2.53,2.35,2.442,2.442,0,0,0-2.53-2.35Z" transform="translate(956.01 75.168)"/><path class="b" d="M50.79,122.87a2.44,2.44,0,1,0,2.38-2.47,2.26,2.26,0,0,0-2.38,2.47Z" transform="translate(887.18 136.17)"/><path class="b" d="M58.42,147.1a2.22,2.22,0,0,1,2.22-1.49A2.25,2.25,0,0,1,63,147.1Z" transform="translate(872.21 136.17)"/><path class="b" d="M43.837,111.7a2.45,2.45,0,1,0-2.5-2.32,2.28,2.28,0,0,0,2.5,2.32Z" transform="translate(906.063 102.25)"/><path class="b" d="M36.759,95.63a2.26,2.26,0,0,0-2.44-2.41,2.445,2.445,0,1,0,.07,4.89,2.26,2.26,0,0,0,2.37-2.48Z" transform="translate(924.951 89.235)"/><path class="b" d="M59.38,142.26a2.44,2.44,0,1,0,2.39-2.46,2.25,2.25,0,0,0-2.39,2.46Z" transform="translate(870 136.17)"/><path class="b" d="M55.761,129.46a2.44,2.44,0,1,0,2.47-2.41,2.36,2.36,0,0,0-2.47,2.41Z" transform="translate(877.229 136.17)"/><path class="b" d="M47.144,110.13a2.43,2.43,0,1,0,2.38-2.48,2.36,2.36,0,0,0-2.38,2.48Z" transform="translate(894.486 103.027)"/><path class="b" d="M29.4,91.17a2.43,2.43,0,1,0-2.45-2.42,2.36,2.36,0,0,0,2.45,2.42Z" transform="translate(934.869 82.605)"/><path class="b" d="M44.891,105.86a2.43,2.43,0,1,0-2.42-2.44,2.36,2.36,0,0,0,2.42,2.44Z" transform="translate(903.829 96.663)"/><path class="b" d="M5.984,73a2.37,2.37,0,0,0,2.54,2.37A2.44,2.44,0,0,0,8.3,70.5,2.37,2.37,0,0,0,5.984,73Z" transform="translate(976.906 67.48)"/><path class="b" d="M62.9,134a2.44,2.44,0,1,0,1.741.69A2.43,2.43,0,0,0,62.9,134Z" transform="translate(867.73 136.17)"/><path class="b" d="M22.242,81.87a2.44,2.44,0,1,0,.679-1.75,2.43,2.43,0,0,0-.679,1.75Z" transform="translate(944.288 75.961)"/><path class="b" d="M40.15,94.07a2.43,2.43,0,1,0,1.744.7,2.43,2.43,0,0,0-1.744-.7Z" transform="translate(913.25 90.03)"/><path class="b" d="M54.28,114.58a2.44,2.44,0,1,0,1.744.693,2.43,2.43,0,0,0-1.744-.693Z" transform="translate(884.97 109.659)"/><path class="b" d="M60.1,115.73a2.4,2.4,0,1,0,2.46,2.3,2.4,2.4,0,0,0-2.46-2.3Z" transform="translate(873.314 110.713)"/><path class="b" d="M55.37,108.79a2.4,2.4,0,1,0,2.43,2.37,2.4,2.4,0,0,0-2.43-2.37Z" transform="translate(882.83 104.074)"/><path class="b" d="M1.271,57.25v4.2a2.369,2.369,0,0,1,0-4.2Z" transform="translate(992.359 54.538)"/><path class="b" d="M61.631,130.54a2.4,2.4,0,1,0,2.43-2.34A2.43,2.43,0,0,0,61.631,130.54Z" transform="translate(865.569 136.17)"/><path class="b" d="M48.32,104.51a2.4,2.4,0,1,0,2.39-2.37,2.43,2.43,0,0,0-2.39,2.37Z" transform="translate(892.19 97.713)"/><path class="b" d="M14.151,76.45a2.4,2.4,0,1,0-2.42-2.35,2.43,2.43,0,0,0,2.42,2.35Z" transform="translate(965.369 68.544)"/><path class="b" d="M64.78,127.17a2.4,2.4,0,1,0-2.33-2.42,2.43,2.43,0,0,0,2.33,2.42Z" transform="translate(863.93 136.17)"/><path class="b" d="M17.551,75.11a2.4,2.4,0,1,0,2.41-2.35,2.43,2.43,0,0,0-2.41,2.35Z" transform="translate(953.729 69.606)"/><path class="b" d="M56.64,123.93a2.4,2.4,0,1,0,2.38-2.39,2.43,2.43,0,0,0-2.38,2.39Z" transform="translate(875.55 136.17)"/><path class="b" d="M12.83,68.21a2.4,2.4,0,1,0,2.37-2.38,2.4,2.4,0,0,0-2.37,2.38Z" transform="translate(963.17 62.976)"/><path class="b" d="M25.726,73.87a2.4,2.4,0,1,0,2.45,2.3A2.4,2.4,0,0,0,25.726,73.87Z" transform="translate(942.074 70.668)"/><path class="b" d="M32.8,89.8a2.4,2.4,0,1,0,2.42-2.36A2.43,2.43,0,0,0,32.8,89.8Z" transform="translate(923.229 83.65)"/><path class="b" d="M66.34,137.5a2.4,2.4,0,1,0,2.39-2.37A2.4,2.4,0,0,0,66.34,137.5Z" transform="translate(856.15 136.17)"/><path class="b" d="M9.41,65a2.4,2.4,0,1,0,2.39,2.39A2.4,2.4,0,0,0,9.41,65Z" transform="translate(974.83 62.182)"/><path class="b" d="M45.75,95.21a2.4,2.4,0,1,0,2.38,2.38,2.4,2.4,0,0,0-2.38-2.38Z" transform="translate(902.17 91.083)"/><path class="b" d="M1.23,66.33a2.43,2.43,0,0,0,2.42,2.35,2.4,2.4,0,0,0-.1-4.8,2.43,2.43,0,0,0-2.32,2.45Z" transform="translate(986.4 61.111)"/><path class="b" d="M28.09,82.9a2.4,2.4,0,1,0,2.38-2.38A2.43,2.43,0,0,0,28.09,82.9Z" transform="translate(932.65 77.03)"/><path class="b" d="M38.62,90.67a2.4,2.4,0,1,0,2.42-2.39,2.4,2.4,0,0,0-2.42,2.39Z" transform="translate(911.59 84.453)"/><path class="b" d="M38.71,84a2.4,2.4,0,1,0-2.36,2.39A2.4,2.4,0,0,0,38.71,84Z" transform="translate(921.01 78.054)"/><path class="b" d="M65.2,143.33a2.4,2.4,0,1,0,2.36-2.33A2.43,2.43,0,0,0,65.2,143.33Z" transform="translate(858.428 136.17)"/><path class="b" d="M44.5,91.76a2.35,2.35,0,1,0,.724-1.667A2.35,2.35,0,0,0,44.5,91.76Z" transform="translate(899.93 85.502)"/><path class="b" d="M49.211,98.67A2.35,2.35,0,1,0,49.945,97a2.35,2.35,0,0,0-.734,1.668Z" transform="translate(890.509 92.117)"/><path class="b" d="M56.577,103a2.35,2.35,0,1,0,1.665.731A2.35,2.35,0,0,0,56.577,103Z" transform="translate(880.553 98.466)"/><path class="b" d="M31.67,79.45a2.35,2.35,0,1,0-1.7-.656,2.35,2.35,0,0,0,1.7.656Z" transform="translate(930.43 71.461)"/><path class="b" d="M71.111,144.14a2.35,2.35,0,1,0,.731-1.665,2.35,2.35,0,0,0-.731,1.665Z" transform="translate(846.709 136.17)"/><path class="b" d="M18.711,69.3a2.34,2.34,0,1,0,.724-1.654A2.35,2.35,0,0,0,18.711,69.3Z" transform="translate(951.509 64.05)"/><path class="b" d="M2.36,60.43a2.35,2.35,0,1,0,.724-1.667A2.35,2.35,0,0,0,2.36,60.43Z" transform="translate(984.21 55.551)"/><path class="b" d="M61.31,114.66a2.35,2.35,0,1,0-1.7-.663A2.36,2.36,0,0,0,61.31,114.66Z" transform="translate(871.11 105.116)"/><path class="b" d="M69.626,129.35a2.35,2.35,0,1,0,1.659.745A2.35,2.35,0,0,0,69.626,129.35Z" transform="translate(854.494 136.17)"/><path class="b" d="M72.231,138.29a2.34,2.34,0,1,0,2.34-2.29A2.46,2.46,0,0,0,72.231,138.29Z" transform="translate(844.489 136.17)"/><path class="b" d="M37.443,80.54a2.34,2.34,0,1,0-2.36-2.26A2.46,2.46,0,0,0,37.443,80.54Z" transform="translate(918.787 72.511)"/><path class="b" d="M42.018,82.52a2.34,2.34,0,1,0,2.44,2.17,2.45,2.45,0,0,0-2.44-2.17Z" transform="translate(909.382 78.875)"/><path class="b" d="M24.541,70.4a2.34,2.34,0,1,0,2.32-2.3,2.46,2.46,0,0,0-2.32,2.3Z" transform="translate(939.869 65.093)"/><path class="b" d="M8.189,61.57a2.46,2.46,0,0,0,2.41,2.34,2.341,2.341,0,0,0-.14-4.68,2.47,2.47,0,0,0-2.27,2.34Z" transform="translate(972.571 56.614)"/><path class="b" d="M63.63,118.94a2.34,2.34,0,1,0,2.31-2.33A2.46,2.46,0,0,0,63.63,118.94Z" transform="translate(861.69 111.461)"/><path class="b" d="M70.622,128.23a2.34,2.34,0,1,0-2.3-2.43A2.47,2.47,0,0,0,70.622,128.23Z" transform="translate(852.308 136.17)"/><ellipse class="b" cx="2.28" cy="2.28" rx="2.28" ry="2.28" transform="translate(975.079 121.78) rotate(-91.146)"/><path class="b" d="M2.182,51.25h.09V55.8a2.276,2.276,0,0,1-.09-4.55Z" transform="translate(991.358 48.943)"/><ellipse class="b" cx="2.28" cy="2.28" rx="2.28" ry="2.28" transform="translate(933.978 194.739) rotate(-90.19)"/><ellipse class="b" cx="2.28" cy="2.28" rx="2.28" ry="2.28" transform="matrix(-1, -0.004, 0.004, -1, 943.235, 181.731)"/><ellipse class="b" cx="2.28" cy="2.28" rx="2.28" ry="2.28" transform="translate(933.787 208.314) rotate(-179.38)"/><path class="b" d="M67.12,110.86a2.28,2.28,0,1,0,2.22,2.27,2.44,2.44,0,0,0-2.22-2.27Z" transform="translate(859.51 105.875)"/><path class="b" d="M80.537,147.1H78a2.37,2.37,0,0,1-1-1.76,2.28,2.28,0,1,1,4.55-.11A2.38,2.38,0,0,1,80.537,147.1Z" transform="translate(835.093 136.17)"/><path class="b" d="M34.981,71.17A2.43,2.43,0,0,0,32.541,69a2.276,2.276,0,0,0,.33,4.54A2.45,2.45,0,0,0,34.981,71.17Z" transform="translate(928.219 65.891)"/><path class="b" d="M75.382,135.09a2.28,2.28,0,1,0-2.27-2.21A2.44,2.44,0,0,0,75.382,135.09Z" transform="translate(842.848 136.17)"/><path class="b" d="M19.449,63.45a2.44,2.44,0,0,0,2.29,2.34,2.28,2.28,0,1,0,0-4.55A2.46,2.46,0,0,0,19.449,63.45Z" transform="translate(950.011 58.482)"/><path class="b" d="M47.956,83.69a2.28,2.28,0,1,0,2.3,2.18,2.44,2.44,0,0,0-2.3-2.18Z" transform="translate(897.674 79.927)"/><path class="b" d="M3.368,54.65a2.08,2.08,0,0,0,2.17,2.15,2.165,2.165,0,0,0,0-4.33,2.08,2.08,0,0,0-2.17,2.18Z" transform="translate(982.563 50.03)"/><path class="b" d="M51.611,87.05a2.16,2.16,0,1,0,2.22-2.13,2.07,2.07,0,0,0-2.22,2.13Z" transform="translate(886.089 80.963)"/><path class="b" d="M41.081,79.3a2.16,2.16,0,1,0,2.18-2.15,2.08,2.08,0,0,0-2.18,2.15Z" transform="translate(907.149 73.557)"/><path class="b" d="M61.041,100.62a2.16,2.16,0,1,0,2.23-2.12,2.07,2.07,0,0,0-2.23,2.12Z" transform="translate(867.229 93.911)"/><path class="b" d="M9.169,55.81a2.09,2.09,0,0,0,2.26,2.1,2.161,2.161,0,0,0-.13-4.32,2.08,2.08,0,0,0-2.13,2.22Z" transform="translate(970.941 51.097)"/><path class="b" d="M65.751,107.55a2.16,2.16,0,1,0,2.24-2.11,2.07,2.07,0,0,0-2.24,2.11Z" transform="translate(857.809 100.528)"/><path class="b" d="M36.093,72.4a2.16,2.16,0,1,0,2.18-2.17,2.07,2.07,0,0,0-2.18,2.17Z" transform="translate(917.127 66.958)"/><path class="b" d="M69.662,120a2.17,2.17,0,1,0,2.23-2.1,2.08,2.08,0,0,0-2.23,2.1Z" transform="translate(849.968 136.17)"/><path class="b" d="M58.512,95.89a2.16,2.16,0,1,0-2.19-2.16,2.08,2.08,0,0,0,2.19,2.16Z" transform="translate(876.668 87.308)"/><path class="b" d="M25.553,64.64a2.16,2.16,0,1,0,2.18-2.18,2.07,2.07,0,0,0-2.18,2.18Z" transform="translate(938.207 59.55)"/><path class="b" d="M78.226,139.54a2.16,2.16,0,1,0,2.13-2.22,2.08,2.08,0,0,0-2.13,2.22Z" transform="translate(832.864 136.17)"/><path class="b" d="M74.342,127a2.16,2.16,0,1,0,2.2-2.15,2.07,2.07,0,0,0-2.2,2.15Z" transform="translate(840.628 136.17)"/><path class="b" d="M47.762,74.35a2.12,2.12,0,1,0,2-2.15,2.06,2.06,0,0,0-2,2.15Z" transform="translate(893.868 68.796)"/><path class="b" d="M41.934,73.54a2.13,2.13,0,1,0,2-2.18,2.07,2.07,0,0,0-2,2.18Z" transform="translate(905.506 68.005)"/><path class="b" d="M4.537,48.84a2.07,2.07,0,0,0,2.11,2.1,2.125,2.125,0,0,0,0-4.25,2.07,2.07,0,0,0-2.11,2.15Z" transform="translate(980.323 44.494)"/><path class="b" d="M1.934,45.86a2.23,2.23,0,0,1,.92.14v4a2.21,2.21,0,0,1-.79.16,2.13,2.13,0,0,1-.13-4.25Z" transform="translate(990.776 43.716)"/><path class="b" d="M71.613,108.47a2.12,2.12,0,1,0,2-2.17,2.07,2.07,0,0,0-2,2.17Z" transform="translate(846.167 101.291)"/><path class="b" d="M26.7,58.77a2.12,2.12,0,1,0,2.12-2.09,2.07,2.07,0,0,0-2.12,2.09Z" transform="translate(935.99 54.01)"/><path class="b" d="M22.941,59.81a2.12,2.12,0,1,0-2.06-2.15,2.08,2.08,0,0,0,2.06,2.15Z" transform="translate(947.629 52.954)"/><path class="b" d="M72.59,116.37a2.13,2.13,0,1,0-2.09-2.24,2.07,2.07,0,0,0,2.09,2.24Z" transform="translate(848.38 106.845)"/><path class="b" d="M15.05,56.56a2.13,2.13,0,1,0,2.08-2.11,2.08,2.08,0,0,0-2.08,2.11Z" transform="translate(959.27 51.892)"/><path class="b" d="M76.322,115.39a2.12,2.12,0,1,0,2-2.15,2.06,2.06,0,0,0-2,2.15Z" transform="translate(836.748 107.904)"/><path class="b" d="M83.086,147.1a2.22,2.22,0,0,1-.12-.64,2.13,2.13,0,0,1,4.25-.2,2.25,2.25,0,0,1-.11.84Z" transform="translate(823.444 136.17)"/><path class="b" d="M59.543,86.06a2.12,2.12,0,1,0,2.16,2,2.07,2.07,0,0,0-2.16-2Z" transform="translate(874.457 82.006)"/><path class="b" d="M85.9,142.7a2.12,2.12,0,1,0-2.07-2.14,2.07,2.07,0,0,0,2.07,2.14Z" transform="translate(821.729 136.17)"/><path class="b" d="M62.192,94.87a2.12,2.12,0,1,0,2.05-2.16,2.07,2.07,0,0,0-2.05,2.16Z" transform="translate(865.008 88.343)"/><path class="b" d="M31.4,65.42a2.13,2.13,0,1,0,2.12-2.09,2.08,2.08,0,0,0-2.12,2.09Z" transform="translate(926.569 60.356)"/><path class="b" d="M75.506,121.2a2.12,2.12,0,1,0,2.06-2.2,2.07,2.07,0,0,0-2.06,2.2Z" transform="translate(838.384 136.17)"/><path class="b" d="M52.481,81.25a2.12,2.12,0,1,0,2.09-2.12,2.07,2.07,0,0,0-2.09,2.12Z" transform="translate(884.429 75.403)"/><path class="b" d="M39.283,64.44a2.12,2.12,0,1,0,2.18,2,2.07,2.07,0,0,0-2.18-2Z" transform="translate(914.937 61.403)"/><path class="b" d="M46.651,80.15A2.13,2.13,0,1,0,48.7,78a2.08,2.08,0,0,0-2.05,2.15Z" transform="translate(896.069 74.336)"/><path class="b" d="M79.081,133.61a2.13,2.13,0,1,0,2.13-2.09,2.07,2.07,0,0,0-2.13,2.09Z" transform="translate(831.209 136.17)"/><path class="b" d="M66.9,101.78a2.12,2.12,0,1,0,2.07-2.14,2.07,2.07,0,0,0-2.07,2.14Z" transform="translate(855.589 94.947)"/><path class="b" d="M12.5,52a2.12,2.12,0,1,0-2.14-2,2.07,2.07,0,0,0,2.14,2Z" transform="translate(968.683 45.511)"/><path class="b" d="M82.426,129.94a2.12,2.12,0,1,0-2.22-2,2.07,2.07,0,0,0,2.22,2Z" transform="translate(828.984 136.17)"/><path class="b" d="M18.26,53.14A2.11,2.11,0,1,0,16.17,51,2.19,2.19,0,0,0,18.26,53.14Z" transform="translate(957.07 46.61)"/><path class="b" d="M68.06,95.95a2.07,2.07,0,1,0,2-2.07,2.14,2.14,0,0,0-2,2.07Z" transform="translate(853.37 89.395)"/><path class="b" d="M34.7,62a2.07,2.07,0,1,0-2.13-2,2.13,2.13,0,0,0,2.13,2Z" transform="translate(924.348 55.097)"/><path class="b" d="M63.072,89a2.07,2.07,0,1,0,2.05-2,2.13,2.13,0,0,0-2.05,2Z" transform="translate(863.348 82.845)"/><path class="b" d="M87.028,132.69a2.07,2.07,0,1,0,2.08,2,2.13,2.13,0,0,0-2.08-2Z" transform="translate(819.552 136.17)"/><path class="b" d="M45.168,65.6a2.07,2.07,0,1,0,2.09,2A2.14,2.14,0,0,0,45.168,65.6Z" transform="translate(903.252 62.467)"/><path class="b" d="M2.011,40.1a2.14,2.14,0,0,1,2,1.39v1.38a2.15,2.15,0,0,1-1.88,1.37,2.071,2.071,0,1,1-.12-4.14Z" transform="translate(989.619 38.185)"/><path class="b" d="M81.38,122a2.06,2.06,0,1,0,2-2.1,2.13,2.13,0,0,0-2,2.1Z" transform="translate(826.75 136.17)"/><path class="b" d="M91.812,139.63a2.25,2.25,0,0,0-2.12,2,2.06,2.06,0,1,0,2.12-2Z" transform="translate(810.128 136.17)"/><path class="b" d="M88.9,147.1a2.05,2.05,0,1,1,4.1,0Z" transform="translate(811.73 136.17)"/><path class="b" d="M40.492,62.8a2.06,2.06,0,1,0-2.08-2A2.24,2.24,0,0,0,40.492,62.8Z" transform="translate(912.688 55.87)"/><path class="b" d="M24.19,53.93a2.066,2.066,0,1,0-2.115-2.015A2.066,2.066,0,0,0,24.19,53.93Z" transform="translate(945.35 47.418)"/><path class="b" d="M53.651,75.48a2.06,2.06,0,1,0,2-2.11A2.24,2.24,0,0,0,53.651,75.48Z" transform="translate(882.209 69.855)"/><path class="b" d="M58.37,82.38a2.06,2.06,0,1,0,2-2.08A2.24,2.24,0,0,0,58.37,82.38Z" transform="translate(872.77 76.453)"/><path class="b" d="M72.78,102.63a2.06,2.06,0,1,0,2-2.1,2.24,2.24,0,0,0-2,2.1Z" transform="translate(843.95 95.714)"/><path class="b" d="M7.62,40.93a2.062,2.062,0,1,0,2.16,1.96,2.062,2.062,0,0,0-2.16-1.96Z" transform="translate(978.19 38.969)"/><path class="b" d="M79.531,107.47a2.24,2.24,0,0,0-2,2.13,2.06,2.06,0,1,0,2-2.13Z" transform="translate(834.449 102.322)"/><path class="b" d="M86.092,129a2.24,2.24,0,0,0,2.12,2,2.06,2.06,0,1,0-2.12-2Z" transform="translate(817.328 136.17)"/><path class="b" d="M11.525,44.06a2.24,2.24,0,0,0,2,2.1,2.08,2.08,0,0,0,.07-4.16A2.24,2.24,0,0,0,11.525,44.06Z" transform="translate(966.465 40)"/><path class="b" d="M49,68.75a2,2,0,1,0,2.06-2,2.06,2.06,0,0,0-2.06,2Z" transform="translate(891.63 63.499)"/><path class="b" d="M64.24,83.19a2,2,0,1,0,2-2A2.05,2.05,0,0,0,64.24,83.19Z" transform="translate(861.15 77.237)"/><path class="b" d="M17.4,45.26a2,2,0,1,0,2-2A2.06,2.06,0,0,0,17.4,45.26Z" transform="translate(954.83 41.154)"/><path class="b" d="M84.322,118.46a2,2,0,1,0-2-2.09A2.06,2.06,0,0,0,84.322,118.46Z" transform="translate(824.988 108.887)"/><path class="b" d="M90.861,135.93a2,2,0,1,0,2-2.06,2.06,2.06,0,0,0-2,2.06Z" transform="translate(807.909 136.17)"/><path class="b" d="M35.79,52.09a2,2,0,1,0,2,2,2.06,2.06,0,0,0-2-2Z" transform="translate(922.05 49.554)"/><path class="b" d="M29.92,55a2,2,0,1,0-2-2A2.06,2.06,0,0,0,29.92,55Z" transform="translate(933.79 48.517)"/><path class="b" d="M71,92.12a2,2,0,1,0-2-2A2.05,2.05,0,0,0,71,92.12Z" transform="translate(851.63 83.829)"/><path class="b" d="M89.068,121.12A2,2,0,1,0,91,123.2,2.05,2.05,0,0,0,89.068,121.12Z" transform="translate(815.632 136.17)"/><path class="b" d="M73.95,97.1a2,2,0,1,0,2-2,2.06,2.06,0,0,0-2,2Z" transform="translate(841.73 90.469)"/><path class="b" d="M44.407,61.83a1.88,1.88,0,0,0,3.76,0A1.7,1.7,0,0,0,46.337,60a1.75,1.75,0,0,0-1.93,1.83Z" transform="translate(901.053 56.958)"/><path class="b" d="M61.563,78.42a1.88,1.88,0,1,0,0-3.76,1.7,1.7,0,0,0-1.85,1.8,1.75,1.75,0,0,0,1.85,1.96Z" transform="translate(870.487 70.904)"/><path class="b" d="M1.133,36.4a1.75,1.75,0,0,0,2,1.82,1.7,1.7,0,0,0,1.79-1.86,1.74,1.74,0,0,0-1.9-1.9,1.75,1.75,0,0,0-1.89,1.94Z" transform="translate(987.577 32.725)"/><path class="b" d="M80.7,101.82a1.88,1.88,0,0,0,0,3.76,1.7,1.7,0,0,0,1.82-1.83,1.74,1.74,0,0,0-1.82-1.93Z" transform="translate(832.281 96.702)"/><path class="b" d="M58.679,69.5a1.85,1.85,0,1,0-1.71,2,1.77,1.77,0,0,0,1.71-2Z" transform="translate(879.951 64.368)"/><path class="b" d="M72.071,86.15a1.85,1.85,0,1,0-1.86-1.8,1.76,1.76,0,0,0,1.86,1.8Z" transform="translate(849.509 78.273)"/><path class="b" d="M6.792,37.15A1.76,1.76,0,0,0,8.592,39a1.85,1.85,0,0,0,0-3.7,1.76,1.76,0,0,0-1.8,1.85Z" transform="translate(976.398 33.511)"/><path class="b" d="M14.484,36.44A1.85,1.85,0,1,0,16.32,38.2a1.85,1.85,0,0,0-1.836-1.76Z" transform="translate(964.686 34.593)"/><path class="b" d="M83.53,110.67a1.85,1.85,0,1,0,1.85-1.85,1.85,1.85,0,0,0-1.85,1.85Z" transform="translate(822.87 103.305)"/><path class="b" d="M74.934,91.26a1.85,1.85,0,1,0,1.79-1.87,1.76,1.76,0,0,0-1.79,1.87Z" transform="translate(840.066 84.859)"/><path class="b" d="M23.091,46a1.85,1.85,0,1,0,1.87-1.8,1.77,1.77,0,0,0-1.87,1.8Z" transform="translate(943.749 41.958)"/><path class="b" d="M28.916,47.21a1.85,1.85,0,1,0,1.76-1.9,1.76,1.76,0,0,0-1.76,1.9Z" transform="translate(932.104 43.011)"/><path class="b" d="M88.246,117.35a1.85,1.85,0,1,0,1.76-1.9,1.76,1.76,0,0,0-1.76,1.9Z" transform="translate(813.444 109.597)"/><path class="b" d="M39.457,55a1.85,1.85,0,1,0,1.76-1.91A1.76,1.76,0,0,0,39.457,55Z" transform="translate(911.023 50.397)"/><path class="b" d="M95.727,142.58a1.85,1.85,0,1,0,1.75-1.91,1.76,1.76,0,0,0-1.75,1.91Z" transform="translate(798.483 136.17)"/><path class="b" d="M79.644,97.88A1.85,1.85,0,1,0,81.454,96a1.76,1.76,0,0,0-1.81,1.88Z" transform="translate(830.646 91.134)"/><path class="b" d="M94.06,131.89a1.85,1.85,0,0,0,.14-3.69,1.77,1.77,0,0,0-2,1.84,1.75,1.75,0,0,0,1.86,1.85Z" transform="translate(805.57 136.17)"/><path class="b" d="M50.3,62.94a1.85,1.85,0,1,0,1.83-1.83,1.76,1.76,0,0,0-1.83,1.83Z" transform="translate(889.328 58.012)"/><path class="b" d="M65.535,77.43a1.89,1.89,0,0,0,1.92,1.77,1.85,1.85,0,0,0,1.73-2,1.77,1.77,0,0,0-1.84-1.7,1.86,1.86,0,0,0-1.81,1.93Z" transform="translate(858.905 71.673)"/><path class="b" d="M20.232,41.22A1.89,1.89,0,0,0,22,39.29a1.85,1.85,0,0,0-2-1.72,1.77,1.77,0,0,0-1.6,1.85,1.85,1.85,0,0,0,1.83,1.8Z" transform="translate(953.228 35.649)"/><path class="b" d="M98.739,134.87a1.88,1.88,0,0,0-1.88,1.82,1.84,1.84,0,0,0,1.85,1.84,1.77,1.77,0,0,0,1.8-1.74A1.85,1.85,0,0,0,98.739,134.87Z" transform="translate(796.261 136.17)"/><path class="b" d="M93,124.25A1.85,1.85,0,0,0,94.89,126a1.77,1.77,0,0,0,1.74-1.73,1.85,1.85,0,0,0-1.81-1.87A1.88,1.88,0,0,0,93,124.25Z" transform="translate(804 136.17)"/><path class="b" d="M60.818,70.67a1.85,1.85,0,0,0,1.82,1.87,1.77,1.77,0,0,0,1.83-1.71,1.86,1.86,0,0,0-1.74-1.94,1.89,1.89,0,0,0-1.91,1.78Z" transform="translate(868.342 65.376)"/><path class="b" d="M34.765,48.32a1.89,1.89,0,0,0,1.92,1.78,1.85,1.85,0,0,0,1.73-2,1.77,1.77,0,0,0-1.84-1.7,1.85,1.85,0,0,0-1.81,1.92Z" transform="translate(920.445 44.047)"/><path class="b" d="M47.16,57.86a1.89,1.89,0,0,0,1.78-1.92,1.85,1.85,0,0,0-2-1.73A1.77,1.77,0,0,0,45.28,56a1.85,1.85,0,0,0,1.88,1.86Z" transform="translate(899.41 51.441)"/><path class="b" d="M86.571,106.65a1.89,1.89,0,0,0,1.78-1.92,1.85,1.85,0,0,0-2-1.73,1.77,1.77,0,0,0-1.7,1.84,1.85,1.85,0,0,0,1.92,1.81Z" transform="translate(820.629 97.745)"/><path class="b" d="M89.425,111.57a1.81,1.81,0,0,0,1.87,1.68,1.77,1.77,0,0,0,1.7-1.94,1.69,1.69,0,0,0-1.9-1.6,1.76,1.76,0,0,0-1.67,1.86Z" transform="translate(811.205 104.031)"/><path class="b" d="M31.852,39.53a1.77,1.77,0,0,0-1.75,1.78,1.69,1.69,0,0,0,1.71,1.79,1.77,1.77,0,0,0,1.83-1.82,1.82,1.82,0,0,0-1.79-1.75Z" transform="translate(929.888 37.493)"/><path class="b" d="M3.7,28.73a1.79,1.79,0,0,0,.2,3.57,1.73,1.73,0,0,0,1.7-1.82,1.83,1.83,0,0,0-1.9-1.75Z" transform="translate(985.931 27.248)"/><path class="b" d="M76.12,85.55a1.72,1.72,0,0,0,1.76,1.63,1.69,1.69,0,0,0,1.8-1.7,1.8,1.8,0,0,0-1.82-1.85,1.89,1.89,0,0,0-1.74,1.92Z" transform="translate(837.83 79.31)"/><path class="b" d="M7.919,31.61a1.82,1.82,0,0,0,1.76,1.79,1.77,1.77,0,0,0,1.82-1.83,1.69,1.69,0,0,0-1.8-1.71,1.77,1.77,0,0,0-1.78,1.75Z" transform="translate(974.211 28.312)"/><path class="b" d="M40.637,49.16a1.82,1.82,0,0,0,1.83,1.71A1.77,1.77,0,0,0,44.207,49a1.69,1.69,0,0,0-1.87-1.63,1.77,1.77,0,0,0-1.7,1.79Z" transform="translate(908.783 44.9)"/><path class="b" d="M15.57,30.66a1.82,1.82,0,0,0-1.81,1.73,1.77,1.77,0,0,0,1.8,1.85,1.69,1.69,0,0,0,1.73-1.77C17.3,31.4,16.61,30.84,15.57,30.66Z" transform="translate(962.58 29.082)"/><path class="b" d="M66.686,71.87a1.82,1.82,0,0,0,1.82,1.73,1.77,1.77,0,0,0,1.76-1.89,1.69,1.69,0,0,0-1.85-1.65,1.77,1.77,0,0,0-1.73,1.81Z" transform="translate(856.674 66.431)"/><path class="b" d="M82.6,90.26A1.77,1.77,0,0,0,80.834,92a1.69,1.69,0,0,0,1.69,1.81A1.77,1.77,0,0,0,84.374,92,1.82,1.82,0,0,0,82.6,90.26Z" transform="translate(828.426 85.597)"/><path class="b" d="M51.167,57.3a1.781,1.781,0,1,0,3.55-.3,1.73,1.73,0,0,0-1.83-1.64,1.84,1.84,0,0,0-1.72,1.94Z" transform="translate(887.743 52.505)"/><path class="b" d="M85.538,99.14a1.784,1.784,0,0,0,3.56-.24,1.73,1.73,0,0,0-1.83-1.69,1.84,1.84,0,0,0-1.73,1.93Z" transform="translate(818.992 92.214)"/><path class="b" d="M98.019,131a1.781,1.781,0,0,0,3.56-.14,1.73,1.73,0,0,0-1.78-1.73,1.84,1.84,0,0,0-1.78,1.87Z" transform="translate(794.031 136.17)"/><path class="b" d="M103.34,145.43a1.82,1.82,0,0,0,1.82-1.73,1.77,1.77,0,0,0-1.8-1.85,1.69,1.69,0,0,0-1.74,1.77C101.61,144.69,102.31,145.25,103.34,145.43Z" transform="translate(692.161 136.17)"/><path class="b" d="M73.128,76.68a1.81,1.81,0,0,0-1.73,1.87,1.77,1.77,0,0,0,2,1.7,1.69,1.69,0,0,0,1.59-1.9,1.76,1.76,0,0,0-1.86-1.67Z" transform="translate(847.232 72.734)"/><path class="b" d="M95.912,116.6a1.82,1.82,0,0,0-1.73,1.82,1.77,1.77,0,0,0,1.89,1.76,1.69,1.69,0,0,0,1.65-1.85,1.77,1.77,0,0,0-1.81-1.73Z" transform="translate(801.718 110.601)"/><path class="b" d="M57.71,62a1.82,1.82,0,0,0-1.82,1.73,1.77,1.77,0,0,0,1.8,1.85,1.69,1.69,0,0,0,1.74-1.77A1.739,1.739,0,0,0,57.71,62Z" transform="translate(878.31 58.809)"/><path class="b" d="M63.324,63.11a1.72,1.72,0,0,0-1.63,1.75,1.69,1.69,0,0,0,1.69,1.8,1.81,1.81,0,0,0,1.85-1.8,1.89,1.89,0,0,0-1.91-1.75Z" transform="translate(866.706 59.849)"/><path class="b" d="M24.282,40.65a1.79,1.79,0,0,0,3.56-.24,1.73,1.73,0,0,0-1.83-1.69,1.84,1.84,0,0,0-1.73,1.93Z" transform="translate(941.508 36.693)"/><path class="b" d="M90.56,105.6a1.71,1.71,0,0,0,1.71,1.77A1.69,1.69,0,0,0,94,105.62a1.63,1.63,0,0,0-1.64-1.69,1.69,1.69,0,0,0-1.8,1.67Z" transform="translate(809.07 98.483)"/><path class="b" d="M98.917,125.35a1.71,1.71,0,0,0,1.77,1.7,1.69,1.69,0,0,0,1.66-1.81,1.63,1.63,0,0,0-1.7-1.63,1.68,1.68,0,0,0-1.73,1.74Z" transform="translate(792.363 136.17)"/><path class="b" d="M104.6,139.52a1.72,1.72,0,0,0,1.62-1.85,1.69,1.69,0,0,0-1.88-1.57,1.63,1.63,0,0,0-1.55,1.77,1.68,1.68,0,0,0,1.81,1.65Z" transform="translate(688.862 136.17)"/><path class="b" d="M21.33,31.85a1.71,1.71,0,0,0-1.71,1.77,1.69,1.69,0,0,0,1.8,1.67,1.63,1.63,0,0,0,1.64-1.69,1.69,1.69,0,0,0-1.73-1.75Z" transform="translate(950.95 30.181)"/><path class="b" d="M36,42.43a1.71,1.71,0,0,0,1.74,1.73,1.69,1.69,0,0,0,1.67-1.77,1.63,1.63,0,0,0-1.67-1.66A1.68,1.68,0,0,0,36,42.43Z" transform="translate(918.222 38.592)"/><path class="b" d="M46.509,50.24a1.69,1.69,0,0,0,1.79,1.68,1.63,1.63,0,0,0,1.65-1.68,1.69,1.69,0,0,0-1.71-1.76,1.72,1.72,0,0,0-1.73,1.76Z" transform="translate(897.171 45.94)"/><path class="b" d="M58.767,56.25a1.76,1.76,0,0,0-1.68,1.69,1.71,1.71,0,0,0,1.76,1.71,1.63,1.63,0,0,0,1.6-1.73,1.71,1.71,0,0,0-1.68-1.67Z" transform="translate(876.093 53.288)"/><path class="b" d="M97.426,110.78c-1.41.28-2,.82-2.07,1.83a1.71,1.71,0,0,0,1.81,1.66c1-.15,1.71-.81,1.51-1.76C98.536,111.81,97.786,111.24,97.426,110.78Z" transform="translate(799.564 105.014)"/><path class="b" d="M73.958,74.24a1.46,1.46,0,0,0,1.61-1.5,1.41,1.41,0,0,0-1.45-1.64,1.43,1.43,0,0,0-1.68,1.54,1.46,1.46,0,0,0,1.52,1.6Z" transform="translate(845.612 67.226)"/><path class="b" d="M82.136,86.21a1.45,1.45,0,0,0,1.5,1.6,1.41,1.41,0,0,0,1.64-1.45,1.43,1.43,0,0,0-1.55-1.67,1.46,1.46,0,0,0-1.59,1.52Z" transform="translate(826.204 80.082)"/><path class="b" d="M77.429,79.62a1.45,1.45,0,0,0,1.58,1.53,1.43,1.43,0,0,0,1.56-1.67A1.41,1.41,0,0,0,78.939,78a1.45,1.45,0,0,0-1.51,1.62Z" transform="translate(835.621 73.76)"/><path class="b" d="M86.859,93.17a1.45,1.45,0,0,0,1.54,1.56,1.43,1.43,0,0,0,1.59-1.63,1.41,1.41,0,0,0-1.59-1.49,1.45,1.45,0,0,0-1.54,1.56Z" transform="translate(816.771 86.619)"/><path class="b" d="M27.1,33.1a1.48,1.48,0,0,0-1.55,1.61,1.43,1.43,0,0,0,1.72,1.53,1.42,1.42,0,0,0,1.44-1.65A1.45,1.45,0,0,0,27.1,33.1Z" transform="translate(939.363 31.3)"/><path class="b" d="M47.875,44.39c.11,1,.62,1.56,1.61,1.53a1.54,1.54,0,0,0,0-3.07,1.48,1.48,0,0,0-1.61,1.54Z" transform="translate(894.854 40.497)"/><path class="b" d="M101.776,117.93c-1,.11-1.63.63-1.6,1.62a1.545,1.545,0,0,0,3.09,0,1.5,1.5,0,0,0-1.49-1.62Z" transform="translate(696.921 136.17)"/><path class="b" d="M52.494,51.27a1.49,1.49,0,0,0,1.56,1.59,1.41,1.41,0,0,0,1.55-1.43,1.43,1.43,0,0,0-1.49-1.66,1.49,1.49,0,0,0-1.62,1.5Z" transform="translate(885.516 47.046)"/><path class="b" d="M32.96,33.94a1.49,1.49,0,0,0-1.52,1.62,1.54,1.54,0,1,0,3.08,0,1.49,1.49,0,0,0-1.56-1.62Z" transform="translate(927.67 32.098)"/><path class="b" d="M69.281,64.43a1.49,1.49,0,0,0-1.53,1.62,1.55,1.55,0,0,0,3.09,0,1.5,1.5,0,0,0-1.56-1.62Z" transform="translate(855.039 60.886)"/><path class="b" d="M84.88,79.14c-1,.06-1.58.54-1.6,1.53a1.54,1.54,0,0,0,3.07.13,1.49,1.49,0,0,0-1.47-1.66Z" transform="translate(823.99 74.779)"/><path class="b" d="M41.991,43.52c.12,1,.65,1.61,1.64,1.58a1.41,1.41,0,0,0,1.45-1.51A1.43,1.43,0,0,0,43.571,42a1.5,1.5,0,0,0-1.58,1.52Z" transform="translate(906.549 39.704)"/><path class="b" d="M104.975,126.17c.11,1,.62,1.56,1.61,1.53a1.54,1.54,0,0,0,0-3.07,1.49,1.49,0,0,0-1.61,1.54Z" transform="translate(682.937 136.17)"/><path class="b" d="M16.6,25.07a1.48,1.48,0,0,0-1.52,1.62,1.42,1.42,0,0,0,1.63,1.48,1.41,1.41,0,0,0,1.45-1.53,1.49,1.49,0,0,0-1.56-1.57Z" transform="translate(960.388)"/><path class="b" d="M10.849,24.24c-1,.07-1.58.56-1.59,1.55a1.42,1.42,0,0,0,1.56,1.56,1.41,1.41,0,0,0,1.52-1.46,1.49,1.49,0,0,0-1.49-1.65Z" transform="translate(972.031)"/><path class="b" d="M5.271,26.5c.42-.59,1.08-1.13,1.2-1.78.17-.93-.5-1.55-1.47-1.57s-1.67.57-1.53,1.5c.1.65.73,1.22,1.13,1.83Z" transform="translate(983.679)"/><path class="b" d="M103.874,132a1.5,1.5,0,0,0,1.65,1.5,1.55,1.55,0,0,0-.1-3.09A1.524,1.524,0,0,0,103.874,132Z" transform="translate(686.151 136.17)"/><path class="b" d="M64.534,60.64A1.49,1.49,0,0,0,66.074,59a1.541,1.541,0,1,0-3.08.1C62.954,60.08,63.574,60.56,64.534,60.64Z" transform="translate(864.556 54.379)"/><path class="b" d="M96.3,106.76c.13,1,.67,1.58,1.65,1.54a1.541,1.541,0,1,0-.09-3.08,1.49,1.49,0,0,0-1.56,1.54Z" transform="translate(797.907 99.457)"/><path class="b" d="M93.191,98.53c-1,.07-1.59.55-1.6,1.55a1.55,1.55,0,0,0,3.09.11,1.5,1.5,0,0,0-1.49-1.66Z" transform="translate(807.349 93.11)"/><path class="b" d="M109.329,143.16c-1,.08-1.65.57-1.66,1.56a1.41,1.41,0,0,0,1.43,1.55,1.43,1.43,0,0,0,1.66-1.46,1.5,1.5,0,0,0-1.43-1.65Z" transform="translate(674.965 136.17)"/><path class="b" d="M110.72,140.63c.38-.58,1-1.14,1.07-1.75.11-1-.61-1.52-1.58-1.45a1.29,1.29,0,0,0-1.32,1.57c.14.61.79,1.11,1.22,1.66Z" transform="translate(671.653 136.17)"/><path class="b" d="M75.377,68.57c.41-.56,1.07-1.07,1.18-1.68.17-.94-.51-1.56-1.49-1.54s-1.56.61-1.41,1.48c.1.62.72,1.15,1.11,1.73Z" transform="translate(843.413 61.831)"/><path class="b" d="M111.465,134.81c.39-.57,1-1.09,1.13-1.71a1.28,1.28,0,0,0-1.39-1.49c-1,0-1.66.58-1.5,1.52.1.61.75,1.13,1.16,1.69Z" transform="translate(669.253 136.17)"/><path class="b" d="M68.916,60.44c.55.42,1.05,1.06,1.67,1.19a1.29,1.29,0,0,0,1.55-1.34c.06-1-.52-1.68-1.46-1.56-.61.08-1.16.71-1.74,1.09Z" transform="translate(852.574 55.447)"/><path class="b" d="M58.376,52.68c.55.42,1.05,1.06,1.67,1.2a1.29,1.29,0,0,0,1.56-1.34c.06-1-.51-1.69-1.47-1.57-.62.08-1.17.71-1.74,1.09Z" transform="translate(873.644 48.123)"/><path class="b" d="M107.2,118.62c-.39.57-1,1.1-1.11,1.72a1.28,1.28,0,0,0,1.41,1.48c1,0,1.65-.6,1.49-1.54-.11-.61-.77-1.12-1.18-1.68Z" transform="translate(679.81 136.17)"/><path class="b" d="M28,27.12c-.41.55-1.07,1.06-1.18,1.67-.17.94.5,1.56,1.48,1.55a1.28,1.28,0,0,0,1.42-1.48c-.1-.62-.72-1.16-1.1-1.73Z" transform="translate(937.101 25.661)"/><path class="b" d="M92.766,94.54c.55.42,1.06,1.06,1.67,1.2A1.29,1.29,0,0,0,96,94.4c.06-1-.52-1.68-1.47-1.57-.62.08-1.16.71-1.74,1.09Z" transform="translate(804.864 87.656)"/><path class="b" d="M20.976,28.08c.57.39,1.11,1,1.72,1.12,1,.13,1.54-.57,1.49-1.54a1.29,1.29,0,0,0-1.54-1.36c-.62.13-1.13.76-1.69,1.17Z" transform="translate(948.484)"/><path class="b" d="M89.8,89.09c.41-.56,1.07-1.07,1.18-1.68.17-.94-.51-1.56-1.49-1.55s-1.56.61-1.42,1.49c.1.62.72,1.16,1.11,1.73Z" transform="translate(814.565 81.242)"/><path class="b" d="M37.314,36.95c.57.39,1.1,1,1.72,1.13a1.29,1.29,0,0,0,1.5-1.4c0-1-.58-1.66-1.53-1.51-.61.1-1.13.75-1.7,1.16Z" transform="translate(915.786 33.194)"/><path class="b" d="M4.594,19.18a5.641,5.641,0,0,0,1.7,1.14A1.28,1.28,0,0,0,7.8,18.94c0-1-.56-1.66-1.51-1.52-.61.09-1.14.74-1.7,1.14Q4.594,18.87,4.594,19.18Z" transform="translate(981.226)"/><path class="b" d="M44.867,39.46c.42-.55,1.06-1.05,1.19-1.66a1.29,1.29,0,0,0-1.33-1.55c-1-.06-1.68.52-1.56,1.46.08.61.71,1.16,1.09,1.74Z" transform="translate(904.393 34.293)"/><path class="b" d="M.016,17.7c.14-.62.78-1.12,1.2-1.7h.52v3.19a2.06,2.06,0,0,1-.39,0A1.29,1.29,0,0,1,.016,17.7Z" transform="translate(991.894)"/><path class="b" d="M103.074,115.43c.42-.55,1.06-1.06,1.2-1.67a1.29,1.29,0,0,0-1.34-1.56c-1-.06-1.69.52-1.57,1.47.08.62.71,1.16,1.09,1.74Z" transform="translate(693.644 106.165)"/><path class="b" d="M99.217,102.67c.42-.55,1.06-1.05,1.19-1.67a1.29,1.29,0,0,0-1.34-1.55c-1-.06-1.68.52-1.56,1.46.08.61.71,1.16,1.09,1.74Z" transform="translate(795.703 94.093)"/><path class="b" d="M53.676,45.74c.55.42,1.05,1.06,1.66,1.19a1.29,1.29,0,0,0,1.55-1.33c.06-1-.52-1.68-1.46-1.56-.61.08-1.16.71-1.73,1.09Z" transform="translate(883.064 41.572)"/><path class="b" d="M79.5,72c-.39.57-1,1.11-1.12,1.72-.13,1,.57,1.54,1.54,1.49a1.29,1.29,0,0,0,1.36-1.54c-.13-.62-.76-1.13-1.17-1.69Z" transform="translate(833.96 68.11)"/><path class="b" d="M102.15,107.76c.92.74,1.49,1.54,2,1.48s1.08-.85,1.61-1.32c-.45-.51-.87-1.39-1.36-1.43S103.16,107.13,102.15,107.76Z" transform="translate(690.523 100.429)"/><path class="b" d="M10.43,20.08c1,.63,1.64,1.33,2.2,1.28s.92-.92,1.37-1.42c-.53-.48-1-1.26-1.61-1.33S11.35,19.35,10.43,20.08Z" transform="translate(969.2)"/><path class="b" d="M79.52,68.19c.53.39,1.09,1.12,1.58,1.08s1-.82,1.47-1.28c-.46-.49-.87-1.29-1.38-1.36s-1.09.62-1.64,1Z" transform="translate(831.54 62.787)"/><path class="b" d="M113.63,145.81c.53.39,1.09,1.12,1.58,1.08s1-.82,1.47-1.28c-.46-.49-.87-1.3-1.39-1.37s-1.09.62-1.65,1Z" transform="translate(657.54 136.17)"/><path class="b" d="M64.28,53.5c.53.39,1.09,1.12,1.58,1.08s1-.82,1.47-1.28c-.46-.49-.87-1.3-1.39-1.37s-1.1.62-1.65,1Z" transform="translate(862.02 48.937)"/><path class="b" d="M85.923,76.51c.39-.53,1.12-1.09,1.08-1.58a1.9,1.9,0,0,0-1.28-1.37,1.9,1.9,0,0,0-1.39,1.28c-.07.49.62,1.09,1,1.65Z" transform="translate(822.297 69.468)"/><path class="b" d="M17.148,19.21c-.36.55-1,1.15-1,1.64s.88.93,1.37,1.38c.46-.49,1.23-.95,1.28-1.47s-.69-1-1.08-1.58Z" transform="translate(958.682)"/><path class="b" d="M35.21,29.34c-.55-.36-1.16-1-1.65-1s-.93.88-1.38,1.37c.49.45,1,1.23,1.47,1.27s1.05-.69,1.58-1.08Z" transform="translate(926.22 26.707)"/><path class="b" d="M88.95,81.78c.53.39,1.09,1.12,1.58,1.08s1-.82,1.47-1.28c-.46-.49-.87-1.29-1.39-1.37s-1.09.62-1.64,1Z" transform="translate(812.68 75.59)"/><path class="b" d="M95.068,86.85c-.36.55-1,1.16-1,1.65s.88.92,1.37,1.38c.45-.49,1.23-.95,1.27-1.47s-.69-1-1.08-1.58Z" transform="translate(802.852 82.057)"/><path class="b" d="M76.526,62.5c.33-.5.92-1,.9-1.5s-.77-1.22-1.1-1.17A1.83,1.83,0,0,0,75.036,61c-.08.44.55,1,.87,1.52Z" transform="translate(841.174 56.399)"/><path class="b" d="M113.465,127c-.49-.35-1-1-1.46-1a1.83,1.83,0,0,0-1.23,1.21c-.07.33.67,1.13,1.1,1.18s1-.51,1.56-.81Z" transform="translate(666.349 136.17)"/><path class="b" d="M71.177,52.89c-.31.51-.93,1.07-.85,1.51a1.82,1.82,0,0,0,1.29,1.15,1.708,1.708,0,0,0,1.09-1.18c.01-.44-.58-1-.9-1.49Z" transform="translate(850.603 49.842)"/><path class="b" d="M29.474,24.49c.3-.52.9-1.1.81-1.53a1.83,1.83,0,0,0-1.33-1.1c-.33,0-1,.77-1.05,1.21s.61,1,1,1.46Z" transform="translate(935.436)"/><path class="b" d="M112.2,121.79c.51.31,1.07.93,1.51.85a1.82,1.82,0,0,0,1.14-1.29,1.733,1.733,0,0,0-1.17-1.09c-.43-.02-1,.58-1.49.9Z" transform="translate(662.23 136.17)"/><path class="b" d="M60.656,45.12c-.32.51-.95,1.07-.87,1.51a1.83,1.83,0,0,0,1.28,1.16,1.759,1.759,0,0,0,1.11-1.17c.03-.44-.57-1-.89-1.5Z" transform="translate(871.674 42.528)"/><path class="b" d="M22.928,20.45c-.31.51-.89,1-.85,1.53s.81,1.19,1.14,1.14a1.83,1.83,0,0,0,1.25-1.19c.06-.44-.58-1-.91-1.48Z" transform="translate(947.082)"/><path class="b" d="M107.478,114.82c.5.32,1.05,1,1.49.89a1.83,1.83,0,0,0,1.18-1.27c.05-.33-.72-1.1-1.15-1.12s-1,.56-1.52.88Z" transform="translate(676.023 106.612)"/><path class="b" d="M49.855,37.08c-.32.51-.94,1.07-.87,1.51a1.83,1.83,0,0,0,1.29,1.16,1.742,1.742,0,0,0,1.1-1.18c.02-.44-.57-1-.9-1.5Z" transform="translate(893.275 34.943)"/><path class="b" d="M103.616,102.39c.51.31,1,.89,1.52.85s1.19-.81,1.13-1.13a1.83,1.83,0,0,0-1.19-1.25c-.44-.06-1,.58-1.48.91Z" transform="translate(687.395 94.875)"/><path class="b" d="M98.9,95.45c.51.31,1.08.94,1.51.86A1.83,1.83,0,0,0,101.56,95a1.742,1.742,0,0,0-1.18-1.1c-.44-.02-1,.58-1.5.91Z" transform="translate(793.19 88.35)"/><path class="b" d="M38.438,31.06c.49.34,1,.94,1.48.93s1.24-.75,1.2-1.08a1.84,1.84,0,0,0-1.13-1.31c-.44-.09-1,.53-1.53.84Z" transform="translate(914.071 27.839)"/><path class="b" d="M114.986,140.12c.52.3,1.06.87,1.54.83s1.17-.83,1.11-1.16a1.82,1.82,0,0,0-1.21-1.23c-.45-.05-1,.6-1.47.94Z" transform="translate(654.095 136.17)"/><path class="b" d="M115.844,134c.85.55,1.37,1.15,1.79,1.08a1.146,1.146,0,0,0-.08-2.29C117.134,132.75,116.654,133.38,115.844,134Z" transform="translate(651.237 136.17)"/><path class="b" d="M91.461,77.47c.58-.83,1.2-1.32,1.16-1.74a1.145,1.145,0,0,0-2.29,0C90.281,76.13,90.891,76.63,91.461,77.47Z" transform="translate(810.679 70.405)"/><path class="b" d="M86.709,70.81c.6-.81,1.23-1.29,1.2-1.71a1.141,1.141,0,1,0-2.28-.1C85.529,69.45,86.169,70,86.709,70.81Z" transform="translate(820.101 64.11)"/><path class="b" d="M95.06,82.7c.85.54,1.37,1.14,1.79,1.08a1.64,1.64,0,0,0,1.1-1.18,1.63,1.63,0,0,0-1.18-1.1C96.35,81.46,95.87,82.1,95.06,82.7Z" transform="translate(800.62 76.612)"/><path class="b" d="M12.731,15.92c.58-.82,1.2-1.32,1.15-1.74A1.63,1.63,0,0,0,12.761,13a1.63,1.63,0,0,0-1.15,1.13C11.551,14.58,12.161,15.09,12.731,15.92Z" transform="translate(968.139)"/><path class="b" d="M109.405,110.73c.62-.79,1.26-1.26,1.24-1.68a1.15,1.15,0,0,0-2.29-.13C108.285,109.34,108.875,109.87,109.405,110.73Z" transform="translate(673.918 101.818)"/><path class="b" d="M6.885,11.29c-.55.85-1.15,1.37-1.08,1.79s.76.8,1.18,1.19c.39-.42,1.07-.82,1.1-1.27S7.5,12.1,6.885,11.29Z" transform="translate(979.745)"/><path class="b" d="M65.39,47.49c.85.55,1.37,1.15,1.79,1.08a1.64,1.64,0,0,0,1.1-1.18,1.63,1.63,0,0,0-1.18-1.1C66.67,46.26,66.19,46.89,65.39,47.49Z" transform="translate(859.96 43.514)"/><path class="b" d="M54.86,39.69c.84.57,1.35,1.18,1.77,1.12a1.64,1.64,0,0,0,1.13-1.16,1.64,1.64,0,0,0-1.14-1.13C56.18,38.48,55.69,39.1,54.86,39.69Z" transform="translate(881.01 36.211)"/><path class="b" d="M100.883,87.53c-.55.85-1.14,1.37-1.08,1.79s.76.8,1.18,1.19c.39-.42,1.07-.82,1.1-1.27S101.523,88.34,100.883,87.53Z" transform="translate(791.747 82.679)"/><path class="b" d="M44.32,31.89c.82.58,1.32,1.21,1.74,1.16a1.64,1.64,0,0,0,1.16-1.13,1.64,1.64,0,0,0-1.13-1.16C45.66,30.71,45.16,31.32,44.32,31.89Z" transform="translate(902.09 28.915)"/><path class="b" d="M33.78,24.25c.86.53,1.39,1.11,1.81,1a1.64,1.64,0,0,0,1.08-1.21A1.63,1.63,0,0,0,35.45,23C35.03,23,34.56,23.63,33.78,24.25Z" transform="translate(923.18)"/><path class="b" d="M118.161,126.66c-.6.79-1.24,1.27-1.2,1.69a1.71,1.71,0,0,0,1.15,1.15c.31.06,1.07-.64,1.09-1S118.671,127.51,118.161,126.66Z" transform="translate(648.76 136.17)"/><path class="b" d="M114.264,117.35c.53-.84,1.13-1.37,1.06-1.78a1.72,1.72,0,0,0-1.24-1.05,1.62,1.62,0,0,0-1,1.12C113.084,116.03,113.684,116.55,114.264,117.35Z" transform="translate(660.108 108.06)"/><path class="b" d="M81.986,63.85c.6-.8,1.19-1.24,1.2-1.7s-.68-1.17-1-1.13a1.71,1.71,0,0,0-1.25,1C80.866,62.46,81.465,63,81.986,63.85Z" transform="translate(829.514 57.577)"/><path class="b" d="M75.99,55.53c.84.53,1.38,1.13,1.79,1.06a1.71,1.71,0,0,0,1-1.24,1.62,1.62,0,0,0-1.12-1C77.27,54.35,76.77,54.94,75.99,55.53Z" transform="translate(838.86 51.077)"/><path class="b" d="M61.839,42.53c.55-.88,1.12-1.38,1.09-1.84a1.54,1.54,0,0,0-1.14-1,1.53,1.53,0,0,0-1.1,1.07C60.679,41.2,61.259,41.68,61.839,42.53Z" transform="translate(870.011 37.454)"/><path class="b" d="M105.873,94.5c-.53.84-1.09,1.33-1.06,1.79s.77,1.11,1.08,1a1.71,1.71,0,0,0,1.16-1.14C107.143,95.79,106.513,95.3,105.873,94.5Z" transform="translate(684.339 89.152)"/><path class="b" d="M50.1,32.73c.8.55,1.28,1.14,1.74,1.13s.77-.7,1.16-1.09c-.41-.41-.78-1.06-1.25-1.15S50.9,32.17,50.1,32.73Z" transform="translate(890.53 29.709)"/><path class="b" d="M17.488,15.33c.84.53,1.33,1.09,1.79,1.06s1.11-.77,1-1.08a1.71,1.71,0,0,0-1.14-1.16C18.778,14.11,18.288,14.74,17.488,15.33Z" transform="translate(955.852)"/><path class="b" d="M92.59,68.26c-.53.76-1.09,1.23-1,1.62s.59.76,1.01,1.12c.37-.38,1-.73,1-1.15S93.12,69,92.59,68.26Z" transform="translate(808.45 64.37)"/><path class="b" d="M40.672,26.6c.56-.74,1.16-1.18,1.13-1.58s-.65-.79-1-1.19c-.39.36-1,.69-1.11,1.1S40.172,25.82,40.672,26.6Z" transform="translate(912.148)"/><path class="b" d="M24.348,14.48c-.52.77-1.08,1.25-1,1.64s.7.75,1.08,1.12c.37-.39,1-.75,1-1.17S24.9,15.23,24.348,14.48Z" transform="translate(944.862)"/><path class="b" d="M121.622,142.49c.56-.74,1.16-1.18,1.13-1.58s-.65-.8-1-1.19c-.39.36-1,.69-1.11,1.1S121.122,141.7,121.622,142.49Z" transform="translate(638.154 136.17)"/><path class="b" d="M97.26,75.19c-.53.76-1.09,1.23-1,1.62s.68.76,1.06,1.13c.37-.38,1-.73,1-1.15S97.79,75.95,97.26,75.19Z" transform="translate(799.06 70.909)"/><path class="b" d="M110.563,101.53c-.5.79-1.05,1.27-1,1.67s.72.73,1.11,1.1c.36-.4,1-.77,1-1.19S111.123,102.26,110.563,101.53Z" transform="translate(670.591 95.763)"/><path class="b" d="M72.359,46.91c-.54.76-1.11,1.22-1.07,1.61a1.52,1.52,0,0,0,1.05,1.06,1.52,1.52,0,0,0,1.07-1.05C73.459,48.14,72.889,47.67,72.359,46.91Z" transform="translate(848.931 44.215)"/><path class="b" d="M67.684,43c.45-.67.93-1.06.9-1.4s-.55-.67-.86-1c-.35.34-.88.64-1,1S67.2,42.38,67.684,43Z" transform="translate(858.336 38.196)"/><path class="b" d="M30.208,18.64c.47-.66,1-1,.93-1.37s-.54-.69-.84-1c-.35.33-.89.62-1,1S29.748,18,30.208,18.64Z" transform="translate(933.202)"/><path class="b" d="M105.73,90.46c.68.44,1.13.94,1.41.86s.67-.66,1-1c-.35-.29-.69-.8-1.05-.81S106.37,90,105.73,90.46Z" transform="translate(681.457 83.873)"/><path class="b" d="M1.23,6.43c.67.45,1.06.93,1.4.9s.67-.56,1-.86c-.34-.35-.64-.88-1-1S1.86,5.95,1.23,6.43Z" transform="translate(988.77)"/><path class="b" d="M101.889,82.28c-.41.76-.83,1.2-.79,1.58s.73.88.94.81a1.55,1.55,0,0,0,.89-1C102.979,83.32,102.439,82.95,101.889,82.28Z" transform="translate(789.601 77.406)"/><path class="b" d="M119.121,124c.5-.7,1-1.11,1-1.4a1.55,1.55,0,0,0-1-1c-.22-.06-.87.54-.89.86S118.671,123.3,119.121,124Z" transform="translate(645.465 136.17)"/><path class="b" d="M45.59,26.15c.68.44,1.13.94,1.41.86s.67-.67,1-1c-.35-.29-.69-.79-1.06-.81S46.24,25.65,45.59,26.15Z" transform="translate(900.04)"/><path class="b" d="M87.913,64.7c.47-.72,1-1.16.88-1.44a4.465,4.465,0,0,0-1-1c-.31.32-.86.65-.86,1S87.423,64,87.913,64.7Z" transform="translate(817.887 58.59)"/><path class="b" d="M121.83,135.06c.67.45,1.06.93,1.4.9s.67-.56,1-.86c-.34-.35-.64-.88-1-1S122.49,134.58,121.83,135.06Z" transform="translate(634.3 136.17)"/><path class="b" d="M116.28,109.8c-.67-.46-1.1-1-1.39-.91s-.69.64-1,1c.34.3.67.81,1,.84S115.62,110.27,116.28,109.8Z" transform="translate(657.574 102.046)"/><path class="b" d="M56.991,35.31c.51-.69,1-1.09,1-1.39a1.55,1.55,0,0,0-.94-1c-.22-.06-.88.53-.9.85S56.551,34.58,56.991,35.31Z" transform="translate(879.489 30.966)"/><path class="b" d="M81.92,56.31c.66.46,1,.94,1.39.91s.68-.55,1-.85c-.34-.35-.63-.88-1-1S82.58,55.84,81.92,56.31Z" transform="translate(827.4 51.886)"/><path class="b" d="M12.982,8.45c.64.37,1,.78,1.41.75s.83-.68.76-.87a1.47,1.47,0,0,0-1-.85C13.912,7.44,13.552,8,12.982,8.45Z" transform="translate(965.488)"/><path class="b" d="M72.6,42.77c.62.39,1,.81,1.36.8s.85-.64.79-.83a1.47,1.47,0,0,0-.93-.88C73.575,41.81,73.195,42.31,72.6,42.77Z" transform="translate(846.265 39.192)"/><path class="b" d="M77.3,49.69c.63.4,1,.83,1.37.82s.86-.63.8-.83a1.48,1.48,0,0,0-.93-.89C78.285,48.73,77.9,49.23,77.3,49.69Z" transform="translate(836.845 45.684)"/><path class="b" d="M35.851,19.63c.49-.58,1-.93,1-1.2a1.47,1.47,0,0,0-.85-1c-.2-.07-.85.47-.87.76A4.213,4.213,0,0,0,35.851,19.63Z" transform="translate(921.649)"/><path class="b" d="M18.8,9.35c.57.48.93,1,1.19,1a1.46,1.46,0,0,0,1-.85c.07-.2-.47-.84-.76-.86S19.464,9,18.8,9.35Z" transform="translate(953.826)"/><path class="b" d="M7.18,7.33c.76.4,1.18.8,1.54.75a1.17,1.17,0,0,0,.73-.91,1.17,1.17,0,0,0-.82-.8C8.24,6.38,7.88,6.83,7.18,7.33Z" transform="translate(977)"/><path class="b" d="M110.833,97.39c.63.39,1,.82,1.37.81s.86-.64.79-.83a1.48,1.48,0,0,0-.93-.88C111.783,96.42,111.4,96.92,110.833,97.39Z" transform="translate(666.797 90.344)"/><path class="b" d="M62.07,35c.74.44,1.13.85,1.49.83a1.17,1.17,0,0,0,.77-.88,1.16,1.16,0,0,0-.81-.84C63.16,34.09,62.79,34.52,62.07,35Z" transform="translate(867.23 31.94)"/><path class="b" d="M122.94,129.28c.54.38.94.86,1.2.79s.64-.59,1-.91c-.35-.29-.67-.75-1-.8S123.43,128.84,122.94,129.28Z" transform="translate(631.292 136.17)"/><path class="b" d="M126.657,142c.61.42,1,.86,1.33.86s.88-.6.83-.79a1.47,1.47,0,0,0-.89-.92C127.667,141,127.267,141.52,126.657,142Z" transform="translate(620.45 136.17)"/><path class="b" d="M115.508,104.09c.75.4,1.17.79,1.53.75a.852.852,0,0,0-.12-1.7C116.558,103.14,116.208,103.59,115.508,104.09Z" transform="translate(652.916 96.567)"/><path class="b" d="M120.049,118.14c.44-.74.85-1.13.83-1.49a.86.86,0,0,0-1.71,0C119.159,117.05,119.589,117.43,120.049,118.14Z" transform="translate(642.933 108.914)"/><path class="b" d="M92.563,64.37c.73.43,1.12.85,1.48.82a.86.86,0,0,0,0-1.71C93.643,63.48,93.263,63.91,92.563,64.37Z" transform="translate(806.257 59.439)"/><path class="b" d="M97.49,71c.62.43,1,.9,1.28.84s.63-.59.94-.91c-.3-.29-.61-.81-.9-.8S98.09,70.59,97.49,71Z" transform="translate(796.43 65.667)"/><path class="b" d="M52.327,25.88c-.39.63-.82,1-.8,1.37s.64.86.83.79a1.47,1.47,0,0,0,.88-.93C53.287,26.85,52.767,26.48,52.327,25.88Z" transform="translate(888.863)"/><path class="b" d="M25.5,9.07c-.39.58-.83.94-.79,1.23a1.25,1.25,0,0,0,.86.76c.2,0,.72-.49.71-.75S25.892,9.65,25.5,9.07Z" transform="translate(942.638)"/><path class="b" d="M123.959,123.35c.56.41.87.82,1.2.83s.81-.48.78-.68a1.24,1.24,0,0,0-.72-.9C124.9,122.55,124.549,123,123.959,123.35Z" transform="translate(628.576 136.17)"/><path class="b" d="M103.041,79.13c.44-.55.85-.85.88-1.18s-.45-.83-.66-.8a1.24,1.24,0,0,0-.92.69C102.251,78.13,102.691,78.52,103.041,79.13Z" transform="translate(692.39 72.371)"/><path class="b" d="M87.91,57.44c.59.38,1,.81,1.26.76a1.25,1.25,0,0,0,.74-.89,1.141,1.141,0,0,0-.77-.69C88.88,56.63,88.48,57,87.91,57.44Z" transform="translate(815.81 52.969)"/><path class="b" d="M41.876,20.36c.38-.59.81-1,.76-1.26a1.25,1.25,0,0,0-.89-.74,1.141,1.141,0,0,0-.69.77C41.066,19.39,41.466,19.79,41.876,20.36Z" transform="translate(909.934)"/><path class="b" d="M107.784,85.79c.41-.56.82-.87.84-1.21s-.48-.81-.68-.78a1.25,1.25,0,0,0-.9.73C106.993,84.81,107.413,85.19,107.784,85.79Z" transform="translate(678.605 78.615)"/><path class="b" d="M120.37,110.87c.47.39.76.81,1,.81s.59-.42.88-.65c-.27-.31-.48-.76-.81-.86S120.88,110.52,120.37,110.87Z" transform="translate(639.21 103.01)"/><path class="b" d="M57.44,28c.47.39.76.81,1,.81s.59-.42.88-.65c-.27-.31-.48-.76-.81-.86S57.94,27.63,57.44,28Z" transform="translate(876.87)"/><path class="b" d="M112.545,90.4c-.37.49-.81.85-.75,1.07s.53.57.83.85c.24-.28.67-.55.68-.85S112.915,90.88,112.545,90.4Z" transform="translate(664.778 84.766)"/><path class="b" d="M67.98,36c.47.39.76.81,1,.81s.59-.42.88-.65c-.27-.31-.48-.76-.81-.86S68.49,35.67,67.98,36Z" transform="translate(855.79 32.997)"/><path class="b" d="M83.19,50.52c.5.35.88.78,1.09.71s.55-.55.82-.86c-.29-.24-.58-.65-.87-.66S83.66,50.14,83.19,50.52Z" transform="translate(825.34 46.486)"/><path class="b" d="M64.107,30c.26-.42.56-.69.52-.9a.576.576,0,1,0-1.15.07C63.5,29.38,63.817,29.61,64.107,30Z" transform="translate(865.523 26.691)"/><path class="b" d="M78.67,43.83c.37.28.6.59.81.58s.44-.33.65-.51c-.22-.23-.4-.56-.66-.64S79.05,43.55,78.67,43.83Z" transform="translate(834.83 40.343)"/><path class="b" d="M128.01,136.17c.39.27.68.6.83.55s.43-.43.64-.67c-.22-.18-.45-.48-.67-.49S128.37,135.88,128.01,136.17Z" transform="translate(617.339 136.17)"/><path class="b" d="M116.65,98.17c.37.28.6.59.81.58s.44-.33.65-.51c-.22-.23-.4-.56-.66-.64S117.02,97.89,116.65,98.17Z" transform="translate(650.614 91.032)"/><path class="b" d="M98.655,65.2c.41.28.67.58.88.55a.575.575,0,0,0,0-1.15C99.295,64.58,99.055,64.9,98.655,65.2Z" transform="translate(794.865 60.255)"/><path class="b" d="M103.61,72c.37.32.59.66.81.65s.45-.33.67-.51c-.19-.22-.34-.59-.56-.63S104.03,71.78,103.61,72Z" transform="translate(688.772 66.694)"/><path class="b" d="M125.289,117.8c.39.3.62.63.83.62a.571.571,0,0,0,.06-1.14C126.009,117.24,125.709,117.54,125.289,117.8Z" transform="translate(625.354 109.384)"/><path class="b" d="M2.7.53c.36.3.62.67.77.63a3.742,3.742,0,0,0,.7-.61C3.96.35,3.77,0,3.55,0S3.09.27,2.7.53Z" transform="translate(986.76)"/><path class="b" d="M8.53,1.44c.38.27.67.6.83.55s.43-.43.64-.66c-.22-.17-.44-.48-.67-.48S8.9,1.15,8.53,1.44Z" transform="translate(975.1)"/><path class="b" d="M14.4,2.48c.39.3.62.63.83.62a.82.82,0,0,0,.6-.54.82.82,0,0,0-.54-.6C15.09,1.91,14.82,2.21,14.4,2.48Z" transform="translate(963.4)"/><path class="b" d="M31.257,12.24c.31-.34.64-.54.65-.76s-.29-.46-.45-.7c-.25.19-.6.34-.7.6S31.007,11.84,31.257,12.24Z" transform="translate(930.983)"/><path class="b" d="M36.5,12.52c.42.28.68.58.89.55s.41-.38.61-.59c-.21-.2-.41-.54-.63-.56S36.89,12.22,36.5,12.52Z" transform="translate(919.13)"/><path class="b" d="M47.645,19.41c-.27.38-.6.68-.55.83s.43.43.67.64c.18-.22.48-.45.49-.67S47.935,19.77,47.645,19.41Z" transform="translate(898.285)"/><path class="b" d="M896.183,42.63c-40.93,6.38-72.339,20-102.08,35.18-28.582,14.58-56.929,29.94-94.228,38.81-76.737,18.29-166.861,9-242.028-6.66C373.868,92.44,294.913,66.08,204.16,58.39c-44.542-3.77-92.265-2-130.976,10.71C41.048,79.6,23.636,96.22,16.372,114.91c-4.122,10.62-5.536,21.4-6.655,32.2H0c.314-3.06.628-6.12,1.06-9.16,2.415-17.68,7.146-36.05,25.383-51.52C47.173,68.86,83.9,57.7,122.771,53.65c47.585-4.96,96.858-.24,142.009,7.43C308.478,68.46,349.8,78.89,391.143,89c78.916,19.35,166.39,39,256.162,30.84A326.562,326.562,0,0,0,707.3,109.08c18.375-5.27,34.531-12.19,49.764-19.57,29.8-14.4,56.772-30.8,92.363-41.71,37.246-11.328,80.683-16.218,123.831-13.94h.2v5.07a370.639,370.639,0,0,0-77.267,3.7Z" transform="translate(20.18 136.17)"/><path class="b" d="M866.687,223.637c-92.112,36.811-193.543,2.06-262.415-33.618-35.447-18.354-69.97-40.106-103.356-61.159C457.671,101.608,412.982,73.449,365.945,52.4,320.062,31.942,203.613-8.741,113.715,54.91,62.037,91.535,26.109,159.1,6.931,255.73c-1.81,9.084-3.427,18.292-5.006,27.5H0c1.6-9.352,3.254-18.7,5.083-27.932C24.337,158.132,60.554,90.135,112.675,53.2c90.629-64.207,207.81-23.277,253.982-2.7C413.83,71.6,458.6,99.775,501.879,127.089c33.348,21.032,67.852,42.722,103.221,61.076C673.645,223.658,774.537,258.2,866.013,221.7c32.6-13.019,62.326-34.524,91.034-55.329,12.034-8.672,24.164-17.427,36.583-25.646v2.41c-12.053,8.013-23.817,16.479-35.466,24.945C929.321,188.948,899.5,210.536,866.687,223.637Z"/></g></g></svg>