<svg xmlns="http://www.w3.org/2000/svg" width="993.635" height="283.307" viewBox="0 0 993.635 283.307"><defs><style>.a{opacity:0.5;mix-blend-mode:screen;isolation:isolate;}.b{fill:#322d3e;}.c{fill:#e8524a;}.d{fill:#fff;}</style></defs><g class="a"><g transform="translate(0)"><path class="b" d="M13.228,101.849a21.7,21.7,0,0,1-2.291-1.483c-2.58,4.12-5.391,5.295-8.376,3.639a5.2,5.2,0,0,1-1.925-6.97c.558-1,1.714-2.349,2.619-2.388a49.367,49.367,0,0,1,7.528.828,8.9,8.9,0,0,1,2.445-2.7Z" transform="translate(980.406 85.861)"/><path class="b" d="M77.868,191.132H71.341c-.193-.866-1.02-1.579-1.925-2.83-.732,1.232-1.579,2.041-1.425,2.561a1.483,1.483,0,0,0,.173.347H57.9a1.789,1.789,0,0,0-.25-.116.6.6,0,0,0-.4.116H13.963l1.5-2.388a30.361,30.361,0,0,1-2.445-1.925c-.732-.674-1.348-1.483-2.1-2.33-1.348,4.756-3.851,6.527-7.432,5.372a5.1,5.1,0,0,1-3.023-6.97A6.142,6.142,0,0,1,3.123,180.2c2.85-1.406,5.237.193,7.49,2.06l2.484-4.313c-3.966-3.138-5.025-5.95-3.158-8.645.655-.943,1.925-2.118,2.869-2.1a47.372,47.372,0,0,1,7.278,1.329,18.046,18.046,0,0,1,1.059-1.656c.578-.77,1.232-1.463,1.925-2.33l-1.694-1.02a5.507,5.507,0,0,1-2.118-7.24,5.353,5.353,0,0,1,6.623-2.407c3.543,1.155,4.2.828,5.776-2.7-3.851-3.177-4.775-5.95-2.946-8.722s4.756-2.811,9.627,0l3.62-4.1c-4.583-1.925-6.123-4.717-4.6-8.068s4.66-3.62,9.974-.751l3.581-4.6c-4.371-1.579-6.084-4.274-4.66-7.586a5.988,5.988,0,0,1,2.734-2.792c2.83-1.386,5.256,0,7.49,2.079L59,112.324c-4.043-3.254-4.987-6.123-3.081-8.9a5.487,5.487,0,0,1,6.932-1.56c2.927,1.54,3.2,4.1.924,9.627l3.851,2.811,3.369-4.236c-4.428-2.311-5.892-5.083-4.178-8.2.558-1,1.752-2.349,2.638-2.349a53.255,53.255,0,0,1,7.7,1.059l.712-.674v4.948l-.616-.578-2.657,5.333,3.273,2.2v7.374l-.886,1.271.886.789v43.649c-.347-.27-.693-.481-.809-.4a17.561,17.561,0,0,0-2.869,2.195L74.5,167.8c1,.212,2.137.809,2.946.5a1.1,1.1,0,0,0,.424-.327v8.106A25.6,25.6,0,0,0,75.942,178c.809.52,1.425,1.1,1.925,1.386Zm-8.8-10.166c.712-1.078.809-1.925-.481-2.561-2.1-1.02-2.465.732-3.35,2.1C66.623,181.62,67.663,183.064,69.069,180.965Zm-5.083-11.052c1.155,1.1,2.426.751,3.273-.655,1.329-2.176-.77-2.349-2.118-3.851-.424,2.041-3.138,2.638-1.175,4.505ZM61.232,157.8c.27.943,1.925,2.31,2.561,2.137,1.1-.308,1.925-1.694,3.427-3.273-1.925-.77-3.273-1.656-4.409-1.521-.674.077-1.791,1.945-1.579,2.657Zm-4.756,26.956c.886-1.232,2.022-2.137,1.925-2.965s-1.271-1.579-1.925-2.368c-.809.809-2.1,1.56-2.233,2.484s1.194,1.617,2.214,2.85ZM52.163,170.7c.5.982,1.771,2.156,2.7,2.137s1.81-1.425,3.273-2.715a19.39,19.39,0,0,0-4.544-1.81c-.424-.038-1.675,1.925-1.444,2.388Zm-1.81-11.553a4.583,4.583,0,0,0,2.6,2.445c.462.154,2.272-1.694,2.118-2.1a14.576,14.576,0,0,0-2.888-3.447c-.866,1.463-2.06,2.58-1.848,3.2Zm-5.1,26.956a4.178,4.178,0,0,0,2.368-2.734c.116-.674-1.733-2.465-2.156-2.31-1.136.443-1.925,1.637-3.369,2.927,1.348.982,2.542,2.368,3.158,2.156Zm-9.146.385c1.752-2.657-1.155-2.676-2.176-4.294l-2.869,4.082c1.887,1.56,3.389,2.734,5.045.25Zm-16-14.152-2.311,4.794,3.851,2.927,2.619-3.947Zm2.137,11.841-2.676,3.485c3.6,3.851,4.371,3.851,6.816-.5Zm7.586-24.2-3.2,4.159,3.851,2.7,3.1-4.159Zm1.637,11.167-2.792,3.986,4.2,2.734L35.6,173.88Zm7.548-24.491-3.042,3.851c3.62,3.755,4.159,3.678,6.566-.924ZM40.5,158.438l-2.811,3.35,4.082,2.7c2.676-3.389,2.638-3.581-1.271-6.142Zm-.443,14.518c3.7,2.83,3.851,2.753,5.449.616s0-2.484-1.175-3.177c-3.042-1.887-2.638,1.617-4.274,2.465Zm9.627-38.374a21.735,21.735,0,0,1-1.579-1.925l-2.792,5.064c3.389,3.177,3.6,3.138,6.412-1.329-.809-.712-1.483-1.29-2.1-1.887Zm2.291,12.034c-2.022-1.56-2.907-.135-3.7,1.194-1.714,2.927,1.925,2.388,2.734,3.851.327-1.887,3.928-2.811.9-5.141Zm5.045-27.3-2.7,5.449,4.12,2.638,2.811-4.12Zm2.484,12.5c-3.581,3.986-3.581,3.986.693,6.6l2.83-4.024Zm1.925,10.417-3.138,4.891c1.406.655,2.7,1.714,3.966,1.694.732,0,2.137-1.925,1.925-2.715-.289-1.367-1.6-2.426-2.792-3.966Zm6.816-23.894-2.907,3.947,4.544,2.85,2.6-3.5Zm2.291,11.437-2.753,3.851c1.925,1.483,3.485,3.215,5.179.481s-1.483-2.619-2.445-4.332Zm4.351,14.537c-.443-1.02-1.771-1.675-2.715-2.484-.674.847-1.925,1.791-1.925,2.542.154,1.155,1.271,2.157,1.925,3.235l1.175-.578C74.017,146.1,75.134,144.9,74.883,144.305Zm.751,12.958c.6,0,1.54-1.733,1.406-2.5s-1.771-2.1-2.137-1.925a17.523,17.523,0,0,0-3.524,3.158,12.939,12.939,0,0,0,4.255,1.271Z" transform="translate(915.767 92.098)"/><path class="b" d="M25.882,120.227c-2.811,4.082-2.773,7.374,0,9.3a5.507,5.507,0,0,0,7.394-1.213q3.081-4.371-3.292-8.9c2.561-4.871,2.445-7.548-.4-9.281a5.2,5.2,0,0,0-7.066,1.521C20.7,114.45,21.646,116.973,25.882,120.227Z" transform="translate(917.691 101.197)"/><path class="b" d="M23.163,109.622c4.679,2.753,7.317,2.7,9.261-.193a5.2,5.2,0,0,0-1.252-7.1c-2.83-2.1-5.468-1.155-8.876,3.2-4.775-2.619-7.49-2.5-9.261.366a5.218,5.218,0,0,0,1.252,6.912C17.078,114.84,19.427,113.993,23.163,109.622Z" transform="translate(936.757 93.703)"/><path class="b" d="M46.958,143.635c4.505,2.927,7.451,2.811,9.377-.212a5.218,5.218,0,0,0-1.694-7.24c-3.042-1.925-5.776-.616-8.414,3.851-4.255-2.946-7.3-3-9.223-.173a5.218,5.218,0,0,0,1.175,7.143C41.047,149.007,43.82,148.025,46.958,143.635Z" transform="translate(867.021 125.231)"/><path class="b" d="M.844,83.622a5.006,5.006,0,0,1,5.41-2.407v20.7a5.256,5.256,0,0,1-1.925-.828c-2.85-1.925-2.753-5.025.27-9.223C.112,88.878-.985,86.472.844,83.622Z" transform="translate(987.38 75.052)"/><path class="b" d="M17.707,100.713c-3.2,3.755-3.331,7.066-.539,9.127a5.2,5.2,0,0,0,7.471-1.329c1.925-3.081.674-5.892-3.177-8.068a37.6,37.6,0,0,0,1.348-6.989c0-.963-1.406-2.214-2.465-2.869a4.775,4.775,0,0,0-6.585,2.06C12.181,95.5,13.22,97.71,17.707,100.713Z" transform="translate(942.945 83.28)"/><path class="b" d="M48.974,155.825a1.925,1.925,0,0,1-.366-1.04,33.849,33.849,0,0,1,1.694-6.951c-3.658-2.657-4.6-5.16-2.657-7.933a4.91,4.91,0,0,1,7.028-1.271c2.869,2.079,2.792,4.737-.366,9.088,4.178,3.273,5.1,5.507,3.5,8.087Z" transform="translate(845.251 127.405)"/><path class="b" d="M42.6,129c-3.138,4.948-3.1,7.432.193,9.435a4.929,4.929,0,0,0,6.874-1.925c1.771-2.85.635-5.237-3.389-7.875a32.522,32.522,0,0,0,1.617-6.489c0-1-1.232-2.33-2.233-3.061a4.756,4.756,0,0,0-6.739,1.5C37.059,123.528,38.022,125.742,42.6,129Z" transform="translate(869.931 109.448)"/><path class="b" d="M38.568,114.81c-4.756-2.984-7.413-2.946-9.281.173a4.968,4.968,0,0,0,1.925,6.893c2.888,1.694,5.41.5,7.7-3.312a33.232,33.232,0,0,0,6.912,1.579c1.02,0,2.368-1.483,3.081-2.6a4.756,4.756,0,0,0-2.079-6.623C43.94,109.207,41.687,110.285,38.568,114.81Z" transform="translate(889.044 101.935)"/><path class="b" d="M27.383,113.065a5.006,5.006,0,0,0-5.526-4.852,5.24,5.24,0,1,0,.732,10.455,5.025,5.025,0,0,0,4.794-5.6Z" transform="translate(933.519 100.118)"/><path class="b" d="M36.407,139.184a5.237,5.237,0,1,0-5.314-5.1,5.006,5.006,0,0,0,5.314,5.1Z" transform="translate(892.206 119.112)"/><path class="b" d="M26.394,127.134a5.237,5.237,0,1,0,5.045-5.353,4.987,4.987,0,0,0-5.045,5.353Z" transform="translate(905.973 112.696)"/><path class="b" d="M32.243,128.228a5.16,5.16,0,1,0,4.891-5.295,5.16,5.16,0,0,0-4.891,5.295Z" transform="translate(888.995 113.759)"/><path class="b" d="M42.133,129.58a5.16,5.16,0,1,0,5.179,4.929,5.16,5.16,0,0,0-5.179-4.929Z" transform="translate(875.081 119.916)"/><path class="b" d="M7.767,87.73a5.16,5.16,0,1,0,5.141,5.025A5.16,5.16,0,0,0,7.767,87.73Z" transform="translate(975.74 81.187)"/><path class="b" d="M49.206,151.52H42.775a5.16,5.16,0,1,1,6.431,0Z" transform="translate(863.869 131.71)"/><path class="b" d="M12.6,104.959A5.16,5.16,0,1,0,7.3,100.069a5.16,5.16,0,0,0,5.295,4.891Z" transform="translate(961.977 87.583)"/><path class="b" d="M32.665,126.32a5.141,5.141,0,1,0-3.7-1.566,5.16,5.16,0,0,0,3.7,1.566Z" transform="translate(902.802 107.349)"/><path class="b" d="M33.36,122.212a5.141,5.141,0,1,0,5.2-5.1A5.43,5.43,0,0,0,33.36,122.212Z" transform="translate(885.76 108.376)"/><path class="b" d="M13.451,99.123a5.024,5.024,0,1,0-.077,0Z" transform="translate(958.753 82.213)"/><path class="b" d="M23.506,108.714a5.43,5.43,0,0,0,5.1,5.122,5.16,5.16,0,1,0,0-10.3,5.449,5.449,0,0,0-5.1,5.179Z" transform="translate(914.291 95.805)"/><path class="b" d="M48.007,130.7a5.141,5.141,0,1,0,5.064,5.218,5.41,5.41,0,0,0-5.064-5.218Z" transform="translate(858.174 120.953)"/><path class="b" d="M18.945,101.809a5.43,5.43,0,0,0,5.218,5.083,5.141,5.141,0,0,0-.135-10.282A5.41,5.41,0,0,0,18.945,101.809Z" transform="translate(927.921 89.405)"/><path class="b" d="M52.52,149.64v-.173a5.064,5.064,0,0,1,10.128-.1s0,.173,0,.27Z" transform="translate(829.863 133.589)"/><path class="b" d="M48.65,136.9a5.064,5.064,0,1,0,5.141-5.045A5.237,5.237,0,0,0,48.65,136.9Z" transform="translate(841.185 122.026)"/><path class="b" d="M3.71,87.111a5.237,5.237,0,0,0,5.218,4.968A5.065,5.065,0,0,0,8.735,81.95a5.237,5.237,0,0,0-5.025,5.16Z" transform="translate(972.596 75.838)"/><path class="b" d="M9.51,88.162a5.237,5.237,0,0,0,5.16,5.025,5.064,5.064,0,1,0,0-10.128,5.237,5.237,0,0,0-5.16,5.1Z" transform="translate(955.59 76.866)"/><path class="b" d="M49,135.048a5.064,5.064,0,1,0-5.064-5.141A5.237,5.237,0,0,0,49,135.048Z" transform="translate(854.963 115.604)"/><path class="b" d="M24.812,102.7a5.064,5.064,0,1,0,5.237-4.948,5.237,5.237,0,0,0-5.237,4.948Z" transform="translate(910.925 90.46)"/><path class="b" d="M25.295,90.821a5.064,5.064,0,1,0,4.929,5.256,5.237,5.237,0,0,0-4.929-5.256Z" transform="translate(924.709 84.046)"/><path class="b" d="M34.584,104.4a5.064,5.064,0,1,0,5.064,5.122,5.218,5.218,0,0,0-5.064-5.122Z" transform="translate(897.149 96.614)"/><path class="b" d="M45.145,122.539a5.045,5.045,0,1,0-5.083-4.929A5.449,5.449,0,0,0,45.145,122.539Z" transform="translate(866.351 104.064)"/><path class="b" d="M45.05,124.174A5.045,5.045,0,1,0,50,119.11a5.468,5.468,0,0,0-4.948,5.064Z" transform="translate(851.755 110.227)"/><path class="b" d="M35.37,110.6a5.449,5.449,0,0,0,5.006,5.006,5.045,5.045,0,0,0,0-10.089A5.449,5.449,0,0,0,35.37,110.6Z" transform="translate(880.112 97.651)"/><path class="b" d="M35.458,98.591a5.045,5.045,0,1,0,4.517,2.577A5.045,5.045,0,0,0,35.458,98.591Z" transform="translate(894.234 91.237)"/><path class="b" d="M5.006,75.319a4.91,4.91,0,0,1,3.273,1.329v7.394a4.929,4.929,0,0,1-3.235,1.348,5.045,5.045,0,1,1,0-10.089Z" transform="translate(985.355 69.684)"/><path class="b" d="M49.82,130.971a4.929,4.929,0,1,0,4.968-4.871,5.025,5.025,0,0,0-4.968,4.871Z" transform="translate(838.031 116.696)"/><path class="b" d="M4.9,81.091a5.045,5.045,0,0,0,4.891,4.968,4.929,4.929,0,0,0,0-9.858A5.045,5.045,0,0,0,4.9,81.091Z" transform="translate(969.48 70.517)"/><path class="b" d="M58.221,138.57a4.929,4.929,0,1,0,5.025,4.833,5.045,5.045,0,0,0-5.025-4.833Z" transform="translate(827.589 128.236)"/><path class="b" d="M20.369,94.1a4.929,4.929,0,1,0-4.929-4.91,5.045,5.045,0,0,0,4.929,4.91Z" transform="translate(938.608 77.958)"/><path class="b" d="M25.98,96.929A4.929,4.929,0,1,0,30.89,92a5.045,5.045,0,0,0-4.91,4.929Z" transform="translate(907.774 85.139)"/><path class="b" d="M50.692,113.469a4.717,4.717,0,1,0,4.794,4.486,4.39,4.39,0,0,0-4.794-4.486Z" transform="translate(849.463 104.99)"/><path class="b" d="M26.412,94.6a4.717,4.717,0,1,0-.424-9.415,4.717,4.717,0,1,0,.424,9.415Z" transform="translate(921.552 78.818)"/><path class="b" d="M.1,74.457a4.332,4.332,0,0,0,4.717,4.621,4.708,4.708,0,0,0-.154-9.415A4.351,4.351,0,0,0,.1,74.457Z" transform="translate(984.044 64.462)"/><path class="b" d="M41.23,99.891a4.717,4.717,0,1,0,4.833,4.448,4.39,4.39,0,0,0-4.833-4.448Z" transform="translate(877.024 92.421)"/><path class="b" d="M59.4,142.295a4.717,4.717,0,1,0-4.717-4.852,4.332,4.332,0,0,0,4.717,4.852Z" transform="translate(824.291 122.952)"/><path class="b" d="M10.775,82.139a4.371,4.371,0,0,0,4.756,4.7,4.717,4.717,0,0,0-.27-9.415,4.351,4.351,0,0,0-4.486,4.717Z" transform="translate(953.073 71.645)"/><path class="b" d="M20.9,78.532a4.7,4.7,0,1,0,4.871,4.525A4.7,4.7,0,0,0,20.9,78.532Z" transform="translate(936.348 72.672)"/><path class="b" d="M50.8,125.159a4.7,4.7,0,1,0,4.583-4.756,4.351,4.351,0,0,0-4.583,4.756Z" transform="translate(835.666 111.418)"/><path class="b" d="M58.42,148.491a4.274,4.274,0,0,1,4.274-2.869,4.332,4.332,0,0,1,4.544,2.869Z" transform="translate(813.913 134.739)"/><path class="b" d="M46.154,116.234a4.717,4.717,0,1,0-4.814-4.467,4.39,4.39,0,0,0,4.814,4.467Z" transform="translate(863.282 98.836)"/><path class="b" d="M41.248,97.867a4.351,4.351,0,0,0-4.7-4.64,4.708,4.708,0,1,0,.135,9.415,4.351,4.351,0,0,0,4.563-4.775Z" transform="translate(890.927 86.261)"/><path class="b" d="M59.39,144.541a4.7,4.7,0,1,0,4.6-4.737,4.332,4.332,0,0,0-4.6,4.737Z" transform="translate(810.536 129.37)"/><path class="b" d="M55.761,131.693a4.7,4.7,0,1,0,4.756-4.64,4.544,4.544,0,0,0-4.756,4.64Z" transform="translate(821.116 117.573)"/><path class="b" d="M47.146,112.426a4.679,4.679,0,1,0,4.583-4.775,4.544,4.544,0,0,0-4.583,4.775Z" transform="translate(846.366 99.621)"/><path class="b" d="M31.669,95.667a4.679,4.679,0,1,0-4.717-4.66,4.544,4.544,0,0,0,4.717,4.66Z" transform="translate(905.435 79.873)"/><path class="b" d="M47.132,110.358a4.679,4.679,0,1,0-4.66-4.7,4.544,4.544,0,0,0,4.66,4.7Z" transform="translate(860.031 93.468)"/><path class="b" d="M5.988,75.314a4.563,4.563,0,0,0,4.891,4.563,4.7,4.7,0,0,0-.424-9.377,4.563,4.563,0,0,0-4.467,4.814Z" transform="translate(966.968 65.242)"/><path class="b" d="M65.1,134a4.7,4.7,0,1,0,3.351,1.328A4.679,4.679,0,0,0,65.1,134Z" transform="translate(807.23 124.007)"/><path class="b" d="M22.242,84.184a4.7,4.7,0,1,0,1.308-3.37,4.679,4.679,0,0,0-1.308,3.37Z" transform="translate(919.213 73.451)"/><path class="b" d="M42.362,94.07a4.679,4.679,0,1,0,3.358,1.342,4.679,4.679,0,0,0-3.358-1.342Z" transform="translate(873.813 87.054)"/><path class="b" d="M56.482,114.58a4.7,4.7,0,1,0,3.358,1.335,4.679,4.679,0,0,0-3.358-1.335Z" transform="translate(832.448 106.035)"/><path class="b" d="M62.26,115.73A4.621,4.621,0,1,0,67,120.159a4.621,4.621,0,0,0-4.737-4.428Z" transform="translate(815.426 107.099)"/><path class="b" d="M57.563,108.79a4.621,4.621,0,1,0,4.679,4.563,4.621,4.621,0,0,0-4.679-4.563Z" transform="translate(829.346 100.677)"/><path class="b" d="M2.447,57.25v8.087a4.562,4.562,0,0,1,0-8.087Z" transform="translate(991.187 52.981)"/><path class="b" d="M61.632,132.705a4.621,4.621,0,1,0,4.679-4.505A4.679,4.679,0,0,0,61.632,132.705Z" transform="translate(804.096 118.639)"/><path class="b" d="M48.32,106.7a4.621,4.621,0,1,0,4.6-4.563,4.679,4.679,0,0,0-4.6,4.563Z" transform="translate(843.035 94.523)"/><path class="b" d="M16.391,80.892a4.621,4.621,0,1,0-4.66-4.525,4.679,4.679,0,0,0,4.66,4.525Z" transform="translate(950.076 66.307)"/><path class="b" d="M66.936,131.611a4.621,4.621,0,1,0-4.486-4.66,4.679,4.679,0,0,0,4.486,4.66Z" transform="translate(801.7 113.245)"/><path class="b" d="M17.551,77.285a4.621,4.621,0,1,0,4.64-4.525,4.679,4.679,0,0,0-4.64,4.525Z" transform="translate(933.05 67.334)"/><path class="b" d="M56.64,126.142a4.621,4.621,0,1,0,4.583-4.6,4.679,4.679,0,0,0-4.583,4.6Z" transform="translate(818.696 112.476)"/><path class="b" d="M12.83,70.413a4.621,4.621,0,1,0,4.563-4.583,4.621,4.621,0,0,0-4.563,4.583Z" transform="translate(946.859 60.92)"/><path class="b" d="M27.9,73.87A4.621,4.621,0,1,0,32.616,78.3,4.621,4.621,0,0,0,27.9,73.87Z" transform="translate(916.002 68.361)"/><path class="b" d="M32.8,91.984a4.621,4.621,0,1,0,4.66-4.544,4.679,4.679,0,0,0-4.66,4.544Z" transform="translate(888.438 80.919)"/><path class="b" d="M66.34,139.693a4.621,4.621,0,1,0,4.6-4.563A4.621,4.621,0,0,0,66.34,139.693Z" transform="translate(790.319 125.053)"/><path class="b" d="M11.64,65a4.621,4.621,0,1,0,4.6,4.6A4.621,4.621,0,0,0,11.64,65Z" transform="translate(963.914 60.153)"/><path class="b" d="M47.989,95.21a4.621,4.621,0,1,0,4.583,4.583,4.621,4.621,0,0,0-4.583-4.583Z" transform="translate(857.634 88.11)"/><path class="b" d="M1.23,68.6a4.679,4.679,0,0,0,4.66,4.525A4.622,4.622,0,0,0,5.7,63.88,4.679,4.679,0,0,0,1.23,68.6Z" transform="translate(980.852 59.116)"/><path class="b" d="M28.09,85.1a4.621,4.621,0,1,0,4.583-4.583A4.679,4.679,0,0,0,28.09,85.1Z" transform="translate(902.217 74.515)"/><path class="b" d="M38.62,92.882a4.621,4.621,0,1,0,4.66-4.6,4.621,4.621,0,0,0-4.66,4.6Z" transform="translate(871.413 81.696)"/><path class="b" d="M43.152,86.23a4.621,4.621,0,1,0-4.544,4.6A4.621,4.621,0,0,0,43.152,86.23Z" transform="translate(885.191 75.506)"/><path class="b" d="M65.2,145.487A4.621,4.621,0,1,0,69.747,141,4.679,4.679,0,0,0,65.2,145.487Z" transform="translate(793.652 130.484)"/><path class="b" d="M44.5,93.908A4.525,4.525,0,1,0,45.894,90.7,4.525,4.525,0,0,0,44.5,93.908Z" transform="translate(854.403 82.769)"/><path class="b" d="M49.211,100.809A4.525,4.525,0,1,0,50.624,97.6a4.525,4.525,0,0,0-1.413,3.212Z" transform="translate(840.624 89.172)"/><path class="b" d="M58.788,103a4.525,4.525,0,1,0,3.205,1.407A4.525,4.525,0,0,0,58.788,103Z" transform="translate(826.06 95.318)"/><path class="b" d="M33.91,83.8a4.525,4.525,0,1,0-3.273-1.263A4.525,4.525,0,0,0,33.91,83.8Z" transform="translate(899.016 69.176)"/><path class="b" d="M71.111,146.279a4.525,4.525,0,1,0,1.407-3.205A4.525,4.525,0,0,0,71.111,146.279Z" transform="translate(776.557 131.252)"/><path class="b" d="M18.712,71.429a4.505,4.505,0,1,0,1.394-3.184A4.525,4.525,0,0,0,18.712,71.429Z" transform="translate(929.849 62.002)"/><path class="b" d="M2.361,62.578a4.525,4.525,0,1,0,1.393-3.211,4.525,4.525,0,0,0-1.393,3.211Z" transform="translate(977.681 53.775)"/><path class="b" d="M63.541,119.028a4.525,4.525,0,1,0-3.268-1.277A4.544,4.544,0,0,0,63.541,119.028Z" transform="translate(812.239 101.742)"/><path class="b" d="M71.854,129.351a4.525,4.525,0,1,0,3.194,1.434A4.525,4.525,0,0,0,71.854,129.351Z" transform="translate(787.944 119.703)"/><path class="b" d="M72.231,140.409A4.506,4.506,0,1,0,76.737,136,4.737,4.737,0,0,0,72.231,140.409Z" transform="translate(773.319 125.858)"/><path class="b" d="M39.628,84.871a4.505,4.505,0,1,0-4.544-4.351A4.737,4.737,0,0,0,39.628,84.871Z" transform="translate(881.996 70.203)"/><path class="b" d="M44.086,82.52a4.505,4.505,0,1,0,4.7,4.178,4.717,4.717,0,0,0-4.7-4.178Z" transform="translate(868.238 76.366)"/><path class="b" d="M24.541,72.529A4.505,4.505,0,1,0,29.008,68.1,4.737,4.737,0,0,0,24.541,72.529Z" transform="translate(912.833 63.021)"/><path class="b" d="M8.189,63.736a4.737,4.737,0,0,0,4.64,4.506,4.508,4.508,0,0,0-.27-9.011,4.756,4.756,0,0,0-4.371,4.505Z" transform="translate(960.665 54.812)"/><path class="b" d="M63.63,121.1a4.506,4.506,0,1,0,4.448-4.486A4.737,4.737,0,0,0,63.63,121.1Z" transform="translate(798.479 107.914)"/><path class="b" d="M72.75,132.561a4.505,4.505,0,1,0-4.428-4.679A4.756,4.756,0,0,0,72.75,132.561Z" transform="translate(784.757 114.336)"/><ellipse class="b" cx="4.391" cy="4.391" rx="4.391" ry="4.391" transform="translate(957.915 124.274) rotate(-91.146)"/><path class="b" d="M4.2,51.25h.173v8.761A4.382,4.382,0,0,1,4.2,51.25Z" transform="translate(989.259 47.428)"/><ellipse class="b" cx="4.39" cy="4.39" rx="4.39" ry="4.39" transform="translate(878.779 196.083) rotate(-90.19)"/><ellipse class="b" cx="4.39" cy="4.39" rx="4.39" ry="4.39" transform="matrix(-1, -0.004, 0.004, -1, 896.603, 183.273)"/><ellipse class="b" cx="4.39" cy="4.39" rx="4.39" ry="4.39" transform="translate(878.411 209.46) rotate(-179.38)"/><path class="b" d="M69.286,110.861a4.39,4.39,0,1,0,4.274,4.371,4.7,4.7,0,0,0-4.274-4.371Z" transform="translate(795.346 102.592)"/><path class="b" d="M83.821,151.02H78.93A4.563,4.563,0,0,1,77,147.631a4.39,4.39,0,1,1,8.761-.212A4.583,4.583,0,0,1,83.821,151.02Z" transform="translate(759.631 132.21)"/><path class="b" d="M39.193,73.178A4.679,4.679,0,0,0,34.495,69a4.382,4.382,0,0,0,.635,8.741A4.717,4.717,0,0,0,39.193,73.178Z" transform="translate(895.851 63.854)"/><path class="b" d="M77.484,139.31a4.39,4.39,0,1,0-4.371-4.255A4.7,4.7,0,0,0,77.484,139.31Z" transform="translate(770.974 120.796)"/><path class="b" d="M19.449,65.5a4.7,4.7,0,0,0,4.409,4.506,4.39,4.39,0,1,0,0-8.761A4.737,4.737,0,0,0,19.449,65.5Z" transform="translate(927.648 56.668)"/><path class="b" d="M50.045,83.69a4.39,4.39,0,1,0,4.428,4.2,4.7,4.7,0,0,0-4.428-4.2Z" transform="translate(851.169 77.449)"/><path class="b" d="M3.37,56.669a4,4,0,0,0,4.178,4.14,4.169,4.169,0,1,0,0-8.337,4,4,0,0,0-4.178,4.2Z" transform="translate(975.439 48.555)"/><path class="b" d="M51.612,89.026a4.159,4.159,0,1,0,4.274-4.1,3.986,3.986,0,0,0-4.274,4.1Z" transform="translate(834.333 78.582)"/><path class="b" d="M41.082,81.292a4.159,4.159,0,1,0,4.2-4.14,4,4,0,0,0-4.2,4.14Z" transform="translate(865.138 71.394)"/><path class="b" d="M61.042,102.588a4.159,4.159,0,1,0,4.294-4.082,3.986,3.986,0,0,0-4.294,4.082Z" transform="translate(806.747 91.148)"/><path class="b" d="M9.173,57.865a4.024,4.024,0,0,0,4.351,4.043,4.161,4.161,0,0,0-.25-8.318,4,4,0,0,0-4.1,4.274Z" transform="translate(958.43 49.593)"/><path class="b" d="M65.752,109.509a4.159,4.159,0,1,0,4.313-4.063,3.986,3.986,0,0,0-4.313,4.063Z" transform="translate(792.969 97.57)"/><path class="b" d="M36.095,74.411a4.159,4.159,0,1,0,4.2-4.178,3.986,3.986,0,0,0-4.2,4.178Z" transform="translate(879.733 64.99)"/><path class="b" d="M69.663,121.948a4.178,4.178,0,1,0,4.294-4.043,4,4,0,0,0-4.294,4.043Z" transform="translate(781.49 109.102)"/><path class="b" d="M60.54,99.888a4.159,4.159,0,1,0-4.217-4.159,4,4,0,0,0,4.217,4.159Z" transform="translate(820.554 84.741)"/><path class="b" d="M25.556,66.66a4.159,4.159,0,1,0,4.2-4.2,3.986,3.986,0,0,0-4.2,4.2Z" transform="translate(910.566 57.799)"/><path class="b" d="M78.23,141.6a4.159,4.159,0,1,0,4.1-4.274,4,4,0,0,0-4.1,4.274Z" transform="translate(756.48 127.079)"/><path class="b" d="M74.343,128.994a4.159,4.159,0,1,0,4.236-4.14,3.986,3.986,0,0,0-4.236,4.14Z" transform="translate(767.837 115.535)"/><path class="b" d="M47.764,76.343a4.082,4.082,0,1,0,3.851-4.14,3.966,3.966,0,0,0-3.851,4.14Z" transform="translate(845.748 66.812)"/><path class="b" d="M41.936,75.561a4.1,4.1,0,1,0,3.851-4.2,3.986,3.986,0,0,0-3.851,4.2Z" transform="translate(862.763 66.035)"/><path class="b" d="M4.538,50.83A3.986,3.986,0,0,0,8.6,54.873a4.092,4.092,0,0,0,0-8.183,3.986,3.986,0,0,0-4.063,4.14Z" transform="translate(972.211 43.208)"/><path class="b" d="M3.725,45.864a4.294,4.294,0,0,1,1.771.27v7.7a4.255,4.255,0,0,1-1.521.308,4.1,4.1,0,0,1-.25-8.183Z" transform="translate(988.138 42.436)"/><path class="b" d="M71.615,110.481a4.082,4.082,0,1,0,3.851-4.178,3.986,3.986,0,0,0-3.851,4.178Z" transform="translate(775.976 98.369)"/><path class="b" d="M26.7,60.7a4.082,4.082,0,1,0,4.082-4.024A3.986,3.986,0,0,0,26.7,60.7Z" transform="translate(907.361 52.452)"/><path class="b" d="M24.849,63.733a4.082,4.082,0,1,0-3.966-4.14,4,4,0,0,0,3.966,4.14Z" transform="translate(924.385 51.427)"/><path class="b" d="M74.53,120.312A4.1,4.1,0,1,0,70.506,116a3.986,3.986,0,0,0,4.024,4.313Z" transform="translate(779.203 103.75)"/><path class="b" d="M15.05,58.513a4.1,4.1,0,1,0,4-4.063,4,4,0,0,0-4,4.063Z" transform="translate(941.404 50.389)"/><path class="b" d="M76.324,117.383a4.082,4.082,0,1,0,3.851-4.14,3.966,3.966,0,0,0-3.851,4.14Z" transform="translate(762.198 104.792)"/><path class="b" d="M83.2,149.658a4.273,4.273,0,0,1-.231-1.232,4.1,4.1,0,0,1,8.183-.385,4.332,4.332,0,0,1-.212,1.617Z" transform="translate(742.733 133.572)"/><path class="b" d="M61.465,86.062a4.082,4.082,0,1,0,4.159,3.851,3.986,3.986,0,0,0-4.159-3.851Z" transform="translate(817.356 79.64)"/><path class="b" d="M87.818,146.623a4.082,4.082,0,1,0-3.986-4.12,3.986,3.986,0,0,0,3.986,4.12Z" transform="translate(740.23 128.135)"/><path class="b" d="M62.194,96.87a4.082,4.082,0,1,0,3.947-4.159,3.986,3.986,0,0,0-3.947,4.159Z" transform="translate(803.534 85.795)"/><path class="b" d="M31.4,67.354a4.1,4.1,0,1,0,4.082-4.024A4,4,0,0,0,31.4,67.354Z" transform="translate(893.573 58.607)"/><path class="b" d="M75.509,123.237A4.082,4.082,0,1,0,79.476,119a3.986,3.986,0,0,0-3.966,4.236Z" transform="translate(764.592 110.125)"/><path class="b" d="M52.481,83.212a4.082,4.082,0,1,0,4.024-4.082,3.986,3.986,0,0,0-4.024,4.082Z" transform="translate(831.943 73.229)"/><path class="b" d="M41.187,64.443a4.082,4.082,0,1,0,4.2,3.851,3.986,3.986,0,0,0-4.2-3.851Z" transform="translate(876.567 59.632)"/><path class="b" d="M46.652,82.141A4.1,4.1,0,1,0,50.6,78a4,4,0,0,0-3.947,4.14Z" transform="translate(848.959 72.182)"/><path class="b" d="M79.081,135.545a4.1,4.1,0,1,0,4.1-4.024,3.986,3.986,0,0,0-4.1,4.024Z" transform="translate(754.089 121.711)"/><path class="b" d="M66.9,103.761a4.082,4.082,0,1,0,3.986-4.12,3.986,3.986,0,0,0-3.986,4.12Z" transform="translate(789.758 92.209)"/><path class="b" d="M14.48,55.924a4.082,4.082,0,1,0-4.12-3.851,3.986,3.986,0,0,0,4.12,3.851Z" transform="translate(955.183 44.198)"/><path class="b" d="M84.484,133.861a4.082,4.082,0,1,0-4.274-3.851,3.986,3.986,0,0,0,4.274,3.851Z" transform="translate(750.842 116.328)"/><path class="b" d="M20.194,57.045a4.063,4.063,0,1,0-4.024-4.12A4.217,4.217,0,0,0,20.194,57.045Z" transform="translate(938.205 45.272)"/><path class="b" d="M68.06,97.867a3.986,3.986,0,1,0,3.851-3.986,4.12,4.12,0,0,0-3.851,3.986Z" transform="translate(786.559 86.878)"/><path class="b" d="M36.674,65.83a3.986,3.986,0,1,0-4.1-3.851,4.1,4.1,0,0,0,4.1,3.851Z" transform="translate(890.379 53.546)"/><path class="b" d="M63.073,90.851A3.986,3.986,0,1,0,67.021,87a4.1,4.1,0,0,0-3.947,3.851Z" transform="translate(801.153 80.512)"/><path class="b" d="M88.933,132.69a3.986,3.986,0,1,0,4,3.851,4.1,4.1,0,0,0-4-3.851Z" transform="translate(737.093 122.795)"/><path class="b" d="M47.064,65.6a3.986,3.986,0,1,0,4.024,3.851A4.12,4.12,0,0,0,47.064,65.6Z" transform="translate(859.522 60.708)"/><path class="b" d="M3.872,40.1a4.12,4.12,0,0,1,3.851,2.676v2.657A4.14,4.14,0,0,1,4.1,48.071,3.987,3.987,0,0,1,3.872,40.1Z" transform="translate(985.912 37.11)"/><path class="b" d="M81.38,123.944a3.966,3.966,0,1,0,3.851-4.043A4.1,4.1,0,0,0,81.38,123.944Z" transform="translate(747.63 110.958)"/><path class="b" d="M93.774,139.63a4.332,4.332,0,0,0-4.082,3.851,3.966,3.966,0,1,0,4.082-3.851Z" transform="translate(723.318 129.217)"/><path class="b" d="M88.9,149a3.947,3.947,0,1,1,7.894,0Z" transform="translate(725.67 134.233)"/><path class="b" d="M42.417,66.613a3.966,3.966,0,1,0-4-3.851A4.313,4.313,0,0,0,42.417,66.613Z" transform="translate(873.334 54.304)"/><path class="b" d="M26.148,57.753a3.977,3.977,0,1,0-4.072-3.88,3.977,3.977,0,0,0,4.072,3.88Z" transform="translate(921.103 46.086)"/><path class="b" d="M53.651,77.433A3.966,3.966,0,1,0,57.5,73.371,4.313,4.313,0,0,0,53.651,77.433Z" transform="translate(828.752 67.898)"/><path class="b" d="M58.37,84.306a3.966,3.966,0,1,0,3.851-4A4.313,4.313,0,0,0,58.37,84.306Z" transform="translate(814.945 74.311)"/><path class="b" d="M72.78,104.574a3.966,3.966,0,1,0,3.851-4.043,4.313,4.313,0,0,0-3.851,4.043Z" transform="translate(772.789 93.032)"/><path class="b" d="M9.436,40.932A3.971,3.971,0,1,0,13.6,44.706a3.971,3.971,0,0,0-4.159-3.774Z" transform="translate(969.142 37.875)"/><path class="b" d="M81.382,107.471a4.313,4.313,0,0,0-3.851,4.1,3.966,3.966,0,1,0,3.851-4.1Z" transform="translate(758.892 99.455)"/><path class="b" d="M86.092,130.961a4.313,4.313,0,0,0,4.082,3.851,3.966,3.966,0,1,0-4.082-3.851Z" transform="translate(733.849 117.419)"/><path class="b" d="M11.525,45.966a4.313,4.313,0,0,0,3.851,4.043A4.005,4.005,0,0,0,15.51,42,4.313,4.313,0,0,0,11.525,45.966Z" transform="translate(951.996 38.868)"/><path class="b" d="M49,70.6a3.851,3.851,0,1,0,3.966-3.851A3.966,3.966,0,0,0,49,70.6Z" transform="translate(842.587 61.772)"/><path class="b" d="M64.24,85.041a3.851,3.851,0,1,0,3.851-3.851A3.947,3.947,0,0,0,64.24,85.041Z" transform="translate(798.004 75.135)"/><path class="b" d="M17.4,47.111a3.851,3.851,0,1,0,3.851-3.851A3.966,3.966,0,0,0,17.4,47.111Z" transform="translate(935.03 40.034)"/><path class="b" d="M86.173,122.162a3.851,3.851,0,1,0-3.851-4.024A3.966,3.966,0,0,0,86.173,122.162Z" transform="translate(745.109 105.924)"/><path class="b" d="M90.861,137.836a3.851,3.851,0,1,0,3.851-3.966A3.966,3.966,0,0,0,90.861,137.836Z" transform="translate(720.128 123.887)"/><path class="b" d="M37.641,52.09a3.851,3.851,0,1,0,3.851,3.851,3.966,3.966,0,0,0-3.851-3.851Z" transform="translate(887.083 48.205)"/><path class="b" d="M31.771,58.7a3.851,3.851,0,1,0-3.851-3.851A3.966,3.966,0,0,0,31.771,58.7Z" transform="translate(904.255 47.197)"/><path class="b" d="M72.851,95.822A3.851,3.851,0,1,0,69,91.971,3.947,3.947,0,0,0,72.851,95.822Z" transform="translate(784.079 81.548)"/><path class="b" d="M90.982,121.121a3.851,3.851,0,1,0,3.716,4A3.947,3.947,0,0,0,90.982,121.121Z" transform="translate(731.424 112.086)"/><path class="b" d="M73.95,98.951A3.851,3.851,0,1,0,77.8,95.1a3.966,3.966,0,0,0-3.851,3.851Z" transform="translate(769.598 88.008)"/><path class="b" d="M44.409,63.532a3.62,3.62,0,1,0,7.24,0,3.273,3.273,0,0,0-3.524-3.524,3.369,3.369,0,0,0-3.716,3.524Z" transform="translate(856.478 55.517)"/><path class="b" d="M63.287,81.906a3.62,3.62,0,1,0,0-7.24,3.273,3.273,0,0,0-3.562,3.466,3.37,3.37,0,0,0,3.562,3.774Z" transform="translate(811.78 69.086)"/><path class="b" d="M1.143,38.2a3.369,3.369,0,0,0,3.851,3.5,3.273,3.273,0,0,0,3.447-3.581,3.35,3.35,0,0,0-3.658-3.658A3.369,3.369,0,0,0,1.143,38.2Z" transform="translate(983.018 31.883)"/><path class="b" d="M82.439,101.822a3.62,3.62,0,1,0,0,7.24,3.273,3.273,0,0,0,3.5-3.524,3.35,3.35,0,0,0-3.5-3.716Z" transform="translate(755.91 94.224)"/><path class="b" d="M62.1,71.069A3.562,3.562,0,1,0,58.8,74.92,3.408,3.408,0,0,0,62.1,71.069Z" transform="translate(825.64 62.748)"/><path class="b" d="M73.793,89.574a3.562,3.562,0,1,0-3.581-3.466,3.389,3.389,0,0,0,3.581,3.466Z" transform="translate(781.115 76.301)"/><path class="b" d="M6.794,38.863a3.389,3.389,0,0,0,3.466,3.562,3.562,3.562,0,0,0,0-7.124,3.389,3.389,0,0,0-3.466,3.562Z" transform="translate(966.739 32.667)"/><path class="b" d="M16.206,36.44a3.562,3.562,0,1,0,3.535,3.388,3.562,3.562,0,0,0-3.535-3.388Z" transform="translate(949.586 33.722)"/><path class="b" d="M83.53,112.382a3.562,3.562,0,1,0,3.562-3.562,3.562,3.562,0,0,0-3.562,3.562Z" transform="translate(742.15 100.705)"/><path class="b" d="M74.937,92.991a3.562,3.562,0,1,0,3.447-3.6,3.389,3.389,0,0,0-3.447,3.6Z" transform="translate(767.302 82.723)"/><path class="b" d="M23.092,47.668a3.562,3.562,0,1,0,3.6-3.466,3.408,3.408,0,0,0-3.6,3.466Z" transform="translate(918.961 40.901)"/><path class="b" d="M28.921,48.97a3.562,3.562,0,1,0,3.389-3.658,3.389,3.389,0,0,0-3.389,3.658Z" transform="translate(901.925 41.929)"/><path class="b" d="M88.251,119.11a3.562,3.562,0,1,0,3.389-3.658,3.389,3.389,0,0,0-3.389,3.658Z" transform="translate(728.36 106.838)"/><path class="b" d="M39.463,56.77a3.562,3.562,0,1,0,3.389-3.678,3.389,3.389,0,0,0-3.389,3.678Z" transform="translate(871.089 49.129)"/><path class="b" d="M95.733,144.35a3.562,3.562,0,1,0,3.369-3.678,3.389,3.389,0,0,0-3.37,3.678Z" transform="translate(706.475 130.177)"/><path class="b" d="M79.648,99.621A3.562,3.562,0,1,0,83.133,96a3.389,3.389,0,0,0-3.485,3.62Z" transform="translate(753.521 88.84)"/><path class="b" d="M95.784,135.319a3.562,3.562,0,0,0,.27-7.1,3.408,3.408,0,0,0-3.851,3.543,3.369,3.369,0,0,0,3.581,3.562Z" transform="translate(716.861 118.625)"/><path class="b" d="M50.3,64.635a3.562,3.562,0,1,0,3.524-3.524A3.389,3.389,0,0,0,50.3,64.635Z" transform="translate(839.359 56.551)"/><path class="b" d="M65.536,79.217a3.639,3.639,0,0,0,3.7,3.408,3.562,3.562,0,0,0,3.331-3.851A3.408,3.408,0,0,0,69.021,75.5a3.581,3.581,0,0,0-3.485,3.716Z" transform="translate(794.878 69.868)"/><path class="b" d="M21.927,44.6a3.639,3.639,0,0,0,3.408-3.716,3.562,3.562,0,0,0-3.851-3.312A3.408,3.408,0,0,0,18.4,41.138,3.562,3.562,0,0,0,21.927,44.6Z" transform="translate(932.871 34.762)"/><path class="b" d="M100.478,134.87a3.62,3.62,0,0,0-3.62,3.5,3.543,3.543,0,0,0,3.562,3.543,3.408,3.408,0,0,0,3.466-3.35A3.562,3.562,0,0,0,100.478,134.87Z" transform="translate(703.252 124.812)"/><path class="b" d="M93,125.962a3.562,3.562,0,0,0,3.639,3.369A3.408,3.408,0,0,0,99.989,126a3.562,3.562,0,0,0-3.485-3.6A3.62,3.62,0,0,0,93,125.962Z" transform="translate(714.581 113.272)"/><path class="b" d="M60.818,72.317a3.562,3.562,0,0,0,3.5,3.6,3.408,3.408,0,0,0,3.524-3.292A3.581,3.581,0,0,0,64.5,68.89a3.639,3.639,0,0,0-3.678,3.427Z" transform="translate(808.684 63.752)"/><path class="b" d="M34.766,50.1a3.639,3.639,0,0,0,3.7,3.427,3.562,3.562,0,0,0,3.331-3.851A3.408,3.408,0,0,0,38.251,46.4a3.562,3.562,0,0,0-3.485,3.7Z" transform="translate(884.893 42.938)"/><path class="b" d="M48.9,61.244a3.639,3.639,0,0,0,3.427-3.7,3.562,3.562,0,0,0-3.851-3.331,3.408,3.408,0,0,0-3.2,3.446,3.562,3.562,0,0,0,3.62,3.581Z" transform="translate(854.124 50.161)"/><path class="b" d="M88.349,110.034a3.639,3.639,0,0,0,3.427-3.7,3.562,3.562,0,0,0-3.851-3.331,3.408,3.408,0,0,0-3.273,3.543,3.562,3.562,0,0,0,3.7,3.485Z" transform="translate(738.871 95.313)"/><path class="b" d="M89.427,113.3a3.485,3.485,0,0,0,3.6,3.235A3.408,3.408,0,0,0,96.3,112.8a3.254,3.254,0,0,0-3.658-3.081,3.389,3.389,0,0,0-3.215,3.581Z" transform="translate(725.143 101.516)"/><path class="b" d="M33.474,39.53A3.408,3.408,0,0,0,30.1,42.957,3.254,3.254,0,0,0,33.4,46.4a3.408,3.408,0,0,0,3.524-3.5,3.5,3.5,0,0,0-3.447-3.37Z" transform="translate(898.758 36.582)"/><path class="b" d="M5.181,28.731a3.447,3.447,0,0,0,.385,6.874,3.331,3.331,0,0,0,3.273-3.5,3.524,3.524,0,0,0-3.658-3.369Z" transform="translate(980.752 26.586)"/><path class="b" d="M76.12,87.327a3.312,3.312,0,0,0,3.389,3.138,3.254,3.254,0,0,0,3.466-3.273,3.466,3.466,0,0,0-3.5-3.562,3.639,3.639,0,0,0-3.35,3.7Z" transform="translate(764.097 77.393)"/><path class="b" d="M7.919,33.233a3.5,3.5,0,0,0,3.389,3.447,3.408,3.408,0,0,0,3.5-3.524,3.254,3.254,0,0,0-3.466-3.292,3.408,3.408,0,0,0-3.427,3.37Z" transform="translate(963.573 27.63)"/><path class="b" d="M40.637,50.825a3.5,3.5,0,0,0,3.524,3.292,3.408,3.408,0,0,0,3.35-3.6,3.254,3.254,0,0,0-3.6-3.138,3.408,3.408,0,0,0-3.273,3.447Z" transform="translate(867.874 43.828)"/><path class="b" d="M17.247,30.66a3.5,3.5,0,0,0-3.485,3.331,3.408,3.408,0,0,0,3.466,3.562,3.254,3.254,0,0,0,3.331-3.408C20.578,32.085,19.249,31.007,17.247,30.66Z" transform="translate(946.582 28.374)"/><path class="b" d="M66.687,73.552a3.5,3.5,0,0,0,3.5,3.331,3.408,3.408,0,0,0,3.389-3.639,3.254,3.254,0,0,0-3.562-3.177,3.408,3.408,0,0,0-3.331,3.485Z" transform="translate(791.648 64.828)"/><path class="b" d="M84.246,90.26a3.408,3.408,0,0,0-3.408,3.351A3.254,3.254,0,0,0,84.092,97.1a3.408,3.408,0,0,0,3.562-3.485A3.5,3.5,0,0,0,84.246,90.26Z" transform="translate(750.349 83.529)"/><path class="b" d="M51.169,59.1A3.43,3.43,0,1,0,58,58.52a3.331,3.331,0,0,0-3.524-3.158A3.543,3.543,0,0,0,51.169,59.1Z" transform="translate(837.106 51.229)"/><path class="b" d="M85.541,100.929a3.435,3.435,0,0,0,6.855-.462,3.331,3.331,0,0,0-3.524-3.254,3.543,3.543,0,0,0-3.331,3.716Z" transform="translate(736.539 89.958)"/><path class="b" d="M98.019,132.731a3.43,3.43,0,1,0,6.855-.27,3.331,3.331,0,0,0-3.427-3.331,3.543,3.543,0,0,0-3.427,3.6Z" transform="translate(700.031 119.499)"/><path class="b" d="M104.934,148.744a3.5,3.5,0,0,0,3.5-3.331,3.408,3.408,0,0,0-3.466-3.562,3.254,3.254,0,0,0-3.35,3.408C101.6,147.319,102.95,148.4,104.934,148.744Z" transform="translate(689.535 131.271)"/><path class="b" d="M74.73,76.683a3.485,3.485,0,0,0-3.331,3.6,3.408,3.408,0,0,0,3.851,3.273A3.254,3.254,0,0,0,78.311,79.9a3.389,3.389,0,0,0-3.581-3.215Z" transform="translate(777.829 70.959)"/><path class="b" d="M97.513,116.6a3.5,3.5,0,0,0-3.331,3.5,3.408,3.408,0,0,0,3.639,3.389A3.254,3.254,0,0,0,101,119.931a3.408,3.408,0,0,0-3.485-3.331Z" transform="translate(711.28 107.904)"/><path class="b" d="M59.4,62a3.5,3.5,0,0,0-3.5,3.331,3.408,3.408,0,0,0,3.466,3.562,3.254,3.254,0,0,0,3.35-3.408C62.727,63.386,61.4,62.289,59.4,62Z" transform="translate(823.315 57.376)"/><path class="b" d="M64.835,63.11A3.312,3.312,0,0,0,61.7,66.48a3.254,3.254,0,0,0,3.254,3.466,3.485,3.485,0,0,0,3.562-3.466,3.639,3.639,0,0,0-3.678-3.369Z" transform="translate(806.342 58.403)"/><path class="b" d="M24.285,42.439a3.447,3.447,0,0,0,6.855-.462,3.331,3.331,0,0,0-3.524-3.254,3.543,3.543,0,0,0-3.331,3.716Z" transform="translate(915.746 35.83)"/><path class="b" d="M90.561,107.149a3.292,3.292,0,0,0,3.292,3.408,3.254,3.254,0,0,0,3.331-3.37,3.138,3.138,0,0,0-3.158-3.254,3.254,3.254,0,0,0-3.466,3.215Z" transform="translate(722.084 96.176)"/><path class="b" d="M98.918,126.962a3.293,3.293,0,0,0,3.408,3.273,3.254,3.254,0,0,0,3.2-3.485,3.138,3.138,0,0,0-3.273-3.138,3.235,3.235,0,0,0-3.331,3.35Z" transform="translate(697.649 114.39)"/><path class="b" d="M106.282,142.7a3.312,3.312,0,0,0,3.119-3.562,3.254,3.254,0,0,0-3.62-3.023,3.138,3.138,0,0,0-2.984,3.408,3.235,3.235,0,0,0,3.485,3.177Z" transform="translate(686.319 125.94)"/><path class="b" d="M22.913,31.85a3.292,3.292,0,0,0-3.292,3.408,3.254,3.254,0,0,0,3.466,3.215,3.138,3.138,0,0,0,3.158-3.254,3.254,3.254,0,0,0-3.331-3.369Z" transform="translate(929.613 29.474)"/><path class="b" d="M36,44a3.292,3.292,0,0,0,3.35,3.331,3.254,3.254,0,0,0,3.215-3.408,3.138,3.138,0,0,0-3.215-3.2A3.235,3.235,0,0,0,36,44Z" transform="translate(881.755 37.692)"/><path class="b" d="M46.509,51.869A3.254,3.254,0,0,0,49.956,55.1a3.138,3.138,0,0,0,3.177-3.235A3.254,3.254,0,0,0,49.84,48.48a3.312,3.312,0,0,0-3.331,3.389Z" transform="translate(850.95 44.864)"/><path class="b" d="M60.322,56.25A3.389,3.389,0,0,0,57.087,59.5,3.292,3.292,0,0,0,60.476,62.8a3.138,3.138,0,0,0,3.081-3.331,3.292,3.292,0,0,0-3.235-3.215Z" transform="translate(820.156 52.055)"/><path class="b" d="M99.342,110.78c-2.715.539-3.851,1.579-3.986,3.524a3.292,3.292,0,0,0,3.485,3.2c1.925-.289,3.292-1.56,2.907-3.389C101.479,112.763,100.035,111.666,99.342,110.78Z" transform="translate(708.22 102.518)"/><path class="b" d="M75.371,77.167a2.811,2.811,0,0,0,3.1-2.888,2.715,2.715,0,0,0-2.792-3.158,2.753,2.753,0,0,0-3.235,2.965,2.811,2.811,0,0,0,2.927,3.081Z" transform="translate(775.667 65.776)"/><path class="b" d="M82.144,87.623A2.792,2.792,0,0,0,85.032,90.7a2.715,2.715,0,0,0,3.158-2.792A2.753,2.753,0,0,0,85.205,84.7a2.811,2.811,0,0,0-3.061,2.927Z" transform="translate(747.271 78.368)"/><path class="b" d="M77.438,81.136a2.792,2.792,0,0,0,3.042,2.946,2.753,2.753,0,0,0,3-3.215,2.715,2.715,0,0,0-3.138-2.85,2.792,2.792,0,0,0-2.907,3.119Z" transform="translate(761.046 72.167)"/><path class="b" d="M86.863,94.625a2.792,2.792,0,0,0,2.965,3,2.753,2.753,0,0,0,3.061-3.138,2.715,2.715,0,0,0-3.061-2.869,2.792,2.792,0,0,0-2.965,3Z" transform="translate(733.483 84.767)"/><path class="b" d="M28.537,33.108c-1.925.173-3.023,1.194-2.984,3.1a2.753,2.753,0,0,0,3.312,2.946,2.734,2.734,0,0,0,2.773-3.177,2.792,2.792,0,0,0-3.1-2.869Z" transform="translate(912.784 30.623)"/><path class="b" d="M47.877,45.821c.212,1.925,1.194,3,3.1,2.946a2.965,2.965,0,0,0,0-5.911,2.85,2.85,0,0,0-3.1,2.965Z" transform="translate(847.754 39.649)"/><path class="b" d="M103.258,117.93c-1.925.212-3.138,1.213-3.081,3.119a2.975,2.975,0,0,0,5.95,0,2.888,2.888,0,0,0-2.869-3.119Z" transform="translate(694.619 109.135)"/><path class="b" d="M52.5,52.663a2.869,2.869,0,0,0,3,3.061,2.715,2.715,0,0,0,2.984-2.753,2.753,2.753,0,0,0-2.869-3.2A2.869,2.869,0,0,0,52.5,52.663Z" transform="translate(834.045 46.053)"/><path class="b" d="M34.372,33.942a2.869,2.869,0,0,0-2.927,3.119,2.965,2.965,0,0,0,5.93,0,2.869,2.869,0,0,0-3-3.119Z" transform="translate(895.724 31.407)"/><path class="b" d="M70.7,64.431a2.869,2.869,0,0,0-2.946,3.119,2.984,2.984,0,0,0,5.95,0,2.888,2.888,0,0,0-3-3.119Z" transform="translate(789.481 59.624)"/><path class="b" d="M86.361,79.14c-1.925.116-3.042,1.04-3.081,2.946a2.965,2.965,0,0,0,5.911.25,2.869,2.869,0,0,0-2.83-3.2Z" transform="translate(744.075 73.238)"/><path class="b" d="M41.991,44.929c.231,1.925,1.252,3.1,3.158,3.042a2.715,2.715,0,0,0,2.792-2.907A2.753,2.753,0,0,0,45.033,42a2.888,2.888,0,0,0-3.042,2.927Z" transform="translate(864.826 38.865)"/><path class="b" d="M104.976,127.6c.212,1.925,1.194,3,3.1,2.946a2.965,2.965,0,0,0,0-5.911,2.869,2.869,0,0,0-3.1,2.965Z" transform="translate(680.713 115.331)"/><path class="b" d="M18.014,25.072a2.85,2.85,0,0,0-2.927,3.119,2.734,2.734,0,0,0,3.138,2.85,2.715,2.715,0,0,0,2.792-2.946,2.869,2.869,0,0,0-3-3.023Z" transform="translate(943.581 23.199)"/><path class="b" d="M12.328,24.24c-1.925.135-3.042,1.078-3.061,2.984a2.734,2.734,0,0,0,3,3A2.715,2.715,0,0,0,15.2,27.417a2.869,2.869,0,0,0-2.869-3.177Z" transform="translate(960.609 22.432)"/><path class="b" d="M6.954,29.6c.809-1.136,2.079-2.176,2.311-3.427.327-1.791-.963-2.984-2.83-3.023s-3.215,1.1-2.946,2.888c.193,1.252,1.406,2.349,2.176,3.524Z" transform="translate(977.67 21.423)"/><path class="b" d="M103.874,133.471a2.888,2.888,0,0,0,3.177,2.888,2.984,2.984,0,0,0-.193-5.95C104.952,130.468,104.028,131.681,103.874,133.471Z" transform="translate(683.914 120.685)"/><path class="b" d="M65.961,63.537a2.869,2.869,0,0,0,2.965-3.158,2.967,2.967,0,1,0-5.93.193C62.919,62.459,64.113,63.383,65.961,63.537Z" transform="translate(803.407 53.22)"/><path class="b" d="M96.3,108.191c.25,1.925,1.29,3.042,3.177,2.965a2.968,2.968,0,1,0-.173-5.93,2.869,2.869,0,0,0-3,2.965Z" transform="translate(705.905 97.367)"/><path class="b" d="M94.672,98.53c-1.925.135-3.061,1.059-3.081,2.984a2.984,2.984,0,0,0,5.95.212,2.888,2.888,0,0,0-2.869-3.2Z" transform="translate(719.725 91.182)"/><path class="b" d="M110.872,143.16c-1.925.154-3.177,1.1-3.2,3a2.715,2.715,0,0,0,2.753,2.984,2.753,2.753,0,0,0,3.2-2.811,2.888,2.888,0,0,0-2.753-3.177Z" transform="translate(672.699 132.484)"/><path class="b" d="M112.442,143.6c.732-1.117,1.925-2.195,2.06-3.369.212-1.925-1.175-2.927-3.042-2.792a2.484,2.484,0,0,0-2.542,3.023c.27,1.174,1.521,2.137,2.349,3.2Z" transform="translate(669.511 127.175)"/><path class="b" d="M76.991,71.55c.789-1.078,2.06-2.06,2.272-3.235.327-1.81-.982-3-2.869-2.965s-3,1.175-2.715,2.85c.193,1.194,1.386,2.214,2.137,3.331Z" transform="translate(772.545 60.476)"/><path class="b" d="M113.116,137.777c.751-1.1,1.925-2.1,2.176-3.292a2.465,2.465,0,0,0-2.676-2.869c-1.925,0-3.2,1.117-2.888,2.927.193,1.174,1.444,2.176,2.233,3.254Z" transform="translate(667.124 121.789)"/><path class="b" d="M68.916,62.035c1.059.809,2.022,2.041,3.215,2.291a2.484,2.484,0,0,0,2.984-2.58c.115-1.925-1-3.235-2.811-3-1.175.154-2.233,1.367-3.35,2.1Z" transform="translate(785.819 54.337)"/><path class="b" d="M58.376,54.275c1.059.809,2.022,2.041,3.215,2.311a2.484,2.484,0,0,0,3-2.58c.116-1.925-.982-3.254-2.83-3.023-1.194.154-2.253,1.367-3.35,2.1Z" transform="translate(816.633 47.156)"/><path class="b" d="M108.246,118.638c-.751,1.1-1.925,2.118-2.137,3.312a2.465,2.465,0,0,0,2.715,2.85c1.925,0,3.177-1.155,2.869-2.965-.212-1.175-1.483-2.156-2.272-3.235Z" transform="translate(677.655 109.755)"/><path class="b" d="M29.115,27.12c-.789,1.059-2.06,2.041-2.272,3.215-.327,1.81.963,3,2.85,2.984a2.465,2.465,0,0,0,2.734-2.85c-.193-1.194-1.386-2.233-2.118-3.331Z" transform="translate(909.587 25.098)"/><path class="b" d="M92.766,96.133c1.059.809,2.041,2.041,3.215,2.311a2.484,2.484,0,0,0,3-2.58c.116-1.925-1-3.235-2.83-3.023-1.194.154-2.234,1.367-3.35,2.1Z" transform="translate(716.028 85.896)"/><path class="b" d="M20.995,29.751c1.1.751,2.137,1.925,3.312,2.156,1.925.25,2.965-1.1,2.869-2.965a2.484,2.484,0,0,0-2.965-2.619c-1.194.25-2.176,1.463-3.254,2.253Z" transform="translate(926.102 24.315)"/><path class="b" d="M91.425,92.079c.789-1.078,2.06-2.06,2.272-3.235.327-1.81-.982-3-2.869-2.984s-3,1.175-2.734,2.869c.193,1.194,1.386,2.233,2.137,3.331Z" transform="translate(730.346 79.457)"/><path class="b" d="M37.323,38.617c1.1.751,2.118,1.925,3.312,2.176a2.484,2.484,0,0,0,2.888-2.7c0-1.925-1.117-3.2-2.946-2.907-1.175.193-2.176,1.444-3.273,2.233Z" transform="translate(878.274 32.528)"/><path class="b" d="M4.594,20.826c1.078.77,2.079,1.925,3.273,2.195a2.465,2.465,0,0,0,2.907-2.657c0-1.925-1.078-3.2-2.907-2.927-1.175.173-2.195,1.425-3.273,2.195Q4.594,20.229,4.594,20.826Z" transform="translate(974.003 16.104)"/><path class="b" d="M46.453,42.435c.809-1.059,2.041-2.022,2.291-3.2a2.484,2.484,0,0,0-2.561-2.984c-1.925-.116-3.235,1-3,2.811.154,1.175,1.367,2.233,2.1,3.35Z" transform="translate(861.751 33.543)"/><path class="b" d="M.03,19.273C.3,18.079,1.532,17.117,2.341,16h1v6.142a3.966,3.966,0,0,1-.751,0A2.484,2.484,0,0,1,.03,19.273Z" transform="translate(990.292 14.807)"/><path class="b" d="M104.669,118.423c.809-1.059,2.041-2.041,2.311-3.215a2.484,2.484,0,0,0-2.58-3c-1.925-.115-3.254,1-3.023,2.83.154,1.194,1.367,2.234,2.1,3.35Z" transform="translate(691.455 103.829)"/><path class="b" d="M100.812,105.654c.809-1.059,2.041-2.022,2.291-3.215a2.484,2.484,0,0,0-2.58-2.984c-1.925-.116-3.235,1-3,2.811.154,1.174,1.367,2.233,2.1,3.35Z" transform="translate(702.764 92.029)"/><path class="b" d="M53.676,47.326c1.059.809,2.022,2.041,3.2,2.291a2.484,2.484,0,0,0,2.984-2.561c.116-1.925-1-3.235-2.811-3-1.175.154-2.233,1.367-3.331,2.1Z" transform="translate(830.421 40.743)"/><path class="b" d="M80.551,72.019c-.751,1.1-1.925,2.137-2.156,3.312-.25,1.925,1.1,2.965,2.965,2.869a2.484,2.484,0,0,0,2.619-2.965c-.25-1.194-1.463-2.176-2.253-3.254Z" transform="translate(758.722 66.612)"/><path class="b" d="M102.15,108.937c1.771,1.425,2.869,2.965,3.851,2.85s2.079-1.637,3.1-2.542c-.866-.982-1.675-2.676-2.619-2.753S104.095,107.724,102.15,108.937Z" transform="translate(687.852 98.547)"/><path class="b" d="M10.43,21.444c1.925,1.213,3.158,2.561,4.236,2.465s1.771-1.771,2.638-2.734c-1.02-.924-1.925-2.426-3.1-2.561S12.2,20.039,10.43,21.444Z" transform="translate(956.249 17.218)"/><path class="b" d="M79.52,69.638c1.02.751,2.1,2.156,3.042,2.079s1.925-1.579,2.83-2.465c-.886-.943-1.675-2.484-2.657-2.619s-2.1,1.194-3.158,1.925Z" transform="translate(755.132 61.656)"/><path class="b" d="M113.63,147.267c1.02.751,2.1,2.156,3.042,2.079s1.925-1.579,2.83-2.465c-.886-.943-1.675-2.5-2.676-2.638s-2.1,1.194-3.177,1.925Z" transform="translate(655.346 133.479)"/><path class="b" d="M64.28,54.957c1.02.751,2.1,2.156,3.042,2.079s1.925-1.579,2.83-2.465c-.886-.943-1.675-2.5-2.676-2.638S65.358,53.128,64.3,53.86Z" transform="translate(799.716 48.053)"/><path class="b" d="M87.4,79.24c.751-1.02,2.156-2.1,2.079-3.042a3.658,3.658,0,0,0-2.465-2.638,3.658,3.658,0,0,0-2.676,2.465c-.135.943,1.194,2.1,1.925,3.177Z" transform="translate(741.785 68.074)"/><path class="b" d="M18.073,19.238c-.693,1.059-1.925,2.214-1.925,3.158s1.694,1.791,2.638,2.657c.886-.943,2.368-1.829,2.465-2.83S19.921,20.3,19.171,19.18Z" transform="translate(941.289 17.75)"/><path class="b" d="M38.014,30.265c-1.059-.693-2.233-1.925-3.177-1.925s-1.791,1.694-2.657,2.638c.943.866,1.925,2.368,2.83,2.445s2.022-1.329,3.042-2.079Z" transform="translate(893.622 26.227)"/><path class="b" d="M88.95,83.239c1.02.751,2.1,2.156,3.042,2.079s1.925-1.579,2.83-2.465c-.886-.943-1.675-2.484-2.676-2.638s-2.1,1.194-3.158,1.925Z" transform="translate(727.545 74.222)"/><path class="b" d="M95.994,86.869c-.693,1.059-1.925,2.233-1.925,3.177s1.694,1.771,2.638,2.657c.866-.943,2.368-1.829,2.445-2.83s-1.329-1.925-2.079-3.042Z" transform="translate(713.358 80.355)"/><path class="b" d="M77.912,64.973c.635-.963,1.771-1.925,1.733-2.888s-1.483-2.349-2.118-2.253a3.523,3.523,0,0,0-2.484,2.253c-.154.847,1.059,1.925,1.675,2.927Z" transform="translate(769.525 55.366)"/><path class="b" d="M115.958,127.925c-.943-.674-1.925-1.925-2.811-1.925a3.523,3.523,0,0,0-2.368,2.33c-.135.635,1.29,2.176,2.118,2.272s1.925-.982,3-1.56Z" transform="translate(664.397 116.603)"/><path class="b" d="M71.97,52.9c-.6.982-1.791,2.06-1.637,2.907a3.5,3.5,0,0,0,2.484,2.214,3.29,3.29,0,0,0,2.1-2.272c.019-.847-1.117-1.925-1.733-2.869Z" transform="translate(783.323 48.936)"/><path class="b" d="M30.929,26.924c.578-1,1.733-2.118,1.56-2.946a3.524,3.524,0,0,0-2.561-2.118c-.635,0-1.925,1.483-2.022,2.33S29.081,26.115,29.831,27Z" transform="translate(907.407 20.23)"/><path class="b" d="M112.209,123.206c.982.6,2.06,1.791,2.907,1.637a3.5,3.5,0,0,0,2.195-2.484,3.338,3.338,0,0,0-2.253-2.1c-.828-.039-1.925,1.117-2.869,1.733Z" transform="translate(660.31 111.291)"/><path class="b" d="M61.467,45.12c-.616.982-1.829,2.06-1.675,2.907a3.524,3.524,0,0,0,2.465,2.233,3.387,3.387,0,0,0,2.137-2.253c.058-.847-1.1-1.925-1.714-2.888Z" transform="translate(814.139 41.755)"/><path class="b" d="M23.716,20.45c-.6.982-1.714,1.925-1.637,2.946s1.56,2.291,2.195,2.195A3.524,3.524,0,0,0,26.682,23.3c.116-.847-1.117-1.925-1.752-2.85Z" transform="translate(924.44 18.925)"/><path class="b" d="M107.478,116.209c.963.616,2.022,1.925,2.869,1.714a3.524,3.524,0,0,0,2.272-2.445c.1-.635-1.386-2.118-2.214-2.156s-1.925,1.078-2.927,1.694Z" transform="translate(674.071 104.869)"/><path class="b" d="M50.665,37.089c-.616.982-1.81,2.06-1.675,2.907a3.524,3.524,0,0,0,2.484,2.233,3.353,3.353,0,0,0,2.118-2.272c.039-.847-1.1-1.925-1.733-2.888Z" transform="translate(845.735 34.305)"/><path class="b" d="M103.635,103.81c.982.6,1.925,1.714,2.927,1.637s2.291-1.56,2.176-2.176a3.523,3.523,0,0,0-2.291-2.407c-.847-.116-1.925,1.117-2.85,1.752Z" transform="translate(685.423 93.335)"/><path class="b" d="M98.918,96.885c.982.6,2.079,1.81,2.907,1.656a3.524,3.524,0,0,0,2.214-2.522,3.353,3.353,0,0,0-2.272-2.118c-.847-.039-1.925,1.117-2.888,1.752Z" transform="translate(699.208 86.897)"/><path class="b" d="M38.438,32.419c.943.655,1.925,1.81,2.85,1.791s2.388-1.444,2.311-2.079a3.543,3.543,0,0,0-2.176-2.522c-.847-.173-1.925,1.02-2.946,1.617Z" transform="translate(876.023 27.384)"/><path class="b" d="M115.014,141.566c1,.578,2.041,1.675,2.965,1.6s2.253-1.6,2.137-2.233a3.5,3.5,0,0,0-2.33-2.368c-.866-.1-1.925,1.155-2.83,1.81Z" transform="translate(652.171 128.224)"/><path class="b" d="M115.844,135.121c1.637,1.059,2.638,2.214,3.447,2.079a2.206,2.206,0,1,0-.154-4.409C118.328,132.715,117.4,133.928,115.844,135.121Z" transform="translate(649.165 122.885)"/><path class="b" d="M92.509,80.14c1.117-1.6,2.311-2.542,2.234-3.35a2.2,2.2,0,0,0-4.409,0C90.237,77.56,91.412,78.522,92.509,80.14Z" transform="translate(724.968 69.023)"/><path class="b" d="M87.718,73.495c1.155-1.56,2.368-2.484,2.311-3.292a2.2,2.2,0,1,0-4.39-.193C85.446,70.876,86.679,71.935,87.718,73.495Z" transform="translate(738.751 62.845)"/><path class="b" d="M95.06,83.812c1.637,1.04,2.638,2.195,3.447,2.079a3.158,3.158,0,0,0,2.118-2.272A3.138,3.138,0,0,0,98.352,81.5C97.544,81.425,96.62,82.657,95.06,83.812Z" transform="translate(709.979 75.42)"/><path class="b" d="M13.772,18.622c1.117-1.579,2.311-2.542,2.214-3.35A3.138,3.138,0,0,0,13.829,13a3.138,3.138,0,0,0-2.214,2.176C11.5,16.042,12.674,17.024,13.772,18.622Z" transform="translate(955.295 12.031)"/><path class="b" d="M110.382,113.33c1.194-1.521,2.426-2.426,2.388-3.235a2.214,2.214,0,0,0-4.409-.25C108.226,110.654,109.362,111.675,110.382,113.33Z" transform="translate(672.245 99.872)"/><path class="b" d="M7.889,11.29C6.83,12.927,5.675,13.928,5.81,14.737s1.463,1.54,2.272,2.291c.751-.809,2.06-1.579,2.118-2.445S9.083,12.85,7.889,11.29Z" transform="translate(972.267 10.448)"/><path class="b" d="M65.39,48.6c1.637,1.059,2.638,2.214,3.447,2.079a3.158,3.158,0,0,0,2.118-2.272,3.138,3.138,0,0,0-2.272-2.118C67.855,46.233,66.93,47.446,65.39,48.6Z" transform="translate(796.777 42.837)"/><path class="b" d="M54.86,40.774c1.617,1.1,2.6,2.272,3.408,2.156A3.158,3.158,0,0,0,60.444,40.7a3.158,3.158,0,0,0-2.195-2.176C57.4,38.445,56.458,39.638,54.86,40.774Z" transform="translate(827.562 35.646)"/><path class="b" d="M101.886,87.53c-1.059,1.637-2.195,2.638-2.079,3.447s1.463,1.54,2.272,2.291c.751-.809,2.06-1.579,2.118-2.445S103.119,89.09,101.886,87.53Z" transform="translate(697.28 81.002)"/><path class="b" d="M44.32,32.938c1.579,1.117,2.542,2.33,3.35,2.233A3.158,3.158,0,0,0,49.9,33a3.158,3.158,0,0,0-2.176-2.233C46.9,30.666,45.937,31.841,44.32,32.938Z" transform="translate(858.396 28.463)"/><path class="b" d="M33.78,25.407c1.656,1.02,2.676,2.137,3.485,1.925A3.158,3.158,0,0,0,39.344,25,3.138,3.138,0,0,0,37,23C36.187,23,35.282,24.213,33.78,25.407Z" transform="translate(889.249 21.285)"/><path class="b" d="M119.273,126.66c-1.155,1.521-2.388,2.445-2.31,3.254a3.292,3.292,0,0,0,2.214,2.214c.6.116,2.06-1.232,2.1-1.925S120.255,128.3,119.273,126.66Z" transform="translate(647.161 117.214)"/><path class="b" d="M115.356,119.969c1.02-1.617,2.176-2.638,2.041-3.427a3.312,3.312,0,0,0-2.388-2.022,3.12,3.12,0,0,0-1.925,2.156C113.084,117.427,114.24,118.429,115.356,119.969Z" transform="translate(658.491 105.98)"/><path class="b" d="M82.962,66.47c1.155-1.54,2.291-2.388,2.311-3.273s-1.309-2.253-1.925-2.176a3.292,3.292,0,0,0-2.407,1.925C80.806,63.794,81.961,64.834,82.962,66.47Z" transform="translate(752.537 56.468)"/><path class="b" d="M75.99,56.622c1.617,1.02,2.657,2.176,3.447,2.041a3.292,3.292,0,0,0,1.925-2.388,3.12,3.12,0,0,0-2.156-1.925C78.455,54.35,77.492,55.486,75.99,56.622Z" transform="translate(765.96 50.297)"/><path class="b" d="M62.9,45.158c1.059-1.694,2.156-2.657,2.1-3.543a2.965,2.965,0,0,0-2.195-1.925,2.946,2.946,0,0,0-2.118,2.06C60.67,42.6,61.787,43.522,62.9,45.158Z" transform="translate(811.779 36.73)"/><path class="b" d="M106.855,94.5c-1.02,1.617-2.1,2.561-2.041,3.447s1.483,2.137,2.079,1.925a3.293,3.293,0,0,0,2.234-2.195C109.3,96.984,108.087,96.04,106.855,94.5Z" transform="translate(682.685 87.453)"/><path class="b" d="M50.1,33.765c1.54,1.059,2.465,2.195,3.35,2.176s1.483-1.348,2.233-2.1c-.789-.789-1.5-2.041-2.407-2.214S51.64,32.687,50.1,33.765Z" transform="translate(841.487 29.254)"/><path class="b" d="M17.488,16.424c1.617,1.02,2.561,2.1,3.447,2.041s2.137-1.483,1.925-2.079a3.292,3.292,0,0,0-2.195-2.233C19.971,14.075,19.028,15.288,17.488,16.424Z" transform="translate(937.08 13.093)"/><path class="b" d="M93.524,68.26c-1.02,1.463-2.1,2.368-1.925,3.119s1.136,1.463,1.945,2.156c.712-.732,1.925-1.406,1.925-2.214S94.544,69.685,93.524,68.26Z" transform="translate(721.836 63.169)"/><path class="b" d="M41.592,29.163c1.078-1.425,2.233-2.272,2.176-3.042S42.516,24.6,41.842,23.83c-.751.693-1.925,1.329-2.137,2.118S40.629,27.662,41.592,29.163Z" transform="translate(873.466 22.053)"/><path class="b" d="M25.28,14.48c-1,1.483-2.079,2.407-1.925,3.158s1.348,1.444,2.079,2.156c.712-.751,1.925-1.444,1.925-2.253S26.339,15.924,25.28,14.48Z" transform="translate(921.336 13.4)"/><path class="b" d="M122.542,145.053c1.078-1.425,2.234-2.272,2.176-3.042s-1.252-1.54-1.925-2.291c-.751.693-1.925,1.329-2.137,2.118S121.579,143.532,122.542,145.053Z" transform="translate(636.653 129.3)"/><path class="b" d="M98.194,75.19c-1.02,1.463-2.1,2.368-1.925,3.119s1.309,1.463,2.041,2.176c.712-.732,1.925-1.406,1.925-2.214S99.214,76.653,98.194,75.19Z" transform="translate(708.078 69.583)"/><path class="b" d="M111.492,101.53c-.963,1.521-2.022,2.445-1.925,3.215s1.386,1.406,2.137,2.118c.693-.77,1.925-1.483,1.925-2.291S112.57,102.936,111.492,101.53Z" transform="translate(669.056 93.958)"/><path class="b" d="M73.351,46.91c-1.04,1.463-2.137,2.349-2.06,3.1a2.927,2.927,0,0,0,2.022,2.041,2.927,2.927,0,0,0,2.06-2.022C75.469,49.278,74.371,48.373,73.351,46.91Z" transform="translate(780.998 43.412)"/><path class="b" d="M68.587,45.221c.866-1.29,1.791-2.041,1.733-2.7s-1.059-1.29-1.656-1.925c-.674.655-1.694,1.232-1.925,1.925S67.663,44.027,68.587,45.221Z" transform="translate(794.87 37.572)"/><path class="b" d="M31.063,20.833c.9-1.271,1.925-1.925,1.791-2.638s-1.04-1.329-1.617-1.925c-.674.635-1.714,1.194-1.925,1.925S30.177,19.6,31.063,20.833Z" transform="translate(904.385 15.057)"/><path class="b" d="M105.73,91.339c1.309.847,2.176,1.81,2.715,1.656s1.29-1.271,1.925-1.925c-.674-.558-1.329-1.54-2.022-1.56S106.962,90.454,105.73,91.339Z" transform="translate(679.689 82.835)"/><path class="b" d="M1.23,7.333c1.29.866,2.041,1.791,2.7,1.733S5.216,7.987,5.851,7.41C5.2,6.736,4.619,5.715,3.926,5.484S2.443,6.409,1.23,7.333Z" transform="translate(985.415 5.048)"/><path class="b" d="M102.623,82.28c-.789,1.463-1.6,2.311-1.521,3.042s1.406,1.694,1.81,1.56a2.984,2.984,0,0,0,1.714-1.925C104.722,84.282,103.682,83.57,102.623,82.28Z" transform="translate(694.349 76.144)"/><path class="b" d="M119.945,126.225c.963-1.348,1.925-2.137,1.925-2.7a2.984,2.984,0,0,0-1.925-1.925c-.424-.116-1.675,1.04-1.714,1.656S119.078,124.877,119.945,126.225Z" transform="translate(644.121 112.528)"/><path class="b" d="M45.59,27.03c1.309.847,2.176,1.81,2.715,1.656s1.29-1.29,1.925-1.925c-.674-.558-1.329-1.521-2.041-1.56S46.842,26.067,45.59,27.03Z" transform="translate(855.624 23.32)"/><path class="b" d="M88.82,66.958c.9-1.386,1.925-2.233,1.694-2.773a8.6,8.6,0,0,0-1.925-1.925c-.6.616-1.656,1.252-1.656,1.925S87.876,65.61,88.82,66.958Z" transform="translate(735.705 57.617)"/><path class="b" d="M121.83,135.963c1.29.866,2.041,1.791,2.7,1.733s1.29-1.078,1.925-1.656c-.655-.674-1.232-1.694-1.925-1.925S123.1,135.039,121.83,135.963Z" transform="translate(632.609 124.085)"/><path class="b" d="M118.492,110.651c-1.29-.886-2.118-1.925-2.676-1.752s-1.329,1.232-1.925,1.925c.655.578,1.29,1.56,1.925,1.617S117.221,111.556,118.492,110.651Z" transform="translate(655.856 100.76)"/><path class="b" d="M57.769,37.526c.982-1.329,1.925-2.1,1.925-2.676a2.984,2.984,0,0,0-1.81-1.925c-.424-.116-1.694,1.02-1.733,1.637S56.921,36.12,57.769,37.526Z" transform="translate(825.828 30.461)"/><path class="b" d="M81.92,57.194c1.271.886,1.925,1.81,2.676,1.752s1.309-1.059,1.925-1.637c-.655-.674-1.213-1.694-1.925-1.925S83.191,56.29,81.92,57.194Z" transform="translate(749.382 51.226)"/><path class="b" d="M12.982,9.35c1.232.712,1.925,1.5,2.715,1.444s1.6-1.309,1.463-1.675a2.83,2.83,0,0,0-1.925-1.637C14.773,7.4,14.08,8.483,12.982,9.35Z" transform="translate(951.463 6.92)"/><path class="b" d="M72.6,43.615c1.194.751,1.925,1.56,2.619,1.54s1.637-1.232,1.521-1.6a2.83,2.83,0,0,0-1.791-1.694C74.473,41.767,73.741,42.73,72.6,43.615Z" transform="translate(777.085 38.735)"/><path class="b" d="M77.3,50.527c1.213.77,1.925,1.6,2.638,1.579s1.656-1.213,1.54-1.6a2.85,2.85,0,0,0-1.791-1.714C79.192,48.679,78.46,49.642,77.3,50.527Z" transform="translate(763.297 45.147)"/><path class="b" d="M36.518,21.672c.943-1.117,1.925-1.791,1.925-2.311a2.83,2.83,0,0,0-1.637-1.925c-.385-.135-1.637.9-1.675,1.463S35.805,20.459,36.518,21.672Z" transform="translate(887.551 16.124)"/><path class="b" d="M18.8,10.008c1.1.924,1.791,1.925,2.291,1.925A2.811,2.811,0,0,0,23.02,10.3c.135-.385-.9-1.617-1.463-1.656S20.075,9.334,18.8,10.008Z" transform="translate(934.397 7.995)"/><path class="b" d="M7.18,8.218c1.463.77,2.272,1.54,2.965,1.444A2.253,2.253,0,0,0,11.551,7.91,2.253,2.253,0,0,0,9.972,6.37C9.221,6.389,8.528,7.256,7.18,8.218Z" transform="translate(968.259 5.895)"/><path class="b" d="M110.833,98.229c1.213.751,1.925,1.579,2.638,1.56s1.656-1.232,1.521-1.6A2.85,2.85,0,0,0,113.2,96.5C112.662,96.361,111.931,97.324,110.833,98.229Z" transform="translate(665.228 89.288)"/><path class="b" d="M62.07,35.824c1.425.847,2.176,1.637,2.869,1.6a2.253,2.253,0,0,0,1.483-1.694,2.234,2.234,0,0,0-1.56-1.617C64.169,34.072,63.456,34.9,62.07,35.824Z" transform="translate(807.702 31.566)"/><path class="b" d="M122.94,130.134c1.04.732,1.81,1.656,2.311,1.521s1.232-1.136,1.925-1.752c-.674-.558-1.29-1.444-1.925-1.54S123.883,129.287,122.94,130.134Z" transform="translate(629.747 118.784)"/><path class="b" d="M126.657,142.811c1.174.809,1.925,1.656,2.561,1.656s1.694-1.155,1.6-1.521a2.83,2.83,0,0,0-1.714-1.771C128.6,140.885,127.831,141.887,126.657,142.811Z" transform="translate(618.944 130.599)"/><path class="b" d="M115.508,104.971c1.444.77,2.253,1.521,2.946,1.444a1.641,1.641,0,0,0-.231-3.273C117.53,103.142,116.856,104.008,115.508,104.971Z" transform="translate(651.254 95.446)"/><path class="b" d="M120.864,120.229c.847-1.425,1.637-2.176,1.6-2.869a1.656,1.656,0,0,0-3.292,0C119.15,118.13,119.978,118.862,120.864,120.229Z" transform="translate(641.72 107.241)"/><path class="b" d="M92.563,65.194c1.406.828,2.156,1.637,2.85,1.579a1.656,1.656,0,0,0,0-3.292C94.642,63.48,93.91,64.308,92.563,65.194Z" transform="translate(718.522 58.746)"/><path class="b" d="M97.49,71.805c1.194.828,1.925,1.733,2.465,1.617s1.213-1.136,1.81-1.752c-.578-.558-1.175-1.56-1.733-1.54S98.645,71.016,97.49,71.805Z" transform="translate(704.161 64.9)"/><path class="b" d="M53.068,25.88c-.751,1.213-1.579,1.925-1.54,2.638s1.232,1.656,1.6,1.521a2.83,2.83,0,0,0,1.694-1.791C54.917,27.748,53.915,27.035,53.068,25.88Z" transform="translate(839.597 23.95)"/><path class="b" d="M26.236,9.07c-.751,1.117-1.6,1.81-1.521,2.368A2.407,2.407,0,0,0,26.371,12.9c.385,0,1.386-.943,1.367-1.444S26.987,10.187,26.236,9.07Z" transform="translate(918.32 8.394)"/><path class="b" d="M123.959,124.048c1.078.789,1.675,1.579,2.311,1.6s1.56-.924,1.5-1.309a2.388,2.388,0,0,0-1.386-1.733C125.769,122.507,125.095,123.374,123.959,124.048Z" transform="translate(627.188 113.453)"/><path class="b" d="M103.7,80.964c.847-1.059,1.637-1.637,1.694-2.272s-.866-1.6-1.271-1.54a2.388,2.388,0,0,0-1.771,1.329C102.178,79.038,103.025,79.789,103.7,80.964Z" transform="translate(691.212 71.395)"/><path class="b" d="M87.91,58.2c1.136.732,1.925,1.56,2.426,1.463a2.407,2.407,0,0,0,1.425-1.714,2.2,2.2,0,0,0-1.483-1.329C89.778,56.639,89.007,57.352,87.91,58.2Z" transform="translate(732.61 52.397)"/><path class="b" d="M42.635,22.211c.732-1.136,1.56-1.925,1.463-2.426a2.407,2.407,0,0,0-1.714-1.425,2.2,2.2,0,0,0-1.329,1.483C41.076,20.343,41.846,21.113,42.635,22.211Z" transform="translate(870.478 16.991)"/><path class="b" d="M108.472,87.633c.789-1.078,1.579-1.675,1.617-2.33s-.924-1.56-1.309-1.5a2.407,2.407,0,0,0-1.733,1.406C106.951,85.746,107.76,86.478,108.472,87.633Z" transform="translate(677.448 77.549)"/><path class="b" d="M120.37,111.531c.9.751,1.463,1.56,1.925,1.56s1.136-.809,1.694-1.252c-.52-.6-.924-1.463-1.56-1.656S121.352,110.857,120.37,111.531Z" transform="translate(637.881 101.941)"/><path class="b" d="M57.44,28.661c.9.751,1.463,1.56,1.925,1.56s1.136-.809,1.694-1.252c-.52-.6-.924-1.463-1.56-1.656S58.4,27.949,57.44,28.661Z" transform="translate(821.978 25.25)"/><path class="b" d="M113.245,90.4c-.712.943-1.56,1.637-1.444,2.06s1.02,1.1,1.6,1.637c.462-.539,1.29-1.059,1.309-1.637S113.957,91.324,113.245,90.4Z" transform="translate(663.683 83.658)"/><path class="b" d="M67.98,36.66c.9.751,1.463,1.56,1.925,1.56s1.136-.809,1.694-1.252c-.52-.6-.924-1.463-1.56-1.656S68.962,36.025,67.98,36.66Z" transform="translate(791.144 32.655)"/><path class="b" d="M83.19,51.27c.963.674,1.694,1.5,2.1,1.367s1.059-1.059,1.579-1.656c-.558-.462-1.117-1.252-1.675-1.271S84.095,50.538,83.19,51.27Z" transform="translate(746.591 46.003)"/><path class="b" d="M64.691,31.334c.5-.809,1.078-1.329,1-1.733a1.109,1.109,0,1,0-2.214.135C63.517,30.14,64.133,30.583,64.691,31.334Z" transform="translate(805.716 26.429)"/><path class="b" d="M78.67,44.368c.712.539,1.155,1.136,1.56,1.117s.847-.635,1.252-.982c-.424-.443-.77-1.078-1.271-1.232S79.4,43.829,78.67,44.368Z" transform="translate(760.68 40.024)"/><path class="b" d="M128.01,136.735c.751.52,1.309,1.155,1.6,1.059s.828-.828,1.232-1.29c-.424-.347-.866-.924-1.29-.943S128.7,136.176,128.01,136.735Z" transform="translate(616.321 125.45)"/><path class="b" d="M116.65,98.708c.712.539,1.155,1.136,1.56,1.117s.847-.635,1.252-.982c-.424-.443-.77-1.078-1.271-1.232S117.362,98.169,116.65,98.708Z" transform="translate(649.573 90.311)"/><path class="b" d="M98.655,65.756c.789.539,1.29,1.117,1.694,1.059a1.107,1.107,0,1,0,0-2.214C99.887,64.562,99.425,65.178,98.655,65.756Z" transform="translate(702.225 59.782)"/><path class="b" d="M103.61,72.457c.712.616,1.136,1.271,1.56,1.252s.866-.635,1.29-.982c-.366-.424-.655-1.136-1.078-1.213S104.419,72.033,103.61,72.457Z" transform="translate(687.682 66.174)"/><path class="b" d="M125.289,118.285c.751.578,1.194,1.213,1.6,1.194a1.1,1.1,0,1,0,.116-2.195C126.675,117.206,126.1,117.784,125.289,118.285Z" transform="translate(624.356 108.53)"/><path class="b" d="M2.7,1.02c.693.578,1.194,1.29,1.483,1.213A7.205,7.205,0,0,0,5.53,1.059C5.126.674,4.76,0,4.337,0S3.451.52,2.7,1.02Z" transform="translate(982.905)"/><path class="b" d="M8.53,1.986c.732.52,1.29,1.155,1.6,1.059s.828-.828,1.232-1.271c-.424-.327-.847-.924-1.29-.924S9.242,1.428,8.53,1.986Z" transform="translate(965.85 0.787)"/><path class="b" d="M14.4,2.966c.751.578,1.194,1.213,1.6,1.194a1.579,1.579,0,0,0,1.155-1.04,1.579,1.579,0,0,0-1.04-1.155C15.729,1.869,15.209,2.446,14.4,2.966Z" transform="translate(948.755 1.809)"/><path class="b" d="M31.736,13.591c.6-.655,1.232-1.04,1.252-1.463s-.558-.886-.866-1.348c-.481.366-1.155.655-1.348,1.155S31.255,12.821,31.736,13.591Z" transform="translate(901.459 9.976)"/><path class="b" d="M36.5,13.076c.809.539,1.309,1.117,1.714,1.059S39,13.4,39.388,13c-.4-.385-.789-1.04-1.213-1.078S37.251,12.5,36.5,13.076Z" transform="translate(883.968 11.03)"/><path class="b" d="M48.158,19.41c-.52.732-1.155,1.309-1.059,1.6s.828.828,1.29,1.232c.347-.424.924-.866.943-1.29S48.717,20.1,48.158,19.41Z" transform="translate(853.633 17.962)"/><path class="c" d="M878.995,51.251C838.85,63.535,808.043,89.76,778.873,118.988c-28.034,28.073-55.837,57.647-92.42,74.726-75.265,35.216-163.661,17.329-237.386-12.823C366.7,147.156,289.257,96.4,200.244,81.6c-43.688-7.259-90.495-3.851-128.464,20.621-31.519,20.217-48.6,52.217-55.722,88.2-4.043,20.448-5.43,41.2-6.527,62H0c.308-5.892.616-11.784,1.04-17.637,2.368-34.042,7.009-69.412,24.9-99.2,20.332-33.83,56.357-55.317,94.481-63.115,46.672-9.55,95-.462,139.285,14.306,42.86,14.21,83.39,34.292,123.939,53.758,77.4,37.257,163.2,75.092,251.249,59.38A186.4,186.4,0,0,0,693.73,179.2c18.022-10.147,33.868-23.471,48.81-37.681,29.228-27.726,55.683-59.3,90.591-80.309a197.26,197.26,0,0,1,121.456-26.84h.193v9.762A188.441,188.441,0,0,0,878.995,51.251Z" transform="translate(38.855 30.83)"/><path class="d" d="M866.691,210.25c-92.112,34.407-193.544,1.925-262.416-31.423-35.447-17.156-69.97-37.488-103.357-57.166C457.673,96.188,412.984,69.868,365.946,50.19,320.063,31.07,203.614-6.957,113.716,52.539,62.037,86.773,26.109,149.927,6.931,240.248c-1.81,8.491-3.427,17.1-5.006,25.7H0c1.6-8.741,3.254-17.483,5.083-26.109,19.254-90.822,55.472-154.381,107.593-188.9,90.63-60.015,207.811-21.757,253.983-2.522,47.173,19.716,91.939,46.056,135.223,71.587,33.348,19.659,67.852,39.933,103.222,57.089,68.545,33.175,169.437,65.464,260.914,31.346,32.6-12.169,62.326-32.27,91.034-51.717,12.034-8.106,24.164-16.289,36.583-23.972V135c-12.053,7.49-23.818,15.4-35.466,23.317C929.325,177.826,899.5,198,866.691,210.25Z" transform="translate(0 17.2)"/></g></g></svg>