<svg xmlns="http://www.w3.org/2000/svg" viewBox="0 0 206.5 140.8"><title>LOGO_200</title><g id="Layer_2" data-name="Layer 2"><g id="Layer_1-2" data-name="Layer 1"><path d="M201.5,95c-7.2,15.3-27,18.4-27,18.4H24.1s-26.5-5.3-24-31S30.5,55.1,30.5,55.1c8.4-39.9,44.4-29,44.4-29S81.1,7.3,99.4,1.9V27.7a2.6,2.6,0,0,0-1.2,2.2,2.6,2.6,0,0,0,5.2,0,2.4,2.4,0,0,0-1.2-2.2V1.3A58.4,58.4,0,0,1,114.1,0V19.2a2.6,2.6,0,0,0-1.2,2.2,2.6,2.6,0,0,0,2.6,2.6,2.6,2.6,0,0,0,2.6-2.6,2.4,2.4,0,0,0-1.2-2.2V.1a42.4,42.4,0,0,1,12.5,2.6h0V28a2.6,2.6,0,1,0,4,2.2,2.5,2.5,0,0,0-1.2-2.2V3.7a43.5,43.5,0,0,1,21,21,23.2,23.2,0,0,1,24,1.7c8.9,5.6,9.2,19.2,9.2,19.2a30.9,30.9,0,0,1,5.6,3.1A34.3,34.3,0,0,1,201.2,59a33.1,33.1,0,0,1,3.2,5.9C209.7,81.4,203.3,91.1,201.5,95Z" fill="#1ea1db"/><path d="M30.2,63.6a3.8,3.8,0,0,1,2.6-1,3.8,3.8,0,0,1,2.7,1,3.1,3.1,0,0,1,1.1,2.5,3.3,3.3,0,0,1-1.1,2.5,3.9,3.9,0,0,1-2.7,1,3.8,3.8,0,0,1-2.6-1,3.1,3.1,0,0,1-1.1-2.5A3,3,0,0,1,30.2,63.6Zm6.4,33.6a3.3,3.3,0,0,1-1.1,2.5,3.9,3.9,0,0,1-2.7,1,3.8,3.8,0,0,1-2.7-1A3.2,3.2,0,0,1,29,97.3V76.9a3.3,3.3,0,0,1,1.1-2.5,3.8,3.8,0,0,1,2.6-1,3.8,3.8,0,0,1,2.7,1,3.2,3.2,0,0,1,1.1,2.5V97.2Z" fill="#fff" stroke="#fff" stroke-miterlimit="10"/><path d="M50,73.5V97.2a3.2,3.2,0,0,1-1.1,2.4,3.9,3.9,0,0,1-2.7,1,3.8,3.8,0,0,1-2.6-1,3.1,3.1,0,0,1-1.1-2.4V66.7a3.8,3.8,0,0,1,1.3-2.9A4.4,4.4,0,0,1,47,62.6a5.8,5.8,0,0,1,3.2.9,7.8,7.8,0,0,1,2.3,2.4L67.9,89.8V66.1A3.3,3.3,0,0,1,69,63.6a3.8,3.8,0,0,1,2.6-1,3.8,3.8,0,0,1,2.7,1,3.1,3.1,0,0,1,1.1,2.5V96.5a3.5,3.5,0,0,1-.4,1.6,4.3,4.3,0,0,1-1,1.3,4,4,0,0,1-1.4.9,4.7,4.7,0,0,1-1.7.3,5.8,5.8,0,0,1-3.2-.9,8.3,8.3,0,0,1-2.3-2.4Z" fill="#fff" stroke="#fff" stroke-miterlimit="10"/><path d="M87.9,100.2a11.8,11.8,0,0,1-7.1-7.4,18.9,18.9,0,0,1,0-11.8,13.1,13.1,0,0,1,2.7-4.5,11.7,11.7,0,0,1,4.3-2.9,15.4,15.4,0,0,1,5.8-1,16.3,16.3,0,0,1,5.7,1,12.2,12.2,0,0,1,4.3,2.9,11.8,11.8,0,0,1,2.7,4.5,18.9,18.9,0,0,1,0,11.8,13.1,13.1,0,0,1-2.7,4.5,11.7,11.7,0,0,1-4.3,2.9,15.4,15.4,0,0,1-5.7,1A16.3,16.3,0,0,1,87.9,100.2ZM99.1,79.9a8,8,0,0,0-10.9,0c-1.3,1.4-1.9,3.8-1.9,7s.6,5.6,1.9,7a6.9,6.9,0,0,0,5.5,2.2,6.8,6.8,0,0,0,5.5-2.2q1.9-2.2,1.9-7C101,83.7,100.4,81.4,99.1,79.9Z" fill="#fff" stroke="#fff" stroke-miterlimit="10" stroke-width="2"/><path d="M119.6,99.5a11.8,11.8,0,0,1-7.1-7.4,18.9,18.9,0,0,1,0-11.8,13.1,13.1,0,0,1,2.7-4.5,11.7,11.7,0,0,1,4.3-2.9,15.4,15.4,0,0,1,5.8-1,16.3,16.3,0,0,1,5.7,1,12.2,12.2,0,0,1,4.3,2.9,11.8,11.8,0,0,1,2.7,4.5,18.9,18.9,0,0,1,0,11.8,13.1,13.1,0,0,1-2.7,4.5,11.7,11.7,0,0,1-4.3,2.9,15.4,15.4,0,0,1-5.7,1A14.6,14.6,0,0,1,119.6,99.5Zm11.2-20.2a8,8,0,0,0-10.9,0c-1.3,1.4-1.9,3.8-1.9,7s.6,5.6,1.9,7a6.9,6.9,0,0,0,5.5,2.2,6.8,6.8,0,0,0,5.5-2.2q1.9-2.2,1.9-7C132.7,83.1,132.1,80.8,130.9,79.3Z" fill="#fff" stroke="#fff" stroke-miterlimit="10" stroke-width="2"/><path d="M150.3,74.9v2.3c2-2.9,4.3-4.4,6.7-4.5s4.1.5,5.2,1.7a4.1,4.1,0,0,1,1.3,3.4,2.5,2.5,0,0,1-1.4,2.1,1.7,1.7,0,0,1-2-.6,5,5,0,0,0-2.9-1.4,6.2,6.2,0,0,0-4.5,1.1c-1.6,1-2.3,3-2.3,5.9V99c0,1.4-.9,2.1-2.6,2.1s-2.6-.7-2.7-2.1V74.9c0-1.3.9-2,2.6-2S150.3,73.5,150.3,74.9Z" fill="#fff" stroke="#fff" stroke-miterlimit="10" stroke-width="2"/><path d="M171.8,92.4c.5.6.5,1,.1,1.4a1,1,0,0,1-1.4,0,2.9,2.9,0,0,0-2.1-.9,2.5,2.5,0,0,0-1.9.9,2.8,2.8,0,0,0-.7,2.3,2.3,2.3,0,0,0,1.1,2,3.5,3.5,0,0,0,2.1.5,2,2,0,0,0,1.5-.8,1,1,0,0,1,1.3-.4.8.8,0,0,1,.4,1.2,3.8,3.8,0,0,1-1.8,1.4,5.7,5.7,0,0,1-3,.3,4,4,0,0,1-2.7-1.4,4.4,4.4,0,0,1-.9-2.9,4.6,4.6,0,0,1,1.1-3.1,4.5,4.5,0,0,1,3.3-1.5A4.7,4.7,0,0,1,171.8,92.4Z" fill="#fff" stroke="#fff" stroke-miterlimit="10" stroke-width="0.5"/><path d="M181.8,94.3c.3,2.2,0,3.8-.8,4.6a4.3,4.3,0,0,1-6.1,0c-.8-.9-1.1-2.4-.8-4.6A3.5,3.5,0,0,1,178,91C180.4,91,181.6,92.1,181.8,94.3Zm-6.3,1.2c0,2.2.8,3.3,2.5,3.3s2.5-1.1,2.4-3.3-.9-3.3-2.5-3.3S175.6,93.3,175.5,95.5Z" fill="#fff" stroke="#fff" stroke-miterlimit="10" stroke-width="0.5"/><path d="M185.3,100.1a1.4,1.4,0,0,1-1-.4,1.1,1.1,0,0,1-.4-.9,1.1,1.1,0,0,1,.4-.9,1.6,1.6,0,0,1,2,0,1.1,1.1,0,0,1,.4.9,1.1,1.1,0,0,1-.4.9A1.5,1.5,0,0,1,185.3,100.1Z" fill="#fff" stroke="#fff" stroke-miterlimit="10" stroke-width="0.5"/><path d="M190.9,100.2a1.4,1.4,0,0,1-1-.4,1.2,1.2,0,0,1,0-1.9,1.6,1.6,0,0,1,2,0,1.8,1.8,0,0,1,.6,1.2,2.8,2.8,0,0,1-.4,1.7,4.5,4.5,0,0,1-1.5,1.4.4.4,0,0,1-.5-.2.3.3,0,0,1,.1-.5C190.8,101.1,191.1,100.6,190.9,100.2Z" fill="#fff" stroke="#fff" stroke-miterlimit="10" stroke-width="0.5"/><path d="M89.8,47.8a1.4,1.4,0,0,1,1.6,1.5c0,1-.5,1.6-1.6,1.6H84V68.4c0,.8-.6,1.2-1.7,1.2s-1.7-.4-1.8-1.2V51H74.7c-1.1,0-1.7-.6-1.7-1.6a1.4,1.4,0,0,1,1.6-1.6Z" fill="#09163d"/><path d="M98.4,69.9a8.2,8.2,0,0,1-5-2A7,7,0,0,1,91,62.5a8.2,8.2,0,0,1,2-6A7.4,7.4,0,0,1,98.5,54a8.6,8.6,0,0,1,5.5,1.5c1.4,1.1,2.2,3,2.3,5.8a1.7,1.7,0,0,1-1.4,1.8H94.4A3.7,3.7,0,0,0,96,65.8a5.8,5.8,0,0,0,3.5,1,4.5,4.5,0,0,0,3.4-1.5,1.5,1.5,0,0,1,2.2-.4c.9.5,1,1.3.2,2.4a7.8,7.8,0,0,1-2.6,2A10.3,10.3,0,0,1,98.4,69.9ZM97,57.1a3.9,3.9,0,0,0-2.5,3.2H103a3.5,3.5,0,0,0-2.1-3.2A5.5,5.5,0,0,0,97,57.1Z" fill="#09163d"/><path d="M123.1,56.4c.8,1,.8,1.7.1,2.3a1.6,1.6,0,0,1-2.2.1,4.4,4.4,0,0,0-3.4-1.6,4.3,4.3,0,0,0-3.1,1.4,5.2,5.2,0,0,0-1.1,3.8,4,4,0,0,0,1.7,3.5,4.9,4.9,0,0,0,3.4.8,3.2,3.2,0,0,0,2.4-1.3,1.5,1.5,0,0,1,2.1-.6,1.4,1.4,0,0,1,.6,2,6,6,0,0,1-2.9,2.4,8.5,8.5,0,0,1-4.9.4,6.5,6.5,0,0,1-4.4-2.4,7.7,7.7,0,0,1-1.5-4.9,8.5,8.5,0,0,1,1.8-5.3,8,8,0,0,1,11.1-.5Z" fill="#09163d"/><path d="M131.3,48.9v7.5c1.5-1.9,3.6-2.5,6.4-2s4.2,2.2,4.3,5.2v9c0,.9-.6,1.2-1.7,1.2s-1.7-.4-1.7-1.3V60.9q.2-3.1-2.4-3.6c-1.8-.3-3.4.5-4.8,2.2v9c0,.7-.6,1.1-1.7,1.1s-1.7-.4-1.7-1.2V48.9c0-.8.6-1.2,1.7-1.2S131.3,48.1,131.3,48.9Z" fill="#09163d"/><path d="M38.7,132.7v.3H38a1.6,1.6,0,0,0-.9.3,1,1,0,0,0-.5.8,1.6,1.6,0,0,0,.5.9l.9,1.1a3,3,0,0,1,.5,1.6,2.9,2.9,0,0,1-.2,1,2.3,2.3,0,0,1-.6.9,5.8,5.8,0,0,1-1.6,1,4.5,4.5,0,0,1-1.8.4c-.1,0-.4-.3-.9-1a4,4,0,0,1-.6-1.3h.1l1.3-.3c.6-.2.8-.5.8-.9a1.7,1.7,0,0,0-.5-1l-.9-1a2.7,2.7,0,0,1-.5-1.4,3,3,0,0,1,1.4-2.5,4.6,4.6,0,0,1,2.7-.9c.1,0,.3.3.7,1Z"/><path d="M55.8,140.2a.3.3,0,0,1-.3.4H52.7a.4.4,0,0,1-.3-.5c0-.3,0-.7,0-1.3s0-1,0-1.3,0-1.9,0-2.4-.4-1.1-1.1-1.1a1.4,1.4,0,0,0-.9.4,1.2,1.2,0,0,0-.5.9c0,.3,0,1.1,0,2.3s0,.8,0,1.4,0,1.1,0,1.4-.1.3-.3.3H46.9q-.3,0-.3-.4c0-.3,0-.8,0-1.4s0-1.1,0-1.4v-2.1c0-.9-.3-1.4-1-1.4l-.9.3c-.3.3-.5.5-.5.8v5.2c0,.2,0,.3,0,.3H41.1s0-.1,0-.3v-4.6c0-1.1-.1-2.2-.2-3.5v-.2a.2.2,0,0,1,.1-.2h1.6l.7-.2H44c.1,0,.2.2.2.7s0,.7.1.7h.2l1.3-.9a3.3,3.3,0,0,1,1.6-.3,3.1,3.1,0,0,1,1.5.4,2,2,0,0,1,1,1.2,3.6,3.6,0,0,1,1.4-1.1,3.8,3.8,0,0,1,1.7-.5,3.3,3.3,0,0,1,2,.6,2.2,2.2,0,0,1,.9,1.9c0,.3,0,.9,0,1.5s0,1.2,0,1.5,0,1,0,1.8S55.8,139.8,55.8,140.2Z"/><path d="M67.8,135.7c0,.5,0,1.2.1,2.2s.1,1.7.1,2.2a.4.4,0,0,1-.3.4H65c-.1,0-.2-.2-.3-.6s-.1-.6-.1-.6l-.2.2a3.1,3.1,0,0,1-2.3,1.1,3.8,3.8,0,0,1-3-1.5,5.1,5.1,0,0,1-1.1-3.3,5.3,5.3,0,0,1,1.1-3.6,4.2,4.2,0,0,1,3.3-1.4,2.7,2.7,0,0,1,2.3,1.1h.1s.1-.2.2-.5.2-.5.3-.5l1.3.2,1.3.3v.4A33.2,33.2,0,0,0,67.8,135.7Zm-3,0a1.9,1.9,0,0,0-.5-1.4,1.8,1.8,0,0,0-1.3-.6,1.8,1.8,0,0,0-1.3.5,1.9,1.9,0,0,0-.5,1.4,1.8,1.8,0,0,0,.5,1.3,1.6,1.6,0,0,0,1.3.6,1.7,1.7,0,0,0,1.3-.6A1.5,1.5,0,0,0,64.8,135.8Z"/><path d="M76.7,134.5a.3.3,0,0,1-.4.4h-1a1.7,1.7,0,0,0-1.1.3,1.5,1.5,0,0,0-.3,1v2.5a7.3,7.3,0,0,0,0,.9,6.7,6.7,0,0,1,0,.8c0,.2-.1.3-.3.3H70.9c-.2,0-.3-.1-.3-.3v-4.6a15,15,0,0,0-.4-3.7h0v-.2l1.5-.2,1.5-.3c.1,0,.2.2.2.6s.1.6.2.6l.8-.5a3.6,3.6,0,0,1,1.7-.5c.3,0,.5.1.5.2a6.4,6.4,0,0,1,0,.8,6.6,6.6,0,0,1-.1.8v1.5Z"/><path d="M84.8,137.7c0,.2,0,.5-.1.9s-.1.7-.1.9,0,.3,0,.3l-.3.2a5.2,5.2,0,0,1-2.7.7c-1.8,0-2.7-.7-2.7-2.1s0-1.1,0-1.9,0-1.5,0-1.9-.2-.4-.5-.4h-.3c-.3,0-.3-.1-.3-.3a2.3,2.3,0,0,1,0-.5,2.3,2.3,0,0,0,0-.5,3.5,3.5,0,0,0,0-.6c0-.3,0-.5,0-.6s.2-.2.6-.2.3-.1.4-.2a8.3,8.3,0,0,0,0-1.1c0-.8,0-1.2,0-1.2s.1-1.1.2-1.1h1.4l1.4.2c.2,0,.2.1.2.2s0,.6,0,1.1,0,.9,0,1.2.1.5.3.5h2.2a4.7,4.7,0,0,1,0,.7,4.4,4.4,0,0,0,0,.7v1.4c0,.1-.1.2-.3.2h-2c-.1,0-.1.1-.1.4v1.4a2.3,2.3,0,0,0,.2,1.1,1.1,1.1,0,0,0,1,.4h1.3C84.8,137.5,84.8,137.6,84.8,137.7Z"/><path d="M97.7,132.7v.3h-.5a1.6,1.6,0,0,0-.9.3,1,1,0,0,0-.5.8,1.6,1.6,0,0,0,.5.9l.9,1.1a3,3,0,0,1,.5,1.6,2.9,2.9,0,0,1-.2,1,2.3,2.3,0,0,1-.6.9,5.8,5.8,0,0,1-1.6,1,4.5,4.5,0,0,1-1.8.4c-.1,0-.4-.3-.9-1a4,4,0,0,1-.6-1.3h.1l1.3-.3c.6-.2.8-.5.8-.9a1.7,1.7,0,0,0-.5-1l-.9-1a2.7,2.7,0,0,1-.5-1.4,3,3,0,0,1,1.4-2.5,4.6,4.6,0,0,1,2.7-.9c.1,0,.3.3.7,1Z"/><path d="M108.9,135.8a4.8,4.8,0,0,1-1.3,3.5,4.8,4.8,0,0,1-8.2-3.4,5.1,5.1,0,0,1,1.3-3.6,4.4,4.4,0,0,1,3.4-1.4,4.5,4.5,0,0,1,3.4,1.4A4.8,4.8,0,0,1,108.9,135.8Zm-3.1,0a2.1,2.1,0,0,0-.5-1.3,1.4,1.4,0,0,0-1.2-.6,1.6,1.6,0,0,0-1.2.6,2.1,2.1,0,0,0-.5,1.3,2,2,0,0,0,.5,1.3,1.5,1.5,0,0,0,1.2.6,1.5,1.5,0,0,0,1.2-.6A1.9,1.9,0,0,0,105.8,135.8Z"/><path d="M114.3,134.7v4a6.5,6.5,0,0,0,0,.8c0,.3,0,.6,0,.8a.3.3,0,0,1-.2.3h-3a.3.3,0,0,1-.2-.3v-9.2a29.8,29.8,0,0,0-.2-3.7v-.2c0-.1.1-.2.3-.2h3.3c.2,0,.2.1.2.2v.2Q114.3,131.5,114.3,134.7Z"/><path d="M126.4,131.8c0,.5,0,1.2-.1,2.1s-.1,1.7-.1,2.1,0,1.1,0,2.1,0,1.6,0,2.1a.3.3,0,0,1-.2.3h-2.9a.2.2,0,0,1-.2-.2c0-.2,0-.4,0-.6s-.1-.4-.1-.4l-.9.6a3.9,3.9,0,0,1-2,.6,2.6,2.6,0,0,1-2.9-2.3,18.5,18.5,0,0,1-.2-3.1,14.6,14.6,0,0,1,.3-3.4q.1-.4.4-.4h2.6c.2,0,.3.1.3.3v.2a17.9,17.9,0,0,0-.2,2.6c0,1.1,0,1.9.1,2.3a1.1,1.1,0,0,0,1.2,1.1,1.6,1.6,0,0,0,.9-.4,1.2,1.2,0,0,0,.5-.8v-4.8c0-.2,0-.3,0-.4h3.4Z"/><path d="M135.1,137.7c0,.2,0,.5-.1.9s-.1.7-.1.9,0,.3,0,.3l-.3.2a5.2,5.2,0,0,1-2.7.7c-1.8,0-2.7-.7-2.7-2.1s0-1.1,0-1.9,0-1.5,0-1.9-.2-.4-.5-.4h-.3c-.3,0-.3-.1-.3-.3a2.3,2.3,0,0,1,0-.5,2.3,2.3,0,0,0,0-.5,3.5,3.5,0,0,0,0-.6c0-.3,0-.5,0-.6s.2-.2.6-.2.3-.1.4-.2a8.3,8.3,0,0,0,0-1.1c0-.8,0-1.2,0-1.2s.1-1.1.2-1.1h1.4l1.4.2c.2,0,.2.1.2.2s0,.6,0,1.1,0,.9,0,1.2.1.5.3.5h2.2a4.7,4.7,0,0,1,0,.7,4.4,4.4,0,0,0,0,.7v1.4c0,.1-.1.2-.3.2h-2c-.1,0-.1.1-.1.4v1.4a2.3,2.3,0,0,0,.2,1.1,1.1,1.1,0,0,0,1,.4h1.3C135,137.5,135.1,137.6,135.1,137.7Z"/><path d="M140.3,136.1c0,.5,0,1.1,0,2.1s0,1.6,0,2.1a.3.3,0,0,1-.2.3H137v-.3c0-.4,0-1.1,0-2s0-1.6,0-2a37.6,37.6,0,0,0-.2-4.3v-.2c0-.1.1-.2.3-.2h3.2c.2,0,.2.1.2.2v.2A27.7,27.7,0,0,0,140.3,136.1Zm.3-7.1c0,1.1-.6,1.7-1.8,1.7a2,2,0,0,1-1.3-.4,1.5,1.5,0,0,1-.6-1.2,1.6,1.6,0,0,1,.6-1.2,1.9,1.9,0,0,1,1.3-.4,2.1,2.1,0,0,1,1.3.5A1.5,1.5,0,0,1,140.6,129Z"/><path d="M151.9,135.8a4.8,4.8,0,0,1-1.3,3.5,4.8,4.8,0,0,1-8.2-3.4,5.1,5.1,0,0,1,1.3-3.6,4.4,4.4,0,0,1,3.4-1.4,4.5,4.5,0,0,1,3.4,1.4A4.8,4.8,0,0,1,151.9,135.8Zm-3.1,0a2.1,2.1,0,0,0-.5-1.3,1.4,1.4,0,0,0-1.2-.6,1.6,1.6,0,0,0-1.2.6,2.1,2.1,0,0,0-.5,1.3,2,2,0,0,0,.5,1.3,1.5,1.5,0,0,0,1.2.6,1.5,1.5,0,0,0,1.2-.6A1.9,1.9,0,0,0,148.9,135.8Z"/><path d="M163.2,140.2a.3.3,0,0,1-.3.3h-2.8a.4.4,0,0,1-.3-.4c0-.3,0-.8,0-1.4s0-1.1,0-1.4v-2.1c0-.9-.4-1.3-1.1-1.3a1.7,1.7,0,0,0-.9.3c-.3.3-.5.5-.5.7v5.2c0,.2-.1.3-.3.3h-2.7c-.2,0-.3-.1-.3-.3v-4.5a14.4,14.4,0,0,0-.4-3.7h0v-.2l1.6-.2,1.7-.3c.1,0,.1.2.2.6s.1.6.2.6l1-.7a4.2,4.2,0,0,1,2-.7,3.4,3.4,0,0,1,2,.6,2.1,2.1,0,0,1,.9,1.8v4.9A10.2,10.2,0,0,0,163.2,140.2Z"/><path d="M171.1,132.7v.3h-.5a1.6,1.6,0,0,0-.9.3,1,1,0,0,0-.5.8,1.6,1.6,0,0,0,.5.9l.9,1.1a3,3,0,0,1,.5,1.6,2.9,2.9,0,0,1-.2,1,2.3,2.3,0,0,1-.6.9,5.8,5.8,0,0,1-1.6,1,4.5,4.5,0,0,1-1.8.4c-.1,0-.4-.3-.9-1a4,4,0,0,1-.6-1.3h.1l1.3-.3c.6-.2.8-.5.8-.9a1.7,1.7,0,0,0-.5-1l-.9-1a2.7,2.7,0,0,1-.5-1.4,3,3,0,0,1,1.4-2.5,4.6,4.6,0,0,1,2.7-.9c.1,0,.3.3.7,1A4.4,4.4,0,0,1,171.1,132.7Z"/></g></g></svg>