<svg xmlns="http://www.w3.org/2000/svg" xmlns:xlink="http://www.w3.org/1999/xlink" width="150.322" height="194.471" viewBox="0 0 150.322 194.471">
  <defs>
    <radialGradient id="radial-gradient" cx="0.5" cy="0.5" r="0.636" gradientUnits="objectBoundingBox">
      <stop offset="0" stop-color="#49beb7"/>
      <stop offset="0.108" stop-color="#58c3bd"/>
      <stop offset="0.316" stop-color="#80d2cd"/>
      <stop offset="0.601" stop-color="#c1e9e6"/>
      <stop offset="0.854" stop-color="#fff"/>
    </radialGradient>
    <linearGradient id="linear-gradient" x1="-0.02" y1="0.01" x2="0.766" y2="0.899" gradientUnits="objectBoundingBox">
      <stop offset="0" stop-color="#49beb7"/>
      <stop offset="0.854" stop-color="#2eded1"/>
    </linearGradient>
    <linearGradient id="linear-gradient-2" x1="-0.002" y1="0.499" x2="1" y2="0.499" xlink:href="#radial-gradient"/>
    <linearGradient id="linear-gradient-3" x1="0" y1="0.5" x2="1" y2="0.5" xlink:href="#linear-gradient"/>
    <linearGradient id="linear-gradient-4" y1="0.5" x2="1" y2="0.5" gradientUnits="objectBoundingBox">
      <stop offset="0" stop-color="#2eded1"/>
      <stop offset="0.096" stop-color="#3de0d4"/>
      <stop offset="0.282" stop-color="#65e7dd"/>
      <stop offset="0.538" stop-color="#a6f1eb"/>
      <stop offset="0.854" stop-color="#fff"/>
    </linearGradient>
    <linearGradient id="linear-gradient-5" x1="0.853" y1="0.853" x2="0.147" y2="0.146" xlink:href="#linear-gradient"/>
    <linearGradient id="linear-gradient-6" x1="8.984" y1="-8.341" x2="9.949" y2="-8.341" xlink:href="#radial-gradient"/>
    <linearGradient id="linear-gradient-7" x1="-0.17" y1="0.226" x2="1.145" y2="0.808" gradientUnits="objectBoundingBox">
      <stop offset="0" stop-color="#89cdf6"/>
      <stop offset="0.149" stop-color="#70bdee"/>
      <stop offset="0.463" stop-color="#3295d9"/>
      <stop offset="0.677" stop-color="#0478c9"/>
    </linearGradient>
    <radialGradient id="radial-gradient-2" cx="0.5" cy="0.5" r="0.485" gradientUnits="objectBoundingBox">
      <stop offset="0.19" stop-color="#27a0d6"/>
      <stop offset="0.411" stop-color="#29a1d6"/>
      <stop offset="0.491" stop-color="#30a4d8"/>
      <stop offset="0.548" stop-color="#3ba9da"/>
      <stop offset="0.594" stop-color="#4cb0dd"/>
      <stop offset="0.633" stop-color="#62bae1"/>
      <stop offset="0.668" stop-color="#7ec6e6"/>
      <stop offset="0.699" stop-color="#9ed4ed"/>
      <stop offset="0.728" stop-color="#c4e5f4"/>
      <stop offset="0.754" stop-color="#edf7fc"/>
      <stop offset="0.764" stop-color="#fff"/>
    </radialGradient>
    <linearGradient id="linear-gradient-8" x1="-0.17" y1="0.226" x2="1.145" y2="0.808" gradientUnits="objectBoundingBox">
      <stop offset="0" stop-color="#fff"/>
      <stop offset="0.085" stop-color="#e6f2fa"/>
      <stop offset="0.265" stop-color="#a7d0ec"/>
      <stop offset="0.523" stop-color="#439ad7"/>
      <stop offset="0.677" stop-color="#0478c9"/>
    </linearGradient>
  </defs>
  <g id="logonew02" transform="translate(-69.007 -1.973)">
    <g id="Group_1309" data-name="Group 1309" transform="translate(69.007 2.098)">
      <path id="Path_4938" data-name="Path 4938" d="M218.213,149.1c-1.787,8.9-15.21,25.5-20.374,30.62-5.123,5.123-17.594,16.4-25.894,23.312s-22.916,28.078-22.916,28.078a11.616,11.616,0,0,1-4.845,1.469H144.1a11.616,11.616,0,0,1-4.845-1.469s-14.615-21.128-22.916-28.078c-8.3-6.91-20.77-18.19-25.894-23.312S71.864,157.957,70.077,149.1a59.794,59.794,0,0,1-.794-17s2.777,20.973,17.792,37.371l17.2,15.61s16.4,13.623,23.948,22.32l4.405,5.917,4.607,6.315,1.986,3.415s.873,1.469,4.884,1.707h.079c4.012-.238,4.924-1.707,4.924-1.707l1.986-3.415,4.607-6.315L160.1,207.4c7.506-8.7,23.948-22.32,23.948-22.32l17.2-15.61c15.017-16.4,17.8-37.371,17.8-37.371a60.715,60.715,0,0,1-.833,17Z" transform="translate(-69.007 -80.472)" fill="#2eded1"/>
      <path id="Path_4939" data-name="Path 4939" d="M218.213,149.1c-1.787,8.9-15.21,25.5-20.374,30.62-5.123,5.123-17.594,16.4-25.894,23.312s-22.916,28.078-22.916,28.078a11.616,11.616,0,0,1-4.845,1.469H144.1a11.616,11.616,0,0,1-4.845-1.469s-14.615-21.128-22.916-28.078c-8.3-6.91-20.77-18.19-25.894-23.312S71.864,157.957,70.077,149.1a59.794,59.794,0,0,1-.794-17s2.777,20.973,17.792,37.371l17.2,15.61s16.4,13.623,23.948,22.32l4.405,5.917,4.607,6.315,1.986,3.415s.873,1.469,4.884,1.707h.079c4.012-.238,4.924-1.707,4.924-1.707l1.986-3.415,4.607-6.315L160.1,207.4c7.506-8.7,23.948-22.32,23.948-22.32l17.2-15.61c15.017-16.4,17.8-37.371,17.8-37.371a60.715,60.715,0,0,1-.833,17Z" transform="translate(-69.007 -80.472)" opacity="0.26" fill="url(#radial-gradient)"/>
      <g id="Group_1307" data-name="Group 1307" transform="translate(84.316 34.114)">
        <path id="Path_4940" data-name="Path 4940" d="M291,88.4l11.318-.159a17.752,17.752,0,0,1,11.359,3.812,15.526,15.526,0,0,1,5.6,11.954c0,5.52-1.668,9.849-5,12.947a17.677,17.677,0,0,1-12.51,4.646q-4.467-.059-4.528-2.621c0-.278.079-.437.2-.437a10.725,10.725,0,0,1,1.232.318,7.643,7.643,0,0,0,2.025.318,9.793,9.793,0,0,0,8.42-3.971,15.888,15.888,0,0,0,2.9-9.65c0-5.878-1.827-9.968-5.441-12.391a12.587,12.587,0,0,0-7.188-2.025c-2.741,0-4.214.318-4.487.834-.278.714-.4,2.9-.4,6.553v37.253a30.477,30.477,0,0,0,.4,6.474c.159.636,1.668,1.112,4.567,1.35a8.747,8.747,0,0,0,.914.039,1.993,1.993,0,0,1,.318,1.469,2.227,2.227,0,0,1-.318,1.073c-5.481-.278-8.619-.437-9.413-.437s-3.932.159-9.289.437a1.467,1.467,0,0,1-.278-1.43,5.154,5.154,0,0,1,.278-1.112,11.894,11.894,0,0,0,3.853-.516c1.032-.318,1.589-.636,1.668-.914a30.738,30.738,0,0,0,.4-6.474V98.4a30.481,30.481,0,0,0-.4-6.474c-.159-.636-1.668-1.112-4.567-1.35a8.738,8.738,0,0,0-.914-.039,1.82,1.82,0,0,1-.278-1.469A3.113,3.113,0,0,1,281.715,88C287.073,88.238,290.207,88.4,291,88.4Z" transform="translate(-281.32 -88)" fill="url(#linear-gradient)"/>
      </g>
      <g id="Group_1308" data-name="Group 1308" transform="translate(84.833 33.439)" opacity="0.26">
        <path id="Path_4941" data-name="Path 4941" d="M292.3,86.7l11.318-.159a17.752,17.752,0,0,1,11.359,3.812,15.525,15.525,0,0,1,5.6,11.954c0,5.52-1.668,9.849-5,12.947a17.677,17.677,0,0,1-12.51,4.646q-4.467-.059-4.528-2.621c0-.278.079-.437.2-.437a10.728,10.728,0,0,1,1.232.318,7.643,7.643,0,0,0,2.025.318,9.793,9.793,0,0,0,8.42-3.971,15.888,15.888,0,0,0,2.9-9.65c0-5.878-1.827-9.968-5.441-12.391a12.586,12.586,0,0,0-7.188-2.025c-2.741,0-4.214.318-4.488.834-.278.714-.4,2.9-.4,6.553v37.253a30.483,30.483,0,0,0,.4,6.474c.159.636,1.668,1.112,4.567,1.35a8.743,8.743,0,0,0,.914.039,1.992,1.992,0,0,1,.318,1.469,2.228,2.228,0,0,1-.318,1.073c-5.481-.278-8.619-.437-9.413-.437s-3.932.159-9.289.437a1.467,1.467,0,0,1-.278-1.43,5.155,5.155,0,0,1,.278-1.112,11.894,11.894,0,0,0,3.853-.516c1.032-.318,1.589-.636,1.668-.914a30.742,30.742,0,0,0,.4-6.474V96.7a30.481,30.481,0,0,0-.4-6.474c-.159-.636-1.668-1.112-4.567-1.35a8.736,8.736,0,0,0-.914-.039,1.82,1.82,0,0,1-.278-1.469,3.115,3.115,0,0,1,.278-1.073C288.373,86.578,291.507,86.7,292.3,86.7Z" transform="translate(-282.62 -86.3)" fill="url(#linear-gradient-2)"/>
      </g>
      <path id="Path_4942" data-name="Path 4942" d="M138.885,16.4A45.322,45.322,0,0,0,105.6,10.081c-20.016,3.857-34.432,19.937-36.06,38.325C67.675,27.4,81.458,8.136,101.991,4.2A40.071,40.071,0,0,1,138.885,16.4Z" transform="translate(-69.228 -2.934)" fill="url(#linear-gradient-3)"/>
      <path id="Path_4943" data-name="Path 4943" d="M138.885,16.4A45.322,45.322,0,0,0,105.6,10.081c-20.016,3.857-34.432,19.937-36.06,38.325C67.675,27.4,81.458,8.136,101.991,4.2A40.071,40.071,0,0,1,138.885,16.4Z" transform="translate(-69.228 -2.934)" opacity="0.46" fill="url(#linear-gradient-4)"/>
      <circle id="Ellipse_29" data-name="Ellipse 29" cx="11.477" cy="11.477" r="11.477" transform="translate(20.411 22.835)" fill="url(#linear-gradient-5)"/>
      <path id="Path_4944" data-name="Path 4944" d="M129.075,62.474a11.013,11.013,0,1,1-5.441,14.732,11.126,11.126,0,0,1,5.441-14.732Z" transform="translate(-101.317 -37.852)" opacity="0.26" fill="url(#linear-gradient-6)"/>
      <path id="Path_4945" data-name="Path 4945" d="M270.743,42.844s-2.586-25.3-32.209-30.66c0,0-22.916-3.773-39.158,13.821S179,55.87,179,55.87a47.158,47.158,0,0,0-2.978,32.407c4.924,17.792,23.908,37.371,23.908,37.371s-20.973-10.484-33-29.865A86.763,86.763,0,0,1,154.5,56.069c-.119.4,10.484-.516,16.6-9.1,5.282-7.387,17.238-24.067,25.5-31.057C210.893,3.8,218.081,2.177,229.8,2.1c10.882-.119,25.5,4.924,32.606,13.821S270.743,42.844,270.743,42.844Z" transform="translate(-120.545 -2.098)" fill="#27a0d6"/>
      <path id="Path_4946" data-name="Path 4946" d="M92.3,82.8s.119.318.4.873c2.025,4.369,11.557,23.154,24.305,21.049,0,0,1.39,22.916,12.471,39.754s33,29.865,33,29.865-18.19-4.369-28.872-13.264-23.312-22.518-28.078-32.8S92.3,97.216,92.3,82.8Z" transform="translate(-83.049 -50.751)" fill="url(#linear-gradient-7)"/>
      <path id="Path_4947" data-name="Path 4947" d="M270.743,42.844s-2.586-25.3-32.209-30.66c0,0-22.916-3.773-39.158,13.821S179,55.87,179,55.87a47.158,47.158,0,0,0-2.978,32.407c4.924,17.792,23.908,37.371,23.908,37.371s-20.973-10.484-33-29.865A86.763,86.763,0,0,1,154.5,56.069c-.119.4,10.484-.516,16.6-9.1,5.282-7.387,17.238-24.067,25.5-31.057C210.893,3.8,218.081,2.177,229.8,2.1c10.882-.119,25.5,4.924,32.606,13.821S270.743,42.844,270.743,42.844Z" transform="translate(-120.545 -2.098)" stroke="#27a0d6" stroke-width="0.25" opacity="0.3" fill="url(#radial-gradient-2)"/>
      <path id="Path_4948" data-name="Path 4948" d="M92.3,82.8s.119.318.4.873c2.025,4.369,11.557,23.154,24.305,21.049,0,0,1.39,22.916,12.471,39.754s33,29.865,33,29.865-18.19-4.369-28.872-13.264-23.312-22.518-28.078-32.8S92.3,97.216,92.3,82.8Z" transform="translate(-83.049 -50.751)" stroke="#27a0d6" stroke-width="0.25" opacity="0.3" fill="url(#linear-gradient-8)"/>
    </g>
    <g id="Group_1310" data-name="Group 1310" transform="translate(89.18 167.945)">
      <path id="Path_4949" data-name="Path 4949" d="M119.8,434.9h3.019v21.643H119.8Zm4.405,14.933a4.276,4.276,0,0,1-1.589-1.946l.2-3.217a3.741,3.741,0,0,0,.357,1.707,2.453,2.453,0,0,0,1.032,1.073,3.4,3.4,0,0,0,1.628.357,2.932,2.932,0,0,0,2.3-.914,3.67,3.67,0,0,0,.834-2.586v-3.336a3.845,3.845,0,0,0-.834-2.621,2.883,2.883,0,0,0-2.3-.958,3.4,3.4,0,0,0-1.628.357,2.585,2.585,0,0,0-1.032,1.032,3.57,3.57,0,0,0-.357,1.668l-.318-2.978a5.178,5.178,0,0,1,1.827-2.065,4.591,4.591,0,0,1,2.5-.714,5.171,5.171,0,0,1,2.777.714,4.584,4.584,0,0,1,1.787,2.144,8.764,8.764,0,0,1,.6,3.416V444.3a7.7,7.7,0,0,1-.636,3.336,5.091,5.091,0,0,1-1.827,2.144,5.459,5.459,0,0,1-2.86.715A4.339,4.339,0,0,1,124.205,449.83Z" transform="translate(-119.8 -428.742)" fill="#2eded1" stroke="#2eded1" stroke-width="1"/>
      <path id="Path_4950" data-name="Path 4950" d="M162.2,419.7h3.018v21.565H162.2Zm1.907,9.492h11.954v2.862H164.107Zm10.366-9.492h3.019v21.565h-3.019Z" transform="translate(-145.361 -419.7)" stroke="#000" stroke-width="1"/>
      <path id="Path_4951" data-name="Path 4951" d="M213.4,419.7h3.019v3.019H213.4Zm0,6.156h3.019v15.41H213.4Z" transform="translate(-176.227 -419.7)" stroke="#000" stroke-width="1"/>
      <path id="Path_4952" data-name="Path 4952" d="M233.63,450.21a8.228,8.228,0,0,1-2.224-.794,7.926,7.926,0,0,1-1.907-1.35l1.787-2.224a10.63,10.63,0,0,0,2.462,1.43,6.733,6.733,0,0,0,2.423.479,5.376,5.376,0,0,0,2.7-.556,1.82,1.82,0,0,0,.914-1.668,1.333,1.333,0,0,0-.479-1.112,3.2,3.2,0,0,0-1.231-.516c-.479-.08-1.149-.159-2.065-.238h-.238a.5.5,0,0,1-.238-.039H235.3a13.435,13.435,0,0,1-2.542-.437,3.469,3.469,0,0,1-1.748-1.191,3.907,3.907,0,0,1-.675-2.5,5.135,5.135,0,0,1,.675-2.7,4.072,4.072,0,0,1,1.986-1.628,8.782,8.782,0,0,1,3.3-.556,11.065,11.065,0,0,1,2.3.238,9,9,0,0,1,2.065.675,9.192,9.192,0,0,1,1.907,1.112l-1.827,2.224a10.816,10.816,0,0,0-2.264-1.112,7.174,7.174,0,0,0-2.184-.357,4.039,4.039,0,0,0-2.3.516,1.777,1.777,0,0,0-.755,1.589,1.209,1.209,0,0,0,.437.958,2.319,2.319,0,0,0,1.112.4,16.418,16.418,0,0,0,1.907.159h.556a12.368,12.368,0,0,1,2.74.437,3.477,3.477,0,0,1,1.907,1.311,4.371,4.371,0,0,1,.755,2.777,4.846,4.846,0,0,1-.714,2.741,4.318,4.318,0,0,1-2.144,1.628,10.314,10.314,0,0,1-3.614.556A12.858,12.858,0,0,1,233.63,450.21Z" transform="translate(-185.933 -428.683)" stroke="#000" stroke-width="1"/>
      <path id="Path_4953" data-name="Path 4953" d="M269.3,428.388h6.95v2.741H269.3Zm2.462,14.461a4.534,4.534,0,0,1-.873-3.058V423.9h3.019v15.885a1.427,1.427,0,0,0,.238.873.772.772,0,0,0,.636.318h1.469v2.86H274.5a3.231,3.231,0,0,1-2.741-.992Z" transform="translate(-209.927 -422.232)" stroke="#000" stroke-width="1"/>
      <path id="Path_4954" data-name="Path 4954" d="M299.039,449.751a5.121,5.121,0,0,1-2.184-2.3,7.831,7.831,0,0,1-.755-3.614v-2.5a7.661,7.661,0,0,1,.755-3.574,5.233,5.233,0,0,1,2.184-2.264,7.741,7.741,0,0,1,6.831,0,5.231,5.231,0,0,1,2.184,2.264,7.661,7.661,0,0,1,.755,3.574v2.542a7.83,7.83,0,0,1-.755,3.614,5.232,5.232,0,0,1-2.184,2.264A7.74,7.74,0,0,1,299.039,449.751Zm5.878-3.1a4.022,4.022,0,0,0,.873-2.777v-2.542a4.022,4.022,0,0,0-.873-2.777,3.55,3.55,0,0,0-4.924,0,4.022,4.022,0,0,0-.873,2.777v2.542a3.959,3.959,0,0,0,.873,2.777,3.55,3.55,0,0,0,4.924,0Z" transform="translate(-226.083 -428.743)" stroke="#000" stroke-width="1"/>
      <path id="Path_4955" data-name="Path 4955" d="M338.9,434.838h3.018v15.41H338.9Zm7.47,2.9a3.777,3.777,0,0,0-1.39-.238,3.04,3.04,0,0,0-2.224.794,3.006,3.006,0,0,0-.794,2.184l-.318-2.978a5.722,5.722,0,0,1,1.827-2.144,4.315,4.315,0,0,1,2.5-.755,5.636,5.636,0,0,1,1.907.318,4.524,4.524,0,0,1,1.509.914l-1.986,2.661a2.782,2.782,0,0,0-1.034-.756Z" transform="translate(-251.885 -428.683)" stroke="#000" stroke-width="1"/>
      <path id="Path_4956" data-name="Path 4956" d="M367.5,435.2h3.1l4.726,13.384-1.668,3.3Zm13.623,0-6.553,19.024a4.2,4.2,0,0,1-.958,1.668,3.326,3.326,0,0,1-1.43.873,7.64,7.64,0,0,1-2.065.278h-.6v-2.9h.6a2.355,2.355,0,0,0,1.35-.357,2.9,2.9,0,0,0,.873-1.191L378.02,435.2Z" transform="translate(-269.127 -429.044)" stroke="#000" stroke-width="1"/>
    </g>
  </g>
</svg>
