<svg xmlns="http://www.w3.org/2000/svg" xmlns:xlink="http://www.w3.org/1999/xlink" width="143.324" height="185.438" viewBox="0 0 143.324 185.438">
  <defs>
    <radialGradient id="radial-gradient" cx="0.5" cy="0.5" r="0.636" gradientUnits="objectBoundingBox">
      <stop offset="0" stop-color="#49beb7"/>
      <stop offset="0.108" stop-color="#58c3bd"/>
      <stop offset="0.316" stop-color="#80d2cd"/>
      <stop offset="0.601" stop-color="#c1e9e6"/>
      <stop offset="0.854" stop-color="#fff"/>
    </radialGradient>
    <linearGradient id="linear-gradient" x1="-0.02" y1="0.01" x2="0.766" y2="0.899" gradientUnits="objectBoundingBox">
      <stop offset="0" stop-color="#49beb7"/>
      <stop offset="0.854" stop-color="#2eded1"/>
    </linearGradient>
    <linearGradient id="linear-gradient-2" x1="-0.002" y1="0.499" x2="1" y2="0.499" xlink:href="#radial-gradient"/>
    <linearGradient id="linear-gradient-3" x1="0" y1="0.5" x2="1" y2="0.5" xlink:href="#linear-gradient"/>
    <linearGradient id="linear-gradient-4" y1="0.5" x2="1" y2="0.5" gradientUnits="objectBoundingBox">
      <stop offset="0" stop-color="#2eded1"/>
      <stop offset="0.096" stop-color="#3de0d4"/>
      <stop offset="0.282" stop-color="#65e7dd"/>
      <stop offset="0.538" stop-color="#a6f1eb"/>
      <stop offset="0.854" stop-color="#fff"/>
    </linearGradient>
    <linearGradient id="linear-gradient-5" x1="0.853" y1="0.853" x2="0.147" y2="0.146" xlink:href="#linear-gradient"/>
    <linearGradient id="linear-gradient-6" x1="8.984" y1="-8.341" x2="9.949" y2="-8.341" xlink:href="#radial-gradient"/>
    <linearGradient id="linear-gradient-7" x1="-0.17" y1="0.226" x2="1.145" y2="0.808" gradientUnits="objectBoundingBox">
      <stop offset="0" stop-color="#89cdf6"/>
      <stop offset="0.149" stop-color="#70bdee"/>
      <stop offset="0.463" stop-color="#3295d9"/>
      <stop offset="0.677" stop-color="#0478c9"/>
    </linearGradient>
    <radialGradient id="radial-gradient-2" cx="0.5" cy="0.5" r="0.485" gradientUnits="objectBoundingBox">
      <stop offset="0.19" stop-color="#27a0d6"/>
      <stop offset="0.411" stop-color="#29a1d6"/>
      <stop offset="0.491" stop-color="#30a4d8"/>
      <stop offset="0.548" stop-color="#3ba9da"/>
      <stop offset="0.594" stop-color="#4cb0dd"/>
      <stop offset="0.633" stop-color="#62bae1"/>
      <stop offset="0.668" stop-color="#7ec6e6"/>
      <stop offset="0.699" stop-color="#9ed4ed"/>
      <stop offset="0.728" stop-color="#c4e5f4"/>
      <stop offset="0.754" stop-color="#edf7fc"/>
      <stop offset="0.764" stop-color="#fff"/>
    </radialGradient>
    <linearGradient id="linear-gradient-8" x1="-0.17" y1="0.226" x2="1.145" y2="0.808" gradientUnits="objectBoundingBox">
      <stop offset="0" stop-color="#fff"/>
      <stop offset="0.085" stop-color="#e6f2fa"/>
      <stop offset="0.265" stop-color="#a7d0ec"/>
      <stop offset="0.523" stop-color="#439ad7"/>
      <stop offset="0.677" stop-color="#0478c9"/>
    </linearGradient>
  </defs>
  <g id="logonew02" transform="translate(-69.007 -1.973)">
    <g id="Group_1309" data-name="Group 1309" transform="translate(69.007 2.098)">
      <path id="Path_4938" data-name="Path 4938" d="M211.26,148.306c-1.7,8.481-14.5,24.308-19.425,29.193-4.885,4.885-16.774,15.637-24.687,22.226s-21.848,26.77-21.848,26.77a11.075,11.075,0,0,1-4.619,1.4h-.076a11.074,11.074,0,0,1-4.619-1.4s-13.934-20.143-21.848-26.77c-7.913-6.588-19.8-17.342-24.687-22.226s-17.721-20.748-19.425-29.193A57.008,57.008,0,0,1,69.27,132.1s2.648,20,16.963,35.63l16.4,14.882s15.637,12.988,22.832,21.28l4.2,5.642,4.393,6.02,1.894,3.256s.833,1.4,4.656,1.628h.076c3.825-.227,4.695-1.628,4.695-1.628l1.894-3.256,4.393-6.02,4.2-5.642c7.156-8.292,22.832-21.28,22.832-21.28l16.4-14.882C209.4,152.1,212.054,132.1,212.054,132.1a57.886,57.886,0,0,1-.794,16.206Z" transform="translate(-69.007 -82.878)" fill="#2eded1"/>
      <path id="Path_4939" data-name="Path 4939" d="M211.26,148.306c-1.7,8.481-14.5,24.308-19.425,29.193-4.885,4.885-16.774,15.637-24.687,22.226s-21.848,26.77-21.848,26.77a11.075,11.075,0,0,1-4.619,1.4h-.076a11.074,11.074,0,0,1-4.619-1.4s-13.934-20.143-21.848-26.77c-7.913-6.588-19.8-17.342-24.687-22.226s-17.721-20.748-19.425-29.193A57.008,57.008,0,0,1,69.27,132.1s2.648,20,16.963,35.63l16.4,14.882s15.637,12.988,22.832,21.28l4.2,5.642,4.393,6.02,1.894,3.256s.833,1.4,4.656,1.628h.076c3.825-.227,4.695-1.628,4.695-1.628l1.894-3.256,4.393-6.02,4.2-5.642c7.156-8.292,22.832-21.28,22.832-21.28l16.4-14.882C209.4,152.1,212.054,132.1,212.054,132.1a57.886,57.886,0,0,1-.794,16.206Z" transform="translate(-69.007 -82.878)" opacity="0.26" fill="url(#radial-gradient)"/>
      <g id="Group_1307" data-name="Group 1307" transform="translate(80.387 32.525)">
        <path id="Path_4940" data-name="Path 4940" d="M290.553,88.379l10.791-.152a16.925,16.925,0,0,1,10.829,3.635,14.8,14.8,0,0,1,5.338,11.4c0,5.263-1.59,9.39-4.771,12.344a16.854,16.854,0,0,1-11.927,4.43q-4.259-.057-4.317-2.5c0-.265.076-.416.189-.416a10.228,10.228,0,0,1,1.174.3,7.287,7.287,0,0,0,1.931.3,9.337,9.337,0,0,0,8.027-3.786,15.148,15.148,0,0,0,2.764-9.2c0-5.6-1.742-9.5-5.188-11.814a12,12,0,0,0-6.853-1.931c-2.613,0-4.017.3-4.278.8-.265.681-.379,2.764-.379,6.248v35.517a29.058,29.058,0,0,0,.379,6.172c.152.606,1.591,1.06,4.354,1.287a8.325,8.325,0,0,0,.871.037,1.9,1.9,0,0,1,.3,1.4,2.124,2.124,0,0,1-.3,1.023c-5.225-.265-8.217-.416-8.974-.416s-3.749.152-8.856.416a1.4,1.4,0,0,1-.265-1.363,4.916,4.916,0,0,1,.265-1.06,11.34,11.34,0,0,0,3.673-.492c.984-.3,1.515-.606,1.59-.871a29.307,29.307,0,0,0,.379-6.172V97.92a29.058,29.058,0,0,0-.379-6.172c-.152-.606-1.591-1.06-4.354-1.287a8.33,8.33,0,0,0-.871-.037,1.735,1.735,0,0,1-.265-1.4A2.968,2.968,0,0,1,281.7,88C286.8,88.227,289.793,88.379,290.553,88.379Z" transform="translate(-281.32 -88)" fill="url(#linear-gradient)"/>
      </g>
      <g id="Group_1308" data-name="Group 1308" transform="translate(80.88 31.881)" opacity="0.26">
        <path id="Path_4941" data-name="Path 4941" d="M291.853,86.679l10.791-.152a16.925,16.925,0,0,1,10.829,3.635,14.8,14.8,0,0,1,5.339,11.4c0,5.263-1.591,9.39-4.771,12.344a16.854,16.854,0,0,1-11.927,4.43q-4.259-.057-4.317-2.5c0-.265.076-.416.189-.416a10.234,10.234,0,0,1,1.174.3,7.287,7.287,0,0,0,1.931.3,9.337,9.337,0,0,0,8.027-3.786,15.148,15.148,0,0,0,2.764-9.2c0-5.6-1.742-9.5-5.188-11.814a12,12,0,0,0-6.853-1.931c-2.613,0-4.017.3-4.278.8-.265.681-.379,2.764-.379,6.248v35.517a29.064,29.064,0,0,0,.379,6.172c.152.606,1.59,1.06,4.354,1.287a8.325,8.325,0,0,0,.871.037,1.9,1.9,0,0,1,.3,1.4,2.124,2.124,0,0,1-.3,1.023c-5.225-.265-8.217-.416-8.974-.416s-3.749.152-8.856.416a1.4,1.4,0,0,1-.265-1.363,4.912,4.912,0,0,1,.265-1.06,11.34,11.34,0,0,0,3.673-.492c.984-.3,1.515-.606,1.59-.871a29.307,29.307,0,0,0,.379-6.172V96.22a29.06,29.06,0,0,0-.379-6.172c-.152-.606-1.59-1.06-4.354-1.287a8.334,8.334,0,0,0-.871-.037,1.735,1.735,0,0,1-.265-1.4A2.97,2.97,0,0,1,283,86.3C288.1,86.565,291.093,86.679,291.853,86.679Z" transform="translate(-282.62 -86.3)" fill="url(#linear-gradient-2)"/>
      </g>
      <path id="Path_4942" data-name="Path 4942" d="M135.646,15.8a43.21,43.21,0,0,0-31.73-6.02c-19.083,3.678-32.828,19.008-34.38,36.539C67.754,26.284,80.895,7.92,100.471,4.171A38.2,38.2,0,0,1,135.646,15.8Z" transform="translate(-69.235 -2.961)" fill="url(#linear-gradient-3)"/>
      <path id="Path_4943" data-name="Path 4943" d="M135.646,15.8a43.21,43.21,0,0,0-31.73-6.02c-19.083,3.678-32.828,19.008-34.38,36.539C67.754,26.284,80.895,7.92,100.471,4.171A38.2,38.2,0,0,1,135.646,15.8Z" transform="translate(-69.235 -2.961)" opacity="0.46" fill="url(#linear-gradient-4)"/>
      <circle id="Ellipse_29" data-name="Ellipse 29" cx="10.943" cy="10.943" r="10.943" transform="translate(19.459 21.771)" fill="url(#linear-gradient-5)"/>
      <path id="Path_4944" data-name="Path 4944" d="M128.774,62.429a10.5,10.5,0,1,1-5.188,14.045,10.608,10.608,0,0,1,5.188-14.045Z" transform="translate(-102.31 -38.954)" opacity="0.26" fill="url(#linear-gradient-6)"/>
      <path id="Path_4945" data-name="Path 4945" d="M265.327,40.945s-2.465-24.119-30.708-29.231c0,0-21.848-3.6-37.334,13.177s-19.425,28.474-19.425,28.474a44.96,44.96,0,0,0-2.839,30.9c4.695,16.963,22.794,35.63,22.794,35.63s-20-10-31.465-28.474A82.72,82.72,0,0,1,154.5,53.554c-.113.379,10-.492,15.827-8.674,5.036-7.043,16.434-22.945,24.308-29.609,13.63-11.546,20.483-13.1,31.653-13.171,10.375-.113,24.308,4.695,31.087,13.177S265.327,40.945,265.327,40.945Z" transform="translate(-122.128 -2.098)" fill="#27a0d6"/>
      <path id="Path_4946" data-name="Path 4946" d="M92.3,82.8s.113.3.379.833C94.61,87.8,103.7,105.708,115.852,103.7c0,0,1.325,21.848,11.889,37.9s31.465,28.474,31.465,28.474-17.342-4.165-27.527-12.646-22.226-21.469-26.77-31.276S92.3,96.545,92.3,82.8Z" transform="translate(-83.48 -52.245)" fill="url(#linear-gradient-7)"/>
      <path id="Path_4947" data-name="Path 4947" d="M265.327,40.945s-2.465-24.119-30.708-29.231c0,0-21.848-3.6-37.334,13.177s-19.425,28.474-19.425,28.474a44.96,44.96,0,0,0-2.839,30.9c4.695,16.963,22.794,35.63,22.794,35.63s-20-10-31.465-28.474A82.72,82.72,0,0,1,154.5,53.554c-.113.379,10-.492,15.827-8.674,5.036-7.043,16.434-22.945,24.308-29.609,13.63-11.546,20.483-13.1,31.653-13.171,10.375-.113,24.308,4.695,31.087,13.177S265.327,40.945,265.327,40.945Z" transform="translate(-122.128 -2.098)" stroke="#27a0d6" stroke-width="0.25" opacity="0.3" fill="url(#radial-gradient-2)"/>
      <path id="Path_4948" data-name="Path 4948" d="M92.3,82.8s.113.3.379.833C94.61,87.8,103.7,105.708,115.852,103.7c0,0,1.325,21.848,11.889,37.9s31.465,28.474,31.465,28.474-17.342-4.165-27.527-12.646-22.226-21.469-26.77-31.276S92.3,96.545,92.3,82.8Z" transform="translate(-83.48 -52.245)" stroke="#27a0d6" stroke-width="0.25" opacity="0.3" fill="url(#linear-gradient-8)"/>
    </g>
    <g id="Group_1310" data-name="Group 1310" transform="translate(88.24 160.217)">
      <path id="Path_4949" data-name="Path 4949" d="M119.8,434.888h2.878v20.634H119.8Zm4.2,14.237a4.077,4.077,0,0,1-1.515-1.855l.189-3.067a3.567,3.567,0,0,0,.341,1.628,2.338,2.338,0,0,0,.984,1.023,3.244,3.244,0,0,0,1.552.341,2.8,2.8,0,0,0,2.2-.871,3.5,3.5,0,0,0,.8-2.465v-3.181a3.666,3.666,0,0,0-.8-2.5,2.748,2.748,0,0,0-2.2-.913,3.244,3.244,0,0,0-1.552.341,2.465,2.465,0,0,0-.984.984,3.4,3.4,0,0,0-.341,1.591l-.3-2.84a4.937,4.937,0,0,1,1.742-1.968,4.377,4.377,0,0,1,2.386-.681,4.93,4.93,0,0,1,2.648.681,4.371,4.371,0,0,1,1.7,2.044,8.356,8.356,0,0,1,.568,3.257v3.181a7.337,7.337,0,0,1-.606,3.181,4.854,4.854,0,0,1-1.742,2.044,5.2,5.2,0,0,1-2.726.682,4.136,4.136,0,0,1-2.344-.636Z" transform="translate(-119.8 -429.019)" fill="#2eded1" stroke="#2eded1" stroke-width="1"/>
      <path id="Path_4950" data-name="Path 4950" d="M162.2,419.7h2.878v20.56H162.2Zm1.818,9.05h11.4v2.728h-11.4Zm9.883-9.05h2.878v20.56H173.9Z" transform="translate(-146.145 -419.7)" stroke="#000" stroke-width="1"/>
      <path id="Path_4951" data-name="Path 4951" d="M213.4,419.7h2.878v2.878H213.4Zm0,5.869h2.878V440.26H213.4Z" transform="translate(-177.959 -419.7)" stroke="#000" stroke-width="1"/>
      <path id="Path_4952" data-name="Path 4952" d="M233.438,449.483a7.844,7.844,0,0,1-2.12-.757,7.555,7.555,0,0,1-1.818-1.287l1.7-2.12a10.133,10.133,0,0,0,2.347,1.363,6.419,6.419,0,0,0,2.31.457,5.126,5.126,0,0,0,2.575-.53,1.735,1.735,0,0,0,.871-1.59,1.271,1.271,0,0,0-.457-1.06,3.05,3.05,0,0,0-1.174-.492c-.457-.076-1.1-.152-1.968-.227h-.227a.481.481,0,0,1-.227-.037h-.227a12.812,12.812,0,0,1-2.423-.416,3.308,3.308,0,0,1-1.666-1.136,3.725,3.725,0,0,1-.644-2.386,4.9,4.9,0,0,1,.644-2.575,3.882,3.882,0,0,1,1.894-1.552,8.374,8.374,0,0,1,3.143-.53,10.549,10.549,0,0,1,2.2.227,8.575,8.575,0,0,1,1.969.644,8.767,8.767,0,0,1,1.818,1.06l-1.742,2.12a10.311,10.311,0,0,0-2.158-1.06,6.843,6.843,0,0,0-2.083-.341,3.851,3.851,0,0,0-2.2.492,1.7,1.7,0,0,0-.719,1.515,1.152,1.152,0,0,0,.416.913,2.211,2.211,0,0,0,1.06.379,15.645,15.645,0,0,0,1.818.152h.53a11.793,11.793,0,0,1,2.612.416,3.315,3.315,0,0,1,1.818,1.25,4.168,4.168,0,0,1,.719,2.648,4.62,4.62,0,0,1-.681,2.613,4.117,4.117,0,0,1-2.044,1.552,9.834,9.834,0,0,1-3.446.53,12.256,12.256,0,0,1-2.421-.233Z" transform="translate(-187.963 -428.959)" stroke="#000" stroke-width="1"/>
      <path id="Path_4953" data-name="Path 4953" d="M269.3,428.178h6.626v2.613H269.3Zm2.347,13.787a4.322,4.322,0,0,1-.833-2.915V423.9h2.878v15.145a1.36,1.36,0,0,0,.227.833.736.736,0,0,0,.606.3h1.4v2.726H274.26a3.081,3.081,0,0,1-2.613-.946Z" transform="translate(-212.693 -422.31)" stroke="#000" stroke-width="1"/>
      <path id="Path_4954" data-name="Path 4954" d="M298.9,449.05a4.883,4.883,0,0,1-2.083-2.2,7.467,7.467,0,0,1-.719-3.446v-2.386a7.3,7.3,0,0,1,.719-3.407,4.989,4.989,0,0,1,2.083-2.158,7.38,7.38,0,0,1,6.513,0,4.989,4.989,0,0,1,2.083,2.158,7.3,7.3,0,0,1,.719,3.407v2.423a7.466,7.466,0,0,1-.719,3.446,4.989,4.989,0,0,1-2.083,2.158A7.38,7.38,0,0,1,298.9,449.05Zm5.6-2.954a3.835,3.835,0,0,0,.833-2.648v-2.423a3.835,3.835,0,0,0-.833-2.648,3.385,3.385,0,0,0-4.695,0,3.835,3.835,0,0,0-.833,2.648v2.423a3.774,3.774,0,0,0,.833,2.648,3.385,3.385,0,0,0,4.695,0Z" transform="translate(-229.346 -429.02)" stroke="#000" stroke-width="1"/>
      <path id="Path_4955" data-name="Path 4955" d="M338.9,434.827h2.878v14.691H338.9Zm7.122,2.764a3.6,3.6,0,0,0-1.325-.227,2.9,2.9,0,0,0-2.12.757,2.866,2.866,0,0,0-.757,2.083l-.3-2.84a5.455,5.455,0,0,1,1.742-2.044,4.114,4.114,0,0,1,2.386-.719,5.373,5.373,0,0,1,1.818.3,4.313,4.313,0,0,1,1.439.871l-1.894,2.537a2.652,2.652,0,0,0-.986-.72Z" transform="translate(-255.94 -428.958)" stroke="#000" stroke-width="1"/>
      <path id="Path_4956" data-name="Path 4956" d="M367.5,435.2h2.954l4.506,12.76-1.59,3.143Zm12.988,0-6.248,18.137a4,4,0,0,1-.913,1.59,3.17,3.17,0,0,1-1.363.833,7.285,7.285,0,0,1-1.968.265h-.568v-2.764H370a2.245,2.245,0,0,0,1.287-.341,2.768,2.768,0,0,0,.833-1.136L377.53,435.2Z" transform="translate(-273.711 -429.331)" stroke="#000" stroke-width="1"/>
    </g>
  </g>
</svg>
