<svg xmlns="http://www.w3.org/2000/svg" width="76.335" height="56.039" viewBox="0 0 76.335 56.039">
  <g id="team" transform="translate(0 -68.066)">
    <g id="Group_54" data-name="Group 54" transform="translate(58.556 91.978)">
      <g id="Group_53" data-name="Group 53" transform="translate(0 0)">
        <path id="Path_2734" data-name="Path 2734" d="M401.543,229.763c-2.6-1.3-7.468-1.314-7.674-1.314a1.118,1.118,0,1,0,0,2.236c1.257,0,4.905.194,6.673,1.078a1.118,1.118,0,0,0,1-2Z" transform="translate(-392.751 -228.449)" fill="#13294b"/>
      </g>
    </g>
    <g id="Group_56" data-name="Group 56" transform="translate(0 68.066)">
      <g id="Group_55" data-name="Group 55" transform="translate(0 0)">
        <path id="Path_2735" data-name="Path 2735" d="M72.922,109.211,68.3,107.892a.469.469,0,0,1-.339-.449V105.9a8.4,8.4,0,0,0,1.069-.877,8.226,8.226,0,0,0,2.518-5.951V96.947L72,96.054a7.134,7.134,0,0,0,.749-3.174V87.118A1.118,1.118,0,0,0,71.63,86H60.87a7.1,7.1,0,0,0-7.1,7.1v.067A5.931,5.931,0,0,0,54.4,95.8l.573,1.145v1.826a8.725,8.725,0,0,0,3.587,7.054v1.616c0,.249,0,.352-.923.616l-2.253.644-6.518-2.37a1.117,1.117,0,0,0-.3-.856l-2.083-2.188V99.614c.22-.181.437-.368.648-.565a13.124,13.124,0,0,0,4.135-9.541V86.575a12.925,12.925,0,0,0,1.2-5.435V69.184a1.118,1.118,0,0,0-1.118-1.118H34.595A10.7,10.7,0,0,0,23.912,78.749V81.14a12.925,12.925,0,0,0,1.2,5.435V89.1A13.663,13.663,0,0,0,29.89,99.528v3.76l-2.083,2.188a1.117,1.117,0,0,0-.3.856l-6.88,2.5a5.864,5.864,0,0,0-1.382.724l-1.08-.54a8.54,8.54,0,0,0,4.284-3.466,1.118,1.118,0,0,0,0-1c-.806-1.612-.9-4.567-.982-6.942-.026-.79-.051-1.537-.1-2.2C20.982,90.044,16.9,86,11.878,86s-9.1,4.045-9.484,9.408c-.047.665-.072,1.412-.1,2.2-.078,2.374-.176,5.329-.982,6.941a1.118,1.118,0,0,0,0,1A8.539,8.539,0,0,0,5.6,109.016l-3,1.5A4.681,4.681,0,0,0,0,114.725v8.261a1.118,1.118,0,1,0,2.236,0v-8.261A2.455,2.455,0,0,1,3.6,112.517l3.737-1.868,1.3,1.235a4.7,4.7,0,0,0,6.482,0l1.3-1.235,1.218.609a5.888,5.888,0,0,0-.9,3.122v8.606a1.118,1.118,0,1,0,2.236,0V114.38a3.675,3.675,0,0,1,2.412-3.444L28.64,108.3l3.02,4.53a2.305,2.305,0,0,0,1.7,1.019q.116.011.231.011a2.3,2.3,0,0,0,1.634-.678l1.842-1.842v11.648a1.118,1.118,0,1,0,2.236,0V111.339l1.842,1.842a2.3,2.3,0,0,0,1.634.678q.115,0,.23-.011a2.305,2.305,0,0,0,1.7-1.019l3.02-4.529,7.253,2.638a3.676,3.676,0,0,1,2.412,3.444v8.606a1.118,1.118,0,1,0,2.236,0V114.38a5.911,5.911,0,0,0-1.654-4.091l.276-.079a6.132,6.132,0,0,0,1.041-.376l2.855,2.855v10.3a1.118,1.118,0,1,0,2.236,0v-10.3l2.835-2.835a2.66,2.66,0,0,0,.476.189l4.618,1.319a2.479,2.479,0,0,1,1.79,2.374v9.25a1.118,1.118,0,0,0,2.236,0v-9.25A4.726,4.726,0,0,0,72.922,109.211ZM7.174,107.236a8.039,8.039,0,0,1-3.589-2.3,12.326,12.326,0,0,0,.637-2.678A8.338,8.338,0,0,0,7.174,105.9Zm6.406,3.026a2.467,2.467,0,0,1-3.4,0l-1.04-.988a2.314,2.314,0,0,0,.272-1.092v-1.192a8.315,8.315,0,0,0,4.937,0v1.191a2.314,2.314,0,0,0,.272,1.092Zm-1.7-5.133a6.062,6.062,0,0,1-6.055-6.055,1.111,1.111,0,0,0-1.3-1.1c0-.1.006-.192.01-.288.025-.769.049-1.5.093-2.118a8.3,8.3,0,0,1,2.261-5.213,6.948,6.948,0,0,1,9.986,0,8.3,8.3,0,0,1,2.261,5.213c.044.623.068,1.349.094,2.118l.007.2a10.047,10.047,0,0,0-5.523-4.036,14.034,14.034,0,0,0-4.253-.674,1.118,1.118,0,0,0-.774.342L6.665,95.608a1.118,1.118,0,1,0,1.61,1.552l1.679-1.741c1.446.071,6.1.612,7.906,4.595A6.041,6.041,0,0,1,11.879,105.129Zm4.7,2.111v-1.334a8.271,8.271,0,0,0,2.952-3.645,12.31,12.31,0,0,0,.637,2.671A8.077,8.077,0,0,1,16.583,107.24ZM27.344,89.1V86.325a1.118,1.118,0,0,0-.111-.486,10.726,10.726,0,0,1-1.084-4.7V78.749A8.456,8.456,0,0,1,34.595,70.3h15.62V81.14a10.726,10.726,0,0,1-1.084,4.7,1.118,1.118,0,0,0-.111.486v3.184a10.735,10.735,0,0,1-3.428,7.909,11.127,11.127,0,0,1-.858.727l-.019.014a10.752,10.752,0,0,1-7.256,2.165A11.075,11.075,0,0,1,27.344,89.1Zm6.3,22.5a.07.07,0,0,1-.062.022.071.071,0,0,1-.057-.034l-3.478-5.216,1.119-1.176,5.276,3.606Zm4.542-4.315-6.055-4.139v-2.087a12.59,12.59,0,0,0,5.187,1.5q.442.029.88.028a12.952,12.952,0,0,0,6.044-1.481v2.043Zm4.661,4.3a.071.071,0,0,1-.057.034.069.069,0,0,1-.062-.022l-2.8-2.8L45.2,105.2l1.119,1.176Zm20.418-.943-2.538-2.537a3.068,3.068,0,0,0,.069-.664v-.472a7.841,7.841,0,0,0,2.214.391c.086,0,.172,0,.257,0a8.306,8.306,0,0,0,2.465-.373v.45a2.673,2.673,0,0,0,.081.652Zm4.217-7.224a6.01,6.01,0,0,1-4.4,1.707,6.259,6.259,0,0,1-5.868-6.353v-2.09a1.117,1.117,0,0,0-.118-.5L56.4,94.8a3.683,3.683,0,0,1-.387-1.639V93.1a4.865,4.865,0,0,1,4.86-4.86h9.642V92.88A4.886,4.886,0,0,1,70,95.054l-.564,1.129a1.118,1.118,0,0,0-.118.5v2.391A6.008,6.008,0,0,1,67.477,103.42Z" transform="translate(0 -68.066)" fill="#13294b"/>
      </g>
    </g>
    <g id="Group_58" data-name="Group 58" transform="translate(69.316 114.694)">
      <g id="Group_57" data-name="Group 57">
        <path id="Path_2736" data-name="Path 2736" d="M466.041,380.814a1.118,1.118,0,0,0-1.118,1.118v7.174a1.118,1.118,0,0,0,2.236,0v-7.174A1.118,1.118,0,0,0,466.041,380.814Z" transform="translate(-464.923 -380.814)" fill="#13294b"/>
      </g>
    </g>
    <g id="Group_60" data-name="Group 60" transform="translate(4.782 116.172)">
      <g id="Group_59" data-name="Group 59">
        <path id="Path_2737" data-name="Path 2737" d="M33.2,390.728a1.118,1.118,0,0,0-1.118,1.118v5.7a1.118,1.118,0,0,0,2.236,0v-5.7A1.118,1.118,0,0,0,33.2,390.728Z" transform="translate(-32.077 -390.728)" fill="#13294b"/>
      </g>
    </g>
    <g id="Group_62" data-name="Group 62" transform="translate(28.694 78.225)">
      <g id="Group_61" data-name="Group 61">
        <path id="Path_2738" data-name="Path 2738" d="M211.107,139.523c-4.229-4.229-13.078-3.421-16.686-2.877a2.3,2.3,0,0,0-1.961,2.287v2.576a1.118,1.118,0,0,0,2.236,0v-2.576a.074.074,0,0,1,.058-.076,35.326,35.326,0,0,1,7.264-.355c3.487.232,6.013,1.107,7.507,2.6a1.118,1.118,0,1,0,1.581-1.581Z" transform="translate(-192.46 -136.203)" fill="#13294b"/>
      </g>
    </g>
    <g id="Group_64" data-name="Group 64" transform="translate(23.912 117.085)">
      <g id="Group_63" data-name="Group 63">
        <path id="Path_2739" data-name="Path 2739" d="M161.5,396.853a1.118,1.118,0,0,0-1.118,1.118v4.782a1.118,1.118,0,0,0,2.236,0v-4.782A1.118,1.118,0,0,0,161.5,396.853Z" transform="translate(-160.384 -396.853)" fill="#13294b"/>
      </g>
    </g>
    <g id="Group_66" data-name="Group 66" transform="translate(50.215 117.085)">
      <g id="Group_65" data-name="Group 65">
        <path id="Path_2740" data-name="Path 2740" d="M337.924,396.853a1.118,1.118,0,0,0-1.118,1.118v4.782a1.118,1.118,0,0,0,2.236,0v-4.782A1.118,1.118,0,0,0,337.924,396.853Z" transform="translate(-336.806 -396.853)" fill="#13294b"/>
      </g>
    </g>
  </g>
</svg>
