<svg xmlns="http://www.w3.org/2000/svg" xmlns:xlink="http://www.w3.org/1999/xlink" width="260" height="301" viewBox="0 0 260 301">
  <defs>
    <filter id="Rectangle_32" x="-14" y="-1" width="278" height="319" filterUnits="userSpaceOnUse">
      <feOffset dx="-5" dy="8" input="SourceAlpha"/>
      <feGaussianBlur stdDeviation="3" result="blur"/>
      <feFlood flood-opacity="0.161"/>
      <feComposite operator="in" in2="blur"/>
      <feComposite in="SourceGraphic"/>
    </filter>
    <clipPath id="clip-path">
      <g transform="matrix(1, 0, 0, 1, 0, 0)" filter="url(#Rectangle_32)">
        <rect id="Rectangle_32-2" data-name="Rectangle 32" width="260" height="301" rx="8" transform="translate(278 1188)" fill="#6fc3e8"/>
      </g>
    </clipPath>
    <clipPath id="clip-path-2">
      <rect id="Rectangle_31" data-name="Rectangle 31" width="260" height="301" transform="translate(0)" fill="#fff"/>
    </clipPath>
  </defs>
  <g id="Mask_Group_1" data-name="Mask Group 1" transform="translate(-278 -1188)" opacity="0.15" clip-path="url(#clip-path)" style="mix-blend-mode: overlay;isolation: isolate">
    <g id="Asset_1" data-name="Asset 1" transform="translate(253.98 1144.78)">
      <g id="Layer_2" data-name="Layer 2" transform="translate(24.02 43.22)">
        <g id="Layer_1" data-name="Layer 1">
          <rect id="Rectangle_30" data-name="Rectangle 30" width="260" height="301" transform="translate(0)" fill="#fff"/>
          <g id="Group_23" data-name="Group 23" clip-path="url(#clip-path-2)">
            <path id="Path_73" data-name="Path 73" d="M143.082,18.979C124.7,22.463,107.013,31.573,99.174,45.8c-10.246,18.75-1.421,40.313,1.889,60.729a112.83,112.83,0,0,1-11.8,70.524c-5.532,10.551-12.886,20.989-12.8,32.561.134,18.275,19.923,33.219,41.2,37.319,26.174,5.037,53.618-2.8,76.884-14.133s43.824-26.139,67.34-37.011c15.042-6.926,31.606-12.594,42.2-23.788,10.028-10.565,13.037-24.781,11.7-38.186s-6.585-26.307-11.9-39c-8.357-20.136-17.483-40.859-35.1-56.293s-36.6-17.715-60.337-18.764C186.237,18.7,165.461,14.725,143.082,18.979Z" transform="translate(11.187 -53.667)" fill="#ffbb94" opacity="0.6"/>
            <path id="Path_74" data-name="Path 74" d="M282.342,100.87c-16.43,1.609-31.673,6.157-36.085,13.993-9.092,16.176,1.27,44.987-18.8,57.161-21.845,13.251-59.535-1.189-75.73,18.191-13.806,16.484-9.661,44.693-29.366,56.237s-51.646,8.228-66.688,24.739c-11.516,12.678-12.418,36.591-1.137,49.6,9.677,11.194,24.92,8.018,37.89,15.238A18.23,18.23,0,0,1,97.27,339.9H282.342Z" transform="translate(-8.904 -20.201)" fill="#4f4f4f" opacity="0.5"/>
            <g id="Group_19" data-name="Group 19" transform="translate(138.438 -60.476)" opacity="0.5">
              <path id="Path_75" data-name="Path 75" d="M181.879,25.551l-5.114,4.856c-1.153,1.091-2.223,2.239-3.343,3.372-.468.49-.969.966-1.437,1.469l-1.905,2.1c-1,1.105-2.006,2.2-2.992,3.316q-3.527,3.988-7.02,7.976l-6.418,7.332-1.671,1.623q-3.878,3.792-7.705,7.612c-2.424,2.393-4.78,4.814-7.17,7.22-1.237,1.245-2.44,2.533-3.677,3.792L130.4,79.367c-1.187,1.259-2.39,2.5-3.56,3.778l-2.29,2.477c-.5.532-.986,1.063-1.471,1.6-1.27,1.4-2.557,2.8-3.794,4.2-.618.714-1.254,1.4-1.855,2.169l-.552.658-1.488,1.4c-.552.5-1.12,1.007-1.671,1.5l-.435.322c-.4.308-.786.63-1.187.938l-2.457,1.973-.585.476-.786.616a8.633,8.633,0,0,0-1.354,1.217.42.42,0,0,0,0,.462,1.416,1.416,0,0,0,.451.56c.451.35.986.434,1.237.224,1.1-.9,2.189-1.819,3.343-2.8l2.674-2.155,1.17-.91,3.025-2.281,2.139-1.609c.435-.336.9-.644,1.354-.966l5.7-4.058c1.237-.882,2.507-1.749,3.761-2.631l4.6-3.2.5-.35-.552.728-3.694,5c-.451.6-.886,1.217-1.32,1.833q-.928,1.3-1.805,2.645c-.334.518-.635,1.035-.936,1.581a14.385,14.385,0,0,0-.618,1.329l-.4.5-2.256,2.8c-.485.6-.936,1.231-1.421,1.847l-.819,1.063c-.3.392-.6.77-.886,1.161a3.712,3.712,0,0,0-.384.6,6.149,6.149,0,0,0-.4.91.8.8,0,0,0,.4.756.958.958,0,0,0,1.07.2l.669-.5a6.1,6.1,0,0,0,.635-.588,15.29,15.29,0,0,0,1.187-1.4c.635-.812,1.22-1.665,1.839-2.491l1.554-2.043,2.307-3.036.2-.2,1.12-1.077,1.554-1.5c1.22-1.189,2.44-2.379,3.644-3.582l7.6-7.64,4.7-4.716c.886-.9,1.805-1.749,2.708-2.617l3.644-3.512-.618.8c-.685.868-1.371,1.735-2.006,2.631l-3.928,5.6c-.735,1.049-1.5,2.085-2.206,3.162l-3.343,4.953-1.153,1.735c-.251.378-.468.77-.719,1.147l-1.671,2.8c-.267.434-.552.854-.8,1.3l-1.4,2.519c-.184.322-.351.644-.552.952l-.284.42a2.359,2.359,0,0,0-.284.686v.126a.661.661,0,0,0,0,.406v.294l.284.644a1.3,1.3,0,0,0,.568.588l.15.07-2.791,2.659c-.234.224,0,.7.4,1.049s1.036.462,1.287.238c.886-.812,1.671-1.637,2.591-2.477l3.56-3.414c.852-.588,1.671-1.231,2.424-1.861.451-.364.9-.714,1.337-1.077l.836-.714,5.365-4.59c.953-.812,1.872-1.651,2.808-2.491l5.282-4.744q4.036-3.631,8.056-7.29l7.488-6.759,6.97-6.269c2.574-2.309,5.131-4.618,7.722-6.9l.552-.49,2.808-2.141c.735-.6,1.471-1.2,2.223-1.791l5.215-4.142,5.2-4.03c.819-.63,1.671-1.231,2.524-1.833l6.335-4.534c.953-.686,1.889-1.4,2.875-2.043l9.009-5.933.6-.378,2.357-1.4,4.095-2.5.986-.546-8.123,5.7c-3.059,2.141-6.067,4.324-9.076,6.493-.919.658-1.839,1.329-2.741,2l-5.9,4.408L208,45.9l-.735.56-4.646,3.652-5.3,4.2c-.786.616-1.538,1.259-2.29,1.889l-5.867,4.9-2.357,1.875-.886.742-9.276,8.116c-.7.616-1.421,1.231-2.106,1.861l-5.014,4.562-4.329,3.96-.618.588-2.123,2.057-5.215,5.093c-.267.266-.568.532-.819.812l-1.671,1.693-4.5,4.7c-.351.378-.685.77-1.036,1.161l-2.457,2.8c-.6.672-1.17,1.4-1.755,2.043l-1.337,1.6-.786.924a7.16,7.16,0,0,0-.568.784,3.457,3.457,0,0,0-.368,1.189.5.5,0,0,0,0,.35,1.42,1.42,0,0,0,.468.574,1.387,1.387,0,0,0,1.137.322l.936-.294a6.547,6.547,0,0,0,.886-.35c.251-.126.485-.266.719-.406s.552-.35.8-.532c1.153-.8,2.123-1.721,3.192-2.589.518-.42,1-.868,1.5-1.287l4.914-4.2,8.006-6.884.969-.8,2.607-2.183,5.248-4.38c.836-.7,1.671-1.4,2.574-2.071l5.967-4.786c5.014-4.016,10.112-7.962,15.176-11.936l19.171-15.084c2.591-2.029,5.265-4,7.906-6l4.546-3.428.769-.546L232,39.362l6.268-4.38c.384-.266.752-.546,1.153-.812l1.671-1.091,6.1-3.918,1.1-.672,3.343-1.945,1.437-.854.267-.14c-.568.49-1.136.952-1.671,1.4-.936.742-1.872,1.483-2.841,2.2l-5.85,4.338c-.936.7-1.872,1.4-2.825,2.071l-5.833,4.2-7.906,5.6-6.234,4.464c-.769.546-1.538,1.091-2.273,1.651l-10.881,8.172c-.685.518-1.371,1.049-2.039,1.6l-5.733,4.534-4.88,3.89c-.7.56-1.387,1.147-2.073,1.721l-10.2,8.564c-.786.658-1.538,1.4-2.307,2.015l-5.85,5.107L170.614,90c-.8.714-1.588,1.4-2.373,2.155l-1.187,1.077c-2.574,2.337-5.148,4.66-7.688,7l-5.014,4.646-2.006,1.623c-.685.56-1.4,1.105-2.073,1.693l-3.493,3.022c-.752.658-1.521,1.3-2.256,1.973l-1.788,1.651-.752.686c-.334.308-.635.63-.936.952s0,.644.368.979a1.643,1.643,0,0,0,.669.308.653.653,0,0,0,.518-.1,6.208,6.208,0,0,0,.669-.49l.669-.588.8-.686,1.872-1.623c1.27-1.119,2.557-2.239,3.827-3.372l2.791-2.533,1.554-1.4v-.07l.267-.21,2.908-2.351c.368-.294.719-.588,1.086-.868l5.014-3.778,2.624-2,.8-.6,5.3-3.82,2.858-2.057,1.07-.77,10.028-7c.986-.686,2.006-1.4,3.008-2l6.485-4.3c.852-.574,1.671-1.133,2.591-1.693l.435-.266-5.248,5.3c-.735.728-1.488,1.4-2.206,2.2l-4.479,4.66-3.928,4.03c-.969.993-1.905,2.015-2.858,3.036L175.8,99.475c-.786.84-1.521,1.707-2.273,2.575l-4.58,5.247c-.217.266-.451.518-.652.784l-1.788,2.351-2.256,2.911-.719.952-.368.518-.719.658c-.953.882-1.872,1.777-2.808,2.687l-2.39,2.393c-.936.91-1.839,1.833-2.758,2.8-.234.238,0,.714.4,1.077a1.776,1.776,0,0,0,.735.35.693.693,0,0,0,.568-.1,11.387,11.387,0,0,0,1.02-.924l.8-.756,2.123-2.043a2.6,2.6,0,0,1-.084.8v.126a.52.52,0,0,0,0,.364,1.416,1.416,0,0,0,.485.6,1.914,1.914,0,0,0,.5.28,1.106,1.106,0,0,0,.685,0l.819-.21.251-.1.418-.238a10.664,10.664,0,0,0,1.3-1.133c.3-.28.618-.546.919-.826l2.307-2.043c.552-.49,1.086-.993,1.671-1.483l2.674-2.463c2.507-2.295,5.014-4.6,7.454-6.912l2.39-2.2,1.2-1.091,4.9-4.492c.819-.742,1.671-1.469,2.474-2.211l5.683-5.065c.8-.714,1.588-1.4,2.39-2.127l5.014-4.2,4.78-4.086c.836-.728,1.671-1.4,2.607-2.1l2.758-2.2,3.008-2.141,5.649-4.016c.786-.56,1.588-1.091,2.373-1.637l6.385-4.324,2.691-1.819c.334-.224.652-.462,1-.672l10.647-6.675,1.02-.616,3.343-1.875,5.883-3.372,4.763-2.533.318-.168c-2.925,2.085-5.816,4.2-8.708,6.3l-8.14,5.765c-2.775,2.029-5.549,4.044-8.357,6.087L225.2,74.022c-.986.728-1.922,1.5-2.891,2.253l-6.084,4.758c-.836.658-1.671,1.287-2.49,1.959l-5.014,4.2-4.5,3.75-.5.448-.217.182-1.053.952-1.905,1.511-9.878,8.116c-2.641,2.127-5.215,4.3-7.822,6.451s-5.532,4.59-8.357,6.884l-4.262,3.554-1.889,1.567L166.67,122l-.568.462c-.418.336-.786.714-1.17,1.077s0,.714.4,1.077a1.776,1.776,0,0,0,.735.35.713.713,0,0,0,.568-.1,10.428,10.428,0,0,0,1.053-.714l.3-.252,1.371-1.175,1.939-1.665,4.7-4.1c.384-.336.769-.686,1.17-1.007l1.922-1.581,5.014-4.2-1.02,1.063-.936.979-1.053,1.133c-.351.378-.7.756-1.036,1.147a14.343,14.343,0,0,0-.936,1.2,6.975,6.975,0,0,0-.418.658c-.15.266-.234.56-.368.84a1.037,1.037,0,0,0,.518.993,2,2,0,0,0,.518.294,1.066,1.066,0,0,0,.7,0q.769-.38,1.487-.826a17.318,17.318,0,0,0,1.454-1.091l1.036-.784,2.407-1.805c.652-.49,1.27-.979,1.905-1.483l2.858-2.211c1.2-.924,2.357-1.889,3.543-2.8l2.992-2.407,1.371-1.091,8.992-7.486c.936-.77,1.839-1.553,2.758-2.337l5.783-4.911c5.014-4.2,10.028-8.522,14.959-12.761l3.644-3.078.986-.672,6.4-4.38c1.036-.714,2.056-1.4,3.109-2.127L256,59.427l1.17-.742,3.142-2,3.343-2.113,1.27-.812,5.566-3.386c.769-.476,1.554-.924,2.34-1.4l-2.306,1.889-2.875,2.365c-.334.28-.669.56-1.02.826l-8.357,6.423-5.3,4.058-2.758,2.113-1.02.784-9.493,7.612c-.836.672-1.671,1.4-2.44,2.071l-5.8,4.939c-.852.728-1.671,1.4-2.574,2.211l-4.5,4.086-5.014,4.534c-.7.644-1.387,1.3-2.073,1.959l-5.415,5.205-2.223,2.141-.786.756-8.557,8.55-2.223,2.267-5.131,5.261c-2.273,2.337-4.513,4.688-6.686,7l-3.577,3.722-1.454,1.5-1.053,1.091-.535.546a9.278,9.278,0,0,0-.652.672,3.077,3.077,0,0,0-.518.91.882.882,0,0,0,.451.854l.117.084q-3.46,3.568-6.953,7.136c-.2.21,0,.616.351.924s.919.406,1.137.21c.752-.714,1.488-1.4,2.223-2.2.5-.5,1-1.021,1.521-1.511l3.66-3.484a.634.634,0,0,0,.334,0,13.48,13.48,0,0,0,1.421-.658c.552-.322,1.053-.672,1.554-1.021s.969-.742,1.454-1.119l.986-.784,1.972-1.6,4.279-3.456,4.814-3.946c1.053-.868,2.106-1.749,3.192-2.6l5.332-4.2c1.12-.9,2.223-1.805,3.343-2.673l9.393-7.36c1.086-.84,2.206-1.651,3.343-2.477l5.95-4.478c2.808-2.1,5.666-4.2,8.507-6.241,1.086-.784,2.139-1.6,3.242-2.365l5.014-3.526,5.165-3.666c1.1-.784,2.24-1.539,3.343-2.295l5.014-3.442c.685-.462,1.354-.938,2.056-1.4l3.66-2.323,3.894-2.183,3.343-1.833,1.22-.686,10.563-5.6.251-.14a11.3,11.3,0,0,1-.936,1.063c-.418.42-.886.826-1.337,1.231s-.535.49-.8.714L278,69.572l-2.641,2.211c-.284.238-.585.476-.886.7l-5.733,4.2-1.5,1.119c-.468.35-.969.672-1.454,1.007-2.992,2.085-6,4.2-8.992,6.255l-6.268,4.492-1.554,1.077c-.368.266-.719.546-1.07.812l-5.95,4.548-2.357,1.791-.669.518-9.594,8.046c-.869.728-1.671,1.5-2.541,2.239l-5.148,4.576-5.9,4.506q-2.783,2.1-5.516,4.2a.765.765,0,0,0-.184-.21.548.548,0,0,0-.635-.112l-6.686,5.121c-1.22.938-2.457,1.861-3.644,2.8l-5.566,4.464c-.451.364-.919.714-1.354,1.091l-1.889,1.623-2.574,2.211c-.919.784-1.805,1.6-2.691,2.407-.15.14-.1.42.15.672s.8.518,1.053.392a4.672,4.672,0,0,0,.6-.308l.752-.546.986-.8,1.12-.868,2.073-1.609,5.014-3.89q4.112-3.211,8.19-6.451l4.7-3.68-.568.546-2.407,2.309-4.379,4.2-1.137,1.119L198.459,135q-3.343,3.3-6.686,6.577c-.234.224,0,.7.4,1.049s1.036.462,1.287.238l8.842-8.032.953-.868c.786-.714,1.554-1.4,2.357-2.113l5.114-4.394c.919-.8,1.822-1.6,2.791-2.351l5.683-4.464c.986-.77,1.956-1.553,2.958-2.309l5.532-4.2c1.2-.9,2.407-1.819,3.627-2.7l4.814-3.5,4.814-3.5c1.2-.882,2.44-1.721,3.66-2.589,2.858-2.029,5.733-4.058,8.608-6.059s5.95-4.2,8.959-6.2l6.117-4.2c1.187-.812,2.357-1.637,3.543-2.435l9.844-6.563.752-.476,2.19-1.4,4.663-2.8c.8-.5,1.671-.993,2.457-1.469L295.55,68l7.438-4.2a.316.316,0,0,0,.217-.322.843.843,0,0,0-.251-.49,1.665,1.665,0,0,0-.6-.392.849.849,0,0,0-.552,0c-.635.308-1.27.6-1.889.924l-1.755.91c-.786.406-1.538.826-2.307,1.231s-1.387.728-2.056,1.119L290.9,68.453l-2.741,1.511c-.451.252-.852.532-1.287.8l-3.343,2.057-2.54,1.4-4.128,2.407L273.521,78.6l-1.387.812-10.4,6.3-.836.532-2.658,1.679-6.585,4.2c-.819.518-1.671,1.049-2.457,1.581l-5.917,3.946-2.474,1.707h0l9.577-7.29.719-.518,2.49-1.735,5.933-4.2c2.975-2.085,5.967-4.2,8.959-6.2,1.153-.8,2.256-1.637,3.343-2.463l4.763-3.5.368-.308,1.053-.868,2.908-2.309,1.671-1.4.234-.21.669-.6c.451-.406.9-.812,1.3-1.245a8.207,8.207,0,0,0,.986-1.3,2.7,2.7,0,0,0,.318-.77,4.765,4.765,0,0,1,.15-.826.555.555,0,0,0,0-.378V63.08l1.588-.9c.668-.378,1.337-.742,1.989-1.119l1.437-.84c.585-.35,1.137-.714,1.671-1.091a.434.434,0,0,0,0-.518,1.482,1.482,0,0,0-.5-.63,2.825,2.825,0,0,0-1.07-.546,5.447,5.447,0,0,0-.719,0h-.234l-.418.084a2.506,2.506,0,0,0-.418.168,5.166,5.166,0,0,0-.568.322c-.368.224-.7.476-1.07.7-1.939.979-3.844,1.987-5.766,2.994-1.387.728-2.724,1.5-4.078,2.253l-3.376,1.805-1.671.938-5.014,2.952-3.209,1.875-1.17.686-5.2,3.12L253.448,78.3l-1.153.728L249.3,80.92l-6.017,3.806c-.953.6-1.872,1.231-2.791,1.847l-6.5,4.38c-.9.6-1.805,1.189-2.674,1.819l-10.346,7.346-.769.588-2.474,1.875-6.034,4.59-1.337,1.007c-.368.28-.719.588-1.086.868l-3.677,2.966,1.27-1.189,1.671-1.539,4.346-3.82,3.476-3.05.936-.784,2.424-2.029,5.867-4.925c.769-.644,1.538-1.3,2.323-1.931l10.179-8.13c.819-.658,1.671-1.3,2.507-1.931l6.117-4.674c.886-.686,1.772-1.4,2.674-2.043l5.415-4,4.312-3.2c1.32-.979,2.674-1.945,4.011-2.911l8.858-6.451c1.889-1.4,3.794-2.8,5.649-4.2l4.061-3.12,1-.77c.635-.49,1.32-.924,1.939-1.4a3.259,3.259,0,0,0,.669-.742,2.28,2.28,0,0,0,.267-.476v-.224a1.348,1.348,0,0,0,0-.406,1.156,1.156,0,0,0-.5-.756,1.392,1.392,0,0,0-1.12-.322l-.9.406c-.184.084-.435.2-.6.294l-.451.252-1.738,1.035c-.719.406-1.4.854-2.106,1.273l-1.671,1.007c-.234.14-.485.28-.719.434l-2.139,1.483-3.075,2.113-.986.7-5.649,4.2-1.855,1.4c-.318.238-.635.49-.936.742l-5.783,4.59c-.986.784-1.972,1.553-2.942,2.351l-5.014,4.086c-5.365,4.394-10.714,8.788-16,13.237l-5.3,4.464c-1.1.924-2.19,1.875-3.343,2.8l-2.724,2.337-.936.812-5.014,4.478c-.986.9-1.972,1.805-2.958,2.715l-5.165,4.953-2.407,2.267-.953.9-.384.35-3.51,3.274q1.671-1.791,3.51-3.554l5.181-5.177,2.189-2.253.8-.8,8.875-8.536,1.053-1.007c.3-.294.618-.56.936-.854l5.315-4.828,3.961-3.568.752-.644,2.323-1.973,5.716-4.87c.752-.63,1.488-1.273,2.256-1.875l5.633-4.506,2.591-2.071.936-.756,9.276-7c2.775-2.113,5.582-4.2,8.357-6.311.485-.364.936-.756,1.4-1.133l3.025-2.435,2.006-1.623.518-.448,1.421-1.2a12.276,12.276,0,0,0,1.287-1.287,4.62,4.62,0,0,0,.451-.616,1.808,1.808,0,0,0,.234-.434l.184-.462a1.225,1.225,0,0,0-.495-.961,1.762,1.762,0,0,0-1.176-.354l-.869.35a6.205,6.205,0,0,0-.568.252l-.435.238-1.671.938c-.735.406-1.454.826-2.173,1.245s-1.538.868-2.29,1.315l-2.407,1.4c-1.4.854-2.808,1.679-4.178,2.561l-6.1,3.89-.234.154.953-.728,5.248-4.044c1.086-.84,2.19-1.665,3.242-2.533l4.279-3.54,1.1-.924.7-.6c.4-.336.8-.658,1.187-1.007a6.95,6.95,0,0,0,.769-.8l2.708-1.987c.669-.462,1.3-.952,1.939-1.4l1.671-1.245.451-.336c.368-.28.7-.588,1.036-.882s.134-.63-.217-1.007a1.867,1.867,0,0,0-1.571-.588,5,5,0,0,0-.7.336l-.15.1-.769.476-.969.616-2.156,1.4-2.407,1.6h-.217c-.418.168-.869.308-1.254.5l-.652.322-1.32.63L266.3,42.5l-5.014,2.589-1.554.826-3.577,1.9L253.916,49c-.485.252-.936.532-1.4.812l-2.307,1.4.485-.336,6.251-4.2c2.858-1.9,5.766-3.75,8.658-5.6l2.708-1.707q.8-.518,1.554-1.077a16.185,16.185,0,0,0,1.371-1.2c.2-.2.134-.574-.2-.91a2,2,0,0,0-.735-.476l-.251-.07a.873.873,0,0,0-.435,0l-.953.21a7.226,7.226,0,0,0-.953.35l-1.02.42-1.671.7-2.223.924L259.2,39.767c-.6.252-1.187.532-1.772.8l-3.777,1.721c-.5.224-1,.448-1.488.686l-6.335,3.2c-1.153.574-2.323,1.147-3.46,1.749l-6.686,3.582-2.891,1.539-.852.462-4.9,2.8q2.507-2.309,5.014-4.6l5.6-5.023c.819-.742,1.671-1.483,2.474-2.211l5.315-4.618c1-.868,1.989-1.735,2.992-2.589l6.9-5.835c1.053-.882,2.072-1.805,3.092-2.7l1.839-1.6c.852-.742,1.671-1.567,2.407-2.351a.6.6,0,0,0,0-.77,1.863,1.863,0,0,0-.418-.448,2.155,2.155,0,0,0-.836-.392l-.3-.07a.992.992,0,0,0-.485,0l-.284.07-.418.224c-.3.238-.552.5-.869.742l-1.387,1.007-.936.672q.435-.42.852-.854c.568-.616,1.053-1.287,1.671-1.917a.426.426,0,0,0,.134-.364.967.967,0,0,0-.167-.462,2.22,2.22,0,0,0-1.036-.8l-.284-.084-.585-.168h-.535l-.535.084-.267.07a2.792,2.792,0,0,0-.468.224c-.284.154-.535.322-.8.49l-2.775,1.525c-.585.322-1.153.658-1.671.993l-3.343,2c-.451.266-.919.532-1.354.826l-5.75,3.75-2.19,1.4-.852.588-5.883,4.2-2.975,1.861c-.351.252-.719.49-1.07.756l-9.895,7.64c-2.624,2-5.165,4.072-7.739,6.115L201.936,59.5c-2.958,2.351-5.9,4.716-8.858,7.066l-10.028,7.962c-2.741,2.183-5.449,4.394-8.173,6.591-.969.784-1.939,1.539-2.875,2.337l-4.847,4.072-4.162,3.428-1.12.966-2.741,2.365-8.574,7.374-1.922,1.651-1.354,1.133c-.535.448-1.07.882-1.671,1.3l.986-1.175c.435-.518.852-1.049,1.32-1.567l3.911-4.422.284-.294.919-.952,2.607-2.715,2.256-2.267.652-.658,4.747-4.6,2.474-2.393c.334-.322.669-.658,1-.979l8.942-8.158,2.006-1.791,5.365-4.674,4.412-3.848c.836-.728,1.671-1.4,2.591-2.155l5.95-4.939,2.139-1.777.618-.518,10.028-7.808c.869-.686,1.772-1.4,2.657-1.987L217.63,41.5c2.891-2.141,5.85-4.2,8.791-6.325s6.034-4.2,9.059-6.311l3.343-2.323,3.242-2.253c.5-.35,1-.686,1.5-1.035l2.908-2.141,1.471-1.077a20.7,20.7,0,0,0,1.788-1.581c.234-.224.15-.658-.234-1.063a2.311,2.311,0,0,0-.852-.56l-.284-.084a1.012,1.012,0,0,0-.5,0l-.652.14-.568.252c-.384.182-.719.392-1.086.588l-.969.5-1.788.924-2.24,1.2c-.635.336-1.27.672-1.889,1.021l.184-.1-5.148,2.952c-.585.336-1.153.7-1.671,1.049L228.695,27.4l-1.889,1.175c-.485.294-.936.616-1.387.924l-5.315,3.54,1.905-1.553.752-.588,2.607-2,4.4-3.358c1.053-.8,2.139-1.567,3.209-2.351,2.524-1.847,5.014-3.694,7.688-5.471a.422.422,0,0,0,0-.5,1.769,1.769,0,0,0-1.237-.952h-.284a.553.553,0,0,0-.351.126c-.485.308-.969.6-1.437.924l-1.521,1.021-1.554,1.049-.735.49-5.014,3.652c-.5.364-1.036.728-1.521,1.105l-1.671,1.259L219.6,30.224c-1,.77-1.989,1.553-2.975,2.323l-5.683,4.478c-.886.686-1.671,1.4-2.607,2.1l-5.967,4.828c-2.641,2.141-5.2,4.324-7.789,6.507l-3.911,3.288-.9.784-2.44,2.1L181.7,61.568l-2.106,1.847-9.376,8.4c-.953.854-1.889,1.735-2.841,2.6l-5.516,5.051q-1.772,1.623-3.51,3.26l-2.557,2.309c-.869.784-1.671,1.553-2.574,2.351L148.2,92.2c-.919.882-1.855,1.749-2.758,2.645l-4.914,4.842-.167.168h0a7.422,7.422,0,0,1-.953.392l-.669.224a1.806,1.806,0,0,1,.134-.322,4.006,4.006,0,0,1,.4-.644c.117-.182.217-.364.318-.546l.635-1.119.786-1.4c.1-.182.2-.378.318-.56l2.875-4.66.518-.812,1.671-2.421,2.49-4.03q3.109-4.366,6.184-8.746c.234-.322.485-.63.735-.938l2.006-2.575,4.145-5.317c.485-.616,1-1.217,1.5-1.819l1.036-.728q4.362-3.043,8.758-6.059c1.12-.77,2.223-1.553,3.343-2.309l4.814-3.246,8.474-5.7c3.109-2.071,6.234-4.2,9.326-6.241l5.933-4.03c1.17-.8,2.373-1.581,3.527-2.393,2.992-2.085,5.984-4.2,8.942-6.269l8.357-6.045c1.2-.868,2.407-1.749,3.593-2.631l1.488-1.119,1.22-.924.618-.448a5.973,5.973,0,0,0,.735-.6l.117-.182a2.747,2.747,0,0,0,.384-.252.52.52,0,0,0,0-.364,1.486,1.486,0,0,0-.485-.6,1.95,1.95,0,0,0-.5-.28,1.026,1.026,0,0,0-.685,0q-1.069.509-2.072,1.105l-1.3.84-2.758,1.763-1.671,1.063-3.343,2.169-3.71,2.407-3.343,2.183c-.552.35-1.086.714-1.671,1.063l-4.78,2.966,4.6-3.414c1.12-.8,2.256-1.581,3.343-2.393l5.833-4.2c2.641-1.917,5.215-3.89,7.805-5.835q2.808-2.1,5.666-4.2c.251-.182,0-.658-.368-.979a1.643,1.643,0,0,0-.669-.308.653.653,0,0,0-.518.1q-4.546,2.883-9.393,5.653l-10.864,6.339-1.07.63-2.139,1.4-6.4,4.086-.9.574-.3.2-1.387.966-6.218,4.38-2.474,1.693c-.251.182-.518.35-.752.532l-.752.588,3.777-3.652c.969-.938,1.989-1.861,2.992-2.8l4.112-3.876c1.4-1.315,2.858-2.6,4.279-3.89l7.956-7.206,3.109-2.8,2.357-2.155c.3-.28.6-.56.919-.826a13.663,13.663,0,0,0,1.287-1.175,2.968,2.968,0,0,0,.418-.574.9.9,0,0,0,.184-.476V5.681a1.072,1.072,0,0,0-.468-.714,1.725,1.725,0,0,0-.451-.252.907.907,0,0,0-.6,0c-.418.2-.836.392-1.237.63l-.535.322-1.254.742L215.073,7.99c-.669.42-1.3.868-1.972,1.287l-2.524,1.665-.418.308-1.27.938L205.713,14.5c-.435.322-.886.616-1.3.952l-1.839,1.5-5.432,4.45c-.936.756-1.788,1.581-2.674,2.379L189,28.755c-.719.658-1.437,1.3-2.156,1.973l-8.775,8.228c-1.086,1.007-2.123,2.043-3.192,3.078l-5.332,5.135c-.669.644-1.337,1.287-1.989,1.945l-4.864,4.9-3.861,3.9-.652.686-2.073,2.211L151.092,66.1l-.969,1.049c-.351.378-.669.77-1.02,1.161l-4.78,5.471-1.488,1.777c-.217.252-.435.532-.652.8l-1.254,1.567L132.406,83.8l-5.666,3.932-.769.546c.669-.63,1.32-1.259,1.972-1.9l5.014-5.051c.368-.364.735-.714,1.086-1.091l1.3-1.4,5.014-5.247c.752-.77,1.488-1.567,2.206-2.351l5.014-5.387c1.972-2.155,3.911-4.338,5.85-6.507l7.02-6.787,7.571-7.332c2.54-2.449,5.014-4.911,7.621-7.332l5.315-5.023c.819-.784,1.671-1.567,2.49-2.337l5.248-4.814c.9-.826,1.788-1.665,2.724-2.477l5.4-4.7,1.538-1.4c.451-.392.919-.756,1.387-1.119l5.014-4.058c.485-.392,1-.77,1.5-1.147l2.992-2.267c1.437-1.091,2.908-2.127,4.379-3.19.769-.56,1.671-1.091,2.39-1.637l.9-.6.284-.182,1.27-.728c.318-.182.585-.392.869-.588a.415.415,0,0,0,.134-.35,1.211,1.211,0,0,0-.4-.63,1.869,1.869,0,0,0-1.671-.6L217.2.126a2.5,2.5,0,0,0-.485.238c-.251.14-.468.294-.7.434l-.568.378-1.337.9-.217.14-1.671.966-3.059,1.791c-.552.322-1.07.672-1.671,1.007l-3.343,2.113c-.418.266-.852.532-1.254.812l-5.532,3.974c-1.22.854-2.357,1.777-3.51,2.673l-3.008,2.337c-.4.308-.819.6-1.187.924l-4.8,4.114-2.139,1.833-.234.21-.635.6Zm1.521,1.735c.351-.336.7-.686,1.07-1.007l.3-.252-1.454,1.4.084-.084ZM149.254,70.664l1.889-2.1.552-.616,8.357-8.8.585-.588,1.989-1.987,5.315-5.331c.7-.7,1.387-1.4,2.106-2.1l4.713-4.506,4.5-4.31c.769-.742,1.554-1.4,2.34-2.183l5.532-5.163c.819-.756,1.671-1.525,2.44-2.267l8.758-7.836.3-.252.986-.8,2.758-2.379,2.724-2.225c.318-.266.635-.532.969-.784l4.262-3.092L212,12.16c.384-.28.819-.546,1.237-.812,1.036-.672,2.056-1.4,3.109-2.029l-1.671,1.525-3.109,2.8-8.507,7.766-.919.84-2.29,2.113-5.014,4.73c-2.641,2.477-5.215,5.009-7.805,7.514q-1.153,1.105-2.256,2.239l-5.131,5.219c-.7.714-1.421,1.4-2.123,2.155l-3.794,3.3L171.3,51.633c-.318.28-.652.546-.953.826L161.438,60.7q-1.02.952-2.022,1.917l-5.165,5.037-2.323,2.309c-.284.28-.585.56-.869.854l-.234.252-4.847,3.358,3.343-3.75Zm-11.7,14.077q.3-.42.635-.812l3.226-3.988,2.657-1.833-.886.924c-.267.28-.518.574-.786.868l-.685.77-1.187,1.217c-.284.294-.585.574-.852.882l-3.493,3.862,1.387-1.889Zm41.417-37.347.167-.168,2.54-2.2c.234-.2.451-.406.685-.588l1.554-1.217,6-4.7,2.424-1.931c.267-.21.535-.448.836-.644l10.229-7.164c.953-.658,1.956-1.259,2.958-1.889l6.452-4.044c.384-.238.752-.49,1.137-.714l2.173-1.259,3.995-2.323L214.5,22.682c-1.07.784-2.156,1.553-3.242,2.323l-5.649,4.03-9.092,6.507c-.969.7-1.922,1.4-2.875,2.113l-6.067,4.492-1.254.938-.485.378-.117.084-.735.49L176.531,50Zm26.742-13.811c-3.042,2.071-6.067,4.2-9.126,6.227l-10.246,6.87c-3.343,2.281-6.769,4.576-10.162,6.856l-.786.532,2.256-1.9.635-.518,2.206-1.735,4.229-3.344,1.972-1.4.769-.5,2.641-1.693,6.151-3.96c1.07-.686,2.173-1.4,3.259-2.015l6.167-3.778,3.761-2.309.986-.6Q208,31.931,205.713,33.583Zm29.65-7.542ZM196.922,74.652c-1.07.686-2.106,1.4-3.159,2.1l-6.435,4.268c-2.925,1.945-5.783,3.96-8.658,5.947l-2.607,1.805-.8.56-4.646,3.288q1.571-1.4,3.159-2.8l9.61-8.4.618-.518,2.073-1.735,5.9-5.009,3.51-2.938.836-.658,2.307-1.833,6.117-4.856,2.307-1.833.836-.658,10.028-7.514c.819-.616,1.671-1.231,2.457-1.819l5.215-3.694,8.14-5.765,6.368-4.478c.953-.672,1.905-1.4,2.858-2.015l3.677-2.673-4.73,3.834c-.936.756-1.839,1.525-2.758,2.295l-5.716,4.8c-2.624,2.2-5.215,4.436-7.805,6.675l-2.44,2.141-1,.854-3.527,3.162-5.5,4.939c-.685.616-1.354,1.231-2.022,1.847l-4.864,4.59-9.477,6.017Zm20.742-12.9-1.5.91,4.847-4.338,2.34-2.085c.284-.252.568-.518.869-.77l9.293-7.934,1-.854-3.978,3.582-2.323,2.113-8.658,7.99-.819.77-1.036.63Zm-40.648,39.7c.234-.266.5-.532.735-.784l4.88-5.177c.869-.924,1.671-1.861,2.624-2.8l8.557-8.732c.769-.8,1.571-1.567,2.357-2.351l5.365-5.3c.769-.756,1.521-1.525,2.307-2.267l4.463-4.2.786-.756.635-.406,1.02-.616,1.22-.728q-7.638,7.346-15.193,14.748-8.223,8.1-16.5,16.19l-3.443,3.372.167-.2Zm10.028-7c5.014-4.856,9.911-9.795,14.892-14.581l7.438-7.108c1.354-1.4,2.858-2.8,4.279-4.2l3.008-2.8,3.861-3.6,1.1-.672,10.831-6.129,1-.56,1.855-.979,7.07-3.736,2.139-1.119,1.12-.56,6.869-3.4c.435-.21.869-.434,1.32-.644l3.008-1.4,3.343-1.5c.635-.28,1.287-.546,1.922-.812l1.036-.434-1.437.938-3.343,2.169-1.671,1.077-4.847,3.246-2.975,1.987-1,.672-9.677,6.745-1.07.77-2.791,2-5.85,4.2c-.852.616-1.671,1.245-2.524,1.861l-6.184,4.618c-.936.686-1.872,1.4-2.774,2.085l-.936.756-2.189,1.567-4.6,3.288c-1.02.728-2.022,1.469-3.025,2.211l-6.284,4.59c-.869.63-1.671,1.259-2.591,1.9l-10.246,7.7-1.17.91Zm-21.444,21.1,4.262-3.89c.936-.854,1.922-1.651,2.891-2.477l5.449-4.632c.836-.7,1.671-1.4,2.557-2.057l5.984-4.73c.819-.658,1.671-1.315,2.49-1.959l1.671-1.315-4.178,3.722c-.9.812-1.788,1.637-2.691,2.449l-5.382,4.939c-2.54,2.323-5.014,4.674-7.571,7l-2.574,2.351-1.07.979c-.518.462-1,.938-1.538,1.4l-2.407,2.1-.585.518-.635.574c.134-.35.3-.686.451-1.021a20.1,20.1,0,0,1,1.354-2.239l-.1.14.836-1.231.669-.658ZM186.492,111,189,108.388c.284-.294.552-.588.852-.868l4.63-4.492,2.206-2.141.669-.63.134-.126,4.563-3.3,2.992-2.127,6.251-4.436,5.4-3.82-5.014,4.2-4.8,4.086c-.936.8-1.889,1.581-2.841,2.379l-5.649,4.716c-.9.742-1.805,1.483-2.724,2.211l-5.4,4.338c-1.32,1.063-2.708,2.1-4.061,3.148l-1.12.868,1.337-1.4Zm44.124-36.927c-3.075,2.155-6.167,4.3-9.226,6.465l-3.894,2.8,9.443-7.3c.919-.714,1.855-1.4,2.791-2.1l6.284-4.716c1.053-.8,2.106-1.6,3.176-2.379l4.329-3.12,1.437-1.035-4.814,3.918-2.674,2.085-.953.77-3.042,2.575-2.925,2.043Zm44.643-19.352c-.351.266-.719.532-1.07.8l-8.725,6.423-4.011,2.925c.869-.686,1.671-1.4,2.624-2.057l5.6-4.2,1.956-1.4c.451-.336.936-.644,1.4-.966l2.975-2.043-.735.574Zm-54.587,62.016.953-.854,2.474-2.155,4.4-3.9,1.22-.868,6.418-4.59,2.29-1.637.669-.476,10.9-7.29,2.373-1.553,6.4-4.072,1.538-.98L253.615,93l-4.446,3.036c-1.387.966-2.758,1.945-4.128,2.924l-5.549,3.932c-1.02.714-2.006,1.4-3.008,2.183-2.891,2.1-5.783,4.2-8.641,6.325l-6.1,4.576-1.671,1.217.451-.42Z" transform="translate(-106.849 -0.001)" fill="#4f4f4f"/>
            </g>
            <g id="Group_20" data-name="Group 20" transform="translate(-40.044 199.284)" opacity="0.6">
              <path id="Path_76" data-name="Path 76" d="M138.6,225.828l-6.936-2.8c-1.554-.644-3.159-1.2-4.763-1.791-.685-.252-1.371-.532-2.073-.77l-2.858-1.036c-1.538-.518-3.059-1.035-4.613-1.539-3.677-1.189-7.354-2.393-11.048-3.568l-10.179-3.26-2.323-.91q-5.39-2.1-10.8-4.2c-3.61-1.4-6.8-2.6-10.212-3.89-1.772-.672-3.56-1.3-5.332-1.959L63.037,198.5c-1.772-.63-3.51-1.273-5.3-1.889l-3.46-1.189-2.24-.77c-1.972-.644-3.911-1.315-5.9-1.931l-3.042-.979-.9-.266-1.972-.84-2.173-.979-.485-.266c-.451-.252-.936-.476-1.4-.7l-2.925-1.4-.7-.35-.919-.462a10.114,10.114,0,0,0-1.755-.784.686.686,0,0,0-.552,0,1.5,1.5,0,0,0-.518.5c-.284.462-.234.91,0,1.063,1.32.658,2.674,1.287,4.028,1.917l3.192,1.6,1.354.714,3.426,1.847,2.424,1.3c.5.266.986.56,1.471.84l6.184,3.54c1.354.77,2.674,1.567,4.011,2.351l4.9,2.869.535.308-.986-.252-6.686-1.665-2.457-.588c-1.17-.266-2.34-.532-3.527-.756q-1.028-.189-2.056-.336c-.685-.1-1.12-.112-1.671-.154l-.685-.2L38.4,199.549l-2.49-.658-1.437-.378-1.571-.406-.786-.154a9.646,9.646,0,0,0-1.153-.084,1.065,1.065,0,0,0-.769.518c-.184.294-.2.784,0,.91l.769.406a7.278,7.278,0,0,0,.836.35q.94.34,1.922.588c1.1.294,2.24.546,3.343.826l2.774.714,4.112,1.063.284.112,1.538.63,2.139.854c1.671.672,3.343,1.4,5.014,1.987l10.8,4.114,6.686,2.547c1.254.476,2.49.994,3.727,1.5L79.149,217l-1.086-.294c-1.187-.322-2.357-.658-3.56-.924l-7.387-1.651c-1.4-.322-2.808-.658-4.229-.952l-6.569-1.4-2.29-.448-1.521-.266-3.644-.644c-.568-.1-1.137-.21-1.671-.294l-3.343-.476a6.128,6.128,0,0,1-1.237-.2l-.568-.112a3.748,3.748,0,0,0-.869,0h-.1a1.085,1.085,0,0,0-.468.126l-.318.126-.669.392a1.269,1.269,0,0,0-.535.616v.14l-3.794-1.553c-.318-.126-.819.126-1.1.6s-.251.966,0,1.091c1.17.5,2.34.979,3.527,1.4l4.88,1.973a24.085,24.085,0,0,0,2.791,1.4c.535.266,1.053.546,1.671.8l1.036.49,6.686,3.12c1.187.56,2.407,1.077,3.61,1.609l6.853,3.022c3.493,1.539,7.02,3.064,10.53,4.59l9.761,4.2,9.059,3.974c3.343,1.469,6.686,2.925,10.028,4.422l.7.322L108.6,244c.886.434,1.772.868,2.641,1.315l6.1,3.19,6.017,3.148c.953.49,1.855,1.035,2.791,1.553l6.9,3.918c1.036.588,2.089,1.161,3.109,1.777l9.209,5.709.6.392,2.273,1.525,3.961,2.645.886.644-8.708-5.051c-3.343-1.9-6.585-3.75-9.878-5.6-1-.574-2.006-1.133-3.025-1.693l-6.686-3.6-2.658-1.553-.836-.448-5.432-2.8-6.218-3.176c-.919-.476-1.855-.91-2.791-1.4l-7.187-3.442-2.958-1.4-1.086-.518-11.8-5.359c-.9-.406-1.788-.826-2.708-1.217l-6.569-2.8-5.7-2.449-.836-.336-2.925-1.175-7.12-2.8-1.187-.49-2.373-.868-6.6-2.393c-.535-.2-1.07-.35-1.671-.532l-3.844-1.245c-.936-.308-1.872-.588-2.825-.882l-2.19-.658-1.27-.392a9.988,9.988,0,0,0-1.053-.252,5.639,5.639,0,0,0-1.471,0,.8.8,0,0,0-.4.112,1.5,1.5,0,0,0-.535.532.89.89,0,0,0,0,1.008l.585.672a5.375,5.375,0,0,0,.635.616c.2.168.435.322.652.476s.552.35.819.518c1.22.714,2.541,1.259,3.811,1.889.618.308,1.254.588,1.889.882l6.167,2.8,10.028,4.646,1.187.56,3.192,1.539,6.435,3.078c1.036.49,2.056,1.021,3.075,1.539l7.087,3.554c5.95,2.98,11.833,6.073,17.767,9.1l22.447,11.5c3.025,1.553,6,3.19,8.992,4.8l5.165,2.8.819.476,2.724,1.6,6.585,3.834c.4.238.836.462,1.237.714l1.671,1.091,6.117,3.9,1.07.714,3.109,2.155,1.354.938.234.182c-.7-.322-1.4-.672-2.089-1.022-1.1-.56-2.206-1.119-3.343-1.707l-6.535-3.582c-1.053-.574-2.106-1.147-3.125-1.735l-6.335-3.61-8.591-4.9-6.652-3.862c-.836-.476-1.671-.952-2.507-1.4l-12.285-6.633c-.786-.42-1.571-.826-2.373-1.217L96.9,250.511l-5.85-2.939c-.836-.42-1.671-.812-2.541-1.217L75.94,240.381c-.969-.462-1.956-.9-2.942-1.4l-7.354-3.316-4.262-1.917-3.092-1.4-1.554-.672c-3.343-1.4-6.686-2.925-10.028-4.352l-6.686-2.8-2.407-1.189c-.836-.406-1.671-.84-2.49-1.231l-4.4-2.029c-.953-.434-1.889-.9-2.858-1.3L25.5,217.754l-.986-.42c-.435-.182-.9-.35-1.354-.5s-.752.112-1.036.56a1.123,1.123,0,0,0-.184.63.461.461,0,0,0,.251.392,6.663,6.663,0,0,0,.735.406l.852.392,1,.462,2.357,1.077c1.671.742,3.259,1.483,4.9,2.2l3.66,1.6,2.022.882h.1l.318.154,3.476,1.735c.435.21.869.42,1.287.644l5.666,3.022,2.992,1.6.9.49,5.8,3.274,3.125,1.763,1.17.658,10.647,6.3c1.053.616,2.073,1.273,3.109,1.9l6.686,4.1c.886.546,1.755,1.077,2.624,1.637l.418.28-7.521-2.8c-1.036-.406-2.073-.812-3.109-1.2l-6.585-2.449-5.683-2.113c-1.4-.518-2.825-1.007-4.245-1.511l-7.12-2.491c-1.17-.42-2.373-.784-3.56-1.161l-7.254-2.309c-.351-.112-.7-.224-1.07-.322l-3.176-.812-4.028-1.036-1.287-.322-.7-.168-.953-.406c-1.27-.546-2.54-1.049-3.827-1.567l-3.343-1.4c-1.287-.518-2.607-1.007-3.911-1.5a1.085,1.085,0,0,0-1.137.616,1.221,1.221,0,0,0-.2.686.485.485,0,0,0,.267.434,13.439,13.439,0,0,0,1.32.574l1.086.448,2.908,1.175-.953.14H21.8a.835.835,0,0,0-.4.112,1.51,1.51,0,0,0-.568.546,1.383,1.383,0,0,0-.184.476.677.677,0,0,0,.117.56l.451.616.184.168.384.266a12.344,12.344,0,0,0,1.671.756c.4.168.8.35,1.2.532l2.958,1.315,2.139.91,3.627,1.623c3.343,1.4,6.686,2.8,9.928,4.2l3.159,1.4,1.571.672,6.468,2.8c1.07.462,2.139.938,3.192,1.4l7.337,3.26c1.02.462,2.056.9,3.075,1.4l6.151,2.869,5.967,2.8c1.053.49,2.073,1.036,3.109,1.553l3.343,1.651,3.259,1.861,6.117,3.512c.852.49,1.671.993,2.507,1.5l6.686,4.016,2.808,1.693c.351.21.7.406,1.036.63l10.5,6.842.969.658,3.025,2.141,5.432,3.862,4.178,3.19.284.21c-3.176-1.805-6.368-3.582-9.56-5.373l-8.725-4.856c-3.059-1.707-6.134-3.414-9.209-5.093l-11.7-6.367c-1.1-.6-2.24-1.161-3.343-1.735l-7.087-3.666c-.969-.5-1.922-1.021-2.925-1.5L74.7,263.889l-5.5-2.645-.652-.294-.267-.126-1.371-.6-2.256-1.147L52.825,253.2c-3.142-1.567-6.318-3.078-9.493-4.618L33.2,243.711l-5.215-2.5L25.681,240.1l-1.956-.938-.685-.336c-.5-.238-1.036-.448-1.554-.672s-.836.14-1.137.6a1.328,1.328,0,0,0-.334.56.5.5,0,0,0,.267.434,10.785,10.785,0,0,0,1.1.658l.368.168,1.671.8,2.424,1.133,5.967,2.715,1.471.672,2.323,1.133,6.134,3.022-1.5-.546-1.387-.5-1.588-.546-1.671-.532c-.535-.168-1.086-.308-1.671-.434q-.43-.1-.869-.154h-1.07a1.3,1.3,0,0,0-1,.686,1.45,1.45,0,0,0-.2.5.654.654,0,0,0,.117.588,16.469,16.469,0,0,0,1.354.979,17.486,17.486,0,0,0,1.671.9l1.17.63,2.724,1.469,2.206,1.147,3.343,1.721c1.387.728,2.791,1.4,4.2,2.113l3.56,1.791,1.671.812L63.856,265.9l3.343,1.609,7.187,3.372c6.2,2.924,12.452,5.779,18.653,8.7l4.513,2.127,1.036.616,6.686,4.016c1.086.644,2.19,1.287,3.343,1.945l10.563,6.465,1.17.742,3.142,2.015,3.176,2.043,1.27.812,5.382,3.61c.752.5,1.488,1.007,2.206,1.525l-2.774-1.4-3.476-1.707c-.4-.2-.819-.392-1.22-.6l-9.61-5.107-6.067-3.2-3.159-1.665-1.17-.616-11.282-5.6c-.986-.5-2.006-.966-3.025-1.4l-7.22-3.386c-1.07-.5-2.139-1.022-3.226-1.5l-5.883-2.561-6.552-2.8c-.919-.406-1.872-.784-2.808-1.161l-7.421-2.994-3.059-1.231-1.07-.434-12.118-4.66-3.192-1.189-7.421-2.8c-3.343-1.217-6.6-2.407-9.895-3.61l-5.231-1.9-2.123-.784-1.538-.56-.769-.294c-.3-.126-.618-.238-.936-.35a4.594,4.594,0,0,0-1.187-.182,1.12,1.12,0,0,0-.852.588v.112q-5.014-1.861-10.028-3.736c-.284-.112-.719.112-.969.532s-.234.854,0,.966q1.554.63,3.109,1.217c.719.28,1.437.546,2.156.84l5.014,2.029a.407.407,0,0,0,.117.266,11.713,11.713,0,0,0,1.137.979,14.441,14.441,0,0,0,1.671.994c.618.308,1.12.588,1.671.868l1.153.588,2.357,1.175,4.964,2.477,5.816,2.8c1.287.63,2.574,1.245,3.844,1.889l6.284,3.19c1.32.672,2.657,1.315,3.978,2.015l11.014,5.807c1.254.658,2.49,1.4,3.727,2.015l6.686,3.638c3.159,1.707,6.284,3.47,9.427,5.219,1.187.658,2.407,1.315,3.577,1.987l5.382,3.078,5.6,3.2c1.187.686,2.357,1.4,3.543,2.113l5.3,3.162c.719.434,1.437.854,2.139,1.3l3.677,2.379,3.543,2.575,2.975,2.155,1.1.811,9.243,7,.217.168a14.652,14.652,0,0,1-1.454-.476c-.6-.224-1.187-.49-1.772-.756l-1.036-.462L113.245,315l-3.259-1.525-1.036-.532-6.385-3.512-1.671-.924c-.518-.294-1.036-.6-1.538-.91-3.192-1.875-6.385-3.75-9.577-5.6l-6.686-3.89-1.671-.966c-.4-.224-.819-.434-1.22-.644l-6.8-3.61-2.691-1.4-.786-.406-11.833-5.6c-1.07-.5-2.173-.98-3.242-1.4l-6.686-2.952-6.8-3.638c-2.106-1.133-4.245-2.225-6.368-3.33a.765.765,0,0,0,.184-.21c.15-.238.117-.476,0-.546L27.5,269.346c-1.4-.742-2.791-1.5-4.2-2.2l-6.686-3.316c-.535-.266-1.07-.56-1.671-.812l-2.373-1.105L9.5,260.306c-1.153-.532-2.323-1.035-3.493-1.539a.661.661,0,0,0-.735.294c-.217.294-.384.784-.184.951a4.242,4.242,0,0,0,.518.406l.836.462,1.187.588,1.287.672,2.39,1.245,5.783,2.995c3.192,1.651,6.385,3.274,9.594,4.911l5.482,2.8-.786-.308-3.343-1.329-5.95-2.351-1.671-.616-3.777-1.4c-3.125-1.217-6.251-2.435-9.343-3.694-.318-.126-.819.126-1.1.6s-.251.966,0,1.105l11.583,5.023,1.237.532c1.02.448,2.056.882,3.059,1.4l6.585,3.064c1.153.532,2.323,1.063,3.443,1.637l6.686,3.414c1.153.588,2.306,1.161,3.426,1.777l6.218,3.386c1.354.742,2.724,1.4,4.078,2.211l5.3,2.966,5.3,2.966c1.32.742,2.624,1.511,3.944,2.281,3.092,1.777,6.184,3.554,9.259,5.359s6.351,3.722,9.51,5.6l6.452,3.834c1.254.742,2.507,1.469,3.744,2.225L106.175,320l.735.476,2.173,1.4,4.546,2.939c.8.518,1.571,1.064,2.357,1.6l3.593,2.491,6.686,4.911a.434.434,0,0,0,.435.1,1.075,1.075,0,0,0,.5-.336,1.294,1.294,0,0,0,.3-.588.522.522,0,0,0-.1-.462c-.518-.434-1.036-.868-1.554-1.287l-1.5-1.189c-.669-.518-1.354-1.021-2.022-1.539s-1.2-.924-1.822-1.4l-2.674-1.889-2.49-1.763c-.418-.294-.836-.56-1.27-.84l-3.142-2.141-2.323-1.707-3.861-2.7-3.176-2.225-1.287-.91-10.028-6.745-.836-.532-2.641-1.693-6.569-4.2c-.819-.532-1.671-1.049-2.474-1.567l-6.117-3.736-2.524-1.539h0L80,298.731l.786.448,2.741,1.539,6.351,3.694c3.176,1.847,6.351,3.736,9.51,5.6,1.22.714,2.49,1.4,3.727,2.085l5.3,2.925.451.224,1.287.616,3.46,1.693,2.123,1.022.3.126.919.378c.585.266,1.17.5,1.772.728a11.289,11.289,0,0,0,1.755.462,4.312,4.312,0,0,0,.969,0,3.546,3.546,0,0,0,1-.1.9.9,0,0,0,.435-.112l.167-.1,1.437,1.035c.6.434,1.2.882,1.822,1.315l1.354.938c.552.378,1.137.728,1.671,1.077a.7.7,0,0,0,.618-.07,1.575,1.575,0,0,0,.585-.574,1.983,1.983,0,0,0,.334-1.008,3.254,3.254,0,0,0-.117-.6l-.084-.182a2.662,2.662,0,0,0-.2-.322,2.055,2.055,0,0,0-.3-.294,4.916,4.916,0,0,0-.518-.364c-.351-.238-.735-.434-1.086-.672-1.671-1.3-3.343-2.575-5.014-3.876-1.2-.937-2.44-1.805-3.677-2.7l-3.192-2.309-1.521-1.105-4.747-3.316-3.008-2.1-1.1-.77-5.014-3.372-4.73-3.2-1.153-.742-2.975-1.917-5.883-3.736c-.936-.616-1.905-1.189-2.875-1.763l-6.686-4.086c-.936-.56-1.855-1.147-2.808-1.693l-11.2-6.451-.886-.476-2.808-1.5L52.407,271.5l-1.521-.812-1.287-.644-4.379-2.183,1.671.714,2.223.951,5.532,2.5,4.429,2,1.153.546,2.975,1.4,7.22,3.442c.953.448,1.905.9,2.841,1.4l12.051,6.073c.969.49,1.939,1.007,2.891,1.511l7.02,3.624c1.02.532,2.039,1.064,3.059,1.623l6.05,3.316,4.83,2.645c1.471.812,2.942,1.637,4.412,2.463l9.778,5.443c2.089,1.161,4.162,2.351,6.284,3.456l4.646,2.5,1.153.6c.719.378,1.4.826,2.139,1.189a4.189,4.189,0,0,0,1.036.35,3.426,3.426,0,0,0,.618.1h.267a2.236,2.236,0,0,0,.468-.1,1.337,1.337,0,0,0,.735-.6c.217-.35.284-.812,0-.993l-.719-.63c-.15-.126-.334-.294-.485-.42l-.418-.294-1.671-1.161c-.669-.476-1.354-.91-2.022-1.4l-1.588-1.049c-.234-.154-.451-.322-.7-.462l-2.306-1.4-3.243-1.931-1.07-.616-6.184-3.442-2.089-1.133-1.1-.56-6.836-3.47c-1.153-.588-2.307-1.189-3.476-1.763l-6.034-2.952q-9.711-4.758-19.472-9.431L74.753,278.8l-4.112-1.917L67.3,275.307l-1.187-.546-6.468-2.8L55.75,270.3,48.7,267.3l-3.242-1.4-1.287-.532-.518-.21-4.7-1.973,5.014,1.889,7.271,2.8,3.176,1.217,1.137.434,12.184,4.911,1.437.574,1.22.532,6.97,3.022,5.181,2.253.986.476,2.891,1.4,7.137,3.316c.919.434,1.855.868,2.758,1.329L103,290.7l3.075,1.553,1.12.56,10.58,5.6c3.176,1.679,6.318,3.4,9.493,5.093.552.294,1.12.56,1.671.826l3.61,1.791,2.407,1.189.652.308,1.755.84a15.15,15.15,0,0,0,1.822.7,6.389,6.389,0,0,0,.819.21,2.753,2.753,0,0,0,.552,0h.568a1.339,1.339,0,0,0,.986-.672.927.927,0,0,0,0-1.063l-.618-.6a5.29,5.29,0,0,0-.435-.392l-.384-.294-1.538-1.147c-.652-.49-1.337-.952-2.006-1.4s-1.4-1.021-2.123-1.5l-2.34-1.413c-1.354-.91-2.674-1.819-4.045-2.7l-6.084-3.89-.234-.154,1.086.574,6.05,3.176c1.254.658,2.49,1.4,3.777,1.945l5.2,2.519,1.354.658.886.42c.485.238.969.476,1.471.686a8.706,8.706,0,0,0,1.12.406l2.958,1.735c.7.42,1.437.8,2.156,1.189l1.872,1.035.5.28c.418.224.852.406,1.287.6s.769,0,1.1-.448.568-1.147.267-1.4a4.394,4.394,0,0,0-.568-.476l-.15-.1-.752-.49-.969-.616-2.19-1.4-2.474-1.511a.464.464,0,0,0-.1-.168c-.3-.294-.585-.616-.9-.882l-.535-.448-1.086-.9-2.423-1.959c-1.437-1.147-2.875-2.281-4.312-3.428-.451-.364-.9-.7-1.371-1.035l-3.142-2.393-1.972-1.5c-.418-.322-.869-.616-1.3-.924l-2.156-1.539.518.308,6.452,3.946c2.942,1.805,5.833,3.666,8.758,5.513l2.658,1.735q.8.5,1.671.966.809.43,1.671.784a.906.906,0,0,0,1-.406,1.555,1.555,0,0,0,.368-.714v-.224a.55.55,0,0,0-.134-.35c-.167-.252-.318-.49-.485-.728a5.766,5.766,0,0,0-.652-.672l-.752-.714-1.27-1.231-1.671-1.553-2.624-2.435c-.451-.42-.936-.812-1.387-1.217l-2.992-2.6c-.4-.336-.786-.7-1.187-1.021l-5.3-4.282c-.969-.784-1.939-1.581-2.925-2.337l-5.9-4.492-2.54-1.931-.752-.574L115,270.311c2.223.952,4.429,1.9,6.686,2.8l7.27,3.2c1.07.476,2.139.938,3.192,1.4l6.686,3.064c1.254.574,2.524,1.147,3.777,1.735l8.541,4.03c1.3.616,2.624,1.189,3.928,1.791L157.4,289.4c1.086.49,2.223.9,3.343,1.329a.915.915,0,0,0,.886-.238,1.828,1.828,0,0,0,.4-.462,1.466,1.466,0,0,0,.234-.784v-.266a.625.625,0,0,0-.15-.392l-.15-.21-.368-.28c-.351-.182-.735-.308-1.086-.5l-1.521-.854-1.02-.574,1.2.462c.852.308,1.755.518,2.641.784a.671.671,0,0,0,.451,0,1.35,1.35,0,0,0,.485-.266,1.863,1.863,0,0,0,.652-1.049v-.742a2.555,2.555,0,0,0,0-.448,3.058,3.058,0,0,0-.234-.406l-.15-.2a2.477,2.477,0,0,0-.384-.322c-.251-.182-.518-.35-.786-.518l-2.49-1.833c-.518-.392-1.07-.756-1.671-1.133l-3.042-2c-.435-.294-.852-.6-1.3-.882l-5.833-3.652-2.223-1.4-.9-.532-6.368-3.652-3.008-1.721c-.384-.224-.752-.448-1.153-.658l-11.332-5.989c-3.008-1.581-6.05-3.092-9.092-4.632l-8.608-4.352-10.48-5.289-11.817-6.017c-3.242-1.651-6.5-3.246-9.744-4.855-1.153-.574-2.29-1.161-3.443-1.707l-5.967-2.8-5.1-2.421-1.4-.644-3.426-1.679L42.73,220.679l-2.407-1.105-1.671-.8c-.652-.308-1.3-.63-1.939-.965l1.671.476c.719.21,1.437.42,2.156.644l6.117,1.987.418.154,1.337.49,3.811,1.4,3.159,1.147.936.35,6.552,2.617,3.343,1.4c.468.182.936.364,1.387.56l11.7,5.079,2.607,1.147,6.8,3.106,5.6,2.547c1.07.49,2.123,1.007,3.176,1.525l7.271,3.5,2.607,1.259.752.364,11.7,5.989c1,.518,2.006,1.077,2.992,1.623l6.819,3.736c3.226,1.763,6.4,3.61,9.594,5.429s6.452,3.75,9.661,5.6l3.56,2.085,3.443,2.029c.535.308,1.053.644,1.671.938l3.226,1.791,1.671.9a24.138,24.138,0,0,0,2.29,1.021,1.026,1.026,0,0,0,1.153-.462,1.8,1.8,0,0,0,.418-.826v-.252a.636.636,0,0,0-.15-.406,2.479,2.479,0,0,0-.769-.882c-.3-.252-.635-.476-.953-.714l-.836-.658-1.538-1.2-1.972-1.483c-.552-.42-1.1-.854-1.671-1.259l.167.112-4.864-3.358c-.535-.392-1.1-.742-1.671-1.105l-3.343-2.183-1.855-1.217c-.468-.308-.953-.588-1.437-.882l-5.482-3.358,2.29,1.133.869.448,3.042,1.567,5.014,2.673c1.2.644,2.373,1.315,3.56,1.973,2.791,1.553,5.6,3.12,8.357,4.758a.678.678,0,0,0,.6-.07,1.491,1.491,0,0,0,.769-1.259v-.2a.44.44,0,0,0-.234-.252c-.485-.308-.953-.63-1.437-.924l-1.588-.951-1.671-.966-.769-.462-5.549-3.134c-.552-.308-1.1-.644-1.671-.937l-1.889-1.008-6.518-3.442c-1.153-.616-2.307-1.2-3.476-1.791l-6.686-3.414-3.109-1.553-7.087-3.5c-3.159-1.567-6.351-3.064-9.544-4.576l-4.83-2.295-1.137-.518-3.059-1.4-7.1-3.344L94.392,233.9l-12.134-5.345-3.744-1.539-7.271-3.092-4.68-1.973-3.343-1.4c-1.12-.49-2.24-.994-3.343-1.4l-6.869-2.8c-1.254-.518-2.507-1.035-3.777-1.525l-6.9-2.673-.234-.1h0a6.184,6.184,0,0,1-.7-.658l-.435-.476h.418a5.872,5.872,0,0,1,.852.154l.719.112,1.454.21,1.805.266.719.112,6.117,1.091,1.086.21,3.226.658,5.432,1.119,11.7,2.687c.435.1.852.224,1.287.35l3.493.937,7.22,1.945c.836.224,1.671.49,2.49.742l1.1.644c3.109,1.819,6.2,3.652,9.293,5.471,1.187.7,2.373,1.4,3.543,2.1l5.014,3.036,8.641,5.149c3.209,1.959,6.418,3.946,9.644,5.891l6.2,3.722c1.237.742,2.457,1.5,3.694,2.211,3.192,1.861,6.368,3.736,9.594,5.6l9.193,5.205,3.995,2.211,1.671.909,1.387.742.685.378a6.729,6.729,0,0,0,.886.434h.234l.418.07a.836.836,0,0,0,.418-.112,1.575,1.575,0,0,0,.568-.56,1.416,1.416,0,0,0,.2-.49.63.63,0,0,0-.117-.574c-.6-.476-1.187-.966-1.822-1.4l-1.3-.826-2.758-1.763-1.671-1.021-3.343-2.085-3.761-2.365-3.343-2.155c-.552-.35-1.1-.686-1.671-1.049l-4.68-3.078,5.014,2.8c1.2.7,2.423,1.4,3.644,2.071l6.418,3.582c2.908,1.623,5.85,3.19,8.791,4.772,2.123,1.147,4.245,2.281,6.351,3.456.284.154.769-.14,1.02-.546a1.125,1.125,0,0,0,.184-.616.461.461,0,0,0-.251-.392q-4.613-2.924-9.059-6.045L152.823,249.8c-.334-.238-.669-.476-1.02-.7l-2.106-1.4-6.4-4.2-.9-.574-.3-.2-1.488-.854L133.92,238l-2.691-1.553c-.267-.154-.535-.322-.819-.462l-.886-.448,5.2,2.085c1.354.546,2.674,1.119,3.995,1.679l5.532,2.337c1.889.8,3.744,1.623,5.616,2.435l10.4,4.534,4.061,1.9,3.109,1.329,1.2.532a16.113,16.113,0,0,0,1.671.728,4.147,4.147,0,0,0,.769.182,1.431,1.431,0,0,0,.6,0l.468-.07a1.321,1.321,0,0,0,.852-.993.557.557,0,0,0-.1-.5c-.351-.28-.685-.574-1.036-.826l-.5-.35-1.187-.812-2.591-1.707c-.652-.434-1.337-.826-2.006-1.245L163,245.18l-.468-.252-1.421-.784-3.476-1.931c-.485-.266-.953-.56-1.437-.8l-2.206-1.077-6.569-3.2c-1.12-.546-2.29-1.035-3.443-1.539l-7.2-3.162-2.841-1.217L122.154,226.3c-1.454-.6-2.925-1.175-4.379-1.763l-7.321-2.952c-.919-.378-1.839-.742-2.774-1.091l-6.936-2.631-5.516-2.1-.969-.336-3.092-1.091-7.4-2.6-1.454-.518c-.518-.182-1.07-.336-1.671-.518l-7.555-2.407-2.44-.784-1.086-.308-2.139-.6-8.959-5.359-6.034-3.54-.819-.476,2.708,1.091,7.17,2.8,1.538.6,1.905.7L72.3,205.1c1.086.392,2.19.784,3.343,1.161l7.521,2.561c3.008,1.021,6.034,2.015,9.042,3.008l9.711,3.834,10.446,4.2q5.24,2.1,10.463,4.2l7.2,2.966c1.12.462,2.24.91,3.343,1.4L140.3,231.4c1.187.518,2.39,1.007,3.56,1.539l6.836,3.12,1.955.9c.568.252,1.1.546,1.671.826l5.9,2.939c.585.294,1.137.6,1.671.91l3.527,1.889c1.671.868,3.226,1.791,4.83,2.687.852.476,1.671.994,2.524,1.5l.936.574.284.182,1.17.84c.284.2.6.364.9.546a.651.651,0,0,0,.435,0,1.485,1.485,0,0,0,.685-.462,1.225,1.225,0,0,0,.284-1.4l-.15-.154a2.207,2.207,0,0,0-.4-.336c-.217-.168-.451-.308-.685-.462l-.585-.364-1.387-.854-.217-.14-1.538-1.077-2.858-2c-.518-.364-1.053-.686-1.571-1.021l-3.343-2.141c-.418-.28-.836-.546-1.27-.8l-6.084-3.526c-1.3-.756-2.674-1.4-4.011-2.127l-3.493-1.819c-.468-.238-.9-.5-1.387-.714l-6-2.8L139.82,226.4l-.3-.14-.852-.35Zm-1.671,1.693c.485.2.969.378,1.454.6l.368.168-1.939-.826h.117Zm-58.916-16.19,2.958.952.852.28,12.335,4.38.836.308,2.808,1.077,7.454,2.953c1,.378,1.989.756,2.975,1.147l6.435,2.617,6.151,2.5,3.125,1.315,7.4,3.106c1.086.462,2.173.9,3.242,1.4l11.349,5.009.368.182,1.187.588,3.493,1.721,3.343,1.609c.384.2.786.364,1.153.574l4.7,2.617,1.805,1.007c.435.238.836.518,1.254.784,1.053.658,2.123,1.3,3.159,1.973l-2.189-.924-4.112-1.763-11.182-4.828-1.22-.518-3.042-1.3-6.769-2.8c-3.543-1.483-7.137-2.883-10.714-4.324l-3.176-1.231-7.354-2.8c-1.02-.378-2.022-.77-3.042-1.147l-4.8-2.183-3.075-1.4c-.4-.182-.8-.378-1.2-.546L92.67,218.65l-2.741-1.133-7.17-2.8-3.209-1.273-1.22-.476-.351-.126-5.148-3.022Zm-19.321-5.779,1.1.294,5.449,1.553,2.808,1.665-1.3-.476-1.2-.406-1.07-.35L62.8,207.2c-.418-.154-.819-.322-1.237-.462L56.2,204.937l2.541.63Zm53.952,23.592.234.084,3.192,1.4c.284.126.585.252.852.392l1.822.938,7,3.61,2.908,1.609c.318.168.652.322.969.5l10.948,6.367c1.02.588,1.972,1.245,2.958,1.889l6.368,4.2c.368.238.769.476,1.12.742l2.039,1.4,3.727,2.617-6.234-3.442c-1.187-.658-2.357-1.4-3.527-2l-6.134-3.5-9.895-5.6c-1.053-.6-2.123-1.175-3.192-1.763l-6.786-3.722-1.4-.77-.552-.294-.134-.084-.752-.462-9.109-5.247,3.61,1.259Zm23,17.925c-3.192-1.9-6.4-3.806-9.577-5.737l-10.63-6.465c-3.527-2.141-7.053-4.2-10.58-6.395l-.819-.49,2.791,1.315.752.378,2.591,1.315,5.014,2.533,2.123,1.231.786.49,2.657,1.679,6.184,3.918c1.07.686,2.123,1.4,3.176,2.1l5.984,3.988,3.66,2.435.953.63q-2.507-1.448-5.014-2.938Zm16.513,21.955Zm-66.17-18.2c-1.07-.686-2.173-1.4-3.259-2l-6.686-4.072c-3.008-1.847-6.084-3.624-9.126-5.415l-2.774-1.637-.869-.5-5.014-2.8,4.078,1.805,12.235,5.6.769.364,2.54,1.217,7.321,3.5,4.312,2.057.986.5,2.724,1.4,7.2,3.652,2.724,1.4.986.5,11.315,6.171c.919.5,1.855.993,2.758,1.511l5.633,3.232,8.791,5.051,6.836,3.96c1.02.588,2.039,1.189,3.075,1.777l4.061,2.267-5.666-2.8c-1.12-.56-2.24-1.077-3.343-1.623l-7.037-3.344c-3.226-1.539-6.485-3.036-9.744-4.548l-3.142-1.4-1.22-.742-4.513-2.029-7.154-3.134c-.886-.392-1.772-.77-2.657-1.147l-6.686-2.729L86,250.805Zm20.341,13.349-1.454-.979,6.284,2.8,3.025,1.4,1.12.49,11.583,5.4,1.254.588-5.181-2.365-3.042-1.315L108.431,265.3l-1.1-.462-1-.672ZM49.866,241.934l1.1.392,7.254,2.589c1.3.462,2.607.91,3.894,1.4l12.335,4.59c1.12.42,2.223.854,3.343,1.287l7.521,2.939c1.07.42,2.156.826,3.209,1.259l6.034,2.519,1.07.448.635.406.986.658,1.17.784q-10.48-4.2-20.993-8.4l-23-9.039-4.8-1.889.267.084Zm10.663,6.255c6.9,2.8,13.822,5.429,20.725,8.172l10.279,4.114,5.833,2.379,4.061,1.679,5.148,2.169,1.07.714,9.928,7.122c.3.224.618.434.9.658l1.671,1.245,6.167,4.73,1.855,1.4c.318.238.618.5.936.756l5.75,4.688c.368.294.735.588,1.086.9l2.357,2.071,2.591,2.281c.5.434.969.9,1.454,1.4l.786.728-1.454-.924-3.343-2.127-1.671-1.049-5.014-3.05-3.075-1.875-1.036-.63-10.312-6.045-1.17-.658-3.042-1.735-6.368-3.61c-.936-.532-1.872-1.035-2.808-1.539l-6.953-3.778c-1.036-.574-2.073-1.161-3.142-1.693l-1.12-.56-2.373-1.4-5.014-2.8c-1.1-.63-2.223-1.245-3.343-1.861l-7.07-3.946c-.953-.532-1.905-1.063-2.875-1.6l-11.583-6.241-1.354-.7,1.5.6Zm-29.9-11.67,5.6,2.421c1.22.532,2.407,1.105,3.61,1.679l6.786,3.19c1.036.49,2.039,1.007,3.042,1.511L56.7,248.9c.969.49,1.956.98,2.908,1.5l1.972,1.063L56.2,249.07c-1.17-.518-2.357-1.007-3.527-1.525l-7.1-3.05-10.028-4.2L32.2,238.9l-1.4-.6c-.669-.294-1.354-.56-2.022-.868l-3.059-1.4-.752-.336-.836-.364a5.631,5.631,0,0,1,1.287.1,29.665,29.665,0,0,1,2.925.5h-.184l1.671.35.936.378ZM41.376,252.19l3.66,1.329,1.22.448,6.4,2.547,3.059,1.217.886.364.184.084,5.014,2.8,3.242,1.847,6.686,3.876,5.816,3.358-6.151-2.883-5.967-2.8-3.476-1.665-6.836-3.344c-1.1-.532-2.19-1.063-3.343-1.609l-6.418-3.218c-1.588-.784-3.125-1.623-4.7-2.449l-1.287-.672,1.956.714Zm54.169,25.859c-3.343-1.917-6.569-3.848-9.878-5.751l-4.212-2.421,10.9,5.709c1.053.56,2.106,1.133,3.142,1.707l7.087,3.834c1.187.644,2.39,1.273,3.577,1.931l4.747,2.673,1.571.882-5.783-2.8-3.109-1.665-1.137-.56-3.777-1.777-3.125-1.833Zm34.079,30.938-1.2-.658-9.694-5.359-4.429-2.463c1.02.518,2.056,1.021,3.059,1.567l6.284,3.372,2.19,1.189c.5.28.986.588,1.488.882l3.142,1.861-.852-.448ZM43.766,281.226l1.237.546,3.125,1.4,5.666,2.519,1.32.756L62.1,290.4l2.49,1.4.735.42,11.282,6.885,2.407,1.511,6.385,4.1,1.538.979-7.1-4.2-4.663-2.673c-1.471-.868-2.975-1.707-4.463-2.561l-6-3.442c-1.1-.63-2.206-1.231-3.343-1.847-3.176-1.777-6.351-3.568-9.56-5.3l-6.869-3.722-1.822-.979.6.252Z" transform="translate(-0.061 -185.639)" fill="#ffbb94"/>
            </g>
            <g id="Group_21" data-name="Group 21" transform="translate(208.419 105.523)" opacity="0.3">
              <path id="Path_77" data-name="Path 77" d="M218.05,270.27c-14.641,0-30.085-9.319-41.651-16.288l-.936-.56c-14.424-8.69-26.391-17.337-26.742-35.29-.134-9.137,5.449-16.148,10.847-22.92,7.087-8.9,13.789-17.309,7.321-29.763a66.764,66.764,0,0,0-4.2-6.7c-3.811-5.6-7.755-11.376-6.084-18.708,1.939-8.4,14.04-17.463,23.566-19.9,15.343-3.932,40,.364,52.515,6.661l-.435.6c-12.368-6.227-36.77-10.467-51.813-6.591-9.293,2.379-21.11,11.194-22.981,19.366-1.671,7.066,2.073,12.482,5.984,18.191a67.153,67.153,0,0,1,4.245,6.773c6.686,12.8-.184,21.367-7.4,30.434-5.332,6.689-10.831,13.615-10.7,22.528.251,16.022,9.443,24.571,26.324,34.73l.936.56c12.385,7.472,29.349,17.7,44.709,15.952l.117.7A32.3,32.3,0,0,1,218.05,270.27Z" transform="translate(-148.719 -118.632)" fill="#00386a"/>
            </g>
            <g id="Group_22" data-name="Group 22" transform="translate(-7.423 -26.894)" opacity="0.3">
              <path id="Path_78" data-name="Path 78" d="M19.731,124.343c-.852-7.293,1.889-14.561,7.588-20.122A26.218,26.218,0,0,1,45.2,97.406c3.71,0,6.953.126,9.828.266,10.463.532,16.714.84,26.876-9.977a26.536,26.536,0,0,0,5.616-10.523,32.167,32.167,0,0,1,3.493-7.864,10.742,10.742,0,0,1,7.822-5.177,34.6,34.6,0,0,0,4.329-1.4C123.023,54.784,124.56,42.792,124.711,24h.869c-.167,19.086-1.671,31.26-22.1,39.4a35.51,35.51,0,0,1-4.446,1.4,9.975,9.975,0,0,0-7.271,4.828,31.247,31.247,0,0,0-3.426,7.71,27.051,27.051,0,0,1-5.766,10.788C72.1,99.24,65.711,98.918,54.981,98.372c-2.942-.21-6.1-.308-9.761-.21a25.325,25.325,0,0,0-17.265,6.577c-5.543,5.416-8.206,12.492-7.371,19.59Z" transform="translate(-19.579 -24)" fill="#00386a"/>
            </g>
          </g>
        </g>
      </g>
    </g>
  </g>
</svg>
